<?xml version="1.0" encoding="UTF-8" standalone="no"?>
<!-- Created with Inkscape (http://www.inkscape.org/) -->

<svg
   width="10mm"
   height="10mm"
   viewBox="0 0 10 10"
   version="1.1"
   id="svg5"
   inkscape:version="1.2-alpha1 (b6a15bbbed, 2022-02-23)"
   sodipodi:docname="keeby cat mascot graphic.svg"
   xmlns:inkscape="http://www.inkscape.org/namespaces/inkscape"
   xmlns:sodipodi="http://sodipodi.sourceforge.net/DTD/sodipodi-0.dtd"
   xmlns="http://www.w3.org/2000/svg"
   xmlns:svg="http://www.w3.org/2000/svg">
  <sodipodi:namedview
     id="namedview7"
     pagecolor="#ffffff"
     bordercolor="#666666"
     borderopacity="1.0"
     inkscape:pageshadow="2"
     inkscape:pageopacity="0.0"
     inkscape:pagecheckerboard="0"
     inkscape:document-units="mm"
     showgrid="false"
     inkscape:zoom="11.313709"
     inkscape:cx="2.5632621"
     inkscape:cy="21.124815"
     inkscape:window-width="1515"
     inkscape:window-height="1041"
     inkscape:window-x="389"
     inkscape:window-y="0"
     inkscape:window-maximized="0"
     inkscape:current-layer="Layer1"
     showguides="false"
     inkscape:guide-bbox="true"
     inkscape:snap-page="true"
     units="px"
     inkscape:snap-object-midpoints="true"
     inkscape:snap-center="true"
     inkscape:snap-bbox="false"
     inkscape:snap-smooth-nodes="true"
     fit-margin-top="0"
     fit-margin-left="0"
     fit-margin-right="0"
     fit-margin-bottom="0"
     inkscape:deskcolor="#d1d1d1">
    <sodipodi:guide
       position="6.0637221,119.79129"
       orientation="-1,0"
       id="guide3372"
       inkscape:label=""
       inkscape:locked="false"
       inkscape:color="rgb(0,0,255)" />
  </sodipodi:namedview>
  <defs
     id="defs2">
    <inkscape:path-effect
       effect="mirror_symmetry"
       start_point="132.18627,607.51148"
       end_point="132.18627,152.6604"
       center_point="132.18627,380.08594"
       id="path-effect17262"
       is_visible="true"
       lpeversion="1.1"
       mode="vertical"
       discard_orig_path="false"
       fuse_paths="false"
       oposite_fuse="false"
       split_items="false"
       split_open="false"
       lpesatellites=""
       link_styles="false" />
    <inkscape:path-effect
       effect="mirror_symmetry"
       start_point="131.986,227.891"
       end_point="131.986,229.259"
       center_point="131.986,228.575"
       id="path-effect17248"
       is_visible="true"
       lpeversion="1.1"
       mode="free"
       discard_orig_path="false"
       fuse_paths="true"
       oposite_fuse="false"
       split_items="false"
       split_open="false"
       lpesatellites=""
       link_styles="false" />
    <inkscape:path-effect
       effect="mirror_symmetry"
       start_point="132.221,218.713"
       end_point="132.221,234.27181"
       center_point="132.221,226.4924"
       id="path-effect17242"
       is_visible="true"
       lpeversion="1.1"
       mode="free"
       discard_orig_path="false"
       fuse_paths="true"
       oposite_fuse="false"
       split_items="false"
       split_open="false"
       lpesatellites=""
       link_styles="false" />
    <inkscape:path-effect
       effect="mirror_symmetry"
       start_point="132.18627,611.77571"
       end_point="132.18627,156.92463"
       center_point="132.18627,384.35017"
       id="path-effect17119"
       is_visible="true"
       lpeversion="1.1"
       mode="vertical"
       discard_orig_path="false"
       fuse_paths="false"
       oposite_fuse="false"
       split_items="false"
       split_open="false"
       lpesatellites=""
       link_styles="false" />
    <inkscape:path-effect
       effect="mirror_symmetry"
       start_point="131.986,227.891"
       end_point="131.986,229.259"
       center_point="131.986,228.575"
       id="path-effect17105"
       is_visible="true"
       lpeversion="1.1"
       mode="free"
       discard_orig_path="false"
       fuse_paths="false"
       oposite_fuse="true"
       split_items="false"
       split_open="false"
       lpesatellites=""
       link_styles="false" />
    <inkscape:path-effect
       effect="mirror_symmetry"
       start_point="132.221,218.713"
       end_point="132.221,234.27181"
       center_point="132.221,226.4924"
       id="path-effect17097"
       is_visible="true"
       lpeversion="1.1"
       mode="free"
       discard_orig_path="false"
       fuse_paths="true"
       oposite_fuse="false"
       split_items="false"
       split_open="false"
       lpesatellites=""
       link_styles="false" />
    <inkscape:path-effect
       effect="mirror_symmetry"
       start_point="132.18627,611.73457"
       end_point="132.18627,156.88349"
       center_point="132.18627,384.30903"
       id="path-effect16632"
       is_visible="true"
       lpeversion="1.1"
       mode="vertical"
       discard_orig_path="false"
       fuse_paths="false"
       oposite_fuse="false"
       split_items="false"
       split_open="false"
       lpesatellites=""
       link_styles="false" />
    <inkscape:path-effect
       effect="mirror_symmetry"
       start_point="131.986,227.891"
       end_point="131.986,229.259"
       center_point="131.986,228.575"
       id="path-effect16618"
       is_visible="true"
       lpeversion="1.1"
       mode="free"
       discard_orig_path="false"
       fuse_paths="false"
       oposite_fuse="true"
       split_items="false"
       split_open="false"
       lpesatellites=""
       link_styles="false" />
    <inkscape:path-effect
       effect="mirror_symmetry"
       start_point="132.221,218.713"
       end_point="132.221,234.27181"
       center_point="132.221,226.4924"
       id="path-effect16610"
       is_visible="true"
       lpeversion="1.1"
       mode="free"
       discard_orig_path="false"
       fuse_paths="false"
       oposite_fuse="false"
       split_items="false"
       split_open="false"
       lpesatellites=""
       link_styles="false" />
    <inkscape:path-effect
       effect="mirror_symmetry"
       start_point="132.18627,567.54145"
       end_point="132.18627,112.69037"
       center_point="132.18627,340.11591"
       id="path-effect16568"
       is_visible="true"
       lpeversion="1.1"
       mode="vertical"
       discard_orig_path="false"
       fuse_paths="false"
       oposite_fuse="false"
       split_items="false"
       split_open="false"
       lpesatellites=""
       link_styles="false" />
    <inkscape:path-effect
       effect="mirror_symmetry"
       start_point="131.986,227.891"
       end_point="131.986,229.259"
       center_point="131.986,228.575"
       id="path-effect16554"
       is_visible="true"
       lpeversion="1.1"
       mode="free"
       discard_orig_path="false"
       fuse_paths="false"
       oposite_fuse="true"
       split_items="false"
       split_open="false"
       lpesatellites=""
       link_styles="false" />
    <inkscape:path-effect
       effect="mirror_symmetry"
       start_point="132.221,218.713"
       end_point="132.221,234.27181"
       center_point="132.221,226.4924"
       id="path-effect16546"
       is_visible="true"
       lpeversion="1.1"
       mode="free"
       discard_orig_path="false"
       fuse_paths="false"
       oposite_fuse="false"
       split_items="false"
       split_open="false"
       lpesatellites=""
       link_styles="false" />
    <inkscape:path-effect
       effect="mirror_symmetry"
       start_point="132.18627,617.6687"
       end_point="132.18627,162.81762"
       center_point="132.18627,390.24316"
       id="path-effect16116"
       is_visible="true"
       lpeversion="1.1"
       mode="vertical"
       discard_orig_path="false"
       fuse_paths="false"
       oposite_fuse="false"
       split_items="false"
       split_open="false"
       lpesatellites=""
       link_styles="false" />
    <inkscape:path-effect
       effect="mirror_symmetry"
       start_point="131.986,227.891"
       end_point="131.986,229.259"
       center_point="131.986,228.575"
       id="path-effect16102"
       is_visible="true"
       lpeversion="1.1"
       mode="free"
       discard_orig_path="false"
       fuse_paths="false"
       oposite_fuse="true"
       split_items="false"
       split_open="false"
       lpesatellites=""
       link_styles="false" />
    <inkscape:path-effect
       effect="mirror_symmetry"
       start_point="132.221,218.713"
       end_point="132.221,234.27181"
       center_point="132.221,226.4924"
       id="path-effect16094"
       is_visible="true"
       lpeversion="1.1"
       mode="free"
       discard_orig_path="false"
       fuse_paths="false"
       oposite_fuse="false"
       split_items="false"
       split_open="false"
       lpesatellites=""
       link_styles="false" />
    <inkscape:path-effect
       effect="mirror_symmetry"
       start_point="132.14374,-168.03624"
       end_point="132.14374,331.96377"
       center_point="132.14374,81.963763"
       id="path-effect13471"
       is_visible="true"
       lpeversion="1.1"
       mode="vertical"
       discard_orig_path="false"
       fuse_paths="false"
       oposite_fuse="false"
       split_items="false"
       split_open="false"
       lpesatellites=""
       link_styles="false" />
    <inkscape:path-effect
       effect="mirror_symmetry"
       start_point="132.18627,585.28064"
       end_point="132.18627,130.42956"
       center_point="132.18627,357.8551"
       id="path-effect3726"
       is_visible="true"
       lpeversion="1.1"
       mode="vertical"
       discard_orig_path="false"
       fuse_paths="false"
       oposite_fuse="false"
       split_items="false"
       split_open="false"
       lpesatellites=""
       link_styles="false" />
    <inkscape:path-effect
       effect="mirror_symmetry"
       start_point="131.986,227.891"
       end_point="131.986,229.259"
       center_point="131.986,228.575"
       id="path-effect3564"
       is_visible="true"
       lpeversion="1.1"
       mode="free"
       discard_orig_path="false"
       fuse_paths="true"
       oposite_fuse="false"
       split_items="false"
       split_open="false"
       lpesatellites=""
       link_styles="false" />
    <inkscape:path-effect
       effect="mirror_symmetry"
       start_point="132.221,218.713"
       end_point="132.221,234.27181"
       center_point="132.221,226.4924"
       id="path-effect3104"
       is_visible="true"
       lpeversion="1.1"
       mode="free"
       discard_orig_path="false"
       fuse_paths="true"
       oposite_fuse="false"
       split_items="false"
       split_open="false"
       lpesatellites=""
       link_styles="false" />
  </defs>
  <g
     inkscape:label="Layer 1"
     inkscape:groupmode="layer"
     id="layer1"
     transform="translate(-60.082111,-115.32408)">
    <g
       id="Layer1"
       transform="matrix(0.26458333,0,0,0.26458333,31.165233,44.459588)">
      <g
         id="path16606"
         transform="matrix(2,0,0,2,-109.03922,-207.06693)" />
      <g
         id="path17286"
         transform="matrix(2,0,0,2,-371.83022,-551.12264)">
        <path
           d="m 244.664,410.486 c -0.093,-0.004 -0.185,0.01 -0.273,0.039 -0.267,0.089 -0.464,0.32 -0.508,0.598 0,0 -0.532,3.336 -0.658,4.121 -0.017,0.107 -0.068,0.205 -0.146,0.279 -0.419,0.4 -1.79,1.708 -1.79,1.708 -0.249,0.237 -0.306,0.617 -0.137,0.917 0,0 0.34,0.601 0.551,0.976 0.1,0.177 0.081,0.398 -0.048,0.555 -0.288,0.351 -0.766,0.934 -0.766,0.934 -0.111,0.136 -0.172,0.305 -0.172,0.48 0,0.258 0.132,0.499 0.349,0.638 0,0 0.737,0.47 1.168,0.745 0.18,0.116 0.266,0.335 0.21,0.542 -0.098,0.371 -0.241,0.906 -0.241,0.906 -0.017,0.064 -0.026,0.129 -0.026,0.195 0,0.415 0.342,0.756 0.756,0.756 h 1.752 c 0.125,0 0.245,0.047 0.336,0.132 0.423,0.396 1.649,1.54 1.649,1.54 0.14,0.13 0.324,0.203 0.516,0.203 h 1.197 c 0.071,0 0.14,0.015 0.205,0.045 0.286,0.131 1.107,0.506 1.107,0.506 0.2,0.091 0.43,0.091 0.629,0 0,0 0.821,-0.375 1.108,-0.506 0.064,-0.03 0.134,-0.045 0.204,-0.045 0.313,0 1.2,0 1.2,0 0.191,0 0.376,-0.073 0.516,-0.203 0,0 1.224,-1.144 1.647,-1.539 0.091,-0.086 0.211,-0.133 0.336,-0.133 h 1.751 c 0.415,0 0.756,-0.341 0.756,-0.756 0,-0.066 -0.009,-0.132 -0.026,-0.195 0,0 -0.142,-0.535 -0.241,-0.906 -0.055,-0.207 0.03,-0.426 0.211,-0.542 0.43,-0.275 1.167,-0.746 1.167,-0.746 0.218,-0.138 0.35,-0.379 0.35,-0.637 0,-0.175 -0.061,-0.345 -0.172,-0.48 0,0 -0.478,-0.581 -0.766,-0.932 -0.129,-0.157 -0.148,-0.378 -0.048,-0.555 0.212,-0.375 0.552,-0.976 0.552,-0.976 0.17,-0.3 0.114,-0.681 -0.137,-0.92 0,0 -1.371,-1.307 -1.79,-1.707 -0.078,-0.075 -0.129,-0.172 -0.146,-0.279 -0.125,-0.785 -0.657,-4.121 -0.657,-4.121 -0.058,-0.366 -0.377,-0.637 -0.747,-0.637 -0.198,0 -0.387,0.077 -0.529,0.215 0,0 -2.188,1.94 -2.869,2.543 -0.124,0.11 -0.296,0.151 -0.456,0.107 -0.449,-0.123 -1.329,-0.364 -1.329,-0.364 -0.13,-0.035 -0.268,-0.035 -0.398,0 0,0 -0.879,0.241 -1.327,0.364 -0.161,0.043 -0.332,0.003 -0.457,-0.107 -0.68,-0.603 -2.869,-2.543 -2.869,-2.543 -0.132,-0.13 -0.308,-0.206 -0.494,-0.215 z m 2.412,7.08 c 0.017,0 0.034,0 0.051,0 0.195,-0.002 0.392,0.037 0.58,0.122 0.004,0.002 0.008,0.004 0.012,0.005 0.001,0.001 0.003,0.001 0.004,0.003 0.141,0.063 0.269,0.149 0.383,0.251 0.026,0.023 0.051,0.048 0.076,0.073 l 0.008,0.008 c 0.147,0.149 0.266,0.333 0.351,0.543 0.023,0.054 0.044,0.108 0.061,0.164 0.001,0.002 0.001,0.004 0.002,0.006 0.052,0.174 0.077,0.353 0.076,0.531 0.001,0.174 -0.024,0.349 -0.074,0.52 -0.001,0.004 -0.001,0.008 -0.002,0.011 -0.018,0.058 -0.039,0.116 -0.063,0.172 -0.083,0.204 -0.197,0.382 -0.34,0.529 l -0.019,0.02 c -0.132,0.136 -0.288,0.248 -0.463,0.326 -0.209,0.096 -0.427,0.137 -0.643,0.127 -0.004,0 -0.007,0 -0.01,0 -0.014,-10e-4 -0.029,-0.003 -0.043,-0.004 -0.161,-0.01 -0.323,-0.047 -0.478,-0.117 -0.198,-0.086 -0.371,-0.216 -0.514,-0.375 -0.143,-0.154 -0.26,-0.339 -0.34,-0.553 -0.001,-10e-4 -0.001,-0.003 -0.002,-0.004 -0.004,-0.009 -0.007,-0.018 -0.01,-0.027 -0.064,-0.176 -0.096,-0.359 -0.103,-0.541 -0.001,-0.01 -0.002,-0.019 -0.002,-0.029 -0.001,-0.037 -0.001,-0.073 0,-0.11 0,-0.004 0,-0.008 0,-0.011 0,-0.006 0.002,-0.012 0.002,-0.018 0.007,-0.182 0.041,-0.363 0.105,-0.539 0.079,-0.225 0.199,-0.421 0.348,-0.582 0.14,-0.156 0.307,-0.285 0.5,-0.371 0.001,-0.001 0.003,-0.001 0.004,-0.002 0.004,-0.002 0.008,-0.004 0.012,-0.006 0.172,-0.078 0.352,-0.116 0.531,-0.121 z m 5.748,0 c 0.017,0 0.033,0 0.049,0 0.195,-0.002 0.393,0.037 0.582,0.122 0.004,0.002 0.008,0.004 0.012,0.005 10e-4,0.001 0.003,0.001 0.004,0.003 0.192,0.086 0.36,0.215 0.5,0.371 0.142,0.153 0.259,0.338 0.338,0.55 0.071,0.186 0.108,0.378 0.115,0.571 0,0.006 0.002,0.011 0.002,0.017 0,0.004 0,0.008 0,0.012 0.001,0.036 0.001,0.073 0,0.109 0,0.004 0,0.008 0,0.012 -0.006,0.199 -0.044,0.399 -0.117,0.59 -0.079,0.212 -0.196,0.395 -0.338,0.549 -0.141,0.156 -0.31,0.286 -0.504,0.373 -0.137,0.063 -0.28,0.1 -0.422,0.117 -0.022,0.003 -0.046,0.004 -0.068,0.006 -0.051,0.003 -0.102,0.006 -0.153,0.004 -0.004,0 -0.008,0 -0.011,0 -0.015,-10e-4 -0.029,-0.003 -0.043,-0.004 -0.161,-0.011 -0.322,-0.048 -0.477,-0.117 -0.178,-0.078 -0.337,-0.191 -0.471,-0.328 l -0.023,-0.024 c -0.142,-0.147 -0.257,-0.325 -0.34,-0.529 -0.023,-0.055 -0.044,-0.11 -0.061,-0.166 -0.002,-0.006 -0.002,-0.012 -0.004,-0.018 -0.05,-0.171 -0.075,-0.345 -0.074,-0.519 -0.001,-0.175 0.024,-0.351 0.074,-0.522 0.002,-0.005 0.002,-0.01 0.004,-0.015 0.017,-0.056 0.038,-0.11 0.061,-0.165 0.082,-0.202 0.197,-0.379 0.338,-0.525 0.007,-0.007 0.012,-0.016 0.019,-0.023 0.005,-0.005 0.013,-0.011 0.018,-0.016 0.132,-0.132 0.285,-0.243 0.459,-0.318 0.172,-0.078 0.352,-0.116 0.531,-0.121 z m -5.697,0.366 c -0.35,0 -0.635,0.488 -0.635,1.089 0,0.602 0.285,1.09 0.635,1.09 0.35,0 0.635,-0.488 0.635,-1.09 0,-0.601 -0.285,-1.089 -0.635,-1.089 z m 5.746,0 c -0.35,0 -0.635,0.488 -0.635,1.089 0,0.602 0.285,1.09 0.635,1.09 0.35,0 0.635,-0.488 0.635,-1.09 0,-0.601 -0.285,-1.089 -0.635,-1.089 z m -3.861,3.634 h 1.974 c 0.16,0 0.248,0.185 0.149,0.309 l -0.987,1.232 c -0.076,0.096 -0.22,0.096 -0.296,0 l -0.989,-1.232 c -0.099,-0.124 -0.011,-0.309 0.149,-0.309 z"
           style="fill-rule:nonzero"
           id="path846" />
      </g>
    </g>
  </g>
</svg>
