<?xml version="1.0" encoding="UTF-8" standalone="no"?>
<!-- Created with Inkscape (http://www.inkscape.org/) -->

<svg
   width="18.586"
   height="16.883921"
   viewBox="0 0 4.9175461 4.4672041"
   version="1.1"
   id="svg5"
   inkscape:version="1.1.1 (3bf5ae0d25, 2021-09-20)"
   sodipodi:docname="keeby cat mascot graphic.svg"
   xmlns:inkscape="http://www.inkscape.org/namespaces/inkscape"
   xmlns:sodipodi="http://sodipodi.sourceforge.net/DTD/sodipodi-0.dtd"
   xmlns="http://www.w3.org/2000/svg"
   xmlns:svg="http://www.w3.org/2000/svg">
  <sodipodi:namedview
     id="namedview7"
     pagecolor="#ffffff"
     bordercolor="#666666"
     borderopacity="1.0"
     inkscape:pageshadow="2"
     inkscape:pageopacity="0.0"
     inkscape:pagecheckerboard="0"
     inkscape:document-units="mm"
     showgrid="false"
     inkscape:zoom="22.627417"
     inkscape:cx="10.717087"
     inkscape:cy="8.6178639"
     inkscape:window-width="1515"
     inkscape:window-height="1360"
     inkscape:window-x="1036"
     inkscape:window-y="0"
     inkscape:window-maximized="0"
     inkscape:current-layer="Layer1"
     showguides="false"
     inkscape:guide-bbox="true"
     inkscape:snap-page="true"
     units="px"
     inkscape:snap-object-midpoints="true"
     inkscape:snap-center="true"
     inkscape:snap-bbox="false"
     inkscape:snap-smooth-nodes="true"
     fit-margin-top="0"
     fit-margin-left="0"
     fit-margin-right="0"
     fit-margin-bottom="0">
    <sodipodi:guide
       position="6.0637221,119.79129"
       orientation="-1,0"
       id="guide3372"
       inkscape:label=""
       inkscape:locked="false"
       inkscape:color="rgb(0,0,255)" />
  </sodipodi:namedview>
  <defs
     id="defs2"><inkscape:path-effect
   effect="mirror_symmetry"
   start_point="132.18627,607.51148"
   end_point="132.18627,152.6604"
   center_point="132.18627,380.08594"
   id="path-effect17262"
   is_visible="true"
   lpeversion="1.1"
   mode="vertical"
   discard_orig_path="false"
   fuse_paths="false"
   oposite_fuse="false"
   split_items="false"
   split_open="false" />
<inkscape:path-effect
   effect="mirror_symmetry"
   start_point="131.986,227.891"
   end_point="131.986,229.259"
   center_point="131.986,228.575"
   id="path-effect17248"
   is_visible="true"
   lpeversion="1.1"
   mode="free"
   discard_orig_path="false"
   fuse_paths="true"
   oposite_fuse="false"
   split_items="false"
   split_open="false" />
<inkscape:path-effect
   effect="mirror_symmetry"
   start_point="132.221,218.713"
   end_point="132.221,234.27181"
   center_point="132.221,226.4924"
   id="path-effect17242"
   is_visible="true"
   lpeversion="1.1"
   mode="free"
   discard_orig_path="false"
   fuse_paths="true"
   oposite_fuse="false"
   split_items="false"
   split_open="false" />
<inkscape:path-effect
   effect="mirror_symmetry"
   start_point="132.18627,611.77571"
   end_point="132.18627,156.92463"
   center_point="132.18627,384.35017"
   id="path-effect17119"
   is_visible="true"
   lpeversion="1.1"
   mode="vertical"
   discard_orig_path="false"
   fuse_paths="false"
   oposite_fuse="false"
   split_items="false"
   split_open="false" />
<inkscape:path-effect
   effect="mirror_symmetry"
   start_point="131.986,227.891"
   end_point="131.986,229.259"
   center_point="131.986,228.575"
   id="path-effect17105"
   is_visible="true"
   lpeversion="1.1"
   mode="free"
   discard_orig_path="false"
   fuse_paths="false"
   oposite_fuse="true"
   split_items="false"
   split_open="false" />
<inkscape:path-effect
   effect="mirror_symmetry"
   start_point="132.221,218.713"
   end_point="132.221,234.27181"
   center_point="132.221,226.4924"
   id="path-effect17097"
   is_visible="true"
   lpeversion="1.1"
   mode="free"
   discard_orig_path="false"
   fuse_paths="true"
   oposite_fuse="false"
   split_items="false"
   split_open="false" />
<inkscape:path-effect
   effect="mirror_symmetry"
   start_point="132.18627,611.73457"
   end_point="132.18627,156.88349"
   center_point="132.18627,384.30903"
   id="path-effect16632"
   is_visible="true"
   lpeversion="1.1"
   mode="vertical"
   discard_orig_path="false"
   fuse_paths="false"
   oposite_fuse="false"
   split_items="false"
   split_open="false" />
<inkscape:path-effect
   effect="mirror_symmetry"
   start_point="131.986,227.891"
   end_point="131.986,229.259"
   center_point="131.986,228.575"
   id="path-effect16618"
   is_visible="true"
   lpeversion="1.1"
   mode="free"
   discard_orig_path="false"
   fuse_paths="false"
   oposite_fuse="true"
   split_items="false"
   split_open="false" />
<inkscape:path-effect
   effect="mirror_symmetry"
   start_point="132.221,218.713"
   end_point="132.221,234.27181"
   center_point="132.221,226.4924"
   id="path-effect16610"
   is_visible="true"
   lpeversion="1.1"
   mode="free"
   discard_orig_path="false"
   fuse_paths="false"
   oposite_fuse="false"
   split_items="false"
   split_open="false" />
<inkscape:path-effect
   effect="mirror_symmetry"
   start_point="132.18627,567.54145"
   end_point="132.18627,112.69037"
   center_point="132.18627,340.11591"
   id="path-effect16568"
   is_visible="true"
   lpeversion="1.1"
   mode="vertical"
   discard_orig_path="false"
   fuse_paths="false"
   oposite_fuse="false"
   split_items="false"
   split_open="false" />
<inkscape:path-effect
   effect="mirror_symmetry"
   start_point="131.986,227.891"
   end_point="131.986,229.259"
   center_point="131.986,228.575"
   id="path-effect16554"
   is_visible="true"
   lpeversion="1.1"
   mode="free"
   discard_orig_path="false"
   fuse_paths="false"
   oposite_fuse="true"
   split_items="false"
   split_open="false" />
<inkscape:path-effect
   effect="mirror_symmetry"
   start_point="132.221,218.713"
   end_point="132.221,234.27181"
   center_point="132.221,226.4924"
   id="path-effect16546"
   is_visible="true"
   lpeversion="1.1"
   mode="free"
   discard_orig_path="false"
   fuse_paths="false"
   oposite_fuse="false"
   split_items="false"
   split_open="false" />
<inkscape:path-effect
   effect="mirror_symmetry"
   start_point="132.18627,617.6687"
   end_point="132.18627,162.81762"
   center_point="132.18627,390.24316"
   id="path-effect16116"
   is_visible="true"
   lpeversion="1.1"
   mode="vertical"
   discard_orig_path="false"
   fuse_paths="false"
   oposite_fuse="false"
   split_items="false"
   split_open="false" />
<inkscape:path-effect
   effect="mirror_symmetry"
   start_point="131.986,227.891"
   end_point="131.986,229.259"
   center_point="131.986,228.575"
   id="path-effect16102"
   is_visible="true"
   lpeversion="1.1"
   mode="free"
   discard_orig_path="false"
   fuse_paths="false"
   oposite_fuse="true"
   split_items="false"
   split_open="false" />
<inkscape:path-effect
   effect="mirror_symmetry"
   start_point="132.221,218.713"
   end_point="132.221,234.27181"
   center_point="132.221,226.4924"
   id="path-effect16094"
   is_visible="true"
   lpeversion="1.1"
   mode="free"
   discard_orig_path="false"
   fuse_paths="false"
   oposite_fuse="false"
   split_items="false"
   split_open="false" />
<inkscape:path-effect
   effect="mirror_symmetry"
   start_point="132.14374,-168.03624"
   end_point="132.14374,331.96377"
   center_point="132.14374,81.963763"
   id="path-effect13471"
   is_visible="true"
   lpeversion="1.1"
   mode="vertical"
   discard_orig_path="false"
   fuse_paths="false"
   oposite_fuse="false"
   split_items="false"
   split_open="false" />
<inkscape:path-effect
   effect="mirror_symmetry"
   start_point="132.18627,585.28064"
   end_point="132.18627,130.42956"
   center_point="132.18627,357.8551"
   id="path-effect3726"
   is_visible="true"
   lpeversion="1.1"
   mode="vertical"
   discard_orig_path="false"
   fuse_paths="false"
   oposite_fuse="false"
   split_items="false"
   split_open="false" />
<inkscape:path-effect
   effect="mirror_symmetry"
   start_point="131.986,227.891"
   end_point="131.986,229.259"
   center_point="131.986,228.575"
   id="path-effect3564"
   is_visible="true"
   lpeversion="1.1"
   mode="free"
   discard_orig_path="false"
   fuse_paths="true"
   oposite_fuse="false"
   split_items="false"
   split_open="false" />
<inkscape:path-effect
   effect="mirror_symmetry"
   start_point="132.221,218.713"
   end_point="132.221,234.27181"
   center_point="132.221,226.4924"
   id="path-effect3104"
   is_visible="true"
   lpeversion="1.1"
   mode="free"
   discard_orig_path="false"
   fuse_paths="true"
   oposite_fuse="false"
   split_items="false"
   split_open="false" />

        
    
                
            
                
                
                
            
                    
                    
                
                    
                
                        
                    
                        
                    
                    
                
                    
                    
                
                        
                    
                        
                    
        
    
            
        </defs>
  <g
     inkscape:label="Layer 1"
     inkscape:groupmode="layer"
     id="layer1"
     transform="translate(-60.082111,-115.32408)">
    <g
   id="Layer1"
   transform="matrix(0.26458333,0,0,0.26458333,31.165233,44.459588)">
            
            
        <g
   id="path16606"
   transform="translate(0,28.947337)" />

    <path
   style="fill-rule:nonzero"
   d="m 121.44814,275.28098 c -0.35,0 -0.635,0.488 -0.635,1.089 0,0.602 0.285,1.09 0.635,1.09 0.35,0 0.635,-0.488 0.635,-1.09 0,-0.601 -0.285,-1.089 -0.635,-1.089 z"
   id="path20545" />
<path
   style="fill-rule:nonzero"
   d="m 115.70214,275.28098 c -0.35,0 -0.635,0.488 -0.635,1.089 0,0.602 0.285,1.09 0.635,1.09 0.35,0 0.635,-0.488 0.635,-1.09 0,-0.601 -0.285,-1.089 -0.635,-1.089 z"
   id="path20543" />
<path
   id="path20197"
   style="fill-rule:nonzero"
   d="m 3.9472656,0 c -0.093,-0.004 -0.1854375,0.0100625 -0.2734375,0.0390625 -0.267,0.089 -0.4638125,0.31965625 -0.5078125,0.59765625 0,0 -0.5322031,3.33609375 -0.6582031,4.12109375 -0.017,0.107 -0.068484,0.2052969 -0.1464844,0.2792969 -0.419,0.4 -1.78906248,1.7089842 -1.78906248,1.7089844 -0.24899997,0.2369997 -0.30571874,0.6160156 -0.13671874,0.9160156 0,0 0.33978127,0.6015625 0.55078124,0.9765625 0.1,0.177 0.0801719,0.3976875 -0.0488281,0.5546875 -0.288,0.351 -0.765625,0.9335936 -0.765625,0.9335936 C 0.06087496,10.262953 0,10.432422 0,10.607422 c 0,0.258 0.13260938,0.499672 0.34960938,0.638672 0,0 0.73696872,0.46914 1.16796872,0.74414 0.18,0.116 0.2649844,0.335969 0.2089844,0.542969 -0.098,0.371 -0.2402344,0.90625 -0.2402344,0.90625 -0.017,0.064 -0.025391,0.127362 -0.025391,0.193359 0,0.415 0.3418594,0.757813 0.7558594,0.757813 H 3.96875 c 0.125,0 0.2449375,0.04586 0.3359375,0.130859 0.423,0.396 1.6484375,1.541016 1.6484375,1.541016 0.14,0.13 0.323625,0.203125 0.515625,0.203125 h 1.1972656 c 0.071,0 0.1400782,0.01492 0.2050782,0.04492 0.2859997,0.131 1.1074218,0.505859 1.1074218,0.505859 0.2,0.091 0.4299063,0.091 0.6289063,0 0,0 0.8204221,-0.374859 1.1074221,-0.505859 0.064,-0.03 0.135078,-0.04492 0.205078,-0.04492 h 1.199219 c 0.191,0 0.375625,-0.07313 0.515625,-0.203125 0,0 1.223484,-1.144065 1.646484,-1.539062 0.091,-0.086 0.210938,-0.132813 0.335938,-0.132813 h 1.751953 c 0.415,0 0.755859,-0.342813 0.755859,-0.757813 0,-0.066 -0.0084,-0.130359 -0.02539,-0.193359 0,0 -0.143187,-0.53525 -0.242187,-0.90625 -0.055,-0.207 0.02994,-0.426969 0.210937,-0.542969 0.43,-0.275 1.167969,-0.746093 1.167969,-0.746093 0.218,-0.138 0.34961,-0.378719 0.34961,-0.636719 0,-0.175 -0.06088,-0.345469 -0.171876,-0.480469 0,0 -0.477627,-0.5806405 -0.765624,-0.9316405 -0.129,-0.157 -0.148827,-0.3776875 -0.04883,-0.5546875 0.212,-0.375 0.552735,-0.9765625 0.552735,-0.9765625 0.17,-0.3 0.114281,-0.6809219 -0.136719,-0.9199219 0,0 -1.372016,-1.3070312 -1.791016,-1.7070312 -0.078,-0.075 -0.129484,-0.1722969 -0.146484,-0.2792969 -0.125,-0.785 -0.65625,-4.12109375 -0.65625,-4.12109375 C 15.363875,0.27071875 15.045781,0 14.675781,0 c -0.198,0 -0.387297,0.07684375 -0.529297,0.21484375 0,0 -2.184187,2.13668775 -2.867187,2.80468745 -0.125,0.122 -0.304656,0.1690469 -0.472656,0.1230469 -0.454,-0.124 -1.3144535,-0.359375 -1.3144535,-0.359375 -0.13,-0.036 -0.2684375,-0.036 -0.3984375,0 0,0 -0.8595,0.235375 -1.3125,0.359375 -0.169,0.046 -0.3476565,-0.00105 -0.4726562,-0.1230469 C 6.6245938,2.3515315 4.4414062,0.21484375 4.4414062,0.21484375 4.3094065,0.08484375 4.1332656,0.009 3.9472656,0 Z M 6.359375,7.0800781 h 0.050781 c 0.195,-0.002 0.3920782,0.038047 0.5800782,0.1230469 0.004,0.002 0.00772,0.00291 0.011719,0.00391 0.001,10e-4 0.00291,0.00191 0.00391,0.00391 0.141,0.063 0.2688125,0.148 0.3828125,0.25 0.026,0.023 0.051172,0.049219 0.076172,0.074219 l 0.00781,0.00781 c 0.147,0.1489998 0.2665626,0.3329687 0.3515626,0.5429687 0.023,0.054 0.043547,0.1080625 0.060547,0.1640625 0.001,0.002 9.564e-4,0.00386 0.00195,0.00586 0.052,0.174 0.077172,0.35325 0.076172,0.53125 0.001,0.174 -0.024219,0.3485312 -0.074219,0.5195312 -0.001,0.004 -9.564e-4,0.00872 -0.00195,0.011719 -0.018,0.058 -0.0385,0.115875 -0.0625,0.171875 -0.083,0.204 -0.1968438,0.3822972 -0.3398438,0.5292966 l -0.019531,0.01953 c -0.132,0.136 -0.2878907,0.248172 -0.4628907,0.326172 -0.209,0.096 -0.4265781,0.136952 -0.6425781,0.126954 h -0.00977 c -0.014,-10e-4 -0.028969,-0.0029 -0.042969,-0.0039 -0.161,-0.01 -0.3235156,-0.04719 -0.4785156,-0.117187 -0.198,-0.086 -0.3706719,-0.216 -0.5136719,-0.3750002 -0.143,-0.154 -0.2598437,-0.3387344 -0.3398437,-0.5527344 -0.001,-10e-4 -9.564e-4,-0.00291 -0.00195,-0.00391 -0.004,-0.009 -0.00677,-0.018344 -0.00977,-0.027344 -0.064,-0.176 -0.096516,-0.3590158 -0.1035156,-0.5410156 -0.001,-0.01 -0.00195,-0.019297 -0.00195,-0.029297 -0.001,-0.037 -0.001,-0.072375 0,-0.109375 v -0.011719 c 0,-0.006 0.00195,-0.011578 0.00195,-0.017578 0.007,-0.182 0.041469,-0.3630625 0.1054688,-0.5390625 0.079,-0.225 0.1986562,-0.4210313 0.3476562,-0.5820313 0.14,-0.1559998 0.307,-0.2850937 0.5,-0.3710937 0.001,-10e-4 0.00291,-9.562e-4 0.00391,-0.00195 l 0.011719,-0.00586 c 0.172,-0.078 0.35225,-0.1160938 0.53125,-0.1210938 z m 5.748047,0 h 0.04883 c 0.195,-0.002 0.393031,0.038047 0.582031,0.1230469 0.004,0.002 0.0077,0.00291 0.01172,0.00391 0.001,10e-4 0.0029,0.00191 0.0039,0.00391 0.192,0.086 0.36,0.2150938 0.5,0.3710937 0.142,0.153 0.258891,0.3368282 0.337891,0.5488282 0.071,0.186 0.108234,0.3792656 0.115234,0.5722656 0,0.006 0.002,0.00962 0.002,0.015625 v 0.013672 c 10e-4,0.036 10e-4,0.071422 0,0.1074219 v 0.013672 c -0.006,0.199 -0.04419,0.3988438 -0.117187,0.5898438 -0.079,0.212 -0.195891,0.3948281 -0.337891,0.5488281 -0.141,0.1559997 -0.309906,0.2860467 -0.503906,0.3730467 -0.137,0.063 -0.279875,0.100188 -0.421875,0.117188 -0.022,0.003 -0.04636,0.0039 -0.06836,0.0059 -0.051,0.003 -0.101344,0.0059 -0.152344,0.0039 h -0.01172 c -0.015,-10e-4 -0.02897,-0.0029 -0.04297,-0.0039 -0.161,-0.011 -0.321562,-0.04819 -0.476562,-0.117187 -0.178,-0.078 -0.336703,-0.191125 -0.470703,-0.328125 l -0.02344,-0.02344 c -0.142,-0.1469999 -0.256844,-0.3252968 -0.339843,-0.5292968 -0.023,-0.055 -0.04355,-0.1100157 -0.06055,-0.1660156 -0.002,-0.006 -0.0019,-0.011578 -0.0039,-0.017578 -0.05,-0.171 -0.07522,-0.3455312 -0.07422,-0.5195312 -0.001,-0.175 0.02422,-0.3504844 0.07422,-0.5214844 0.002,-0.005 0.0019,-0.010625 0.0039,-0.015625 0.017,-0.056 0.03755,-0.1110156 0.06055,-0.1660156 0.082,-0.202 0.19689,-0.3774375 0.33789,-0.5234375 0.007,-0.007 0.01253,-0.016438 0.01953,-0.023437 0.005,-0.005 0.01258,-0.010625 0.01758,-0.015625 0.131999,-0.132 0.284984,-0.2433594 0.458984,-0.3183594 0.172,-0.078 0.35225,-0.1160938 0.53125,-0.1210938 z M 8.2949219,11.080078 h 1.9746091 c 0.16,0 0.247438,0.186547 0.148438,0.310547 l -0.9863284,1.230469 c -0.076,0.096 -0.220875,0.096 -0.296875,0 L 8.1464844,11.390625 c -0.099,-0.124 -0.011563,-0.310547 0.1484375,-0.310547 z"
   transform="translate(109.29214,267.8343)" />

</g>

</g>
</svg>
