M48
; DRILL file {KiCad (6.0.3-11-gdd55ffb75c)} date Thu Mar 17 01:02:27 2022
; FORMAT={-:-/ absolute / metric / decimal}
; #@! TF.CreationDate,2022-03-17T01:02:27-07:00
; #@! TF.GenerationSoftware,Kicad,Pcbnew,(6.0.3-11-gdd55ffb75c)
; #@! TF.FileFunction,Plated,1,2,PTH
FMAT,2
METRIC
; #@! TA.AperFunction,Plated,PTH,ViaDrill
T1C0.400
; #@! TA.AperFunction,Plated,PTH,ComponentDrill
T2C1.000
; #@! TA.AperFunction,Plated,PTH,ComponentDrill
T3C1.200
; #@! TA.AperFunction,Plated,PTH,ComponentDrill
T4C1.500
%
G90
G05
T1
X64.22Y-141.136
X65.109Y-82.59
X67.141Y-78.653
X67.395Y-60.999
X67.395Y-142.025
X68.03Y-103.036
X68.665Y-118.53
X73.999Y-112.561
X74.761Y-133.136
X76.158Y-125.515
X76.412Y-102.528
X76.666Y-87.288
X77.301Y-97.956
X78.063Y-62.65
X79.333Y-96.051
X79.714Y-139.867
X81.619Y-138.215
X81.746Y-97.322
X82.0Y-77.129
X82.0Y-80.354
X84.286Y-134.659
X84.413Y-136.056
X84.54Y-140.882
X86.826Y-79.414
X87.715Y-123.102
X92.414Y-116.371
X92.541Y-98.465
X92.668Y-75.731
X93.176Y-136.056
X93.43Y-82.716
X94.065Y-94.908
X94.573Y-80.303
X94.7Y-102.401
X94.827Y-88.304
X95.843Y-100.751
X95.843Y-116.752
X96.097Y-96.178
X96.224Y-62.65
X96.351Y-123.483
X96.351Y-142.406
X96.732Y-139.612
X96.986Y-135.167
X97.621Y-85.51
X101.05Y-94.527
X101.05Y-127.039
X101.416Y-152.827
X101.431Y-81.573
X102.32Y-100.496
X102.828Y-80.176
X103.717Y-79.135
X104.733Y-103.036
X105.749Y-82.209
X105.749Y-101.893
X107.4Y-125.007
X107.527Y-144.184
X108.162Y-87.288
X111.591Y-73.191
X112.099Y-82.59
X113.115Y-120.054
X113.75Y-64.047
X113.877Y-102.909
X114.385Y-88.304
X114.385Y-99.48
X114.766Y-120.054
X115.147Y-143.549
X115.274Y-103.036
X115.274Y-105.45
X115.401Y-124.372
X115.909Y-74.588
X115.909Y-140.882
X116.798Y-113.704
X116.798Y-118.657
X118.576Y-101.639
X118.83Y-81.828
X119.592Y-139.581
X119.846Y-85.129
T2
X65.61Y-64.087
X65.61Y-66.587
X65.61Y-69.087
X65.61Y-87.9
X65.61Y-90.4
X65.61Y-92.9
X65.61Y-106.95
X65.61Y-109.45
X65.61Y-111.95
X65.61Y-126.0
X65.61Y-128.5
X65.61Y-131.0
X65.61Y-145.05
X65.61Y-147.55
X65.61Y-150.05
X71.86Y-81.475
X74.36Y-153.975
X76.86Y-83.975
X76.86Y-153.975
X80.11Y-64.087
X80.11Y-69.087
X80.11Y-87.9
X80.11Y-92.9
X80.11Y-106.95
X80.11Y-111.95
X80.11Y-126.0
X80.11Y-131.0
X80.11Y-145.05
X80.11Y-150.05
X84.54Y-60.237
X84.54Y-62.777
X84.54Y-65.317
X84.54Y-67.858
X84.54Y-70.397
X84.54Y-72.938
X84.54Y-75.477
X84.54Y-78.017
X84.54Y-80.557
X84.54Y-83.097
X84.54Y-85.638
X84.54Y-88.177
X84.54Y-90.718
X84.54Y-93.257
X84.54Y-95.797
X84.54Y-98.337
X84.54Y-100.877
X84.54Y-103.417
X84.54Y-105.957
X84.54Y-108.497
X90.91Y-81.475
X93.41Y-153.975
X95.91Y-83.975
X95.91Y-153.975
X99.78Y-60.237
X99.78Y-62.777
X99.78Y-65.317
X99.78Y-67.858
X99.78Y-70.397
X99.78Y-72.938
X99.78Y-75.477
X99.78Y-78.017
X99.78Y-80.557
X99.78Y-83.097
X99.78Y-85.638
X99.78Y-88.177
X99.78Y-90.718
X99.78Y-93.257
X99.78Y-95.797
X99.78Y-98.337
X99.78Y-100.877
X99.78Y-103.417
X99.78Y-105.957
X99.78Y-108.497
X103.71Y-87.9
X103.71Y-90.4
X103.71Y-92.9
X103.71Y-106.95
X103.71Y-109.45
X103.71Y-111.95
X103.71Y-126.0
X103.71Y-128.5
X103.71Y-131.0
X103.71Y-145.05
X103.71Y-147.55
X103.71Y-150.05
X109.96Y-81.475
X112.46Y-153.975
X114.96Y-83.975
X114.96Y-153.975
X118.21Y-87.9
X118.21Y-92.9
X118.21Y-106.95
X118.21Y-111.95
X118.21Y-126.0
X118.21Y-131.0
X118.21Y-145.05
X118.21Y-150.05
T3
X119.465Y-62.777
X119.465Y-65.317
X119.465Y-67.858
X119.465Y-70.397
T4
X70.57Y-71.667
X70.57Y-95.48
X70.57Y-114.53
X70.57Y-133.58
X76.92Y-69.127
X76.92Y-92.94
X76.92Y-111.99
X76.92Y-131.04
X76.92Y-150.09
X89.62Y-71.667
X89.62Y-95.48
X89.62Y-114.53
X89.62Y-133.58
X95.97Y-69.127
X95.97Y-92.94
X95.97Y-111.99
X95.97Y-131.04
X95.97Y-150.09
X108.67Y-71.667
X108.67Y-95.48
X108.67Y-114.53
X108.67Y-133.58
X115.02Y-69.127
X115.02Y-92.94
X115.02Y-111.99
X115.02Y-131.04
X115.02Y-150.09
T3
X69.32Y-153.975G85X71.82Y-153.975
G05
X88.37Y-153.975G85X90.87Y-153.975
G05
X107.42Y-153.975G85X109.92Y-153.975
G05
T4
X70.57Y-153.786G85X70.57Y-152.591
G05
X89.62Y-153.786G85X89.62Y-152.591
G05
X108.67Y-153.786G85X108.67Y-152.591
G05
T0
M30
