M48
; DRILL file {KiCad (6.0.2)} date Thu Feb 17 20:40:36 2022
; FORMAT={-:-/ absolute / metric / decimal}
; #@! TF.CreationDate,2022-02-17T20:40:36-08:00
; #@! TF.GenerationSoftware,Kicad,Pcbnew,(6.0.2)
; #@! TF.FileFunction,NonPlated,1,2,NPTH
FMAT,2
METRIC
; #@! TA.AperFunction,NonPlated,NPTH,ComponentDrill
T1C1.800
; #@! TA.AperFunction,NonPlated,NPTH,ComponentDrill
T2C3.200
; #@! TA.AperFunction,NonPlated,NPTH,ComponentDrill
T3C4.000
%
G90
G05
T1
X68.03Y-66.587
X68.03Y-90.4
X68.03Y-109.45
X68.03Y-128.5
X68.03Y-147.55
X78.19Y-66.587
X78.19Y-90.4
X78.19Y-109.45
X78.19Y-128.5
X78.19Y-147.55
X87.08Y-66.587
X87.08Y-90.4
X87.08Y-109.45
X87.08Y-128.5
X87.08Y-147.55
X97.24Y-66.587
X97.24Y-90.4
X97.24Y-109.45
X97.24Y-128.5
X97.24Y-147.55
X106.13Y-66.587
X106.13Y-90.4
X106.13Y-109.45
X106.13Y-128.5
X106.13Y-147.55
X116.29Y-66.587
X116.29Y-90.4
X116.29Y-109.45
X116.29Y-128.5
X116.29Y-147.55
T2
X82.635Y-118.975
X101.685Y-118.975
T3
X73.11Y-66.587
X73.11Y-90.4
X73.11Y-109.45
X73.11Y-128.5
X73.11Y-147.55
X92.16Y-66.587
X92.16Y-90.4
X92.16Y-109.45
X92.16Y-128.5
X92.16Y-147.55
X111.21Y-66.587
X111.21Y-90.4
X111.21Y-109.45
X111.21Y-128.5
X111.21Y-147.55
T0
M30
