%TF.GenerationSoftware,KiCad,Pcbnew,(6.0.2)*%
%TF.CreationDate,2022-02-17T20:40:29-08:00*%
%TF.ProjectId,keeb test board,6b656562-2074-4657-9374-20626f617264,rev?*%
%TF.SameCoordinates,Original*%
%TF.FileFunction,Profile,NP*%
%FSLAX46Y46*%
G04 Gerber Fmt 4.6, Leading zero omitted, Abs format (unit mm)*
G04 Created by KiCad (PCBNEW (6.0.2)) date 2022-02-17 20:40:29*
%MOMM*%
%LPD*%
G01*
G04 APERTURE LIST*
%TA.AperFunction,Profile*%
%ADD10C,0.200000*%
%TD*%
%TA.AperFunction,Profile*%
%ADD11C,0.100000*%
%TD*%
G04 APERTURE END LIST*
D10*
X62156320Y-56661180D02*
X122156320Y-56661180D01*
X122156320Y-56661180D02*
X122156320Y-156661180D01*
X122156320Y-156661180D02*
X62156320Y-156661180D01*
X62156320Y-156661180D02*
X62156320Y-56661180D01*
D11*
%TO.C,D11*%
X71410001Y-105352843D02*
X71410001Y-103947159D01*
X72315548Y-103150001D02*
X73904452Y-103150001D01*
X74809999Y-103947159D02*
X74809999Y-105352843D01*
X73904452Y-106150000D02*
X72315547Y-106150000D01*
X72315547Y-106150000D02*
G75*
G03*
X72063289Y-106218299I3J-500009D01*
G01*
X72063289Y-103081702D02*
G75*
G03*
X72315548Y-103150001I252261J431710D01*
G01*
X74156711Y-106218300D02*
G75*
G03*
X74859484Y-105569721I252258J431701D01*
G01*
X71360516Y-105569721D02*
G75*
G03*
X71410001Y-105352844I-450505J216876D01*
G01*
X71410001Y-103947159D02*
G75*
G03*
X71360516Y-103730281I-499990J2D01*
G01*
X74809999Y-105352843D02*
G75*
G03*
X74859484Y-105569721I499990J-2D01*
G01*
X73904452Y-103150001D02*
G75*
G03*
X74156710Y-103081702I-3J500009D01*
G01*
X71360517Y-105569721D02*
G75*
G03*
X72063289Y-106218299I450514J-216878D01*
G01*
X74156711Y-106218300D02*
G75*
G03*
X73904453Y-106150001I-252261J-431710D01*
G01*
X74859484Y-103730281D02*
G75*
G03*
X74809999Y-103947158I450505J-216876D01*
G01*
X72063289Y-103081702D02*
G75*
G03*
X71360516Y-103730282I-252259J-431700D01*
G01*
X74859484Y-103730281D02*
G75*
G03*
X74156711Y-103081704I-450515J216877D01*
G01*
%TO.C,D15*%
X112004452Y-63287500D02*
X110415547Y-63287500D01*
X110415548Y-60287501D02*
X112004452Y-60287501D01*
X112909999Y-61084659D02*
X112909999Y-62490343D01*
X109510001Y-62490343D02*
X109510001Y-61084659D01*
X110415547Y-63287500D02*
G75*
G03*
X110163289Y-63355799I3J-500009D01*
G01*
X109460516Y-62707221D02*
G75*
G03*
X109510001Y-62490344I-450505J216876D01*
G01*
X112909999Y-62490343D02*
G75*
G03*
X112959484Y-62707221I499990J-2D01*
G01*
X112256711Y-63355800D02*
G75*
G03*
X112004453Y-63287501I-252261J-431710D01*
G01*
X112256711Y-63355800D02*
G75*
G03*
X112959484Y-62707221I252258J431701D01*
G01*
X110163289Y-60219202D02*
G75*
G03*
X109460516Y-60867782I-252259J-431700D01*
G01*
X112004452Y-60287501D02*
G75*
G03*
X112256710Y-60219202I-3J500009D01*
G01*
X110163289Y-60219202D02*
G75*
G03*
X110415548Y-60287501I252261J431710D01*
G01*
X112959484Y-60867781D02*
G75*
G03*
X112256711Y-60219204I-450515J216877D01*
G01*
X112959484Y-60867781D02*
G75*
G03*
X112909999Y-61084658I450505J-216876D01*
G01*
X109460517Y-62707221D02*
G75*
G03*
X110163289Y-63355799I450514J-216878D01*
G01*
X109510001Y-61084659D02*
G75*
G03*
X109460516Y-60867781I-499990J2D01*
G01*
%TO.C,D3*%
X112909999Y-103947159D02*
X112909999Y-105352843D01*
X109510001Y-105352843D02*
X109510001Y-103947159D01*
X112004452Y-106150000D02*
X110415547Y-106150000D01*
X110415548Y-103150001D02*
X112004452Y-103150001D01*
X109460516Y-105569721D02*
G75*
G03*
X109510001Y-105352844I-450505J216876D01*
G01*
X110163289Y-103081702D02*
G75*
G03*
X110415548Y-103150001I252261J431710D01*
G01*
X112256711Y-106218300D02*
G75*
G03*
X112959484Y-105569721I252258J431701D01*
G01*
X112959484Y-103730281D02*
G75*
G03*
X112256711Y-103081704I-450515J216877D01*
G01*
X112959484Y-103730281D02*
G75*
G03*
X112909999Y-103947158I450505J-216876D01*
G01*
X110163289Y-103081702D02*
G75*
G03*
X109460516Y-103730282I-252259J-431700D01*
G01*
X109460517Y-105569721D02*
G75*
G03*
X110163289Y-106218299I450514J-216878D01*
G01*
X112004452Y-103150001D02*
G75*
G03*
X112256710Y-103081702I-3J500009D01*
G01*
X110415547Y-106150000D02*
G75*
G03*
X110163289Y-106218299I3J-500009D01*
G01*
X112909999Y-105352843D02*
G75*
G03*
X112959484Y-105569721I499990J-2D01*
G01*
X112256711Y-106218300D02*
G75*
G03*
X112004453Y-106150001I-252261J-431710D01*
G01*
X109510001Y-103947159D02*
G75*
G03*
X109460516Y-103730281I-499990J2D01*
G01*
%TO.C,D7*%
X91365548Y-122200001D02*
X92954452Y-122200001D01*
X93859999Y-122997159D02*
X93859999Y-124402843D01*
X92954452Y-125200000D02*
X91365547Y-125200000D01*
X90460001Y-124402843D02*
X90460001Y-122997159D01*
X91365547Y-125200000D02*
G75*
G03*
X91113289Y-125268299I3J-500009D01*
G01*
X93909484Y-122780281D02*
G75*
G03*
X93206711Y-122131704I-450515J216877D01*
G01*
X93909484Y-122780281D02*
G75*
G03*
X93859999Y-122997158I450505J-216876D01*
G01*
X91113289Y-122131702D02*
G75*
G03*
X91365548Y-122200001I252261J431710D01*
G01*
X90410517Y-124619721D02*
G75*
G03*
X91113289Y-125268299I450514J-216878D01*
G01*
X90460001Y-122997159D02*
G75*
G03*
X90410516Y-122780281I-499990J2D01*
G01*
X93859999Y-124402843D02*
G75*
G03*
X93909484Y-124619721I499990J-2D01*
G01*
X90410516Y-124619721D02*
G75*
G03*
X90460001Y-124402844I-450505J216876D01*
G01*
X93206711Y-125268300D02*
G75*
G03*
X92954453Y-125200001I-252261J-431710D01*
G01*
X91113289Y-122131702D02*
G75*
G03*
X90410516Y-122780282I-252259J-431700D01*
G01*
X92954452Y-122200001D02*
G75*
G03*
X93206710Y-122131702I-3J500009D01*
G01*
X93206711Y-125268300D02*
G75*
G03*
X93909484Y-124619721I252258J431701D01*
G01*
%TO.C,D14*%
X91365548Y-60287501D02*
X92954452Y-60287501D01*
X92954452Y-63287500D02*
X91365547Y-63287500D01*
X90460001Y-62490343D02*
X90460001Y-61084659D01*
X93859999Y-61084659D02*
X93859999Y-62490343D01*
X93909484Y-60867781D02*
G75*
G03*
X93206711Y-60219204I-450515J216877D01*
G01*
X91113289Y-60219202D02*
G75*
G03*
X90410516Y-60867782I-252259J-431700D01*
G01*
X93909484Y-60867781D02*
G75*
G03*
X93859999Y-61084658I450505J-216876D01*
G01*
X92954452Y-60287501D02*
G75*
G03*
X93206710Y-60219202I-3J500009D01*
G01*
X91113289Y-60219202D02*
G75*
G03*
X91365548Y-60287501I252261J431710D01*
G01*
X93859999Y-62490343D02*
G75*
G03*
X93909484Y-62707221I499990J-2D01*
G01*
X91365547Y-63287500D02*
G75*
G03*
X91113289Y-63355799I3J-500009D01*
G01*
X90410517Y-62707221D02*
G75*
G03*
X91113289Y-63355799I450514J-216878D01*
G01*
X93206711Y-63355800D02*
G75*
G03*
X92954453Y-63287501I-252261J-431710D01*
G01*
X90410516Y-62707221D02*
G75*
G03*
X90460001Y-62490344I-450505J216876D01*
G01*
X93206711Y-63355800D02*
G75*
G03*
X93909484Y-62707221I252258J431701D01*
G01*
X90460001Y-61084659D02*
G75*
G03*
X90410516Y-60867781I-499990J2D01*
G01*
%TO.C,D2*%
X112909999Y-122997159D02*
X112909999Y-124402843D01*
X110415548Y-122200001D02*
X112004452Y-122200001D01*
X109510001Y-124402843D02*
X109510001Y-122997159D01*
X112004452Y-125200000D02*
X110415547Y-125200000D01*
X109460516Y-124619721D02*
G75*
G03*
X109510001Y-124402844I-450505J216876D01*
G01*
X109460517Y-124619721D02*
G75*
G03*
X110163289Y-125268299I450514J-216878D01*
G01*
X112909999Y-124402843D02*
G75*
G03*
X112959484Y-124619721I499990J-2D01*
G01*
X110163289Y-122131702D02*
G75*
G03*
X109460516Y-122780282I-252259J-431700D01*
G01*
X112256711Y-125268300D02*
G75*
G03*
X112004453Y-125200001I-252261J-431710D01*
G01*
X112959484Y-122780281D02*
G75*
G03*
X112909999Y-122997158I450505J-216876D01*
G01*
X110163289Y-122131702D02*
G75*
G03*
X110415548Y-122200001I252261J431710D01*
G01*
X109510001Y-122997159D02*
G75*
G03*
X109460516Y-122780281I-499990J2D01*
G01*
X112959484Y-122780281D02*
G75*
G03*
X112256711Y-122131704I-450515J216877D01*
G01*
X112256711Y-125268300D02*
G75*
G03*
X112959484Y-124619721I252258J431701D01*
G01*
X112004452Y-122200001D02*
G75*
G03*
X112256710Y-122131702I-3J500009D01*
G01*
X110415547Y-125200000D02*
G75*
G03*
X110163289Y-125268299I3J-500009D01*
G01*
%TO.C,D6*%
X91365548Y-103150001D02*
X92954452Y-103150001D01*
X92954452Y-106150000D02*
X91365547Y-106150000D01*
X90460001Y-105352843D02*
X90460001Y-103947159D01*
X93859999Y-103947159D02*
X93859999Y-105352843D01*
X90410517Y-105569721D02*
G75*
G03*
X91113289Y-106218299I450514J-216878D01*
G01*
X91113289Y-103081702D02*
G75*
G03*
X91365548Y-103150001I252261J431710D01*
G01*
X93206711Y-106218300D02*
G75*
G03*
X92954453Y-106150001I-252261J-431710D01*
G01*
X93859999Y-105352843D02*
G75*
G03*
X93909484Y-105569721I499990J-2D01*
G01*
X90460001Y-103947159D02*
G75*
G03*
X90410516Y-103730281I-499990J2D01*
G01*
X92954452Y-103150001D02*
G75*
G03*
X93206710Y-103081702I-3J500009D01*
G01*
X91365547Y-106150000D02*
G75*
G03*
X91113289Y-106218299I3J-500009D01*
G01*
X93206711Y-106218300D02*
G75*
G03*
X93909484Y-105569721I252258J431701D01*
G01*
X93909484Y-103730281D02*
G75*
G03*
X93206711Y-103081704I-450515J216877D01*
G01*
X91113289Y-103081702D02*
G75*
G03*
X90410516Y-103730282I-252259J-431700D01*
G01*
X93909484Y-103730281D02*
G75*
G03*
X93859999Y-103947158I450505J-216876D01*
G01*
X90410516Y-105569721D02*
G75*
G03*
X90460001Y-105352844I-450505J216876D01*
G01*
%TO.C,D8*%
X91365548Y-141250001D02*
X92954452Y-141250001D01*
X92954452Y-144250000D02*
X91365547Y-144250000D01*
X93859999Y-142047159D02*
X93859999Y-143452843D01*
X90460001Y-143452843D02*
X90460001Y-142047159D01*
X90460001Y-142047159D02*
G75*
G03*
X90410516Y-141830281I-499990J2D01*
G01*
X91113289Y-141181702D02*
G75*
G03*
X90410516Y-141830282I-252259J-431700D01*
G01*
X90410517Y-143669721D02*
G75*
G03*
X91113289Y-144318299I450514J-216878D01*
G01*
X91365547Y-144250000D02*
G75*
G03*
X91113289Y-144318299I3J-500009D01*
G01*
X90410516Y-143669721D02*
G75*
G03*
X90460001Y-143452844I-450505J216876D01*
G01*
X91113289Y-141181702D02*
G75*
G03*
X91365548Y-141250001I252261J431710D01*
G01*
X93859999Y-143452843D02*
G75*
G03*
X93909484Y-143669721I499990J-2D01*
G01*
X93909484Y-141830281D02*
G75*
G03*
X93206711Y-141181704I-450515J216877D01*
G01*
X93206711Y-144318300D02*
G75*
G03*
X92954453Y-144250001I-252261J-431710D01*
G01*
X92954452Y-141250001D02*
G75*
G03*
X93206710Y-141181702I-3J500009D01*
G01*
X93206711Y-144318300D02*
G75*
G03*
X93909484Y-143669721I252258J431701D01*
G01*
X93909484Y-141830281D02*
G75*
G03*
X93859999Y-142047158I450505J-216876D01*
G01*
%TO.C,D13*%
X72315548Y-60287501D02*
X73904452Y-60287501D01*
X73904452Y-63287500D02*
X72315547Y-63287500D01*
X71410001Y-62490343D02*
X71410001Y-61084659D01*
X74809999Y-61084659D02*
X74809999Y-62490343D01*
X72063289Y-60219202D02*
G75*
G03*
X72315548Y-60287501I252261J431710D01*
G01*
X71360517Y-62707221D02*
G75*
G03*
X72063289Y-63355799I450514J-216878D01*
G01*
X74809999Y-62490343D02*
G75*
G03*
X74859484Y-62707221I499990J-2D01*
G01*
X74859484Y-60867781D02*
G75*
G03*
X74809999Y-61084658I450505J-216876D01*
G01*
X73904452Y-60287501D02*
G75*
G03*
X74156710Y-60219202I-3J500009D01*
G01*
X74156711Y-63355800D02*
G75*
G03*
X73904453Y-63287501I-252261J-431710D01*
G01*
X71410001Y-61084659D02*
G75*
G03*
X71360516Y-60867781I-499990J2D01*
G01*
X72063289Y-60219202D02*
G75*
G03*
X71360516Y-60867782I-252259J-431700D01*
G01*
X74156711Y-63355800D02*
G75*
G03*
X74859484Y-62707221I252258J431701D01*
G01*
X72315547Y-63287500D02*
G75*
G03*
X72063289Y-63355799I3J-500009D01*
G01*
X74859484Y-60867781D02*
G75*
G03*
X74156711Y-60219204I-450515J216877D01*
G01*
X71360516Y-62707221D02*
G75*
G03*
X71410001Y-62490344I-450505J216876D01*
G01*
%TO.C,D1*%
X109510001Y-143452843D02*
X109510001Y-142047159D01*
X112909999Y-142047159D02*
X112909999Y-143452843D01*
X110415548Y-141250001D02*
X112004452Y-141250001D01*
X112004452Y-144250000D02*
X110415547Y-144250000D01*
X112959484Y-141830281D02*
G75*
G03*
X112256711Y-141181704I-450515J216877D01*
G01*
X109460517Y-143669721D02*
G75*
G03*
X110163289Y-144318299I450514J-216878D01*
G01*
X110163289Y-141181702D02*
G75*
G03*
X109460516Y-141830282I-252259J-431700D01*
G01*
X110415547Y-144250000D02*
G75*
G03*
X110163289Y-144318299I3J-500009D01*
G01*
X112256711Y-144318300D02*
G75*
G03*
X112004453Y-144250001I-252261J-431710D01*
G01*
X112959484Y-141830281D02*
G75*
G03*
X112909999Y-142047158I450505J-216876D01*
G01*
X112909999Y-143452843D02*
G75*
G03*
X112959484Y-143669721I499990J-2D01*
G01*
X109510001Y-142047159D02*
G75*
G03*
X109460516Y-141830281I-499990J2D01*
G01*
X109460516Y-143669721D02*
G75*
G03*
X109510001Y-143452844I-450505J216876D01*
G01*
X112004452Y-141250001D02*
G75*
G03*
X112256710Y-141181702I-3J500009D01*
G01*
X110163289Y-141181702D02*
G75*
G03*
X110415548Y-141250001I252261J431710D01*
G01*
X112256711Y-144318300D02*
G75*
G03*
X112959484Y-143669721I252258J431701D01*
G01*
%TO.C,D12*%
X71410001Y-86302843D02*
X71410001Y-84897159D01*
X73904452Y-87100000D02*
X72315547Y-87100000D01*
X72315548Y-84100001D02*
X73904452Y-84100001D01*
X74809999Y-84897159D02*
X74809999Y-86302843D01*
X71360516Y-86519721D02*
G75*
G03*
X71410001Y-86302844I-450505J216876D01*
G01*
X74859484Y-84680281D02*
G75*
G03*
X74809999Y-84897158I450505J-216876D01*
G01*
X74859484Y-84680281D02*
G75*
G03*
X74156711Y-84031704I-450515J216877D01*
G01*
X72315547Y-87100000D02*
G75*
G03*
X72063289Y-87168299I3J-500009D01*
G01*
X73904452Y-84100001D02*
G75*
G03*
X74156710Y-84031702I-3J500009D01*
G01*
X74809999Y-86302843D02*
G75*
G03*
X74859484Y-86519721I499990J-2D01*
G01*
X74156711Y-87168300D02*
G75*
G03*
X74859484Y-86519721I252258J431701D01*
G01*
X72063289Y-84031702D02*
G75*
G03*
X71360516Y-84680282I-252259J-431700D01*
G01*
X72063289Y-84031702D02*
G75*
G03*
X72315548Y-84100001I252261J431710D01*
G01*
X71360517Y-86519721D02*
G75*
G03*
X72063289Y-87168299I450514J-216878D01*
G01*
X74156711Y-87168300D02*
G75*
G03*
X73904453Y-87100001I-252261J-431710D01*
G01*
X71410001Y-84897159D02*
G75*
G03*
X71360516Y-84680281I-499990J2D01*
G01*
%TO.C,D9*%
X72315548Y-141250001D02*
X73904452Y-141250001D01*
X71410001Y-143452843D02*
X71410001Y-142047159D01*
X74809999Y-142047159D02*
X74809999Y-143452843D01*
X73904452Y-144250000D02*
X72315547Y-144250000D01*
X72063289Y-141181702D02*
G75*
G03*
X71360516Y-141830282I-252259J-431700D01*
G01*
X74859484Y-141830281D02*
G75*
G03*
X74156711Y-141181704I-450515J216877D01*
G01*
X71360516Y-143669721D02*
G75*
G03*
X71410001Y-143452844I-450505J216876D01*
G01*
X71360517Y-143669721D02*
G75*
G03*
X72063289Y-144318299I450514J-216878D01*
G01*
X74809999Y-143452843D02*
G75*
G03*
X74859484Y-143669721I499990J-2D01*
G01*
X71410001Y-142047159D02*
G75*
G03*
X71360516Y-141830281I-499990J2D01*
G01*
X72063289Y-141181702D02*
G75*
G03*
X72315548Y-141250001I252261J431710D01*
G01*
X73904452Y-141250001D02*
G75*
G03*
X74156710Y-141181702I-3J500009D01*
G01*
X74156711Y-144318300D02*
G75*
G03*
X74859484Y-143669721I252258J431701D01*
G01*
X74859484Y-141830281D02*
G75*
G03*
X74809999Y-142047158I450505J-216876D01*
G01*
X72315547Y-144250000D02*
G75*
G03*
X72063289Y-144318299I3J-500009D01*
G01*
X74156711Y-144318300D02*
G75*
G03*
X73904453Y-144250001I-252261J-431710D01*
G01*
%TO.C,D10*%
X71410001Y-124402843D02*
X71410001Y-122997159D01*
X74809999Y-122997159D02*
X74809999Y-124402843D01*
X72315548Y-122200001D02*
X73904452Y-122200001D01*
X73904452Y-125200000D02*
X72315547Y-125200000D01*
X72315547Y-125200000D02*
G75*
G03*
X72063289Y-125268299I3J-500009D01*
G01*
X74809999Y-124402843D02*
G75*
G03*
X74859484Y-124619721I499990J-2D01*
G01*
X71410001Y-122997159D02*
G75*
G03*
X71360516Y-122780281I-499990J2D01*
G01*
X74859484Y-122780281D02*
G75*
G03*
X74156711Y-122131704I-450515J216877D01*
G01*
X71360516Y-124619721D02*
G75*
G03*
X71410001Y-124402844I-450505J216876D01*
G01*
X74156711Y-125268300D02*
G75*
G03*
X73904453Y-125200001I-252261J-431710D01*
G01*
X74156711Y-125268300D02*
G75*
G03*
X74859484Y-124619721I252258J431701D01*
G01*
X73904452Y-122200001D02*
G75*
G03*
X74156710Y-122131702I-3J500009D01*
G01*
X72063289Y-122131702D02*
G75*
G03*
X71360516Y-122780282I-252259J-431700D01*
G01*
X72063289Y-122131702D02*
G75*
G03*
X72315548Y-122200001I252261J431710D01*
G01*
X74859484Y-122780281D02*
G75*
G03*
X74809999Y-122997158I450505J-216876D01*
G01*
X71360517Y-124619721D02*
G75*
G03*
X72063289Y-125268299I450514J-216878D01*
G01*
%TO.C,D4*%
X109510001Y-86302843D02*
X109510001Y-84897159D01*
X112909999Y-84897159D02*
X112909999Y-86302843D01*
X110415548Y-84100001D02*
X112004452Y-84100001D01*
X112004452Y-87100000D02*
X110415547Y-87100000D01*
X109460516Y-86519721D02*
G75*
G03*
X109510001Y-86302844I-450505J216876D01*
G01*
X110163289Y-84031702D02*
G75*
G03*
X110415548Y-84100001I252261J431710D01*
G01*
X112909999Y-86302843D02*
G75*
G03*
X112959484Y-86519721I499990J-2D01*
G01*
X112004452Y-84100001D02*
G75*
G03*
X112256710Y-84031702I-3J500009D01*
G01*
X112959484Y-84680281D02*
G75*
G03*
X112256711Y-84031704I-450515J216877D01*
G01*
X112256711Y-87168300D02*
G75*
G03*
X112004453Y-87100001I-252261J-431710D01*
G01*
X109460517Y-86519721D02*
G75*
G03*
X110163289Y-87168299I450514J-216878D01*
G01*
X110415547Y-87100000D02*
G75*
G03*
X110163289Y-87168299I3J-500009D01*
G01*
X110163289Y-84031702D02*
G75*
G03*
X109460516Y-84680282I-252259J-431700D01*
G01*
X112256711Y-87168300D02*
G75*
G03*
X112959484Y-86519721I252258J431701D01*
G01*
X112959484Y-84680281D02*
G75*
G03*
X112909999Y-84897158I450505J-216876D01*
G01*
X109510001Y-84897159D02*
G75*
G03*
X109460516Y-84680281I-499990J2D01*
G01*
%TO.C,D5*%
X93859999Y-84897159D02*
X93859999Y-86302843D01*
X92954452Y-87100000D02*
X91365547Y-87100000D01*
X91365548Y-84100001D02*
X92954452Y-84100001D01*
X90460001Y-86302843D02*
X90460001Y-84897159D01*
X91113289Y-84031702D02*
G75*
G03*
X90410516Y-84680282I-252259J-431700D01*
G01*
X93206711Y-87168300D02*
G75*
G03*
X93909484Y-86519721I252258J431701D01*
G01*
X93909484Y-84680281D02*
G75*
G03*
X93206711Y-84031704I-450515J216877D01*
G01*
X90410516Y-86519721D02*
G75*
G03*
X90460001Y-86302844I-450505J216876D01*
G01*
X93909484Y-84680281D02*
G75*
G03*
X93859999Y-84897158I450505J-216876D01*
G01*
X90460001Y-84897159D02*
G75*
G03*
X90410516Y-84680281I-499990J2D01*
G01*
X93859999Y-86302843D02*
G75*
G03*
X93909484Y-86519721I499990J-2D01*
G01*
X92954452Y-84100001D02*
G75*
G03*
X93206710Y-84031702I-3J500009D01*
G01*
X90410517Y-86519721D02*
G75*
G03*
X91113289Y-87168299I450514J-216878D01*
G01*
X93206711Y-87168300D02*
G75*
G03*
X92954453Y-87100001I-252261J-431710D01*
G01*
X91113289Y-84031702D02*
G75*
G03*
X91365548Y-84100001I252261J431710D01*
G01*
X91365547Y-87100000D02*
G75*
G03*
X91113289Y-87168299I3J-500009D01*
G01*
%TD*%
M02*
