%TF.GenerationSoftware,KiCad,Pcbnew,(6.0.2)*%
%TF.CreationDate,2022-02-17T20:40:29-08:00*%
%TF.ProjectId,keeb test board,6b656562-2074-4657-9374-20626f617264,rev?*%
%TF.SameCoordinates,Original*%
%TF.FileFunction,Soldermask,Bot*%
%TF.FilePolarity,Negative*%
%FSLAX46Y46*%
G04 Gerber Fmt 4.6, Leading zero omitted, Abs format (unit mm)*
G04 Created by KiCad (PCBNEW (6.0.2)) date 2022-02-17 20:40:29*
%MOMM*%
%LPD*%
G01*
G04 APERTURE LIST*
G04 Aperture macros list*
%AMRoundRect*
0 Rectangle with rounded corners*
0 $1 Rounding radius*
0 $2 $3 $4 $5 $6 $7 $8 $9 X,Y pos of 4 corners*
0 Add a 4 corners polygon primitive as box body*
4,1,4,$2,$3,$4,$5,$6,$7,$8,$9,$2,$3,0*
0 Add four circle primitives for the rounded corners*
1,1,$1+$1,$2,$3*
1,1,$1+$1,$4,$5*
1,1,$1+$1,$6,$7*
1,1,$1+$1,$8,$9*
0 Add four rect primitives between the rounded corners*
20,1,$1+$1,$2,$3,$4,$5,0*
20,1,$1+$1,$4,$5,$6,$7,0*
20,1,$1+$1,$6,$7,$8,$9,0*
20,1,$1+$1,$8,$9,$2,$3,0*%
%AMFreePoly0*
4,1,18,-0.410000,0.593000,-0.403758,0.624380,-0.385983,0.650983,-0.359380,0.668758,-0.328000,0.675000,0.000000,0.675000,0.410000,0.265000,0.410000,-0.593000,0.403758,-0.624380,0.385983,-0.650983,0.359380,-0.668758,0.328000,-0.675000,-0.328000,-0.675000,-0.359380,-0.668758,-0.385983,-0.650983,-0.403758,-0.624380,-0.410000,-0.593000,-0.410000,0.593000,-0.410000,0.593000,$1*%
%AMFreePoly1*
4,1,6,1.000000,0.000000,0.500000,-0.750000,-0.500000,-0.750000,-0.500000,0.750000,0.500000,0.750000,1.000000,0.000000,1.000000,0.000000,$1*%
%AMFreePoly2*
4,1,6,0.500000,-0.750000,-0.650000,-0.750000,-0.150000,0.000000,-0.650000,0.750000,0.500000,0.750000,0.500000,-0.750000,0.500000,-0.750000,$1*%
G04 Aperture macros list end*
%ADD10R,2.000000X2.000000*%
%ADD11C,2.000000*%
%ADD12RoundRect,0.082000X0.593000X-0.328000X0.593000X0.328000X-0.593000X0.328000X-0.593000X-0.328000X0*%
%ADD13FreePoly0,90.000000*%
%ADD14C,1.800000*%
%ADD15C,4.000000*%
%ADD16C,2.500000*%
%ADD17O,4.700000X2.200000*%
%ADD18C,3.200000*%
%ADD19O,1.400000X2.000000*%
%ADD20FreePoly1,270.000000*%
%ADD21FreePoly2,270.000000*%
%ADD22FreePoly1,90.000000*%
%ADD23FreePoly2,90.000000*%
%ADD24R,1.700000X1.700000*%
%ADD25C,1.700000*%
%ADD26FreePoly1,180.000000*%
%ADD27FreePoly2,180.000000*%
G04 APERTURE END LIST*
D10*
%TO.C,EN4*%
X65610000Y-106950000D03*
D11*
X65610000Y-111950000D03*
X65610000Y-109450000D03*
X80110000Y-111950000D03*
X80110000Y-106950000D03*
%TD*%
D12*
%TO.C,D11*%
X75835000Y-105400000D03*
X75835000Y-103900000D03*
X70385000Y-105400000D03*
D13*
X70385000Y-103900000D03*
%TD*%
D10*
%TO.C,EN3*%
X103710000Y-87900000D03*
D11*
X103710000Y-92900000D03*
X103710000Y-90400000D03*
X118210000Y-92900000D03*
X118210000Y-87900000D03*
%TD*%
D14*
%TO.C,SW4*%
X116290000Y-90400000D03*
X106130000Y-90400000D03*
D15*
X111210000Y-90400000D03*
D16*
X115020000Y-92940000D03*
X108670000Y-95480000D03*
%TD*%
D12*
%TO.C,D15*%
X113935000Y-62537500D03*
X113935000Y-61037500D03*
X108485000Y-62537500D03*
D13*
X108485000Y-61037500D03*
%TD*%
D14*
%TO.C,SW13*%
X116290000Y-147550000D03*
X106130000Y-147550000D03*
D15*
X111210000Y-147550000D03*
D16*
X115020000Y-150090000D03*
D17*
X108670000Y-152780000D03*
D16*
X108670000Y-152630000D03*
%TD*%
D10*
%TO.C,EN7*%
X103710000Y-126000000D03*
D11*
X103710000Y-131000000D03*
X103710000Y-128500000D03*
X118210000Y-131000000D03*
X118210000Y-126000000D03*
%TD*%
D12*
%TO.C,D3*%
X113935000Y-105400000D03*
X113935000Y-103900000D03*
X108485000Y-105400000D03*
D13*
X108485000Y-103900000D03*
%TD*%
D10*
%TO.C,EN6*%
X65610000Y-126000000D03*
D11*
X65610000Y-131000000D03*
X65610000Y-128500000D03*
X80110000Y-131000000D03*
X80110000Y-126000000D03*
%TD*%
D12*
%TO.C,D7*%
X94885000Y-124450000D03*
X94885000Y-122950000D03*
X89435000Y-124450000D03*
D13*
X89435000Y-122950000D03*
%TD*%
D10*
%TO.C,EN8*%
X65610000Y-145050000D03*
D11*
X65610000Y-150050000D03*
X65610000Y-147550000D03*
X80110000Y-150050000D03*
X80110000Y-145050000D03*
%TD*%
D15*
%TO.C,SW3*%
X92160000Y-90400000D03*
D14*
X87080000Y-90400000D03*
X97240000Y-90400000D03*
D16*
X95970000Y-92940000D03*
X89620000Y-95480000D03*
%TD*%
D12*
%TO.C,D14*%
X94885000Y-62537500D03*
X94885000Y-61037500D03*
X89435000Y-62537500D03*
D13*
X89435000Y-61037500D03*
%TD*%
D10*
%TO.C,EN9*%
X103710000Y-145050000D03*
D11*
X103710000Y-150050000D03*
X103710000Y-147550000D03*
X118210000Y-150050000D03*
X118210000Y-145050000D03*
%TD*%
D15*
%TO.C,SW14*%
X92160000Y-66587500D03*
D14*
X87080000Y-66587500D03*
X97240000Y-66587500D03*
D16*
X95970000Y-69127500D03*
X89620000Y-71667500D03*
%TD*%
D11*
%TO.C,OL1*%
X119415000Y-70397500D03*
X119415000Y-67857500D03*
X119415000Y-65317500D03*
X119415000Y-62777500D03*
%TD*%
D12*
%TO.C,D2*%
X113935000Y-124450000D03*
X113935000Y-122950000D03*
X108485000Y-124450000D03*
D13*
X108485000Y-122950000D03*
%TD*%
D12*
%TO.C,D6*%
X94885000Y-105400000D03*
X94885000Y-103900000D03*
X89435000Y-105400000D03*
D13*
X89435000Y-103900000D03*
%TD*%
D12*
%TO.C,D8*%
X94885000Y-143500000D03*
X94885000Y-142000000D03*
X89435000Y-143500000D03*
D13*
X89435000Y-142000000D03*
%TD*%
D12*
%TO.C,D13*%
X75835000Y-62537500D03*
X75835000Y-61037500D03*
X70385000Y-62537500D03*
D13*
X70385000Y-61037500D03*
%TD*%
D14*
%TO.C,SW9*%
X97240000Y-128500000D03*
X87080000Y-128500000D03*
D15*
X92160000Y-128500000D03*
D16*
X95970000Y-131040000D03*
X89620000Y-133580000D03*
%TD*%
D10*
%TO.C,EN1*%
X65610000Y-64087500D03*
D11*
X65610000Y-69087500D03*
X65610000Y-66587500D03*
X80110000Y-69087500D03*
X80110000Y-64087500D03*
%TD*%
D12*
%TO.C,D1*%
X113935000Y-143500000D03*
X113935000Y-142000000D03*
X108485000Y-143500000D03*
D13*
X108485000Y-142000000D03*
%TD*%
D18*
%TO.C,H4*%
X101685000Y-118975000D03*
%TD*%
D15*
%TO.C,SW11*%
X73110000Y-147550000D03*
D14*
X68030000Y-147550000D03*
X78190000Y-147550000D03*
D16*
X76920000Y-150090000D03*
X70570000Y-152630000D03*
D17*
X70570000Y-152780000D03*
%TD*%
D14*
%TO.C,SW15*%
X116290000Y-66587500D03*
D15*
X111210000Y-66587500D03*
D14*
X106130000Y-66587500D03*
D16*
X115020000Y-69127500D03*
X108670000Y-71667500D03*
%TD*%
D11*
%TO.C,VR3*%
X114960000Y-152780000D03*
X112460000Y-152780000D03*
D19*
X109960000Y-82480000D03*
D11*
X114960000Y-82780000D03*
%TD*%
D12*
%TO.C,D12*%
X75835000Y-86350000D03*
X75835000Y-84850000D03*
X70385000Y-86350000D03*
D13*
X70385000Y-84850000D03*
%TD*%
D12*
%TO.C,D9*%
X75835000Y-143500000D03*
X75835000Y-142000000D03*
X70385000Y-143500000D03*
D13*
X70385000Y-142000000D03*
%TD*%
D14*
%TO.C,SW8*%
X78190000Y-128500000D03*
X68030000Y-128500000D03*
D15*
X73110000Y-128500000D03*
D16*
X76920000Y-131040000D03*
X70570000Y-133580000D03*
%TD*%
D10*
%TO.C,EN5*%
X103710000Y-106950000D03*
D11*
X103710000Y-111950000D03*
X103710000Y-109450000D03*
X118210000Y-111950000D03*
X118210000Y-106950000D03*
%TD*%
D14*
%TO.C,SW12*%
X97240000Y-147550000D03*
X87080000Y-147550000D03*
D15*
X92160000Y-147550000D03*
D16*
X95970000Y-150090000D03*
X89620000Y-152630000D03*
D17*
X89620000Y-152780000D03*
%TD*%
D12*
%TO.C,D10*%
X75835000Y-124450000D03*
X75835000Y-122950000D03*
X70385000Y-124450000D03*
D13*
X70385000Y-122950000D03*
%TD*%
D15*
%TO.C,SW7*%
X111210000Y-109450000D03*
D14*
X106130000Y-109450000D03*
X116290000Y-109450000D03*
D16*
X115020000Y-111990000D03*
X108670000Y-114530000D03*
%TD*%
D14*
%TO.C,SW6*%
X97240000Y-109450000D03*
X87080000Y-109450000D03*
D15*
X92160000Y-109450000D03*
D16*
X95970000Y-111990000D03*
X89620000Y-114530000D03*
%TD*%
D14*
%TO.C,SW10*%
X106130000Y-128500000D03*
D15*
X111210000Y-128500000D03*
D14*
X116290000Y-128500000D03*
D16*
X115020000Y-131040000D03*
X108670000Y-133580000D03*
%TD*%
D10*
%TO.C,EN2*%
X65610000Y-87900000D03*
D11*
X65610000Y-92900000D03*
X65610000Y-90400000D03*
X80110000Y-92900000D03*
X80110000Y-87900000D03*
%TD*%
D12*
%TO.C,D4*%
X113935000Y-86350000D03*
X113935000Y-84850000D03*
X108485000Y-86350000D03*
D13*
X108485000Y-84850000D03*
%TD*%
D12*
%TO.C,D5*%
X94885000Y-86350000D03*
X94885000Y-84850000D03*
X89435000Y-86350000D03*
D13*
X89435000Y-84850000D03*
%TD*%
D11*
%TO.C,VR2*%
X95910000Y-152705000D03*
X93410000Y-152705000D03*
D19*
X90910000Y-82405000D03*
D11*
X95910000Y-82705000D03*
%TD*%
D14*
%TO.C,SW5*%
X78190000Y-109450000D03*
D15*
X73110000Y-109450000D03*
D14*
X68030000Y-109450000D03*
D16*
X76920000Y-111990000D03*
X70570000Y-114530000D03*
%TD*%
D15*
%TO.C,SW2*%
X73110000Y-90400000D03*
D14*
X68030000Y-90400000D03*
X78190000Y-90400000D03*
D16*
X76920000Y-92940000D03*
X70570000Y-95480000D03*
%TD*%
D18*
%TO.C,H3*%
X82635000Y-118975000D03*
%TD*%
D14*
%TO.C,SW1*%
X78190000Y-66587500D03*
D15*
X73110000Y-66587500D03*
D14*
X68030000Y-66587500D03*
D16*
X76920000Y-69127500D03*
X70570000Y-71667500D03*
%TD*%
D20*
%TO.C,JP12*%
X65617000Y-83579000D03*
D21*
X65617000Y-85029000D03*
%TD*%
D22*
%TO.C,JP4*%
X118195000Y-85028999D03*
D23*
X118195000Y-83578999D03*
%TD*%
D24*
%TO.C,U1*%
X99780000Y-58967500D03*
D25*
X99780000Y-61507500D03*
X99780000Y-64047500D03*
X99780000Y-66587500D03*
X99780000Y-69127500D03*
X99780000Y-71667500D03*
X99780000Y-74207500D03*
X99780000Y-76747500D03*
X99780000Y-79287500D03*
X99780000Y-81827500D03*
X99780000Y-84367500D03*
X99780000Y-86907500D03*
X99780000Y-89447500D03*
X99780000Y-91987500D03*
X99780000Y-94527500D03*
X99780000Y-97067500D03*
X99780000Y-99607500D03*
X99780000Y-102147500D03*
X99780000Y-104687500D03*
X99780000Y-107227500D03*
X84540000Y-107227500D03*
X84540000Y-104687500D03*
X84540000Y-102147500D03*
X84540000Y-99607500D03*
X84540000Y-97067500D03*
X84540000Y-94527500D03*
X84540000Y-91987500D03*
X84540000Y-89447500D03*
X84540000Y-86907500D03*
X84540000Y-84367500D03*
X84540000Y-81827500D03*
X84540000Y-79287500D03*
X84540000Y-76747500D03*
X84540000Y-74207500D03*
X84540000Y-71667500D03*
X84540000Y-69127500D03*
X84540000Y-66587500D03*
X84540000Y-64047500D03*
X84540000Y-61507500D03*
X84540000Y-58967500D03*
%TD*%
D26*
%TO.C,JPF3*%
X73835000Y-118975000D03*
D27*
X72385000Y-118975000D03*
%TD*%
D22*
%TO.C,JP1*%
X118195000Y-142179000D03*
D23*
X118195000Y-140729000D03*
%TD*%
D22*
%TO.C,JP2*%
X118195000Y-123129000D03*
D23*
X118195000Y-121679000D03*
%TD*%
D20*
%TO.C,JP10*%
X65617000Y-121679000D03*
D21*
X65617000Y-123129000D03*
%TD*%
D20*
%TO.C,JP13*%
X65617000Y-60211000D03*
D21*
X65617000Y-61661000D03*
%TD*%
D26*
%TO.C,JPF1*%
X111935000Y-118975000D03*
D27*
X110485000Y-118975000D03*
%TD*%
D20*
%TO.C,JP11*%
X65617000Y-102629000D03*
D21*
X65617000Y-104079000D03*
%TD*%
D22*
%TO.C,JP3*%
X118195000Y-104079000D03*
D23*
X118195000Y-102629000D03*
%TD*%
D26*
%TO.C,JPF2*%
X92885000Y-118975000D03*
D27*
X91435000Y-118975000D03*
%TD*%
D20*
%TO.C,JP9*%
X65617000Y-140729000D03*
D21*
X65617000Y-142179000D03*
%TD*%
M02*
