%TF.GenerationSoftware,KiCad,Pcbnew,(6.0.2)*%
%TF.CreationDate,2022-02-17T20:40:29-08:00*%
%TF.ProjectId,keeb test board,6b656562-2074-4657-9374-20626f617264,rev?*%
%TF.SameCoordinates,Original*%
%TF.FileFunction,Legend,Bot*%
%TF.FilePolarity,Positive*%
%FSLAX46Y46*%
G04 Gerber Fmt 4.6, Leading zero omitted, Abs format (unit mm)*
G04 Created by KiCad (PCBNEW (6.0.2)) date 2022-02-17 20:40:29*
%MOMM*%
%LPD*%
G01*
G04 APERTURE LIST*
G04 Aperture macros list*
%AMRoundRect*
0 Rectangle with rounded corners*
0 $1 Rounding radius*
0 $2 $3 $4 $5 $6 $7 $8 $9 X,Y pos of 4 corners*
0 Add a 4 corners polygon primitive as box body*
4,1,4,$2,$3,$4,$5,$6,$7,$8,$9,$2,$3,0*
0 Add four circle primitives for the rounded corners*
1,1,$1+$1,$2,$3*
1,1,$1+$1,$4,$5*
1,1,$1+$1,$6,$7*
1,1,$1+$1,$8,$9*
0 Add four rect primitives between the rounded corners*
20,1,$1+$1,$2,$3,$4,$5,0*
20,1,$1+$1,$4,$5,$6,$7,0*
20,1,$1+$1,$6,$7,$8,$9,0*
20,1,$1+$1,$8,$9,$2,$3,0*%
%AMFreePoly0*
4,1,18,-0.410000,0.593000,-0.403758,0.624380,-0.385983,0.650983,-0.359380,0.668758,-0.328000,0.675000,0.000000,0.675000,0.410000,0.265000,0.410000,-0.593000,0.403758,-0.624380,0.385983,-0.650983,0.359380,-0.668758,0.328000,-0.675000,-0.328000,-0.675000,-0.359380,-0.668758,-0.385983,-0.650983,-0.403758,-0.624380,-0.410000,-0.593000,-0.410000,0.593000,-0.410000,0.593000,$1*%
%AMFreePoly1*
4,1,6,1.000000,0.000000,0.500000,-0.750000,-0.500000,-0.750000,-0.500000,0.750000,0.500000,0.750000,1.000000,0.000000,1.000000,0.000000,$1*%
%AMFreePoly2*
4,1,6,0.500000,-0.750000,-0.650000,-0.750000,-0.150000,0.000000,-0.650000,0.750000,0.500000,0.750000,0.500000,-0.750000,0.500000,-0.750000,$1*%
G04 Aperture macros list end*
%ADD10C,0.153000*%
%ADD11C,0.150000*%
%ADD12C,0.120000*%
%ADD13R,2.000000X2.000000*%
%ADD14C,2.000000*%
%ADD15RoundRect,0.082000X0.593000X-0.328000X0.593000X0.328000X-0.593000X0.328000X-0.593000X-0.328000X0*%
%ADD16FreePoly0,90.000000*%
%ADD17C,1.800000*%
%ADD18C,4.000000*%
%ADD19C,2.500000*%
%ADD20O,4.700000X2.200000*%
%ADD21C,3.200000*%
%ADD22O,1.400000X2.000000*%
%ADD23FreePoly1,270.000000*%
%ADD24FreePoly2,270.000000*%
%ADD25FreePoly1,90.000000*%
%ADD26FreePoly2,90.000000*%
%ADD27R,1.700000X1.700000*%
%ADD28C,1.700000*%
%ADD29FreePoly1,180.000000*%
%ADD30FreePoly2,180.000000*%
G04 APERTURE END LIST*
D10*
X94874285Y-76358571D02*
X94731428Y-76406190D01*
X94683809Y-76453809D01*
X94636190Y-76549047D01*
X94636190Y-76691904D01*
X94683809Y-76787142D01*
X94731428Y-76834761D01*
X94826666Y-76882380D01*
X95207619Y-76882380D01*
X95207619Y-75882380D01*
X94874285Y-75882380D01*
X94779047Y-75930000D01*
X94731428Y-75977619D01*
X94683809Y-76072857D01*
X94683809Y-76168095D01*
X94731428Y-76263333D01*
X94779047Y-76310952D01*
X94874285Y-76358571D01*
X95207619Y-76358571D01*
X94064761Y-76882380D02*
X94160000Y-76834761D01*
X94207619Y-76739523D01*
X94207619Y-75882380D01*
X93255238Y-76215714D02*
X93255238Y-76882380D01*
X93683809Y-76215714D02*
X93683809Y-76739523D01*
X93636190Y-76834761D01*
X93540952Y-76882380D01*
X93398095Y-76882380D01*
X93302857Y-76834761D01*
X93255238Y-76787142D01*
X92398095Y-76834761D02*
X92493333Y-76882380D01*
X92683809Y-76882380D01*
X92779047Y-76834761D01*
X92826666Y-76739523D01*
X92826666Y-76358571D01*
X92779047Y-76263333D01*
X92683809Y-76215714D01*
X92493333Y-76215714D01*
X92398095Y-76263333D01*
X92350476Y-76358571D01*
X92350476Y-76453809D01*
X92826666Y-76549047D01*
X91160000Y-76882380D02*
X91160000Y-75882380D01*
X90779047Y-75882380D01*
X90683809Y-75930000D01*
X90636190Y-75977619D01*
X90588571Y-76072857D01*
X90588571Y-76215714D01*
X90636190Y-76310952D01*
X90683809Y-76358571D01*
X90779047Y-76406190D01*
X91160000Y-76406190D01*
X90160000Y-76882380D02*
X90160000Y-76215714D01*
X90160000Y-75882380D02*
X90207619Y-75930000D01*
X90160000Y-75977619D01*
X90112380Y-75930000D01*
X90160000Y-75882380D01*
X90160000Y-75977619D01*
X89540952Y-76882380D02*
X89636190Y-76834761D01*
X89683809Y-76739523D01*
X89683809Y-75882380D01*
X89017142Y-76882380D02*
X89112380Y-76834761D01*
X89160000Y-76739523D01*
X89160000Y-75882380D01*
D11*
X97731428Y-155833380D02*
X97731428Y-154833380D01*
X97160000Y-155833380D02*
X97588571Y-155261952D01*
X97160000Y-154833380D02*
X97731428Y-155404809D01*
X96350476Y-155785761D02*
X96445714Y-155833380D01*
X96636190Y-155833380D01*
X96731428Y-155785761D01*
X96779047Y-155690523D01*
X96779047Y-155309571D01*
X96731428Y-155214333D01*
X96636190Y-155166714D01*
X96445714Y-155166714D01*
X96350476Y-155214333D01*
X96302857Y-155309571D01*
X96302857Y-155404809D01*
X96779047Y-155500047D01*
X95493333Y-155785761D02*
X95588571Y-155833380D01*
X95779047Y-155833380D01*
X95874285Y-155785761D01*
X95921904Y-155690523D01*
X95921904Y-155309571D01*
X95874285Y-155214333D01*
X95779047Y-155166714D01*
X95588571Y-155166714D01*
X95493333Y-155214333D01*
X95445714Y-155309571D01*
X95445714Y-155404809D01*
X95921904Y-155500047D01*
X95017142Y-155833380D02*
X95017142Y-154833380D01*
X95017142Y-155214333D02*
X94921904Y-155166714D01*
X94731428Y-155166714D01*
X94636190Y-155214333D01*
X94588571Y-155261952D01*
X94540952Y-155357190D01*
X94540952Y-155642904D01*
X94588571Y-155738142D01*
X94636190Y-155785761D01*
X94731428Y-155833380D01*
X94921904Y-155833380D01*
X95017142Y-155785761D01*
X94207619Y-155166714D02*
X93969523Y-155833380D01*
X93731428Y-155166714D02*
X93969523Y-155833380D01*
X94064761Y-156071476D01*
X94112380Y-156119095D01*
X94207619Y-156166714D01*
X92017142Y-155738142D02*
X92064761Y-155785761D01*
X92207619Y-155833380D01*
X92302857Y-155833380D01*
X92445714Y-155785761D01*
X92540952Y-155690523D01*
X92588571Y-155595285D01*
X92636190Y-155404809D01*
X92636190Y-155261952D01*
X92588571Y-155071476D01*
X92540952Y-154976238D01*
X92445714Y-154881000D01*
X92302857Y-154833380D01*
X92207619Y-154833380D01*
X92064761Y-154881000D01*
X92017142Y-154928619D01*
X91160000Y-155833380D02*
X91160000Y-155309571D01*
X91207619Y-155214333D01*
X91302857Y-155166714D01*
X91493333Y-155166714D01*
X91588571Y-155214333D01*
X91160000Y-155785761D02*
X91255238Y-155833380D01*
X91493333Y-155833380D01*
X91588571Y-155785761D01*
X91636190Y-155690523D01*
X91636190Y-155595285D01*
X91588571Y-155500047D01*
X91493333Y-155452428D01*
X91255238Y-155452428D01*
X91160000Y-155404809D01*
X90826666Y-155166714D02*
X90445714Y-155166714D01*
X90683809Y-154833380D02*
X90683809Y-155690523D01*
X90636190Y-155785761D01*
X90540952Y-155833380D01*
X90445714Y-155833380D01*
X89493333Y-154833380D02*
X89160000Y-155833380D01*
X88826666Y-154833380D01*
X88302857Y-154833380D02*
X88207619Y-154833380D01*
X88112380Y-154881000D01*
X88064761Y-154928619D01*
X88017142Y-155023857D01*
X87969523Y-155214333D01*
X87969523Y-155452428D01*
X88017142Y-155642904D01*
X88064761Y-155738142D01*
X88112380Y-155785761D01*
X88207619Y-155833380D01*
X88302857Y-155833380D01*
X88398095Y-155785761D01*
X88445714Y-155738142D01*
X88493333Y-155642904D01*
X88540952Y-155452428D01*
X88540952Y-155214333D01*
X88493333Y-155023857D01*
X88445714Y-154928619D01*
X88398095Y-154881000D01*
X88302857Y-154833380D01*
X87540952Y-155738142D02*
X87493333Y-155785761D01*
X87540952Y-155833380D01*
X87588571Y-155785761D01*
X87540952Y-155738142D01*
X87540952Y-155833380D01*
X86540952Y-155833380D02*
X87112380Y-155833380D01*
X86826666Y-155833380D02*
X86826666Y-154833380D01*
X86921904Y-154976238D01*
X87017142Y-155071476D01*
X87112380Y-155119095D01*
X99707619Y-156681476D02*
X99802857Y-156633857D01*
X99993333Y-156633857D01*
X100088571Y-156681476D01*
X100183809Y-156776714D01*
X100231428Y-156871952D01*
X100231428Y-157062428D01*
X100183809Y-157157666D01*
X100088571Y-157252904D01*
X99993333Y-157300523D01*
X99802857Y-157300523D01*
X99707619Y-157252904D01*
X99898095Y-156300523D02*
X100136190Y-156348142D01*
X100374285Y-156491000D01*
X100517142Y-156729095D01*
X100564761Y-156967190D01*
X100517142Y-157205285D01*
X100374285Y-157443380D01*
X100136190Y-157586238D01*
X99898095Y-157633857D01*
X99660000Y-157586238D01*
X99421904Y-157443380D01*
X99279047Y-157205285D01*
X99231428Y-156967190D01*
X99279047Y-156729095D01*
X99421904Y-156491000D01*
X99660000Y-156348142D01*
X99898095Y-156300523D01*
X97469523Y-157348142D02*
X97517142Y-157395761D01*
X97660000Y-157443380D01*
X97755238Y-157443380D01*
X97898095Y-157395761D01*
X97993333Y-157300523D01*
X98040952Y-157205285D01*
X98088571Y-157014809D01*
X98088571Y-156871952D01*
X98040952Y-156681476D01*
X97993333Y-156586238D01*
X97898095Y-156491000D01*
X97755238Y-156443380D01*
X97660000Y-156443380D01*
X97517142Y-156491000D01*
X97469523Y-156538619D01*
X96850476Y-156443380D02*
X96660000Y-156443380D01*
X96564761Y-156491000D01*
X96469523Y-156586238D01*
X96421904Y-156776714D01*
X96421904Y-157110047D01*
X96469523Y-157300523D01*
X96564761Y-157395761D01*
X96660000Y-157443380D01*
X96850476Y-157443380D01*
X96945714Y-157395761D01*
X97040952Y-157300523D01*
X97088571Y-157110047D01*
X97088571Y-156776714D01*
X97040952Y-156586238D01*
X96945714Y-156491000D01*
X96850476Y-156443380D01*
X95517142Y-157443380D02*
X95993333Y-157443380D01*
X95993333Y-156443380D01*
X95183809Y-156919571D02*
X94850476Y-156919571D01*
X94707619Y-157443380D02*
X95183809Y-157443380D01*
X95183809Y-156443380D01*
X94707619Y-156443380D01*
X93517142Y-157443380D02*
X93517142Y-156443380D01*
X93183809Y-157157666D01*
X92850476Y-156443380D01*
X92850476Y-157443380D01*
X92183809Y-156443380D02*
X91993333Y-156443380D01*
X91898095Y-156491000D01*
X91802857Y-156586238D01*
X91755238Y-156776714D01*
X91755238Y-157110047D01*
X91802857Y-157300523D01*
X91898095Y-157395761D01*
X91993333Y-157443380D01*
X92183809Y-157443380D01*
X92279047Y-157395761D01*
X92374285Y-157300523D01*
X92421904Y-157110047D01*
X92421904Y-156776714D01*
X92374285Y-156586238D01*
X92279047Y-156491000D01*
X92183809Y-156443380D01*
X90755238Y-157443380D02*
X91088571Y-156967190D01*
X91326666Y-157443380D02*
X91326666Y-156443380D01*
X90945714Y-156443380D01*
X90850476Y-156491000D01*
X90802857Y-156538619D01*
X90755238Y-156633857D01*
X90755238Y-156776714D01*
X90802857Y-156871952D01*
X90850476Y-156919571D01*
X90945714Y-156967190D01*
X91326666Y-156967190D01*
X89755238Y-157443380D02*
X90088571Y-156967190D01*
X90326666Y-157443380D02*
X90326666Y-156443380D01*
X89945714Y-156443380D01*
X89850476Y-156491000D01*
X89802857Y-156538619D01*
X89755238Y-156633857D01*
X89755238Y-156776714D01*
X89802857Y-156871952D01*
X89850476Y-156919571D01*
X89945714Y-156967190D01*
X90326666Y-156967190D01*
X89326666Y-157443380D02*
X89326666Y-156443380D01*
X88898095Y-157395761D02*
X88755238Y-157443380D01*
X88517142Y-157443380D01*
X88421904Y-157395761D01*
X88374285Y-157348142D01*
X88326666Y-157252904D01*
X88326666Y-157157666D01*
X88374285Y-157062428D01*
X88421904Y-157014809D01*
X88517142Y-156967190D01*
X88707619Y-156919571D01*
X88802857Y-156871952D01*
X88850476Y-156824333D01*
X88898095Y-156729095D01*
X88898095Y-156633857D01*
X88850476Y-156538619D01*
X88802857Y-156491000D01*
X88707619Y-156443380D01*
X88469523Y-156443380D01*
X88326666Y-156491000D01*
X87183809Y-156538619D02*
X87136190Y-156491000D01*
X87040952Y-156443380D01*
X86802857Y-156443380D01*
X86707619Y-156491000D01*
X86660000Y-156538619D01*
X86612380Y-156633857D01*
X86612380Y-156729095D01*
X86660000Y-156871952D01*
X87231428Y-157443380D01*
X86612380Y-157443380D01*
X85993333Y-156443380D02*
X85898095Y-156443380D01*
X85802857Y-156491000D01*
X85755238Y-156538619D01*
X85707619Y-156633857D01*
X85660000Y-156824333D01*
X85660000Y-157062428D01*
X85707619Y-157252904D01*
X85755238Y-157348142D01*
X85802857Y-157395761D01*
X85898095Y-157443380D01*
X85993333Y-157443380D01*
X86088571Y-157395761D01*
X86136190Y-157348142D01*
X86183809Y-157252904D01*
X86231428Y-157062428D01*
X86231428Y-156824333D01*
X86183809Y-156633857D01*
X86136190Y-156538619D01*
X86088571Y-156491000D01*
X85993333Y-156443380D01*
X85279047Y-156538619D02*
X85231428Y-156491000D01*
X85136190Y-156443380D01*
X84898095Y-156443380D01*
X84802857Y-156491000D01*
X84755238Y-156538619D01*
X84707619Y-156633857D01*
X84707619Y-156729095D01*
X84755238Y-156871952D01*
X85326666Y-157443380D01*
X84707619Y-157443380D01*
X84326666Y-156538619D02*
X84279047Y-156491000D01*
X84183809Y-156443380D01*
X83945714Y-156443380D01*
X83850476Y-156491000D01*
X83802857Y-156538619D01*
X83755238Y-156633857D01*
X83755238Y-156729095D01*
X83802857Y-156871952D01*
X84374285Y-157443380D01*
X83755238Y-157443380D01*
%TO.C,D11*%
X71149285Y-107362380D02*
X71149285Y-106362380D01*
X70911190Y-106362380D01*
X70768333Y-106410000D01*
X70673095Y-106505238D01*
X70625476Y-106600476D01*
X70577857Y-106790952D01*
X70577857Y-106933809D01*
X70625476Y-107124285D01*
X70673095Y-107219523D01*
X70768333Y-107314761D01*
X70911190Y-107362380D01*
X71149285Y-107362380D01*
X69625476Y-107362380D02*
X70196904Y-107362380D01*
X69911190Y-107362380D02*
X69911190Y-106362380D01*
X70006428Y-106505238D01*
X70101666Y-106600476D01*
X70196904Y-106648095D01*
X68673095Y-107362380D02*
X69244523Y-107362380D01*
X68958809Y-107362380D02*
X68958809Y-106362380D01*
X69054047Y-106505238D01*
X69149285Y-106600476D01*
X69244523Y-106648095D01*
%TO.C,D15*%
X109249285Y-64499880D02*
X109249285Y-63499880D01*
X109011190Y-63499880D01*
X108868333Y-63547500D01*
X108773095Y-63642738D01*
X108725476Y-63737976D01*
X108677857Y-63928452D01*
X108677857Y-64071309D01*
X108725476Y-64261785D01*
X108773095Y-64357023D01*
X108868333Y-64452261D01*
X109011190Y-64499880D01*
X109249285Y-64499880D01*
X107725476Y-64499880D02*
X108296904Y-64499880D01*
X108011190Y-64499880D02*
X108011190Y-63499880D01*
X108106428Y-63642738D01*
X108201666Y-63737976D01*
X108296904Y-63785595D01*
X106820714Y-63499880D02*
X107296904Y-63499880D01*
X107344523Y-63976071D01*
X107296904Y-63928452D01*
X107201666Y-63880833D01*
X106963571Y-63880833D01*
X106868333Y-63928452D01*
X106820714Y-63976071D01*
X106773095Y-64071309D01*
X106773095Y-64309404D01*
X106820714Y-64404642D01*
X106868333Y-64452261D01*
X106963571Y-64499880D01*
X107201666Y-64499880D01*
X107296904Y-64452261D01*
X107344523Y-64404642D01*
%TO.C,D3*%
X108773095Y-107362380D02*
X108773095Y-106362380D01*
X108535000Y-106362380D01*
X108392142Y-106410000D01*
X108296904Y-106505238D01*
X108249285Y-106600476D01*
X108201666Y-106790952D01*
X108201666Y-106933809D01*
X108249285Y-107124285D01*
X108296904Y-107219523D01*
X108392142Y-107314761D01*
X108535000Y-107362380D01*
X108773095Y-107362380D01*
X107868333Y-106362380D02*
X107249285Y-106362380D01*
X107582619Y-106743333D01*
X107439761Y-106743333D01*
X107344523Y-106790952D01*
X107296904Y-106838571D01*
X107249285Y-106933809D01*
X107249285Y-107171904D01*
X107296904Y-107267142D01*
X107344523Y-107314761D01*
X107439761Y-107362380D01*
X107725476Y-107362380D01*
X107820714Y-107314761D01*
X107868333Y-107267142D01*
%TO.C,D7*%
X89723095Y-126412380D02*
X89723095Y-125412380D01*
X89485000Y-125412380D01*
X89342142Y-125460000D01*
X89246904Y-125555238D01*
X89199285Y-125650476D01*
X89151666Y-125840952D01*
X89151666Y-125983809D01*
X89199285Y-126174285D01*
X89246904Y-126269523D01*
X89342142Y-126364761D01*
X89485000Y-126412380D01*
X89723095Y-126412380D01*
X88818333Y-125412380D02*
X88151666Y-125412380D01*
X88580238Y-126412380D01*
%TO.C,D14*%
X90199285Y-64499880D02*
X90199285Y-63499880D01*
X89961190Y-63499880D01*
X89818333Y-63547500D01*
X89723095Y-63642738D01*
X89675476Y-63737976D01*
X89627857Y-63928452D01*
X89627857Y-64071309D01*
X89675476Y-64261785D01*
X89723095Y-64357023D01*
X89818333Y-64452261D01*
X89961190Y-64499880D01*
X90199285Y-64499880D01*
X88675476Y-64499880D02*
X89246904Y-64499880D01*
X88961190Y-64499880D02*
X88961190Y-63499880D01*
X89056428Y-63642738D01*
X89151666Y-63737976D01*
X89246904Y-63785595D01*
X87818333Y-63833214D02*
X87818333Y-64499880D01*
X88056428Y-63452261D02*
X88294523Y-64166547D01*
X87675476Y-64166547D01*
%TO.C,D2*%
X108773095Y-126412380D02*
X108773095Y-125412380D01*
X108535000Y-125412380D01*
X108392142Y-125460000D01*
X108296904Y-125555238D01*
X108249285Y-125650476D01*
X108201666Y-125840952D01*
X108201666Y-125983809D01*
X108249285Y-126174285D01*
X108296904Y-126269523D01*
X108392142Y-126364761D01*
X108535000Y-126412380D01*
X108773095Y-126412380D01*
X107820714Y-125507619D02*
X107773095Y-125460000D01*
X107677857Y-125412380D01*
X107439761Y-125412380D01*
X107344523Y-125460000D01*
X107296904Y-125507619D01*
X107249285Y-125602857D01*
X107249285Y-125698095D01*
X107296904Y-125840952D01*
X107868333Y-126412380D01*
X107249285Y-126412380D01*
%TO.C,D6*%
X89723095Y-107362380D02*
X89723095Y-106362380D01*
X89485000Y-106362380D01*
X89342142Y-106410000D01*
X89246904Y-106505238D01*
X89199285Y-106600476D01*
X89151666Y-106790952D01*
X89151666Y-106933809D01*
X89199285Y-107124285D01*
X89246904Y-107219523D01*
X89342142Y-107314761D01*
X89485000Y-107362380D01*
X89723095Y-107362380D01*
X88294523Y-106362380D02*
X88485000Y-106362380D01*
X88580238Y-106410000D01*
X88627857Y-106457619D01*
X88723095Y-106600476D01*
X88770714Y-106790952D01*
X88770714Y-107171904D01*
X88723095Y-107267142D01*
X88675476Y-107314761D01*
X88580238Y-107362380D01*
X88389761Y-107362380D01*
X88294523Y-107314761D01*
X88246904Y-107267142D01*
X88199285Y-107171904D01*
X88199285Y-106933809D01*
X88246904Y-106838571D01*
X88294523Y-106790952D01*
X88389761Y-106743333D01*
X88580238Y-106743333D01*
X88675476Y-106790952D01*
X88723095Y-106838571D01*
X88770714Y-106933809D01*
%TO.C,D8*%
X89723095Y-145462380D02*
X89723095Y-144462380D01*
X89485000Y-144462380D01*
X89342142Y-144510000D01*
X89246904Y-144605238D01*
X89199285Y-144700476D01*
X89151666Y-144890952D01*
X89151666Y-145033809D01*
X89199285Y-145224285D01*
X89246904Y-145319523D01*
X89342142Y-145414761D01*
X89485000Y-145462380D01*
X89723095Y-145462380D01*
X88580238Y-144890952D02*
X88675476Y-144843333D01*
X88723095Y-144795714D01*
X88770714Y-144700476D01*
X88770714Y-144652857D01*
X88723095Y-144557619D01*
X88675476Y-144510000D01*
X88580238Y-144462380D01*
X88389761Y-144462380D01*
X88294523Y-144510000D01*
X88246904Y-144557619D01*
X88199285Y-144652857D01*
X88199285Y-144700476D01*
X88246904Y-144795714D01*
X88294523Y-144843333D01*
X88389761Y-144890952D01*
X88580238Y-144890952D01*
X88675476Y-144938571D01*
X88723095Y-144986190D01*
X88770714Y-145081428D01*
X88770714Y-145271904D01*
X88723095Y-145367142D01*
X88675476Y-145414761D01*
X88580238Y-145462380D01*
X88389761Y-145462380D01*
X88294523Y-145414761D01*
X88246904Y-145367142D01*
X88199285Y-145271904D01*
X88199285Y-145081428D01*
X88246904Y-144986190D01*
X88294523Y-144938571D01*
X88389761Y-144890952D01*
%TO.C,D13*%
X71149285Y-64499880D02*
X71149285Y-63499880D01*
X70911190Y-63499880D01*
X70768333Y-63547500D01*
X70673095Y-63642738D01*
X70625476Y-63737976D01*
X70577857Y-63928452D01*
X70577857Y-64071309D01*
X70625476Y-64261785D01*
X70673095Y-64357023D01*
X70768333Y-64452261D01*
X70911190Y-64499880D01*
X71149285Y-64499880D01*
X69625476Y-64499880D02*
X70196904Y-64499880D01*
X69911190Y-64499880D02*
X69911190Y-63499880D01*
X70006428Y-63642738D01*
X70101666Y-63737976D01*
X70196904Y-63785595D01*
X69292142Y-63499880D02*
X68673095Y-63499880D01*
X69006428Y-63880833D01*
X68863571Y-63880833D01*
X68768333Y-63928452D01*
X68720714Y-63976071D01*
X68673095Y-64071309D01*
X68673095Y-64309404D01*
X68720714Y-64404642D01*
X68768333Y-64452261D01*
X68863571Y-64499880D01*
X69149285Y-64499880D01*
X69244523Y-64452261D01*
X69292142Y-64404642D01*
%TO.C,D1*%
X108773095Y-145462380D02*
X108773095Y-144462380D01*
X108535000Y-144462380D01*
X108392142Y-144510000D01*
X108296904Y-144605238D01*
X108249285Y-144700476D01*
X108201666Y-144890952D01*
X108201666Y-145033809D01*
X108249285Y-145224285D01*
X108296904Y-145319523D01*
X108392142Y-145414761D01*
X108535000Y-145462380D01*
X108773095Y-145462380D01*
X107249285Y-145462380D02*
X107820714Y-145462380D01*
X107535000Y-145462380D02*
X107535000Y-144462380D01*
X107630238Y-144605238D01*
X107725476Y-144700476D01*
X107820714Y-144748095D01*
%TO.C,D12*%
X71149285Y-88312380D02*
X71149285Y-87312380D01*
X70911190Y-87312380D01*
X70768333Y-87360000D01*
X70673095Y-87455238D01*
X70625476Y-87550476D01*
X70577857Y-87740952D01*
X70577857Y-87883809D01*
X70625476Y-88074285D01*
X70673095Y-88169523D01*
X70768333Y-88264761D01*
X70911190Y-88312380D01*
X71149285Y-88312380D01*
X69625476Y-88312380D02*
X70196904Y-88312380D01*
X69911190Y-88312380D02*
X69911190Y-87312380D01*
X70006428Y-87455238D01*
X70101666Y-87550476D01*
X70196904Y-87598095D01*
X69244523Y-87407619D02*
X69196904Y-87360000D01*
X69101666Y-87312380D01*
X68863571Y-87312380D01*
X68768333Y-87360000D01*
X68720714Y-87407619D01*
X68673095Y-87502857D01*
X68673095Y-87598095D01*
X68720714Y-87740952D01*
X69292142Y-88312380D01*
X68673095Y-88312380D01*
%TO.C,D9*%
X70673095Y-145462380D02*
X70673095Y-144462380D01*
X70435000Y-144462380D01*
X70292142Y-144510000D01*
X70196904Y-144605238D01*
X70149285Y-144700476D01*
X70101666Y-144890952D01*
X70101666Y-145033809D01*
X70149285Y-145224285D01*
X70196904Y-145319523D01*
X70292142Y-145414761D01*
X70435000Y-145462380D01*
X70673095Y-145462380D01*
X69625476Y-145462380D02*
X69435000Y-145462380D01*
X69339761Y-145414761D01*
X69292142Y-145367142D01*
X69196904Y-145224285D01*
X69149285Y-145033809D01*
X69149285Y-144652857D01*
X69196904Y-144557619D01*
X69244523Y-144510000D01*
X69339761Y-144462380D01*
X69530238Y-144462380D01*
X69625476Y-144510000D01*
X69673095Y-144557619D01*
X69720714Y-144652857D01*
X69720714Y-144890952D01*
X69673095Y-144986190D01*
X69625476Y-145033809D01*
X69530238Y-145081428D01*
X69339761Y-145081428D01*
X69244523Y-145033809D01*
X69196904Y-144986190D01*
X69149285Y-144890952D01*
%TO.C,D10*%
X71149285Y-126412380D02*
X71149285Y-125412380D01*
X70911190Y-125412380D01*
X70768333Y-125460000D01*
X70673095Y-125555238D01*
X70625476Y-125650476D01*
X70577857Y-125840952D01*
X70577857Y-125983809D01*
X70625476Y-126174285D01*
X70673095Y-126269523D01*
X70768333Y-126364761D01*
X70911190Y-126412380D01*
X71149285Y-126412380D01*
X69625476Y-126412380D02*
X70196904Y-126412380D01*
X69911190Y-126412380D02*
X69911190Y-125412380D01*
X70006428Y-125555238D01*
X70101666Y-125650476D01*
X70196904Y-125698095D01*
X69006428Y-125412380D02*
X68911190Y-125412380D01*
X68815952Y-125460000D01*
X68768333Y-125507619D01*
X68720714Y-125602857D01*
X68673095Y-125793333D01*
X68673095Y-126031428D01*
X68720714Y-126221904D01*
X68768333Y-126317142D01*
X68815952Y-126364761D01*
X68911190Y-126412380D01*
X69006428Y-126412380D01*
X69101666Y-126364761D01*
X69149285Y-126317142D01*
X69196904Y-126221904D01*
X69244523Y-126031428D01*
X69244523Y-125793333D01*
X69196904Y-125602857D01*
X69149285Y-125507619D01*
X69101666Y-125460000D01*
X69006428Y-125412380D01*
%TO.C,D4*%
X108773095Y-88312380D02*
X108773095Y-87312380D01*
X108535000Y-87312380D01*
X108392142Y-87360000D01*
X108296904Y-87455238D01*
X108249285Y-87550476D01*
X108201666Y-87740952D01*
X108201666Y-87883809D01*
X108249285Y-88074285D01*
X108296904Y-88169523D01*
X108392142Y-88264761D01*
X108535000Y-88312380D01*
X108773095Y-88312380D01*
X107344523Y-87645714D02*
X107344523Y-88312380D01*
X107582619Y-87264761D02*
X107820714Y-87979047D01*
X107201666Y-87979047D01*
%TO.C,D5*%
X95946095Y-89328380D02*
X95946095Y-88328380D01*
X95708000Y-88328380D01*
X95565142Y-88376000D01*
X95469904Y-88471238D01*
X95422285Y-88566476D01*
X95374666Y-88756952D01*
X95374666Y-88899809D01*
X95422285Y-89090285D01*
X95469904Y-89185523D01*
X95565142Y-89280761D01*
X95708000Y-89328380D01*
X95946095Y-89328380D01*
X94469904Y-88328380D02*
X94946095Y-88328380D01*
X94993714Y-88804571D01*
X94946095Y-88756952D01*
X94850857Y-88709333D01*
X94612761Y-88709333D01*
X94517523Y-88756952D01*
X94469904Y-88804571D01*
X94422285Y-88899809D01*
X94422285Y-89137904D01*
X94469904Y-89233142D01*
X94517523Y-89280761D01*
X94612761Y-89328380D01*
X94850857Y-89328380D01*
X94946095Y-89280761D01*
X94993714Y-89233142D01*
%TO.C,JP12*%
X67561523Y-81216380D02*
X67561523Y-81930666D01*
X67609142Y-82073523D01*
X67704380Y-82168761D01*
X67847238Y-82216380D01*
X67942476Y-82216380D01*
X67085333Y-82216380D02*
X67085333Y-81216380D01*
X66704380Y-81216380D01*
X66609142Y-81264000D01*
X66561523Y-81311619D01*
X66513904Y-81406857D01*
X66513904Y-81549714D01*
X66561523Y-81644952D01*
X66609142Y-81692571D01*
X66704380Y-81740190D01*
X67085333Y-81740190D01*
X65561523Y-82216380D02*
X66132952Y-82216380D01*
X65847238Y-82216380D02*
X65847238Y-81216380D01*
X65942476Y-81359238D01*
X66037714Y-81454476D01*
X66132952Y-81502095D01*
X65180571Y-81311619D02*
X65132952Y-81264000D01*
X65037714Y-81216380D01*
X64799619Y-81216380D01*
X64704380Y-81264000D01*
X64656761Y-81311619D01*
X64609142Y-81406857D01*
X64609142Y-81502095D01*
X64656761Y-81644952D01*
X65228190Y-82216380D01*
X64609142Y-82216380D01*
%TO.C,JP4*%
X118647333Y-81216380D02*
X118647333Y-81930666D01*
X118694952Y-82073523D01*
X118790190Y-82168761D01*
X118933047Y-82216380D01*
X119028285Y-82216380D01*
X118171142Y-82216380D02*
X118171142Y-81216380D01*
X117790190Y-81216380D01*
X117694952Y-81264000D01*
X117647333Y-81311619D01*
X117599714Y-81406857D01*
X117599714Y-81549714D01*
X117647333Y-81644952D01*
X117694952Y-81692571D01*
X117790190Y-81740190D01*
X118171142Y-81740190D01*
X116742571Y-81549714D02*
X116742571Y-82216380D01*
X116980666Y-81168761D02*
X117218761Y-81883047D01*
X116599714Y-81883047D01*
%TO.C,U1*%
X92921904Y-58419880D02*
X92921904Y-59229404D01*
X92874285Y-59324642D01*
X92826666Y-59372261D01*
X92731428Y-59419880D01*
X92540952Y-59419880D01*
X92445714Y-59372261D01*
X92398095Y-59324642D01*
X92350476Y-59229404D01*
X92350476Y-58419880D01*
X91350476Y-59419880D02*
X91921904Y-59419880D01*
X91636190Y-59419880D02*
X91636190Y-58419880D01*
X91731428Y-58562738D01*
X91826666Y-58657976D01*
X91921904Y-58705595D01*
%TO.C,JPF3*%
X74371904Y-116627380D02*
X74371904Y-117341666D01*
X74419523Y-117484523D01*
X74514761Y-117579761D01*
X74657619Y-117627380D01*
X74752857Y-117627380D01*
X73895714Y-117627380D02*
X73895714Y-116627380D01*
X73514761Y-116627380D01*
X73419523Y-116675000D01*
X73371904Y-116722619D01*
X73324285Y-116817857D01*
X73324285Y-116960714D01*
X73371904Y-117055952D01*
X73419523Y-117103571D01*
X73514761Y-117151190D01*
X73895714Y-117151190D01*
X72562380Y-117103571D02*
X72895714Y-117103571D01*
X72895714Y-117627380D02*
X72895714Y-116627380D01*
X72419523Y-116627380D01*
X72133809Y-116627380D02*
X71514761Y-116627380D01*
X71848095Y-117008333D01*
X71705238Y-117008333D01*
X71610000Y-117055952D01*
X71562380Y-117103571D01*
X71514761Y-117198809D01*
X71514761Y-117436904D01*
X71562380Y-117532142D01*
X71610000Y-117579761D01*
X71705238Y-117627380D01*
X71990952Y-117627380D01*
X72086190Y-117579761D01*
X72133809Y-117532142D01*
%TO.C,JP1*%
X118647333Y-138366380D02*
X118647333Y-139080666D01*
X118694952Y-139223523D01*
X118790190Y-139318761D01*
X118933047Y-139366380D01*
X119028285Y-139366380D01*
X118171142Y-139366380D02*
X118171142Y-138366380D01*
X117790190Y-138366380D01*
X117694952Y-138414000D01*
X117647333Y-138461619D01*
X117599714Y-138556857D01*
X117599714Y-138699714D01*
X117647333Y-138794952D01*
X117694952Y-138842571D01*
X117790190Y-138890190D01*
X118171142Y-138890190D01*
X116647333Y-139366380D02*
X117218761Y-139366380D01*
X116933047Y-139366380D02*
X116933047Y-138366380D01*
X117028285Y-138509238D01*
X117123523Y-138604476D01*
X117218761Y-138652095D01*
%TO.C,JP2*%
X118647333Y-119316380D02*
X118647333Y-120030666D01*
X118694952Y-120173523D01*
X118790190Y-120268761D01*
X118933047Y-120316380D01*
X119028285Y-120316380D01*
X118171142Y-120316380D02*
X118171142Y-119316380D01*
X117790190Y-119316380D01*
X117694952Y-119364000D01*
X117647333Y-119411619D01*
X117599714Y-119506857D01*
X117599714Y-119649714D01*
X117647333Y-119744952D01*
X117694952Y-119792571D01*
X117790190Y-119840190D01*
X118171142Y-119840190D01*
X117218761Y-119411619D02*
X117171142Y-119364000D01*
X117075904Y-119316380D01*
X116837809Y-119316380D01*
X116742571Y-119364000D01*
X116694952Y-119411619D01*
X116647333Y-119506857D01*
X116647333Y-119602095D01*
X116694952Y-119744952D01*
X117266380Y-120316380D01*
X116647333Y-120316380D01*
%TO.C,JP10*%
X67561523Y-119316380D02*
X67561523Y-120030666D01*
X67609142Y-120173523D01*
X67704380Y-120268761D01*
X67847238Y-120316380D01*
X67942476Y-120316380D01*
X67085333Y-120316380D02*
X67085333Y-119316380D01*
X66704380Y-119316380D01*
X66609142Y-119364000D01*
X66561523Y-119411619D01*
X66513904Y-119506857D01*
X66513904Y-119649714D01*
X66561523Y-119744952D01*
X66609142Y-119792571D01*
X66704380Y-119840190D01*
X67085333Y-119840190D01*
X65561523Y-120316380D02*
X66132952Y-120316380D01*
X65847238Y-120316380D02*
X65847238Y-119316380D01*
X65942476Y-119459238D01*
X66037714Y-119554476D01*
X66132952Y-119602095D01*
X64942476Y-119316380D02*
X64847238Y-119316380D01*
X64752000Y-119364000D01*
X64704380Y-119411619D01*
X64656761Y-119506857D01*
X64609142Y-119697333D01*
X64609142Y-119935428D01*
X64656761Y-120125904D01*
X64704380Y-120221142D01*
X64752000Y-120268761D01*
X64847238Y-120316380D01*
X64942476Y-120316380D01*
X65037714Y-120268761D01*
X65085333Y-120221142D01*
X65132952Y-120125904D01*
X65180571Y-119935428D01*
X65180571Y-119697333D01*
X65132952Y-119506857D01*
X65085333Y-119411619D01*
X65037714Y-119364000D01*
X64942476Y-119316380D01*
%TO.C,JP13*%
X63269380Y-59626476D02*
X63983666Y-59626476D01*
X64126523Y-59578857D01*
X64221761Y-59483619D01*
X64269380Y-59340761D01*
X64269380Y-59245523D01*
X64269380Y-60102666D02*
X63269380Y-60102666D01*
X63269380Y-60483619D01*
X63317000Y-60578857D01*
X63364619Y-60626476D01*
X63459857Y-60674095D01*
X63602714Y-60674095D01*
X63697952Y-60626476D01*
X63745571Y-60578857D01*
X63793190Y-60483619D01*
X63793190Y-60102666D01*
X64269380Y-61626476D02*
X64269380Y-61055047D01*
X64269380Y-61340761D02*
X63269380Y-61340761D01*
X63412238Y-61245523D01*
X63507476Y-61150285D01*
X63555095Y-61055047D01*
X63269380Y-61959809D02*
X63269380Y-62578857D01*
X63650333Y-62245523D01*
X63650333Y-62388380D01*
X63697952Y-62483619D01*
X63745571Y-62531238D01*
X63840809Y-62578857D01*
X64078904Y-62578857D01*
X64174142Y-62531238D01*
X64221761Y-62483619D01*
X64269380Y-62388380D01*
X64269380Y-62102666D01*
X64221761Y-62007428D01*
X64174142Y-61959809D01*
%TO.C,JPF1*%
X112471904Y-116627380D02*
X112471904Y-117341666D01*
X112519523Y-117484523D01*
X112614761Y-117579761D01*
X112757619Y-117627380D01*
X112852857Y-117627380D01*
X111995714Y-117627380D02*
X111995714Y-116627380D01*
X111614761Y-116627380D01*
X111519523Y-116675000D01*
X111471904Y-116722619D01*
X111424285Y-116817857D01*
X111424285Y-116960714D01*
X111471904Y-117055952D01*
X111519523Y-117103571D01*
X111614761Y-117151190D01*
X111995714Y-117151190D01*
X110662380Y-117103571D02*
X110995714Y-117103571D01*
X110995714Y-117627380D02*
X110995714Y-116627380D01*
X110519523Y-116627380D01*
X109614761Y-117627380D02*
X110186190Y-117627380D01*
X109900476Y-117627380D02*
X109900476Y-116627380D01*
X109995714Y-116770238D01*
X110090952Y-116865476D01*
X110186190Y-116913095D01*
%TO.C,JP11*%
X67561523Y-100520380D02*
X67561523Y-101234666D01*
X67609142Y-101377523D01*
X67704380Y-101472761D01*
X67847238Y-101520380D01*
X67942476Y-101520380D01*
X67085333Y-101520380D02*
X67085333Y-100520380D01*
X66704380Y-100520380D01*
X66609142Y-100568000D01*
X66561523Y-100615619D01*
X66513904Y-100710857D01*
X66513904Y-100853714D01*
X66561523Y-100948952D01*
X66609142Y-100996571D01*
X66704380Y-101044190D01*
X67085333Y-101044190D01*
X65561523Y-101520380D02*
X66132952Y-101520380D01*
X65847238Y-101520380D02*
X65847238Y-100520380D01*
X65942476Y-100663238D01*
X66037714Y-100758476D01*
X66132952Y-100806095D01*
X64609142Y-101520380D02*
X65180571Y-101520380D01*
X64894857Y-101520380D02*
X64894857Y-100520380D01*
X64990095Y-100663238D01*
X65085333Y-100758476D01*
X65180571Y-100806095D01*
%TO.C,JP3*%
X118647333Y-100266380D02*
X118647333Y-100980666D01*
X118694952Y-101123523D01*
X118790190Y-101218761D01*
X118933047Y-101266380D01*
X119028285Y-101266380D01*
X118171142Y-101266380D02*
X118171142Y-100266380D01*
X117790190Y-100266380D01*
X117694952Y-100314000D01*
X117647333Y-100361619D01*
X117599714Y-100456857D01*
X117599714Y-100599714D01*
X117647333Y-100694952D01*
X117694952Y-100742571D01*
X117790190Y-100790190D01*
X118171142Y-100790190D01*
X117266380Y-100266380D02*
X116647333Y-100266380D01*
X116980666Y-100647333D01*
X116837809Y-100647333D01*
X116742571Y-100694952D01*
X116694952Y-100742571D01*
X116647333Y-100837809D01*
X116647333Y-101075904D01*
X116694952Y-101171142D01*
X116742571Y-101218761D01*
X116837809Y-101266380D01*
X117123523Y-101266380D01*
X117218761Y-101218761D01*
X117266380Y-101171142D01*
%TO.C,JPF2*%
X93421904Y-116627380D02*
X93421904Y-117341666D01*
X93469523Y-117484523D01*
X93564761Y-117579761D01*
X93707619Y-117627380D01*
X93802857Y-117627380D01*
X92945714Y-117627380D02*
X92945714Y-116627380D01*
X92564761Y-116627380D01*
X92469523Y-116675000D01*
X92421904Y-116722619D01*
X92374285Y-116817857D01*
X92374285Y-116960714D01*
X92421904Y-117055952D01*
X92469523Y-117103571D01*
X92564761Y-117151190D01*
X92945714Y-117151190D01*
X91612380Y-117103571D02*
X91945714Y-117103571D01*
X91945714Y-117627380D02*
X91945714Y-116627380D01*
X91469523Y-116627380D01*
X91136190Y-116722619D02*
X91088571Y-116675000D01*
X90993333Y-116627380D01*
X90755238Y-116627380D01*
X90660000Y-116675000D01*
X90612380Y-116722619D01*
X90564761Y-116817857D01*
X90564761Y-116913095D01*
X90612380Y-117055952D01*
X91183809Y-117627380D01*
X90564761Y-117627380D01*
%TO.C,JP9*%
X67085333Y-138620380D02*
X67085333Y-139334666D01*
X67132952Y-139477523D01*
X67228190Y-139572761D01*
X67371047Y-139620380D01*
X67466285Y-139620380D01*
X66609142Y-139620380D02*
X66609142Y-138620380D01*
X66228190Y-138620380D01*
X66132952Y-138668000D01*
X66085333Y-138715619D01*
X66037714Y-138810857D01*
X66037714Y-138953714D01*
X66085333Y-139048952D01*
X66132952Y-139096571D01*
X66228190Y-139144190D01*
X66609142Y-139144190D01*
X65561523Y-139620380D02*
X65371047Y-139620380D01*
X65275809Y-139572761D01*
X65228190Y-139525142D01*
X65132952Y-139382285D01*
X65085333Y-139191809D01*
X65085333Y-138810857D01*
X65132952Y-138715619D01*
X65180571Y-138668000D01*
X65275809Y-138620380D01*
X65466285Y-138620380D01*
X65561523Y-138668000D01*
X65609142Y-138715619D01*
X65656761Y-138810857D01*
X65656761Y-139048952D01*
X65609142Y-139144190D01*
X65561523Y-139191809D01*
X65466285Y-139239428D01*
X65275809Y-139239428D01*
X65180571Y-139191809D01*
X65132952Y-139144190D01*
X65085333Y-139048952D01*
D12*
%TO.C,D11*%
X69310000Y-103150000D02*
X70210000Y-103150000D01*
X69310000Y-104150000D02*
X69310000Y-103150000D01*
%TO.C,D15*%
X107410000Y-60287500D02*
X108310000Y-60287500D01*
X107410000Y-61287500D02*
X107410000Y-60287500D01*
%TO.C,D3*%
X107410000Y-103150000D02*
X108310000Y-103150000D01*
X107410000Y-104150000D02*
X107410000Y-103150000D01*
%TO.C,D7*%
X88360000Y-123200000D02*
X88360000Y-122200000D01*
X88360000Y-122200000D02*
X89260000Y-122200000D01*
%TO.C,D14*%
X88360000Y-61287500D02*
X88360000Y-60287500D01*
X88360000Y-60287500D02*
X89260000Y-60287500D01*
%TO.C,D2*%
X107410000Y-123200000D02*
X107410000Y-122200000D01*
X107410000Y-122200000D02*
X108310000Y-122200000D01*
%TO.C,D6*%
X88360000Y-103150000D02*
X89260000Y-103150000D01*
X88360000Y-104150000D02*
X88360000Y-103150000D01*
%TO.C,D8*%
X88360000Y-141250000D02*
X89260000Y-141250000D01*
X88360000Y-142250000D02*
X88360000Y-141250000D01*
%TO.C,D13*%
X69310000Y-61287500D02*
X69310000Y-60287500D01*
X69310000Y-60287500D02*
X70210000Y-60287500D01*
%TO.C,D1*%
X107410000Y-142250000D02*
X107410000Y-141250000D01*
X107410000Y-141250000D02*
X108310000Y-141250000D01*
%TO.C,D12*%
X69310000Y-84100000D02*
X70210000Y-84100000D01*
X69310000Y-85100000D02*
X69310000Y-84100000D01*
%TO.C,D9*%
X69310000Y-141250000D02*
X70210000Y-141250000D01*
X69310000Y-142250000D02*
X69310000Y-141250000D01*
%TO.C,D10*%
X69310000Y-122200000D02*
X70210000Y-122200000D01*
X69310000Y-123200000D02*
X69310000Y-122200000D01*
%TO.C,D4*%
X107410000Y-85100000D02*
X107410000Y-84100000D01*
X107410000Y-84100000D02*
X108310000Y-84100000D01*
%TO.C,D5*%
X88360000Y-85100000D02*
X88360000Y-84100000D01*
X88360000Y-84100000D02*
X89260000Y-84100000D01*
%TO.C,JP12*%
X66617000Y-85704000D02*
X66617000Y-82904000D01*
X64617000Y-82904000D02*
X64617000Y-85704000D01*
X66617000Y-82904000D02*
X64617000Y-82904000D01*
X64617000Y-85704000D02*
X66617000Y-85704000D01*
%TO.C,JP4*%
X119195000Y-85703999D02*
X119195000Y-82903999D01*
X117195000Y-85703999D02*
X119195000Y-85703999D01*
X119195000Y-82903999D02*
X117195000Y-82903999D01*
X117195000Y-82903999D02*
X117195000Y-85703999D01*
%TO.C,U1*%
X85175000Y-56522500D02*
X80785000Y-56522500D01*
X85810000Y-57697500D02*
X83270000Y-57697500D01*
X101110000Y-60237500D02*
X98450000Y-60237500D01*
X83270000Y-108497500D02*
X85810000Y-108497500D01*
X85810000Y-108497500D02*
X85810000Y-57697500D01*
X98450000Y-60237500D02*
X98450000Y-108557500D01*
X101110000Y-57637500D02*
X99780000Y-57637500D01*
X80785000Y-109672500D02*
X103535000Y-109672500D01*
X80785000Y-109672500D02*
X80785000Y-105282500D01*
X103535000Y-56522500D02*
X99145000Y-56522500D01*
X101110000Y-58967500D02*
X101110000Y-57637500D01*
X98450000Y-108557500D02*
X101110000Y-108557500D01*
X103535000Y-56522500D02*
X103535000Y-60912500D01*
X103535000Y-109672500D02*
X103535000Y-105282500D01*
X101110000Y-108557500D02*
X101110000Y-60237500D01*
X83270000Y-57697500D02*
X83270000Y-108497500D01*
X80785000Y-56522500D02*
X80785000Y-60912500D01*
%TO.C,JPF3*%
X74510000Y-117975000D02*
X71710000Y-117975000D01*
X74510000Y-119975000D02*
X74510000Y-117975000D01*
X71710000Y-117975000D02*
X71710000Y-119975000D01*
X71710000Y-119975000D02*
X74510000Y-119975000D01*
%TO.C,JP1*%
X119195000Y-142854000D02*
X119195000Y-140054000D01*
X119195000Y-140054000D02*
X117195000Y-140054000D01*
X117195000Y-140054000D02*
X117195000Y-142854000D01*
X117195000Y-142854000D02*
X119195000Y-142854000D01*
%TO.C,JP2*%
X119195000Y-123804000D02*
X119195000Y-121004000D01*
X117195000Y-123804000D02*
X119195000Y-123804000D01*
X119195000Y-121004000D02*
X117195000Y-121004000D01*
X117195000Y-121004000D02*
X117195000Y-123804000D01*
%TO.C,JP10*%
X64617000Y-121004000D02*
X64617000Y-123804000D01*
X64617000Y-123804000D02*
X66617000Y-123804000D01*
X66617000Y-123804000D02*
X66617000Y-121004000D01*
X66617000Y-121004000D02*
X64617000Y-121004000D01*
%TO.C,JP13*%
X64617000Y-62336000D02*
X66617000Y-62336000D01*
X64617000Y-59536000D02*
X64617000Y-62336000D01*
X66617000Y-59536000D02*
X64617000Y-59536000D01*
X66617000Y-62336000D02*
X66617000Y-59536000D01*
%TO.C,JPF1*%
X109810000Y-117975000D02*
X109810000Y-119975000D01*
X112610000Y-119975000D02*
X112610000Y-117975000D01*
X112610000Y-117975000D02*
X109810000Y-117975000D01*
X109810000Y-119975000D02*
X112610000Y-119975000D01*
%TO.C,JP11*%
X66617000Y-101954000D02*
X64617000Y-101954000D01*
X64617000Y-101954000D02*
X64617000Y-104754000D01*
X64617000Y-104754000D02*
X66617000Y-104754000D01*
X66617000Y-104754000D02*
X66617000Y-101954000D01*
%TO.C,JP3*%
X119195000Y-101954000D02*
X117195000Y-101954000D01*
X119195000Y-104754000D02*
X119195000Y-101954000D01*
X117195000Y-101954000D02*
X117195000Y-104754000D01*
X117195000Y-104754000D02*
X119195000Y-104754000D01*
%TO.C,JPF2*%
X90760000Y-117975000D02*
X90760000Y-119975000D01*
X90760000Y-119975000D02*
X93560000Y-119975000D01*
X93560000Y-117975000D02*
X90760000Y-117975000D01*
X93560000Y-119975000D02*
X93560000Y-117975000D01*
%TO.C,JP9*%
X64617000Y-142854000D02*
X66617000Y-142854000D01*
X66617000Y-142854000D02*
X66617000Y-140054000D01*
X64617000Y-140054000D02*
X64617000Y-142854000D01*
X66617000Y-140054000D02*
X64617000Y-140054000D01*
%TD*%
%LPC*%
D13*
%TO.C,EN4*%
X65610000Y-106950000D03*
D14*
X65610000Y-111950000D03*
X65610000Y-109450000D03*
X80110000Y-111950000D03*
X80110000Y-106950000D03*
%TD*%
D15*
%TO.C,D11*%
X75835000Y-105400000D03*
X75835000Y-103900000D03*
X70385000Y-105400000D03*
D16*
X70385000Y-103900000D03*
%TD*%
D13*
%TO.C,EN3*%
X103710000Y-87900000D03*
D14*
X103710000Y-92900000D03*
X103710000Y-90400000D03*
X118210000Y-92900000D03*
X118210000Y-87900000D03*
%TD*%
D17*
%TO.C,SW4*%
X116290000Y-90400000D03*
X106130000Y-90400000D03*
D18*
X111210000Y-90400000D03*
D19*
X115020000Y-92940000D03*
X108670000Y-95480000D03*
%TD*%
D15*
%TO.C,D15*%
X113935000Y-62537500D03*
X113935000Y-61037500D03*
X108485000Y-62537500D03*
D16*
X108485000Y-61037500D03*
%TD*%
D17*
%TO.C,SW13*%
X116290000Y-147550000D03*
X106130000Y-147550000D03*
D18*
X111210000Y-147550000D03*
D19*
X115020000Y-150090000D03*
D20*
X108670000Y-152780000D03*
D19*
X108670000Y-152630000D03*
%TD*%
D13*
%TO.C,EN7*%
X103710000Y-126000000D03*
D14*
X103710000Y-131000000D03*
X103710000Y-128500000D03*
X118210000Y-131000000D03*
X118210000Y-126000000D03*
%TD*%
D15*
%TO.C,D3*%
X113935000Y-105400000D03*
X113935000Y-103900000D03*
X108485000Y-105400000D03*
D16*
X108485000Y-103900000D03*
%TD*%
D13*
%TO.C,EN6*%
X65610000Y-126000000D03*
D14*
X65610000Y-131000000D03*
X65610000Y-128500000D03*
X80110000Y-131000000D03*
X80110000Y-126000000D03*
%TD*%
D15*
%TO.C,D7*%
X94885000Y-124450000D03*
X94885000Y-122950000D03*
X89435000Y-124450000D03*
D16*
X89435000Y-122950000D03*
%TD*%
D13*
%TO.C,EN8*%
X65610000Y-145050000D03*
D14*
X65610000Y-150050000D03*
X65610000Y-147550000D03*
X80110000Y-150050000D03*
X80110000Y-145050000D03*
%TD*%
D18*
%TO.C,SW3*%
X92160000Y-90400000D03*
D17*
X87080000Y-90400000D03*
X97240000Y-90400000D03*
D19*
X95970000Y-92940000D03*
X89620000Y-95480000D03*
%TD*%
D15*
%TO.C,D14*%
X94885000Y-62537500D03*
X94885000Y-61037500D03*
X89435000Y-62537500D03*
D16*
X89435000Y-61037500D03*
%TD*%
D13*
%TO.C,EN9*%
X103710000Y-145050000D03*
D14*
X103710000Y-150050000D03*
X103710000Y-147550000D03*
X118210000Y-150050000D03*
X118210000Y-145050000D03*
%TD*%
D18*
%TO.C,SW14*%
X92160000Y-66587500D03*
D17*
X87080000Y-66587500D03*
X97240000Y-66587500D03*
D19*
X95970000Y-69127500D03*
X89620000Y-71667500D03*
%TD*%
D14*
%TO.C,OL1*%
X119415000Y-70397500D03*
X119415000Y-67857500D03*
X119415000Y-65317500D03*
X119415000Y-62777500D03*
%TD*%
D15*
%TO.C,D2*%
X113935000Y-124450000D03*
X113935000Y-122950000D03*
X108485000Y-124450000D03*
D16*
X108485000Y-122950000D03*
%TD*%
D15*
%TO.C,D6*%
X94885000Y-105400000D03*
X94885000Y-103900000D03*
X89435000Y-105400000D03*
D16*
X89435000Y-103900000D03*
%TD*%
D15*
%TO.C,D8*%
X94885000Y-143500000D03*
X94885000Y-142000000D03*
X89435000Y-143500000D03*
D16*
X89435000Y-142000000D03*
%TD*%
D15*
%TO.C,D13*%
X75835000Y-62537500D03*
X75835000Y-61037500D03*
X70385000Y-62537500D03*
D16*
X70385000Y-61037500D03*
%TD*%
D17*
%TO.C,SW9*%
X97240000Y-128500000D03*
X87080000Y-128500000D03*
D18*
X92160000Y-128500000D03*
D19*
X95970000Y-131040000D03*
X89620000Y-133580000D03*
%TD*%
D13*
%TO.C,EN1*%
X65610000Y-64087500D03*
D14*
X65610000Y-69087500D03*
X65610000Y-66587500D03*
X80110000Y-69087500D03*
X80110000Y-64087500D03*
%TD*%
D15*
%TO.C,D1*%
X113935000Y-143500000D03*
X113935000Y-142000000D03*
X108485000Y-143500000D03*
D16*
X108485000Y-142000000D03*
%TD*%
D21*
%TO.C,H4*%
X101685000Y-118975000D03*
%TD*%
D18*
%TO.C,SW11*%
X73110000Y-147550000D03*
D17*
X68030000Y-147550000D03*
X78190000Y-147550000D03*
D19*
X76920000Y-150090000D03*
X70570000Y-152630000D03*
D20*
X70570000Y-152780000D03*
%TD*%
D17*
%TO.C,SW15*%
X116290000Y-66587500D03*
D18*
X111210000Y-66587500D03*
D17*
X106130000Y-66587500D03*
D19*
X115020000Y-69127500D03*
X108670000Y-71667500D03*
%TD*%
D14*
%TO.C,VR3*%
X114960000Y-152780000D03*
X112460000Y-152780000D03*
D22*
X109960000Y-82480000D03*
D14*
X114960000Y-82780000D03*
%TD*%
D15*
%TO.C,D12*%
X75835000Y-86350000D03*
X75835000Y-84850000D03*
X70385000Y-86350000D03*
D16*
X70385000Y-84850000D03*
%TD*%
D15*
%TO.C,D9*%
X75835000Y-143500000D03*
X75835000Y-142000000D03*
X70385000Y-143500000D03*
D16*
X70385000Y-142000000D03*
%TD*%
D17*
%TO.C,SW8*%
X78190000Y-128500000D03*
X68030000Y-128500000D03*
D18*
X73110000Y-128500000D03*
D19*
X76920000Y-131040000D03*
X70570000Y-133580000D03*
%TD*%
D13*
%TO.C,EN5*%
X103710000Y-106950000D03*
D14*
X103710000Y-111950000D03*
X103710000Y-109450000D03*
X118210000Y-111950000D03*
X118210000Y-106950000D03*
%TD*%
D17*
%TO.C,SW12*%
X97240000Y-147550000D03*
X87080000Y-147550000D03*
D18*
X92160000Y-147550000D03*
D19*
X95970000Y-150090000D03*
X89620000Y-152630000D03*
D20*
X89620000Y-152780000D03*
%TD*%
D15*
%TO.C,D10*%
X75835000Y-124450000D03*
X75835000Y-122950000D03*
X70385000Y-124450000D03*
D16*
X70385000Y-122950000D03*
%TD*%
D18*
%TO.C,SW7*%
X111210000Y-109450000D03*
D17*
X106130000Y-109450000D03*
X116290000Y-109450000D03*
D19*
X115020000Y-111990000D03*
X108670000Y-114530000D03*
%TD*%
D17*
%TO.C,SW6*%
X97240000Y-109450000D03*
X87080000Y-109450000D03*
D18*
X92160000Y-109450000D03*
D19*
X95970000Y-111990000D03*
X89620000Y-114530000D03*
%TD*%
D17*
%TO.C,SW10*%
X106130000Y-128500000D03*
D18*
X111210000Y-128500000D03*
D17*
X116290000Y-128500000D03*
D19*
X115020000Y-131040000D03*
X108670000Y-133580000D03*
%TD*%
D13*
%TO.C,EN2*%
X65610000Y-87900000D03*
D14*
X65610000Y-92900000D03*
X65610000Y-90400000D03*
X80110000Y-92900000D03*
X80110000Y-87900000D03*
%TD*%
D15*
%TO.C,D4*%
X113935000Y-86350000D03*
X113935000Y-84850000D03*
X108485000Y-86350000D03*
D16*
X108485000Y-84850000D03*
%TD*%
D15*
%TO.C,D5*%
X94885000Y-86350000D03*
X94885000Y-84850000D03*
X89435000Y-86350000D03*
D16*
X89435000Y-84850000D03*
%TD*%
D14*
%TO.C,VR2*%
X95910000Y-152705000D03*
X93410000Y-152705000D03*
D22*
X90910000Y-82405000D03*
D14*
X95910000Y-82705000D03*
%TD*%
D17*
%TO.C,SW5*%
X78190000Y-109450000D03*
D18*
X73110000Y-109450000D03*
D17*
X68030000Y-109450000D03*
D19*
X76920000Y-111990000D03*
X70570000Y-114530000D03*
%TD*%
D18*
%TO.C,SW2*%
X73110000Y-90400000D03*
D17*
X68030000Y-90400000D03*
X78190000Y-90400000D03*
D19*
X76920000Y-92940000D03*
X70570000Y-95480000D03*
%TD*%
D21*
%TO.C,H3*%
X82635000Y-118975000D03*
%TD*%
D17*
%TO.C,SW1*%
X78190000Y-66587500D03*
D18*
X73110000Y-66587500D03*
D17*
X68030000Y-66587500D03*
D19*
X76920000Y-69127500D03*
X70570000Y-71667500D03*
%TD*%
D23*
%TO.C,JP12*%
X65617000Y-83579000D03*
D24*
X65617000Y-85029000D03*
%TD*%
D25*
%TO.C,JP4*%
X118195000Y-85028999D03*
D26*
X118195000Y-83578999D03*
%TD*%
D27*
%TO.C,U1*%
X99780000Y-58967500D03*
D28*
X99780000Y-61507500D03*
X99780000Y-64047500D03*
X99780000Y-66587500D03*
X99780000Y-69127500D03*
X99780000Y-71667500D03*
X99780000Y-74207500D03*
X99780000Y-76747500D03*
X99780000Y-79287500D03*
X99780000Y-81827500D03*
X99780000Y-84367500D03*
X99780000Y-86907500D03*
X99780000Y-89447500D03*
X99780000Y-91987500D03*
X99780000Y-94527500D03*
X99780000Y-97067500D03*
X99780000Y-99607500D03*
X99780000Y-102147500D03*
X99780000Y-104687500D03*
X99780000Y-107227500D03*
X84540000Y-107227500D03*
X84540000Y-104687500D03*
X84540000Y-102147500D03*
X84540000Y-99607500D03*
X84540000Y-97067500D03*
X84540000Y-94527500D03*
X84540000Y-91987500D03*
X84540000Y-89447500D03*
X84540000Y-86907500D03*
X84540000Y-84367500D03*
X84540000Y-81827500D03*
X84540000Y-79287500D03*
X84540000Y-76747500D03*
X84540000Y-74207500D03*
X84540000Y-71667500D03*
X84540000Y-69127500D03*
X84540000Y-66587500D03*
X84540000Y-64047500D03*
X84540000Y-61507500D03*
X84540000Y-58967500D03*
%TD*%
D29*
%TO.C,JPF3*%
X73835000Y-118975000D03*
D30*
X72385000Y-118975000D03*
%TD*%
D25*
%TO.C,JP1*%
X118195000Y-142179000D03*
D26*
X118195000Y-140729000D03*
%TD*%
D25*
%TO.C,JP2*%
X118195000Y-123129000D03*
D26*
X118195000Y-121679000D03*
%TD*%
D23*
%TO.C,JP10*%
X65617000Y-121679000D03*
D24*
X65617000Y-123129000D03*
%TD*%
D23*
%TO.C,JP13*%
X65617000Y-60211000D03*
D24*
X65617000Y-61661000D03*
%TD*%
D29*
%TO.C,JPF1*%
X111935000Y-118975000D03*
D30*
X110485000Y-118975000D03*
%TD*%
D23*
%TO.C,JP11*%
X65617000Y-102629000D03*
D24*
X65617000Y-104079000D03*
%TD*%
D25*
%TO.C,JP3*%
X118195000Y-104079000D03*
D26*
X118195000Y-102629000D03*
%TD*%
D29*
%TO.C,JPF2*%
X92885000Y-118975000D03*
D30*
X91435000Y-118975000D03*
%TD*%
D23*
%TO.C,JP9*%
X65617000Y-140729000D03*
D24*
X65617000Y-142179000D03*
%TD*%
M02*
