%TF.GenerationSoftware,KiCad,Pcbnew,(6.0.2)*%
%TF.CreationDate,2022-02-17T20:40:29-08:00*%
%TF.ProjectId,keeb test board,6b656562-2074-4657-9374-20626f617264,rev?*%
%TF.SameCoordinates,Original*%
%TF.FileFunction,Legend,Top*%
%TF.FilePolarity,Positive*%
%FSLAX46Y46*%
G04 Gerber Fmt 4.6, Leading zero omitted, Abs format (unit mm)*
G04 Created by KiCad (PCBNEW (6.0.2)) date 2022-02-17 20:40:29*
%MOMM*%
%LPD*%
G01*
G04 APERTURE LIST*
%ADD10C,0.150000*%
%ADD11C,0.120000*%
%ADD12C,0.200000*%
%ADD13C,2.500000*%
%ADD14O,4.700000X2.200000*%
%ADD15C,2.000000*%
%ADD16R,2.000000X2.000000*%
%ADD17C,1.800000*%
%ADD18C,4.000000*%
%ADD19C,3.200000*%
%ADD20O,1.400000X2.000000*%
%ADD21R,1.700000X1.700000*%
%ADD22C,1.700000*%
G04 APERTURE END LIST*
D10*
%TO.C,EN4*%
X68339714Y-104678571D02*
X68673047Y-104678571D01*
X68815904Y-105202380D02*
X68339714Y-105202380D01*
X68339714Y-104202380D01*
X68815904Y-104202380D01*
X69244476Y-105202380D02*
X69244476Y-104202380D01*
X69815904Y-105202380D01*
X69815904Y-104202380D01*
X70720666Y-104535714D02*
X70720666Y-105202380D01*
X70482571Y-104154761D02*
X70244476Y-104869047D01*
X70863523Y-104869047D01*
%TO.C,EN3*%
X114059714Y-85628571D02*
X114393047Y-85628571D01*
X114535904Y-86152380D02*
X114059714Y-86152380D01*
X114059714Y-85152380D01*
X114535904Y-85152380D01*
X114964476Y-86152380D02*
X114964476Y-85152380D01*
X115535904Y-86152380D01*
X115535904Y-85152380D01*
X115916857Y-85152380D02*
X116535904Y-85152380D01*
X116202571Y-85533333D01*
X116345428Y-85533333D01*
X116440666Y-85580952D01*
X116488285Y-85628571D01*
X116535904Y-85723809D01*
X116535904Y-85961904D01*
X116488285Y-86057142D01*
X116440666Y-86104761D01*
X116345428Y-86152380D01*
X116059714Y-86152380D01*
X115964476Y-86104761D01*
X115916857Y-86057142D01*
%TO.C,SW4*%
X114076666Y-95630761D02*
X114219523Y-95678380D01*
X114457619Y-95678380D01*
X114552857Y-95630761D01*
X114600476Y-95583142D01*
X114648095Y-95487904D01*
X114648095Y-95392666D01*
X114600476Y-95297428D01*
X114552857Y-95249809D01*
X114457619Y-95202190D01*
X114267142Y-95154571D01*
X114171904Y-95106952D01*
X114124285Y-95059333D01*
X114076666Y-94964095D01*
X114076666Y-94868857D01*
X114124285Y-94773619D01*
X114171904Y-94726000D01*
X114267142Y-94678380D01*
X114505238Y-94678380D01*
X114648095Y-94726000D01*
X114981428Y-94678380D02*
X115219523Y-95678380D01*
X115410000Y-94964095D01*
X115600476Y-95678380D01*
X115838571Y-94678380D01*
X116648095Y-95011714D02*
X116648095Y-95678380D01*
X116410000Y-94630761D02*
X116171904Y-95345047D01*
X116790952Y-95345047D01*
%TO.C,SW13*%
X113210476Y-143128761D02*
X113353333Y-143176380D01*
X113591428Y-143176380D01*
X113686666Y-143128761D01*
X113734285Y-143081142D01*
X113781904Y-142985904D01*
X113781904Y-142890666D01*
X113734285Y-142795428D01*
X113686666Y-142747809D01*
X113591428Y-142700190D01*
X113400952Y-142652571D01*
X113305714Y-142604952D01*
X113258095Y-142557333D01*
X113210476Y-142462095D01*
X113210476Y-142366857D01*
X113258095Y-142271619D01*
X113305714Y-142224000D01*
X113400952Y-142176380D01*
X113639047Y-142176380D01*
X113781904Y-142224000D01*
X114115238Y-142176380D02*
X114353333Y-143176380D01*
X114543809Y-142462095D01*
X114734285Y-143176380D01*
X114972380Y-142176380D01*
X115877142Y-143176380D02*
X115305714Y-143176380D01*
X115591428Y-143176380D02*
X115591428Y-142176380D01*
X115496190Y-142319238D01*
X115400952Y-142414476D01*
X115305714Y-142462095D01*
X116210476Y-142176380D02*
X116829523Y-142176380D01*
X116496190Y-142557333D01*
X116639047Y-142557333D01*
X116734285Y-142604952D01*
X116781904Y-142652571D01*
X116829523Y-142747809D01*
X116829523Y-142985904D01*
X116781904Y-143081142D01*
X116734285Y-143128761D01*
X116639047Y-143176380D01*
X116353333Y-143176380D01*
X116258095Y-143128761D01*
X116210476Y-143081142D01*
%TO.C,EN7*%
X105995714Y-123728571D02*
X106329047Y-123728571D01*
X106471904Y-124252380D02*
X105995714Y-124252380D01*
X105995714Y-123252380D01*
X106471904Y-123252380D01*
X106900476Y-124252380D02*
X106900476Y-123252380D01*
X107471904Y-124252380D01*
X107471904Y-123252380D01*
X107852857Y-123252380D02*
X108519523Y-123252380D01*
X108090952Y-124252380D01*
%TO.C,EN6*%
X68085714Y-123728571D02*
X68419047Y-123728571D01*
X68561904Y-124252380D02*
X68085714Y-124252380D01*
X68085714Y-123252380D01*
X68561904Y-123252380D01*
X68990476Y-124252380D02*
X68990476Y-123252380D01*
X69561904Y-124252380D01*
X69561904Y-123252380D01*
X70466666Y-123252380D02*
X70276190Y-123252380D01*
X70180952Y-123300000D01*
X70133333Y-123347619D01*
X70038095Y-123490476D01*
X69990476Y-123680952D01*
X69990476Y-124061904D01*
X70038095Y-124157142D01*
X70085714Y-124204761D01*
X70180952Y-124252380D01*
X70371428Y-124252380D01*
X70466666Y-124204761D01*
X70514285Y-124157142D01*
X70561904Y-124061904D01*
X70561904Y-123823809D01*
X70514285Y-123728571D01*
X70466666Y-123680952D01*
X70371428Y-123633333D01*
X70180952Y-123633333D01*
X70085714Y-123680952D01*
X70038095Y-123728571D01*
X69990476Y-123823809D01*
%TO.C,EN8*%
X67895714Y-142778571D02*
X68229047Y-142778571D01*
X68371904Y-143302380D02*
X67895714Y-143302380D01*
X67895714Y-142302380D01*
X68371904Y-142302380D01*
X68800476Y-143302380D02*
X68800476Y-142302380D01*
X69371904Y-143302380D01*
X69371904Y-142302380D01*
X69990952Y-142730952D02*
X69895714Y-142683333D01*
X69848095Y-142635714D01*
X69800476Y-142540476D01*
X69800476Y-142492857D01*
X69848095Y-142397619D01*
X69895714Y-142350000D01*
X69990952Y-142302380D01*
X70181428Y-142302380D01*
X70276666Y-142350000D01*
X70324285Y-142397619D01*
X70371904Y-142492857D01*
X70371904Y-142540476D01*
X70324285Y-142635714D01*
X70276666Y-142683333D01*
X70181428Y-142730952D01*
X69990952Y-142730952D01*
X69895714Y-142778571D01*
X69848095Y-142826190D01*
X69800476Y-142921428D01*
X69800476Y-143111904D01*
X69848095Y-143207142D01*
X69895714Y-143254761D01*
X69990952Y-143302380D01*
X70181428Y-143302380D01*
X70276666Y-143254761D01*
X70324285Y-143207142D01*
X70371904Y-143111904D01*
X70371904Y-142921428D01*
X70324285Y-142826190D01*
X70276666Y-142778571D01*
X70181428Y-142730952D01*
%TO.C,SW3*%
X94636666Y-95630761D02*
X94779523Y-95678380D01*
X95017619Y-95678380D01*
X95112857Y-95630761D01*
X95160476Y-95583142D01*
X95208095Y-95487904D01*
X95208095Y-95392666D01*
X95160476Y-95297428D01*
X95112857Y-95249809D01*
X95017619Y-95202190D01*
X94827142Y-95154571D01*
X94731904Y-95106952D01*
X94684285Y-95059333D01*
X94636666Y-94964095D01*
X94636666Y-94868857D01*
X94684285Y-94773619D01*
X94731904Y-94726000D01*
X94827142Y-94678380D01*
X95065238Y-94678380D01*
X95208095Y-94726000D01*
X95541428Y-94678380D02*
X95779523Y-95678380D01*
X95970000Y-94964095D01*
X96160476Y-95678380D01*
X96398571Y-94678380D01*
X96684285Y-94678380D02*
X97303333Y-94678380D01*
X96970000Y-95059333D01*
X97112857Y-95059333D01*
X97208095Y-95106952D01*
X97255714Y-95154571D01*
X97303333Y-95249809D01*
X97303333Y-95487904D01*
X97255714Y-95583142D01*
X97208095Y-95630761D01*
X97112857Y-95678380D01*
X96827142Y-95678380D01*
X96731904Y-95630761D01*
X96684285Y-95583142D01*
%TO.C,EN9*%
X105995714Y-142778571D02*
X106329047Y-142778571D01*
X106471904Y-143302380D02*
X105995714Y-143302380D01*
X105995714Y-142302380D01*
X106471904Y-142302380D01*
X106900476Y-143302380D02*
X106900476Y-142302380D01*
X107471904Y-143302380D01*
X107471904Y-142302380D01*
X107995714Y-143302380D02*
X108186190Y-143302380D01*
X108281428Y-143254761D01*
X108329047Y-143207142D01*
X108424285Y-143064285D01*
X108471904Y-142873809D01*
X108471904Y-142492857D01*
X108424285Y-142397619D01*
X108376666Y-142350000D01*
X108281428Y-142302380D01*
X108090952Y-142302380D01*
X107995714Y-142350000D01*
X107948095Y-142397619D01*
X107900476Y-142492857D01*
X107900476Y-142730952D01*
X107948095Y-142826190D01*
X107995714Y-142873809D01*
X108090952Y-142921428D01*
X108281428Y-142921428D01*
X108376666Y-142873809D01*
X108424285Y-142826190D01*
X108471904Y-142730952D01*
%TO.C,SW14*%
X94550476Y-72092261D02*
X94693333Y-72139880D01*
X94931428Y-72139880D01*
X95026666Y-72092261D01*
X95074285Y-72044642D01*
X95121904Y-71949404D01*
X95121904Y-71854166D01*
X95074285Y-71758928D01*
X95026666Y-71711309D01*
X94931428Y-71663690D01*
X94740952Y-71616071D01*
X94645714Y-71568452D01*
X94598095Y-71520833D01*
X94550476Y-71425595D01*
X94550476Y-71330357D01*
X94598095Y-71235119D01*
X94645714Y-71187500D01*
X94740952Y-71139880D01*
X94979047Y-71139880D01*
X95121904Y-71187500D01*
X95455238Y-71139880D02*
X95693333Y-72139880D01*
X95883809Y-71425595D01*
X96074285Y-72139880D01*
X96312380Y-71139880D01*
X97217142Y-72139880D02*
X96645714Y-72139880D01*
X96931428Y-72139880D02*
X96931428Y-71139880D01*
X96836190Y-71282738D01*
X96740952Y-71377976D01*
X96645714Y-71425595D01*
X98074285Y-71473214D02*
X98074285Y-72139880D01*
X97836190Y-71092261D02*
X97598095Y-71806547D01*
X98217142Y-71806547D01*
%TO.C,OL1*%
X116835380Y-64801380D02*
X116835380Y-64610904D01*
X116883000Y-64515666D01*
X116978238Y-64420428D01*
X117168714Y-64372809D01*
X117502047Y-64372809D01*
X117692523Y-64420428D01*
X117787761Y-64515666D01*
X117835380Y-64610904D01*
X117835380Y-64801380D01*
X117787761Y-64896619D01*
X117692523Y-64991857D01*
X117502047Y-65039476D01*
X117168714Y-65039476D01*
X116978238Y-64991857D01*
X116883000Y-64896619D01*
X116835380Y-64801380D01*
X117835380Y-63468047D02*
X117835380Y-63944238D01*
X116835380Y-63944238D01*
X117311571Y-63134714D02*
X117311571Y-62801380D01*
X117835380Y-62658523D02*
X117835380Y-63134714D01*
X116835380Y-63134714D01*
X116835380Y-62658523D01*
X117835380Y-62229952D02*
X116835380Y-62229952D01*
X116835380Y-61991857D01*
X116883000Y-61849000D01*
X116978238Y-61753761D01*
X117073476Y-61706142D01*
X117263952Y-61658523D01*
X117406809Y-61658523D01*
X117597285Y-61706142D01*
X117692523Y-61753761D01*
X117787761Y-61849000D01*
X117835380Y-61991857D01*
X117835380Y-62229952D01*
%TO.C,SW9*%
X95026666Y-133730761D02*
X95169523Y-133778380D01*
X95407619Y-133778380D01*
X95502857Y-133730761D01*
X95550476Y-133683142D01*
X95598095Y-133587904D01*
X95598095Y-133492666D01*
X95550476Y-133397428D01*
X95502857Y-133349809D01*
X95407619Y-133302190D01*
X95217142Y-133254571D01*
X95121904Y-133206952D01*
X95074285Y-133159333D01*
X95026666Y-133064095D01*
X95026666Y-132968857D01*
X95074285Y-132873619D01*
X95121904Y-132826000D01*
X95217142Y-132778380D01*
X95455238Y-132778380D01*
X95598095Y-132826000D01*
X95931428Y-132778380D02*
X96169523Y-133778380D01*
X96360000Y-133064095D01*
X96550476Y-133778380D01*
X96788571Y-132778380D01*
X97217142Y-133778380D02*
X97407619Y-133778380D01*
X97502857Y-133730761D01*
X97550476Y-133683142D01*
X97645714Y-133540285D01*
X97693333Y-133349809D01*
X97693333Y-132968857D01*
X97645714Y-132873619D01*
X97598095Y-132826000D01*
X97502857Y-132778380D01*
X97312380Y-132778380D01*
X97217142Y-132826000D01*
X97169523Y-132873619D01*
X97121904Y-132968857D01*
X97121904Y-133206952D01*
X97169523Y-133302190D01*
X97217142Y-133349809D01*
X97312380Y-133397428D01*
X97502857Y-133397428D01*
X97598095Y-133349809D01*
X97645714Y-133302190D01*
X97693333Y-133206952D01*
%TO.C,EN1*%
X67895714Y-61816071D02*
X68229047Y-61816071D01*
X68371904Y-62339880D02*
X67895714Y-62339880D01*
X67895714Y-61339880D01*
X68371904Y-61339880D01*
X68800476Y-62339880D02*
X68800476Y-61339880D01*
X69371904Y-62339880D01*
X69371904Y-61339880D01*
X70371904Y-62339880D02*
X69800476Y-62339880D01*
X70086190Y-62339880D02*
X70086190Y-61339880D01*
X69990952Y-61482738D01*
X69895714Y-61577976D01*
X69800476Y-61625595D01*
%TO.C,SW11*%
X75110476Y-143128761D02*
X75253333Y-143176380D01*
X75491428Y-143176380D01*
X75586666Y-143128761D01*
X75634285Y-143081142D01*
X75681904Y-142985904D01*
X75681904Y-142890666D01*
X75634285Y-142795428D01*
X75586666Y-142747809D01*
X75491428Y-142700190D01*
X75300952Y-142652571D01*
X75205714Y-142604952D01*
X75158095Y-142557333D01*
X75110476Y-142462095D01*
X75110476Y-142366857D01*
X75158095Y-142271619D01*
X75205714Y-142224000D01*
X75300952Y-142176380D01*
X75539047Y-142176380D01*
X75681904Y-142224000D01*
X76015238Y-142176380D02*
X76253333Y-143176380D01*
X76443809Y-142462095D01*
X76634285Y-143176380D01*
X76872380Y-142176380D01*
X77777142Y-143176380D02*
X77205714Y-143176380D01*
X77491428Y-143176380D02*
X77491428Y-142176380D01*
X77396190Y-142319238D01*
X77300952Y-142414476D01*
X77205714Y-142462095D01*
X78729523Y-143176380D02*
X78158095Y-143176380D01*
X78443809Y-143176380D02*
X78443809Y-142176380D01*
X78348571Y-142319238D01*
X78253333Y-142414476D01*
X78158095Y-142462095D01*
%TO.C,SW15*%
X113600476Y-72092261D02*
X113743333Y-72139880D01*
X113981428Y-72139880D01*
X114076666Y-72092261D01*
X114124285Y-72044642D01*
X114171904Y-71949404D01*
X114171904Y-71854166D01*
X114124285Y-71758928D01*
X114076666Y-71711309D01*
X113981428Y-71663690D01*
X113790952Y-71616071D01*
X113695714Y-71568452D01*
X113648095Y-71520833D01*
X113600476Y-71425595D01*
X113600476Y-71330357D01*
X113648095Y-71235119D01*
X113695714Y-71187500D01*
X113790952Y-71139880D01*
X114029047Y-71139880D01*
X114171904Y-71187500D01*
X114505238Y-71139880D02*
X114743333Y-72139880D01*
X114933809Y-71425595D01*
X115124285Y-72139880D01*
X115362380Y-71139880D01*
X116267142Y-72139880D02*
X115695714Y-72139880D01*
X115981428Y-72139880D02*
X115981428Y-71139880D01*
X115886190Y-71282738D01*
X115790952Y-71377976D01*
X115695714Y-71425595D01*
X117171904Y-71139880D02*
X116695714Y-71139880D01*
X116648095Y-71616071D01*
X116695714Y-71568452D01*
X116790952Y-71520833D01*
X117029047Y-71520833D01*
X117124285Y-71568452D01*
X117171904Y-71616071D01*
X117219523Y-71711309D01*
X117219523Y-71949404D01*
X117171904Y-72044642D01*
X117124285Y-72092261D01*
X117029047Y-72139880D01*
X116790952Y-72139880D01*
X116695714Y-72092261D01*
X116648095Y-72044642D01*
%TO.C,VR3*%
X105836476Y-149796380D02*
X106169809Y-150796380D01*
X106503142Y-149796380D01*
X107407904Y-150796380D02*
X107074571Y-150320190D01*
X106836476Y-150796380D02*
X106836476Y-149796380D01*
X107217428Y-149796380D01*
X107312666Y-149844000D01*
X107360285Y-149891619D01*
X107407904Y-149986857D01*
X107407904Y-150129714D01*
X107360285Y-150224952D01*
X107312666Y-150272571D01*
X107217428Y-150320190D01*
X106836476Y-150320190D01*
X107741238Y-149796380D02*
X108360285Y-149796380D01*
X108026952Y-150177333D01*
X108169809Y-150177333D01*
X108265047Y-150224952D01*
X108312666Y-150272571D01*
X108360285Y-150367809D01*
X108360285Y-150605904D01*
X108312666Y-150701142D01*
X108265047Y-150748761D01*
X108169809Y-150796380D01*
X107884095Y-150796380D01*
X107788857Y-150748761D01*
X107741238Y-150701142D01*
%TO.C,SW8*%
X75976666Y-133730761D02*
X76119523Y-133778380D01*
X76357619Y-133778380D01*
X76452857Y-133730761D01*
X76500476Y-133683142D01*
X76548095Y-133587904D01*
X76548095Y-133492666D01*
X76500476Y-133397428D01*
X76452857Y-133349809D01*
X76357619Y-133302190D01*
X76167142Y-133254571D01*
X76071904Y-133206952D01*
X76024285Y-133159333D01*
X75976666Y-133064095D01*
X75976666Y-132968857D01*
X76024285Y-132873619D01*
X76071904Y-132826000D01*
X76167142Y-132778380D01*
X76405238Y-132778380D01*
X76548095Y-132826000D01*
X76881428Y-132778380D02*
X77119523Y-133778380D01*
X77310000Y-133064095D01*
X77500476Y-133778380D01*
X77738571Y-132778380D01*
X78262380Y-133206952D02*
X78167142Y-133159333D01*
X78119523Y-133111714D01*
X78071904Y-133016476D01*
X78071904Y-132968857D01*
X78119523Y-132873619D01*
X78167142Y-132826000D01*
X78262380Y-132778380D01*
X78452857Y-132778380D01*
X78548095Y-132826000D01*
X78595714Y-132873619D01*
X78643333Y-132968857D01*
X78643333Y-133016476D01*
X78595714Y-133111714D01*
X78548095Y-133159333D01*
X78452857Y-133206952D01*
X78262380Y-133206952D01*
X78167142Y-133254571D01*
X78119523Y-133302190D01*
X78071904Y-133397428D01*
X78071904Y-133587904D01*
X78119523Y-133683142D01*
X78167142Y-133730761D01*
X78262380Y-133778380D01*
X78452857Y-133778380D01*
X78548095Y-133730761D01*
X78595714Y-133683142D01*
X78643333Y-133587904D01*
X78643333Y-133397428D01*
X78595714Y-133302190D01*
X78548095Y-133254571D01*
X78452857Y-133206952D01*
%TO.C,EN5*%
X105677714Y-105314571D02*
X106011047Y-105314571D01*
X106153904Y-105838380D02*
X105677714Y-105838380D01*
X105677714Y-104838380D01*
X106153904Y-104838380D01*
X106582476Y-105838380D02*
X106582476Y-104838380D01*
X107153904Y-105838380D01*
X107153904Y-104838380D01*
X108106285Y-104838380D02*
X107630095Y-104838380D01*
X107582476Y-105314571D01*
X107630095Y-105266952D01*
X107725333Y-105219333D01*
X107963428Y-105219333D01*
X108058666Y-105266952D01*
X108106285Y-105314571D01*
X108153904Y-105409809D01*
X108153904Y-105647904D01*
X108106285Y-105743142D01*
X108058666Y-105790761D01*
X107963428Y-105838380D01*
X107725333Y-105838380D01*
X107630095Y-105790761D01*
X107582476Y-105743142D01*
%TO.C,SW12*%
X94160476Y-143128761D02*
X94303333Y-143176380D01*
X94541428Y-143176380D01*
X94636666Y-143128761D01*
X94684285Y-143081142D01*
X94731904Y-142985904D01*
X94731904Y-142890666D01*
X94684285Y-142795428D01*
X94636666Y-142747809D01*
X94541428Y-142700190D01*
X94350952Y-142652571D01*
X94255714Y-142604952D01*
X94208095Y-142557333D01*
X94160476Y-142462095D01*
X94160476Y-142366857D01*
X94208095Y-142271619D01*
X94255714Y-142224000D01*
X94350952Y-142176380D01*
X94589047Y-142176380D01*
X94731904Y-142224000D01*
X95065238Y-142176380D02*
X95303333Y-143176380D01*
X95493809Y-142462095D01*
X95684285Y-143176380D01*
X95922380Y-142176380D01*
X96827142Y-143176380D02*
X96255714Y-143176380D01*
X96541428Y-143176380D02*
X96541428Y-142176380D01*
X96446190Y-142319238D01*
X96350952Y-142414476D01*
X96255714Y-142462095D01*
X97208095Y-142271619D02*
X97255714Y-142224000D01*
X97350952Y-142176380D01*
X97589047Y-142176380D01*
X97684285Y-142224000D01*
X97731904Y-142271619D01*
X97779523Y-142366857D01*
X97779523Y-142462095D01*
X97731904Y-142604952D01*
X97160476Y-143176380D01*
X97779523Y-143176380D01*
%TO.C,SW7*%
X114076666Y-114954761D02*
X114219523Y-115002380D01*
X114457619Y-115002380D01*
X114552857Y-114954761D01*
X114600476Y-114907142D01*
X114648095Y-114811904D01*
X114648095Y-114716666D01*
X114600476Y-114621428D01*
X114552857Y-114573809D01*
X114457619Y-114526190D01*
X114267142Y-114478571D01*
X114171904Y-114430952D01*
X114124285Y-114383333D01*
X114076666Y-114288095D01*
X114076666Y-114192857D01*
X114124285Y-114097619D01*
X114171904Y-114050000D01*
X114267142Y-114002380D01*
X114505238Y-114002380D01*
X114648095Y-114050000D01*
X114981428Y-114002380D02*
X115219523Y-115002380D01*
X115410000Y-114288095D01*
X115600476Y-115002380D01*
X115838571Y-114002380D01*
X116124285Y-114002380D02*
X116790952Y-114002380D01*
X116362380Y-115002380D01*
%TO.C,SW6*%
X95026666Y-114954761D02*
X95169523Y-115002380D01*
X95407619Y-115002380D01*
X95502857Y-114954761D01*
X95550476Y-114907142D01*
X95598095Y-114811904D01*
X95598095Y-114716666D01*
X95550476Y-114621428D01*
X95502857Y-114573809D01*
X95407619Y-114526190D01*
X95217142Y-114478571D01*
X95121904Y-114430952D01*
X95074285Y-114383333D01*
X95026666Y-114288095D01*
X95026666Y-114192857D01*
X95074285Y-114097619D01*
X95121904Y-114050000D01*
X95217142Y-114002380D01*
X95455238Y-114002380D01*
X95598095Y-114050000D01*
X95931428Y-114002380D02*
X96169523Y-115002380D01*
X96360000Y-114288095D01*
X96550476Y-115002380D01*
X96788571Y-114002380D01*
X97598095Y-114002380D02*
X97407619Y-114002380D01*
X97312380Y-114050000D01*
X97264761Y-114097619D01*
X97169523Y-114240476D01*
X97121904Y-114430952D01*
X97121904Y-114811904D01*
X97169523Y-114907142D01*
X97217142Y-114954761D01*
X97312380Y-115002380D01*
X97502857Y-115002380D01*
X97598095Y-114954761D01*
X97645714Y-114907142D01*
X97693333Y-114811904D01*
X97693333Y-114573809D01*
X97645714Y-114478571D01*
X97598095Y-114430952D01*
X97502857Y-114383333D01*
X97312380Y-114383333D01*
X97217142Y-114430952D01*
X97169523Y-114478571D01*
X97121904Y-114573809D01*
%TO.C,SW10*%
X113210476Y-133730761D02*
X113353333Y-133778380D01*
X113591428Y-133778380D01*
X113686666Y-133730761D01*
X113734285Y-133683142D01*
X113781904Y-133587904D01*
X113781904Y-133492666D01*
X113734285Y-133397428D01*
X113686666Y-133349809D01*
X113591428Y-133302190D01*
X113400952Y-133254571D01*
X113305714Y-133206952D01*
X113258095Y-133159333D01*
X113210476Y-133064095D01*
X113210476Y-132968857D01*
X113258095Y-132873619D01*
X113305714Y-132826000D01*
X113400952Y-132778380D01*
X113639047Y-132778380D01*
X113781904Y-132826000D01*
X114115238Y-132778380D02*
X114353333Y-133778380D01*
X114543809Y-133064095D01*
X114734285Y-133778380D01*
X114972380Y-132778380D01*
X115877142Y-133778380D02*
X115305714Y-133778380D01*
X115591428Y-133778380D02*
X115591428Y-132778380D01*
X115496190Y-132921238D01*
X115400952Y-133016476D01*
X115305714Y-133064095D01*
X116496190Y-132778380D02*
X116591428Y-132778380D01*
X116686666Y-132826000D01*
X116734285Y-132873619D01*
X116781904Y-132968857D01*
X116829523Y-133159333D01*
X116829523Y-133397428D01*
X116781904Y-133587904D01*
X116734285Y-133683142D01*
X116686666Y-133730761D01*
X116591428Y-133778380D01*
X116496190Y-133778380D01*
X116400952Y-133730761D01*
X116353333Y-133683142D01*
X116305714Y-133587904D01*
X116258095Y-133397428D01*
X116258095Y-133159333D01*
X116305714Y-132968857D01*
X116353333Y-132873619D01*
X116400952Y-132826000D01*
X116496190Y-132778380D01*
%TO.C,EN2*%
X75959714Y-85756571D02*
X76293047Y-85756571D01*
X76435904Y-86280380D02*
X75959714Y-86280380D01*
X75959714Y-85280380D01*
X76435904Y-85280380D01*
X76864476Y-86280380D02*
X76864476Y-85280380D01*
X77435904Y-86280380D01*
X77435904Y-85280380D01*
X77864476Y-85375619D02*
X77912095Y-85328000D01*
X78007333Y-85280380D01*
X78245428Y-85280380D01*
X78340666Y-85328000D01*
X78388285Y-85375619D01*
X78435904Y-85470857D01*
X78435904Y-85566095D01*
X78388285Y-85708952D01*
X77816857Y-86280380D01*
X78435904Y-86280380D01*
%TO.C,VR2*%
X86786476Y-149721380D02*
X87119809Y-150721380D01*
X87453142Y-149721380D01*
X88357904Y-150721380D02*
X88024571Y-150245190D01*
X87786476Y-150721380D02*
X87786476Y-149721380D01*
X88167428Y-149721380D01*
X88262666Y-149769000D01*
X88310285Y-149816619D01*
X88357904Y-149911857D01*
X88357904Y-150054714D01*
X88310285Y-150149952D01*
X88262666Y-150197571D01*
X88167428Y-150245190D01*
X87786476Y-150245190D01*
X88738857Y-149816619D02*
X88786476Y-149769000D01*
X88881714Y-149721380D01*
X89119809Y-149721380D01*
X89215047Y-149769000D01*
X89262666Y-149816619D01*
X89310285Y-149911857D01*
X89310285Y-150007095D01*
X89262666Y-150149952D01*
X88691238Y-150721380D01*
X89310285Y-150721380D01*
%TO.C,SW5*%
X75976666Y-114954761D02*
X76119523Y-115002380D01*
X76357619Y-115002380D01*
X76452857Y-114954761D01*
X76500476Y-114907142D01*
X76548095Y-114811904D01*
X76548095Y-114716666D01*
X76500476Y-114621428D01*
X76452857Y-114573809D01*
X76357619Y-114526190D01*
X76167142Y-114478571D01*
X76071904Y-114430952D01*
X76024285Y-114383333D01*
X75976666Y-114288095D01*
X75976666Y-114192857D01*
X76024285Y-114097619D01*
X76071904Y-114050000D01*
X76167142Y-114002380D01*
X76405238Y-114002380D01*
X76548095Y-114050000D01*
X76881428Y-114002380D02*
X77119523Y-115002380D01*
X77310000Y-114288095D01*
X77500476Y-115002380D01*
X77738571Y-114002380D01*
X78595714Y-114002380D02*
X78119523Y-114002380D01*
X78071904Y-114478571D01*
X78119523Y-114430952D01*
X78214761Y-114383333D01*
X78452857Y-114383333D01*
X78548095Y-114430952D01*
X78595714Y-114478571D01*
X78643333Y-114573809D01*
X78643333Y-114811904D01*
X78595714Y-114907142D01*
X78548095Y-114954761D01*
X78452857Y-115002380D01*
X78214761Y-115002380D01*
X78119523Y-114954761D01*
X78071904Y-114907142D01*
%TO.C,SW2*%
X75976666Y-95630761D02*
X76119523Y-95678380D01*
X76357619Y-95678380D01*
X76452857Y-95630761D01*
X76500476Y-95583142D01*
X76548095Y-95487904D01*
X76548095Y-95392666D01*
X76500476Y-95297428D01*
X76452857Y-95249809D01*
X76357619Y-95202190D01*
X76167142Y-95154571D01*
X76071904Y-95106952D01*
X76024285Y-95059333D01*
X75976666Y-94964095D01*
X75976666Y-94868857D01*
X76024285Y-94773619D01*
X76071904Y-94726000D01*
X76167142Y-94678380D01*
X76405238Y-94678380D01*
X76548095Y-94726000D01*
X76881428Y-94678380D02*
X77119523Y-95678380D01*
X77310000Y-94964095D01*
X77500476Y-95678380D01*
X77738571Y-94678380D01*
X78071904Y-94773619D02*
X78119523Y-94726000D01*
X78214761Y-94678380D01*
X78452857Y-94678380D01*
X78548095Y-94726000D01*
X78595714Y-94773619D01*
X78643333Y-94868857D01*
X78643333Y-94964095D01*
X78595714Y-95106952D01*
X78024285Y-95678380D01*
X78643333Y-95678380D01*
%TO.C,SW1*%
X75976666Y-72092261D02*
X76119523Y-72139880D01*
X76357619Y-72139880D01*
X76452857Y-72092261D01*
X76500476Y-72044642D01*
X76548095Y-71949404D01*
X76548095Y-71854166D01*
X76500476Y-71758928D01*
X76452857Y-71711309D01*
X76357619Y-71663690D01*
X76167142Y-71616071D01*
X76071904Y-71568452D01*
X76024285Y-71520833D01*
X75976666Y-71425595D01*
X75976666Y-71330357D01*
X76024285Y-71235119D01*
X76071904Y-71187500D01*
X76167142Y-71139880D01*
X76405238Y-71139880D01*
X76548095Y-71187500D01*
X76881428Y-71139880D02*
X77119523Y-72139880D01*
X77310000Y-71425595D01*
X77500476Y-72139880D01*
X77738571Y-71139880D01*
X78643333Y-72139880D02*
X78071904Y-72139880D01*
X78357619Y-72139880D02*
X78357619Y-71139880D01*
X78262380Y-71282738D01*
X78167142Y-71377976D01*
X78071904Y-71425595D01*
D11*
%TO.C,EN4*%
X67010000Y-103550000D02*
X67010000Y-115350000D01*
X79210000Y-112950000D02*
X79210000Y-115350000D01*
X79210000Y-103550000D02*
X79210000Y-105950000D01*
X79210000Y-115350000D02*
X77936000Y-115350000D01*
X75650000Y-103550000D02*
X79210000Y-103550000D01*
X79210000Y-108150000D02*
X79210000Y-110750000D01*
X70570000Y-103550000D02*
X67010000Y-103550000D01*
X68284000Y-115350000D02*
X67010000Y-115350000D01*
D12*
X76110000Y-109450000D02*
G75*
G03*
X76110000Y-109450000I-3000000J0D01*
G01*
D11*
%TO.C,EN3*%
X105110000Y-84500000D02*
X105110000Y-96300000D01*
X117310000Y-89100000D02*
X117310000Y-91700000D01*
X117310000Y-84500000D02*
X117310000Y-86900000D01*
X106384000Y-96300000D02*
X105110000Y-96300000D01*
X117310000Y-96300000D02*
X116036000Y-96300000D01*
X117310000Y-93900000D02*
X117310000Y-96300000D01*
X108670000Y-84500000D02*
X105110000Y-84500000D01*
X113750000Y-84500000D02*
X117310000Y-84500000D01*
D12*
X114210000Y-90400000D02*
G75*
G03*
X114210000Y-90400000I-3000000J0D01*
G01*
D11*
%TO.C,EN7*%
X117310000Y-134400000D02*
X116036000Y-134400000D01*
X106384000Y-134400000D02*
X105110000Y-134400000D01*
X117310000Y-122600000D02*
X117310000Y-125000000D01*
X105110000Y-122600000D02*
X105110000Y-134400000D01*
X117310000Y-127200000D02*
X117310000Y-129800000D01*
X108670000Y-122600000D02*
X105110000Y-122600000D01*
X113750000Y-122600000D02*
X117310000Y-122600000D01*
X117310000Y-132000000D02*
X117310000Y-134400000D01*
D12*
X114210000Y-128500000D02*
G75*
G03*
X114210000Y-128500000I-3000000J0D01*
G01*
D11*
%TO.C,EN6*%
X79210000Y-132000000D02*
X79210000Y-134400000D01*
X79210000Y-122600000D02*
X79210000Y-125000000D01*
X75650000Y-122600000D02*
X79210000Y-122600000D01*
X70570000Y-122600000D02*
X67010000Y-122600000D01*
X79210000Y-127200000D02*
X79210000Y-129800000D01*
X68284000Y-134400000D02*
X67010000Y-134400000D01*
X67010000Y-122600000D02*
X67010000Y-134400000D01*
X79210000Y-134400000D02*
X77936000Y-134400000D01*
D12*
X76110000Y-128500000D02*
G75*
G03*
X76110000Y-128500000I-3000000J0D01*
G01*
D11*
%TO.C,EN8*%
X79210000Y-146250000D02*
X79210000Y-148850000D01*
X79210000Y-151050000D02*
X79210000Y-153450000D01*
X70570000Y-141650000D02*
X67010000Y-141650000D01*
X75650000Y-141650000D02*
X79210000Y-141650000D01*
X68284000Y-153450000D02*
X67010000Y-153450000D01*
X79210000Y-141650000D02*
X79210000Y-144050000D01*
X79210000Y-153450000D02*
X77936000Y-153450000D01*
X67010000Y-141650000D02*
X67010000Y-153450000D01*
D12*
X76110000Y-147550000D02*
G75*
G03*
X76110000Y-147550000I-3000000J0D01*
G01*
D11*
%TO.C,EN9*%
X108670000Y-141650000D02*
X105110000Y-141650000D01*
X117310000Y-153450000D02*
X116036000Y-153450000D01*
X117310000Y-141650000D02*
X117310000Y-144050000D01*
X106384000Y-153450000D02*
X105110000Y-153450000D01*
X105110000Y-141650000D02*
X105110000Y-153450000D01*
X113750000Y-141650000D02*
X117310000Y-141650000D01*
X117310000Y-151050000D02*
X117310000Y-153450000D01*
X117310000Y-146250000D02*
X117310000Y-148850000D01*
D12*
X114210000Y-147550000D02*
G75*
G03*
X114210000Y-147550000I-3000000J0D01*
G01*
D11*
%TO.C,OL1*%
X118145000Y-71667500D02*
X120685000Y-71667500D01*
X120685000Y-71667500D02*
X120685000Y-61507500D01*
X120685000Y-61507500D02*
X118145000Y-61507500D01*
X118145000Y-61507500D02*
X118145000Y-71667500D01*
%TO.C,EN1*%
X79210000Y-70087500D02*
X79210000Y-72487500D01*
X67010000Y-60687500D02*
X67010000Y-72487500D01*
X79210000Y-65287500D02*
X79210000Y-67887500D01*
X70570000Y-60687500D02*
X67010000Y-60687500D01*
X68284000Y-72487500D02*
X67010000Y-72487500D01*
X75650000Y-60687500D02*
X79210000Y-60687500D01*
X79210000Y-72487500D02*
X77936000Y-72487500D01*
X79210000Y-60687500D02*
X79210000Y-63087500D01*
D12*
X76110000Y-66587500D02*
G75*
G03*
X76110000Y-66587500I-3000000J0D01*
G01*
D11*
%TO.C,VR3*%
X115810000Y-155330000D02*
X106610000Y-155330000D01*
X111210000Y-155330000D02*
X111210000Y-152780000D01*
X115810000Y-155330000D02*
X115810000Y-153780000D01*
X106610000Y-80230000D02*
X106610000Y-81780000D01*
X106610000Y-155330000D02*
X106610000Y-153780000D01*
X115810000Y-80230000D02*
X106610000Y-80230000D01*
X115810000Y-80230000D02*
X115810000Y-81780000D01*
X111210000Y-82780000D02*
X111210000Y-80230000D01*
%TO.C,EN5*%
X117310000Y-112950000D02*
X117310000Y-115350000D01*
X113750000Y-103550000D02*
X117310000Y-103550000D01*
X108670000Y-103550000D02*
X105110000Y-103550000D01*
X106384000Y-115350000D02*
X105110000Y-115350000D01*
X105110000Y-103550000D02*
X105110000Y-115350000D01*
X117310000Y-103550000D02*
X117310000Y-105950000D01*
X117310000Y-115350000D02*
X116036000Y-115350000D01*
X117310000Y-108150000D02*
X117310000Y-110750000D01*
D12*
X114210000Y-109450000D02*
G75*
G03*
X114210000Y-109450000I-3000000J0D01*
G01*
D11*
%TO.C,EN2*%
X70570000Y-84500000D02*
X67010000Y-84500000D01*
X79210000Y-84500000D02*
X79210000Y-86900000D01*
X67010000Y-84500000D02*
X67010000Y-96300000D01*
X68284000Y-96300000D02*
X67010000Y-96300000D01*
X79210000Y-89100000D02*
X79210000Y-91700000D01*
X79210000Y-93900000D02*
X79210000Y-96300000D01*
X79210000Y-96300000D02*
X77936000Y-96300000D01*
X75650000Y-84500000D02*
X79210000Y-84500000D01*
D12*
X76110000Y-90400000D02*
G75*
G03*
X76110000Y-90400000I-3000000J0D01*
G01*
D11*
%TO.C,VR2*%
X96760000Y-80155000D02*
X96760000Y-81705000D01*
X87560000Y-155255000D02*
X87560000Y-153705000D01*
X92160000Y-82705000D02*
X92160000Y-80155000D01*
X96760000Y-80155000D02*
X87560000Y-80155000D01*
X96760000Y-155255000D02*
X87560000Y-155255000D01*
X87560000Y-80155000D02*
X87560000Y-81705000D01*
X92160000Y-155255000D02*
X92160000Y-152705000D01*
X96760000Y-155255000D02*
X96760000Y-153705000D01*
%TD*%
D13*
%TO.C,SW4*%
X115020000Y-92940000D03*
X108670000Y-95480000D03*
%TD*%
%TO.C,SW13*%
X115020000Y-150090000D03*
D14*
X108670000Y-152780000D03*
%TD*%
D13*
%TO.C,SW3*%
X95970000Y-92940000D03*
X89620000Y-95480000D03*
%TD*%
%TO.C,SW14*%
X95970000Y-69127500D03*
X89620000Y-71667500D03*
%TD*%
D15*
%TO.C,OL1*%
X119415000Y-70397500D03*
X119415000Y-67857500D03*
X119415000Y-65317500D03*
X119415000Y-62777500D03*
%TD*%
D13*
%TO.C,SW9*%
X95970000Y-131040000D03*
X89620000Y-133580000D03*
%TD*%
%TO.C,SW11*%
X76920000Y-150090000D03*
D14*
X70570000Y-152780000D03*
%TD*%
D13*
%TO.C,SW15*%
X115020000Y-69127500D03*
X108670000Y-71667500D03*
%TD*%
%TO.C,SW8*%
X76920000Y-131040000D03*
X70570000Y-133580000D03*
%TD*%
%TO.C,SW12*%
X95970000Y-150090000D03*
D14*
X89620000Y-152780000D03*
%TD*%
D13*
%TO.C,SW7*%
X115020000Y-111990000D03*
X108670000Y-114530000D03*
%TD*%
%TO.C,SW6*%
X95970000Y-111990000D03*
X89620000Y-114530000D03*
%TD*%
%TO.C,SW10*%
X115020000Y-131040000D03*
X108670000Y-133580000D03*
%TD*%
%TO.C,SW5*%
X76920000Y-111990000D03*
X70570000Y-114530000D03*
%TD*%
%TO.C,SW2*%
X76920000Y-92940000D03*
X70570000Y-95480000D03*
%TD*%
%TO.C,SW1*%
X76920000Y-69127500D03*
X70570000Y-71667500D03*
%TD*%
%LPC*%
D16*
%TO.C,EN4*%
X65610000Y-106950000D03*
D15*
X65610000Y-111950000D03*
X65610000Y-109450000D03*
X80110000Y-111950000D03*
X80110000Y-106950000D03*
%TD*%
D16*
%TO.C,EN3*%
X103710000Y-87900000D03*
D15*
X103710000Y-92900000D03*
X103710000Y-90400000D03*
X118210000Y-92900000D03*
X118210000Y-87900000D03*
%TD*%
D17*
%TO.C,SW4*%
X116290000Y-90400000D03*
X106130000Y-90400000D03*
D18*
X111210000Y-90400000D03*
%TD*%
D17*
%TO.C,SW13*%
X116290000Y-147550000D03*
X106130000Y-147550000D03*
D18*
X111210000Y-147550000D03*
%TD*%
D16*
%TO.C,EN7*%
X103710000Y-126000000D03*
D15*
X103710000Y-131000000D03*
X103710000Y-128500000D03*
X118210000Y-131000000D03*
X118210000Y-126000000D03*
%TD*%
D16*
%TO.C,EN6*%
X65610000Y-126000000D03*
D15*
X65610000Y-131000000D03*
X65610000Y-128500000D03*
X80110000Y-131000000D03*
X80110000Y-126000000D03*
%TD*%
D16*
%TO.C,EN8*%
X65610000Y-145050000D03*
D15*
X65610000Y-150050000D03*
X65610000Y-147550000D03*
X80110000Y-150050000D03*
X80110000Y-145050000D03*
%TD*%
D18*
%TO.C,SW3*%
X92160000Y-90400000D03*
D17*
X87080000Y-90400000D03*
X97240000Y-90400000D03*
%TD*%
D16*
%TO.C,EN9*%
X103710000Y-145050000D03*
D15*
X103710000Y-150050000D03*
X103710000Y-147550000D03*
X118210000Y-150050000D03*
X118210000Y-145050000D03*
%TD*%
D18*
%TO.C,SW14*%
X92160000Y-66587500D03*
D17*
X87080000Y-66587500D03*
X97240000Y-66587500D03*
%TD*%
%TO.C,SW9*%
X97240000Y-128500000D03*
X87080000Y-128500000D03*
D18*
X92160000Y-128500000D03*
%TD*%
D16*
%TO.C,EN1*%
X65610000Y-64087500D03*
D15*
X65610000Y-69087500D03*
X65610000Y-66587500D03*
X80110000Y-69087500D03*
X80110000Y-64087500D03*
%TD*%
D19*
%TO.C,H4*%
X101685000Y-118975000D03*
%TD*%
D18*
%TO.C,SW11*%
X73110000Y-147550000D03*
D17*
X68030000Y-147550000D03*
X78190000Y-147550000D03*
%TD*%
%TO.C,SW15*%
X116290000Y-66587500D03*
D18*
X111210000Y-66587500D03*
D17*
X106130000Y-66587500D03*
%TD*%
D15*
%TO.C,VR3*%
X114960000Y-152780000D03*
X112460000Y-152780000D03*
D20*
X109960000Y-82480000D03*
D15*
X114960000Y-82780000D03*
%TD*%
D17*
%TO.C,SW8*%
X78190000Y-128500000D03*
X68030000Y-128500000D03*
D18*
X73110000Y-128500000D03*
%TD*%
D16*
%TO.C,EN5*%
X103710000Y-106950000D03*
D15*
X103710000Y-111950000D03*
X103710000Y-109450000D03*
X118210000Y-111950000D03*
X118210000Y-106950000D03*
%TD*%
D17*
%TO.C,SW12*%
X97240000Y-147550000D03*
X87080000Y-147550000D03*
D18*
X92160000Y-147550000D03*
%TD*%
%TO.C,SW7*%
X111210000Y-109450000D03*
D17*
X106130000Y-109450000D03*
X116290000Y-109450000D03*
%TD*%
%TO.C,SW6*%
X97240000Y-109450000D03*
X87080000Y-109450000D03*
D18*
X92160000Y-109450000D03*
%TD*%
D17*
%TO.C,SW10*%
X106130000Y-128500000D03*
D18*
X111210000Y-128500000D03*
D17*
X116290000Y-128500000D03*
%TD*%
D16*
%TO.C,EN2*%
X65610000Y-87900000D03*
D15*
X65610000Y-92900000D03*
X65610000Y-90400000D03*
X80110000Y-92900000D03*
X80110000Y-87900000D03*
%TD*%
%TO.C,VR2*%
X95910000Y-152705000D03*
X93410000Y-152705000D03*
D20*
X90910000Y-82405000D03*
D15*
X95910000Y-82705000D03*
%TD*%
D17*
%TO.C,SW5*%
X78190000Y-109450000D03*
D18*
X73110000Y-109450000D03*
D17*
X68030000Y-109450000D03*
%TD*%
D18*
%TO.C,SW2*%
X73110000Y-90400000D03*
D17*
X68030000Y-90400000D03*
X78190000Y-90400000D03*
%TD*%
D19*
%TO.C,H3*%
X82635000Y-118975000D03*
%TD*%
D17*
%TO.C,SW1*%
X78190000Y-66587500D03*
D18*
X73110000Y-66587500D03*
D17*
X68030000Y-66587500D03*
%TD*%
D21*
%TO.C,U1*%
X99780000Y-58967500D03*
D22*
X99780000Y-61507500D03*
X99780000Y-64047500D03*
X99780000Y-66587500D03*
X99780000Y-69127500D03*
X99780000Y-71667500D03*
X99780000Y-74207500D03*
X99780000Y-76747500D03*
X99780000Y-79287500D03*
X99780000Y-81827500D03*
X99780000Y-84367500D03*
X99780000Y-86907500D03*
X99780000Y-89447500D03*
X99780000Y-91987500D03*
X99780000Y-94527500D03*
X99780000Y-97067500D03*
X99780000Y-99607500D03*
X99780000Y-102147500D03*
X99780000Y-104687500D03*
X99780000Y-107227500D03*
X84540000Y-107227500D03*
X84540000Y-104687500D03*
X84540000Y-102147500D03*
X84540000Y-99607500D03*
X84540000Y-97067500D03*
X84540000Y-94527500D03*
X84540000Y-91987500D03*
X84540000Y-89447500D03*
X84540000Y-86907500D03*
X84540000Y-84367500D03*
X84540000Y-81827500D03*
X84540000Y-79287500D03*
X84540000Y-76747500D03*
X84540000Y-74207500D03*
X84540000Y-71667500D03*
X84540000Y-69127500D03*
X84540000Y-66587500D03*
X84540000Y-64047500D03*
X84540000Y-61507500D03*
X84540000Y-58967500D03*
%TD*%
M02*
