M48
; DRILL file {KiCad (6.0.2)} date Thu Feb 17 20:40:36 2022
; FORMAT={-:-/ absolute / metric / decimal}
; #@! TF.CreationDate,2022-02-17T20:40:36-08:00
; #@! TF.GenerationSoftware,Kicad,Pcbnew,(6.0.2)
; #@! TF.FileFunction,Plated,1,2,PTH
FMAT,2
METRIC
; #@! TA.AperFunction,Plated,PTH,ViaDrill
T1C0.400
; #@! TA.AperFunction,Plated,PTH,ComponentDrill
T2C1.000
; #@! TA.AperFunction,Plated,PTH,ComponentDrill
T3C1.200
; #@! TA.AperFunction,Plated,PTH,ComponentDrill
T4C1.500
%
G90
G05
T1
X64.728Y-117.07
X64.982Y-99.29
X65.617Y-95.353
X67.522Y-123.166
X67.776Y-62.968
X67.776Y-104.624
X68.538Y-117.003
X68.792Y-60.428
X68.792Y-84.812
X68.792Y-86.336
X68.792Y-103.354
X69.046Y-121.642
X69.046Y-143.74
X69.046Y-77.954
X71.586Y-139.168
X73.364Y-77.954
X73.872Y-113.006
X76.412Y-116.054
X76.922Y-136.411
X77.174Y-102.592
X77.682Y-104.624
X78.698Y-98.528
X79.968Y-79.224
X80.476Y-96.496
X82.0Y-136.374
X82.508Y-66.524
X83.016Y-145.01
X84.032Y-132.818
X84.032Y-140.946
X85.556Y-113.768
X87.334Y-93.194
X87.334Y-122.912
X88.096Y-124.436
X88.604Y-81.764
X89.366Y-88.114
X89.366Y-102.846
X89.366Y-139.168
X90.89Y-78.716
X91.906Y-135.866
X92.668Y-113.256
X93.43Y-115.038
X93.938Y-81.764
X93.938Y-134.85
X94.192Y-74.652
X94.827Y-87.479
X94.954Y-100.814
X94.954Y-117.832
X96.732Y-60.428
X96.732Y-63.222
X96.732Y-99.036
X97.494Y-103.608
X97.748Y-84.304
X97.748Y-94.464
X98.002Y-79.224
X99.526Y-114.53
X100.288Y-124.182
X101.05Y-149.328
X101.558Y-79.732
X102.32Y-76.43
X102.574Y-104.37
X104.479Y-82.018
X104.602Y-102.084
X105.368Y-78.97
X105.416Y-103.134
X105.622Y-96.75
X105.622Y-139.168
X106.13Y-86.082
X106.638Y-104.116
X106.892Y-62.206
X107.146Y-83.542
X109.178Y-118.594
X111.21Y-95.988
X114.004Y-99.29
X116.036Y-97.258
X116.798Y-80.494
X118.83Y-80.494
X119.338Y-75.922
T2
X65.61Y-64.087
X65.61Y-66.587
X65.61Y-69.087
X65.61Y-87.9
X65.61Y-90.4
X65.61Y-92.9
X65.61Y-106.95
X65.61Y-109.45
X65.61Y-111.95
X65.61Y-126.0
X65.61Y-128.5
X65.61Y-131.0
X65.61Y-145.05
X65.61Y-147.55
X65.61Y-150.05
X80.11Y-64.087
X80.11Y-69.087
X80.11Y-87.9
X80.11Y-92.9
X80.11Y-106.95
X80.11Y-111.95
X80.11Y-126.0
X80.11Y-131.0
X80.11Y-145.05
X80.11Y-150.05
X84.54Y-58.967
X84.54Y-61.508
X84.54Y-64.047
X84.54Y-66.587
X84.54Y-69.127
X84.54Y-71.667
X84.54Y-74.207
X84.54Y-76.748
X84.54Y-79.287
X84.54Y-81.828
X84.54Y-84.367
X84.54Y-86.907
X84.54Y-89.447
X84.54Y-91.987
X84.54Y-94.527
X84.54Y-97.067
X84.54Y-99.608
X84.54Y-102.147
X84.54Y-104.688
X84.54Y-107.227
X90.91Y-82.705
X93.41Y-152.705
X95.91Y-82.705
X95.91Y-152.705
X99.78Y-58.967
X99.78Y-61.508
X99.78Y-64.047
X99.78Y-66.587
X99.78Y-69.127
X99.78Y-71.667
X99.78Y-74.207
X99.78Y-76.748
X99.78Y-79.287
X99.78Y-81.828
X99.78Y-84.367
X99.78Y-86.907
X99.78Y-89.447
X99.78Y-91.987
X99.78Y-94.527
X99.78Y-97.067
X99.78Y-99.608
X99.78Y-102.147
X99.78Y-104.688
X99.78Y-107.227
X103.71Y-87.9
X103.71Y-90.4
X103.71Y-92.9
X103.71Y-106.95
X103.71Y-109.45
X103.71Y-111.95
X103.71Y-126.0
X103.71Y-128.5
X103.71Y-131.0
X103.71Y-145.05
X103.71Y-147.55
X103.71Y-150.05
X109.96Y-82.78
X112.46Y-152.78
X114.96Y-82.78
X114.96Y-152.78
X118.21Y-87.9
X118.21Y-92.9
X118.21Y-106.95
X118.21Y-111.95
X118.21Y-126.0
X118.21Y-131.0
X118.21Y-145.05
X118.21Y-150.05
T3
X119.415Y-62.777
X119.415Y-65.317
X119.415Y-67.858
X119.415Y-70.397
T4
X70.57Y-71.667
X70.57Y-95.48
X70.57Y-114.53
X70.57Y-133.58
X70.57Y-152.63
X76.92Y-69.127
X76.92Y-92.94
X76.92Y-111.99
X76.92Y-131.04
X76.92Y-150.09
X89.62Y-71.667
X89.62Y-95.48
X89.62Y-114.53
X89.62Y-133.58
X89.62Y-152.63
X95.97Y-69.127
X95.97Y-92.94
X95.97Y-111.99
X95.97Y-131.04
X95.97Y-150.09
X108.67Y-71.667
X108.67Y-95.48
X108.67Y-114.53
X108.67Y-133.58
X108.67Y-152.63
X115.02Y-69.127
X115.02Y-92.94
X115.02Y-111.99
X115.02Y-131.04
X115.02Y-150.09
T3
G00X69.32Y-152.78
M15
G01X71.82Y-152.78
M16
G05
G00X88.37Y-152.78
M15
G01X90.87Y-152.78
M16
G05
G00X107.42Y-152.78
M15
G01X109.92Y-152.78
M16
G05
T0
M30
