%TF.GenerationSoftware,KiCad,Pcbnew,(6.0.3-11-gdd55ffb75c)*%
%TF.CreationDate,2022-03-17T00:34:44-07:00*%
%TF.ProjectId,keeby cat,6b656562-7920-4636-9174-2e6b69636164,rev?*%
%TF.SameCoordinates,Original*%
%TF.FileFunction,Legend,Bot*%
%TF.FilePolarity,Positive*%
%FSLAX46Y46*%
G04 Gerber Fmt 4.6, Leading zero omitted, Abs format (unit mm)*
G04 Created by KiCad (PCBNEW (6.0.3-11-gdd55ffb75c)) date 2022-03-17 00:34:44*
%MOMM*%
%LPD*%
G01*
G04 APERTURE LIST*
G04 Aperture macros list*
%AMRoundRect*
0 Rectangle with rounded corners*
0 $1 Rounding radius*
0 $2 $3 $4 $5 $6 $7 $8 $9 X,Y pos of 4 corners*
0 Add a 4 corners polygon primitive as box body*
4,1,4,$2,$3,$4,$5,$6,$7,$8,$9,$2,$3,0*
0 Add four circle primitives for the rounded corners*
1,1,$1+$1,$2,$3*
1,1,$1+$1,$4,$5*
1,1,$1+$1,$6,$7*
1,1,$1+$1,$8,$9*
0 Add four rect primitives between the rounded corners*
20,1,$1+$1,$2,$3,$4,$5,0*
20,1,$1+$1,$4,$5,$6,$7,0*
20,1,$1+$1,$6,$7,$8,$9,0*
20,1,$1+$1,$8,$9,$2,$3,0*%
%AMFreePoly0*
4,1,18,-0.410000,0.593000,-0.403758,0.624380,-0.385983,0.650983,-0.359380,0.668758,-0.328000,0.675000,0.000000,0.675000,0.410000,0.265000,0.410000,-0.593000,0.403758,-0.624380,0.385983,-0.650983,0.359380,-0.668758,0.328000,-0.675000,-0.328000,-0.675000,-0.359380,-0.668758,-0.385983,-0.650983,-0.403758,-0.624380,-0.410000,-0.593000,-0.410000,0.593000,-0.410000,0.593000,$1*%
%AMFreePoly1*
4,1,6,1.000000,0.000000,0.500000,-0.750000,-0.500000,-0.750000,-0.500000,0.750000,0.500000,0.750000,1.000000,0.000000,1.000000,0.000000,$1*%
%AMFreePoly2*
4,1,6,0.500000,-0.750000,-0.650000,-0.750000,-0.150000,0.000000,-0.650000,0.750000,0.500000,0.750000,0.500000,-0.750000,0.500000,-0.750000,$1*%
G04 Aperture macros list end*
%ADD10C,0.000000*%
%ADD11C,0.150000*%
%ADD12C,0.153000*%
%ADD13C,0.120000*%
%ADD14R,2.000000X2.000000*%
%ADD15C,2.000000*%
%ADD16RoundRect,0.082000X0.593000X-0.328000X0.593000X0.328000X-0.593000X0.328000X-0.593000X-0.328000X0*%
%ADD17FreePoly0,90.000000*%
%ADD18C,1.800000*%
%ADD19C,4.000000*%
%ADD20C,2.500000*%
%ADD21O,2.500000X3.695000*%
%ADD22O,4.700000X2.200000*%
%ADD23C,2.200000*%
%ADD24O,2.000000X1.400000*%
%ADD25RoundRect,0.082000X0.445055X-0.511037X0.669420X0.105401X-0.445055X0.511037X-0.669420X-0.105401X0*%
%ADD26FreePoly0,70.000000*%
%ADD27FreePoly1,90.000000*%
%ADD28FreePoly2,90.000000*%
%ADD29FreePoly1,270.000000*%
%ADD30FreePoly2,270.000000*%
%ADD31R,1.700000X1.700000*%
%ADD32C,1.700000*%
%ADD33FreePoly1,180.000000*%
%ADD34FreePoly2,180.000000*%
G04 APERTURE END LIST*
D10*
G36*
X76952440Y-136498455D02*
G01*
X76966921Y-136500348D01*
X76981194Y-136503465D01*
X76995242Y-136507776D01*
X77009046Y-136513249D01*
X77022588Y-136519854D01*
X77035850Y-136527560D01*
X77048813Y-136536336D01*
X77061461Y-136546151D01*
X77073774Y-136556974D01*
X77097324Y-136581520D01*
X77119320Y-136609729D01*
X77139615Y-136641352D01*
X77158066Y-136676143D01*
X77174526Y-136713855D01*
X77188852Y-136754241D01*
X77200899Y-136797053D01*
X77210520Y-136842045D01*
X77217572Y-136888970D01*
X77221910Y-136937579D01*
X77223388Y-136987628D01*
X77223016Y-137012857D01*
X77221910Y-137037756D01*
X77220090Y-137062292D01*
X77217572Y-137086436D01*
X77214377Y-137110156D01*
X77210520Y-137133422D01*
X77206022Y-137156202D01*
X77200899Y-137178466D01*
X77195170Y-137200184D01*
X77188852Y-137221324D01*
X77181965Y-137241855D01*
X77174526Y-137261747D01*
X77166554Y-137280969D01*
X77158066Y-137299490D01*
X77149080Y-137317280D01*
X77139615Y-137334307D01*
X77129689Y-137350541D01*
X77119320Y-137365950D01*
X77108525Y-137380505D01*
X77097324Y-137394174D01*
X77085734Y-137406927D01*
X77073774Y-137418732D01*
X77061461Y-137429559D01*
X77048813Y-137439377D01*
X77035850Y-137448156D01*
X77022588Y-137455864D01*
X77009046Y-137462470D01*
X76995242Y-137467945D01*
X76981194Y-137472256D01*
X76966921Y-137475374D01*
X76952440Y-137477268D01*
X76937770Y-137477905D01*
X76923100Y-137477268D01*
X76908620Y-137475374D01*
X76894347Y-137472256D01*
X76880300Y-137467945D01*
X76866496Y-137462470D01*
X76852954Y-137455864D01*
X76839693Y-137448156D01*
X76826729Y-137439377D01*
X76814082Y-137429559D01*
X76801769Y-137418732D01*
X76778218Y-137394174D01*
X76756223Y-137365950D01*
X76735927Y-137334307D01*
X76717476Y-137299490D01*
X76701015Y-137261747D01*
X76686689Y-137221324D01*
X76674642Y-137178466D01*
X76665020Y-137133422D01*
X76657967Y-137086436D01*
X76653630Y-137037756D01*
X76652152Y-136987628D01*
X76652524Y-136962440D01*
X76653630Y-136937582D01*
X76655450Y-136913082D01*
X76657967Y-136888973D01*
X76661163Y-136865286D01*
X76665020Y-136842050D01*
X76669519Y-136819297D01*
X76674642Y-136797059D01*
X76680371Y-136775365D01*
X76686689Y-136754247D01*
X76693576Y-136733735D01*
X76701015Y-136713861D01*
X76708988Y-136694655D01*
X76717476Y-136676149D01*
X76726462Y-136658372D01*
X76735927Y-136641357D01*
X76745853Y-136625134D01*
X76756223Y-136609733D01*
X76767017Y-136595186D01*
X76778218Y-136581524D01*
X76789808Y-136568777D01*
X76801769Y-136556976D01*
X76814082Y-136546153D01*
X76826729Y-136536338D01*
X76839693Y-136527562D01*
X76852954Y-136519856D01*
X76866496Y-136513250D01*
X76880300Y-136507777D01*
X76894347Y-136503466D01*
X76908620Y-136500348D01*
X76923100Y-136498455D01*
X76937770Y-136497817D01*
X76952440Y-136498455D01*
G37*
G36*
X74367937Y-136498455D02*
G01*
X74382417Y-136500348D01*
X74396690Y-136503465D01*
X74410738Y-136507776D01*
X74424542Y-136513249D01*
X74438083Y-136519854D01*
X74451345Y-136527560D01*
X74464309Y-136536336D01*
X74476956Y-136546151D01*
X74489269Y-136556974D01*
X74512820Y-136581520D01*
X74534815Y-136609729D01*
X74555111Y-136641352D01*
X74573561Y-136676143D01*
X74590022Y-136713855D01*
X74604349Y-136754241D01*
X74616395Y-136797053D01*
X74626017Y-136842045D01*
X74633069Y-136888970D01*
X74637407Y-136937579D01*
X74638885Y-136987628D01*
X74638512Y-137012857D01*
X74637407Y-137037756D01*
X74635586Y-137062292D01*
X74633069Y-137086436D01*
X74629873Y-137110156D01*
X74626017Y-137133422D01*
X74621518Y-137156202D01*
X74616395Y-137178466D01*
X74610666Y-137200184D01*
X74604349Y-137221324D01*
X74597461Y-137241855D01*
X74590022Y-137261747D01*
X74582050Y-137280969D01*
X74573561Y-137299490D01*
X74564576Y-137317280D01*
X74555111Y-137334307D01*
X74545184Y-137350541D01*
X74534815Y-137365950D01*
X74524021Y-137380505D01*
X74512820Y-137394174D01*
X74501230Y-137406927D01*
X74489269Y-137418732D01*
X74476956Y-137429559D01*
X74464309Y-137439377D01*
X74451345Y-137448156D01*
X74438083Y-137455864D01*
X74424542Y-137462470D01*
X74410738Y-137467945D01*
X74396690Y-137472256D01*
X74382417Y-137475374D01*
X74367937Y-137477268D01*
X74353267Y-137477905D01*
X74338597Y-137477268D01*
X74324116Y-137475374D01*
X74309843Y-137472256D01*
X74295795Y-137467945D01*
X74281992Y-137462470D01*
X74268450Y-137455864D01*
X74255188Y-137448156D01*
X74242225Y-137439377D01*
X74229577Y-137429559D01*
X74217264Y-137418732D01*
X74193714Y-137394174D01*
X74171718Y-137365950D01*
X74151423Y-137334307D01*
X74132972Y-137299490D01*
X74116511Y-137261747D01*
X74102185Y-137221324D01*
X74090138Y-137178466D01*
X74080516Y-137133422D01*
X74073464Y-137086436D01*
X74069127Y-137037756D01*
X74067648Y-136987628D01*
X74068021Y-136962440D01*
X74069127Y-136937582D01*
X74070947Y-136913082D01*
X74073464Y-136888973D01*
X74076660Y-136865286D01*
X74080516Y-136842050D01*
X74085015Y-136819297D01*
X74090138Y-136797059D01*
X74095867Y-136775365D01*
X74102185Y-136754247D01*
X74109072Y-136733735D01*
X74116511Y-136713861D01*
X74124484Y-136694655D01*
X74132972Y-136676149D01*
X74141958Y-136658372D01*
X74151423Y-136641357D01*
X74161349Y-136625134D01*
X74171718Y-136609733D01*
X74182513Y-136595186D01*
X74193714Y-136581524D01*
X74205304Y-136568777D01*
X74217264Y-136556976D01*
X74229577Y-136546153D01*
X74242225Y-136536338D01*
X74255188Y-136527562D01*
X74268450Y-136519856D01*
X74281992Y-136513250D01*
X74295795Y-136507777D01*
X74309843Y-136503466D01*
X74324116Y-136500348D01*
X74338597Y-136498455D01*
X74353267Y-136497817D01*
X74367937Y-136498455D01*
G37*
G36*
X71609501Y-138194505D02*
G01*
X71592572Y-138181225D01*
X71576596Y-138166977D01*
X71561605Y-138151817D01*
X71547630Y-138135802D01*
X71534704Y-138118989D01*
X71522858Y-138101435D01*
X71512125Y-138083197D01*
X71502535Y-138064332D01*
X71494120Y-138044896D01*
X71486913Y-138024947D01*
X71480946Y-138004541D01*
X71476249Y-137983736D01*
X71472854Y-137962588D01*
X71470794Y-137941154D01*
X71470101Y-137919490D01*
X71470420Y-137904764D01*
X71471375Y-137890114D01*
X71472957Y-137875559D01*
X71475159Y-137861118D01*
X71477975Y-137846809D01*
X71481397Y-137832650D01*
X71485419Y-137818660D01*
X71490032Y-137804857D01*
X71495231Y-137791259D01*
X71501007Y-137777886D01*
X71507355Y-137764755D01*
X71514266Y-137751885D01*
X71521735Y-137739293D01*
X71529752Y-137727000D01*
X71538313Y-137715023D01*
X71547409Y-137703379D01*
X71891780Y-137283457D01*
X71902083Y-137269892D01*
X71911228Y-137255727D01*
X71919208Y-137241032D01*
X71926016Y-137225877D01*
X71931645Y-137210335D01*
X71936088Y-137194474D01*
X71939338Y-137178367D01*
X71941387Y-137162083D01*
X71942230Y-137145695D01*
X71941859Y-137129271D01*
X71940267Y-137112883D01*
X71938162Y-137100734D01*
X73654591Y-137100734D01*
X73654675Y-137112964D01*
X73654928Y-137125332D01*
X73654947Y-137127005D01*
X73655002Y-137128656D01*
X73655087Y-137130292D01*
X73655198Y-137131920D01*
X73655478Y-137135185D01*
X73655805Y-137138509D01*
X73657529Y-137169222D01*
X73660360Y-137199935D01*
X73664330Y-137230606D01*
X73669471Y-137261194D01*
X73675813Y-137291654D01*
X73683389Y-137321946D01*
X73687649Y-137337015D01*
X73692229Y-137352026D01*
X73697133Y-137366974D01*
X73702365Y-137381853D01*
X73704394Y-137388003D01*
X73704934Y-137389549D01*
X73705504Y-137391092D01*
X73706110Y-137392628D01*
X73706760Y-137394152D01*
X73707637Y-137395911D01*
X73714577Y-137413805D01*
X73721898Y-137431389D01*
X73729594Y-137448662D01*
X73737656Y-137465624D01*
X73746080Y-137482274D01*
X73754856Y-137498610D01*
X73763978Y-137514632D01*
X73773440Y-137530339D01*
X73783234Y-137545730D01*
X73793352Y-137560803D01*
X73803789Y-137575558D01*
X73814537Y-137589994D01*
X73825588Y-137604110D01*
X73836936Y-137617904D01*
X73848575Y-137631377D01*
X73860496Y-137644527D01*
X73872712Y-137657782D01*
X73885238Y-137670721D01*
X73898071Y-137683335D01*
X73911208Y-137695613D01*
X73924646Y-137707546D01*
X73938383Y-137719124D01*
X73952416Y-137730337D01*
X73966741Y-137741175D01*
X73981357Y-137751629D01*
X73996259Y-137761687D01*
X74011446Y-137771342D01*
X74026914Y-137780581D01*
X74042660Y-137789397D01*
X74058682Y-137797778D01*
X74074976Y-137805715D01*
X74091541Y-137813198D01*
X74104652Y-137818929D01*
X74117836Y-137824318D01*
X74131087Y-137829368D01*
X74144400Y-137834084D01*
X74157768Y-137838469D01*
X74171185Y-137842526D01*
X74184647Y-137846259D01*
X74198145Y-137849673D01*
X74211676Y-137852770D01*
X74225232Y-137855555D01*
X74238807Y-137858031D01*
X74252397Y-137860202D01*
X74265994Y-137862071D01*
X74279593Y-137863643D01*
X74306773Y-137865908D01*
X74326100Y-137867662D01*
X74330495Y-137867662D01*
X74348719Y-137868236D01*
X74366952Y-137868270D01*
X74385189Y-137867762D01*
X74403423Y-137866709D01*
X74421646Y-137865108D01*
X74439853Y-137862956D01*
X74458036Y-137860250D01*
X74476189Y-137856989D01*
X74494305Y-137853169D01*
X74512377Y-137848788D01*
X74530399Y-137843842D01*
X74548364Y-137838330D01*
X74566266Y-137832248D01*
X74584097Y-137825594D01*
X74601851Y-137818365D01*
X74619521Y-137810559D01*
X74634179Y-137803802D01*
X74648632Y-137796691D01*
X74662877Y-137789234D01*
X74676911Y-137781437D01*
X74690731Y-137773307D01*
X74704334Y-137764851D01*
X74717717Y-137756075D01*
X74730876Y-137746987D01*
X74743809Y-137737593D01*
X74756511Y-137727901D01*
X74768981Y-137717916D01*
X74781215Y-137707646D01*
X74793209Y-137697097D01*
X74804961Y-137686277D01*
X74816468Y-137675192D01*
X74827726Y-137663849D01*
X74836510Y-137655065D01*
X74848416Y-137642503D01*
X74860014Y-137629615D01*
X74871302Y-137616405D01*
X74882280Y-137602875D01*
X74892945Y-137589031D01*
X74903298Y-137574875D01*
X74913336Y-137560411D01*
X74923060Y-137545643D01*
X74932467Y-137530574D01*
X74941557Y-137515209D01*
X74950328Y-137499550D01*
X74958780Y-137483603D01*
X74966911Y-137467369D01*
X74974720Y-137450854D01*
X74982207Y-137434060D01*
X74989369Y-137416992D01*
X74993344Y-137407508D01*
X74997177Y-137397955D01*
X75000873Y-137388341D01*
X75004437Y-137378675D01*
X75007874Y-137368967D01*
X75011191Y-137359227D01*
X75014391Y-137349462D01*
X75017481Y-137339684D01*
X75017559Y-137339422D01*
X75017628Y-137339144D01*
X75017689Y-137338851D01*
X75017743Y-137338544D01*
X75017836Y-137337898D01*
X75017918Y-137337217D01*
X75018001Y-137336516D01*
X75018094Y-137335806D01*
X75018210Y-137335101D01*
X75018279Y-137334754D01*
X75018358Y-137334413D01*
X75026268Y-137305499D01*
X75033125Y-137276458D01*
X75038922Y-137247310D01*
X75043652Y-137218078D01*
X75047306Y-137188783D01*
X75049877Y-137159446D01*
X75051358Y-137130088D01*
X75051741Y-137100750D01*
X76239493Y-137100750D01*
X76239875Y-137130107D01*
X76241356Y-137159465D01*
X76243927Y-137188802D01*
X76247582Y-137218097D01*
X76252311Y-137247329D01*
X76258108Y-137276476D01*
X76264966Y-137305518D01*
X76272876Y-137334431D01*
X76274630Y-137342338D01*
X76277571Y-137351763D01*
X76280656Y-137361153D01*
X76283880Y-137370511D01*
X76287235Y-137379843D01*
X76290717Y-137389153D01*
X76294320Y-137398448D01*
X76298038Y-137407732D01*
X76301864Y-137417010D01*
X76309032Y-137434079D01*
X76316531Y-137450872D01*
X76324361Y-137467388D01*
X76332516Y-137483621D01*
X76340995Y-137499569D01*
X76349795Y-137515227D01*
X76358911Y-137530593D01*
X76368342Y-137545661D01*
X76378084Y-137560429D01*
X76388133Y-137574893D01*
X76398487Y-137589049D01*
X76409143Y-137602894D01*
X76420098Y-137616423D01*
X76431348Y-137629634D01*
X76442891Y-137642522D01*
X76454723Y-137655083D01*
X76465266Y-137665627D01*
X76476697Y-137677054D01*
X76488384Y-137688222D01*
X76500325Y-137699123D01*
X76512516Y-137709750D01*
X76524952Y-137720096D01*
X76537632Y-137730154D01*
X76550550Y-137739915D01*
X76563704Y-137749372D01*
X76577090Y-137758519D01*
X76590704Y-137767347D01*
X76604543Y-137775849D01*
X76618603Y-137784018D01*
X76632881Y-137791847D01*
X76647373Y-137799327D01*
X76662075Y-137806452D01*
X76676985Y-137813214D01*
X76690085Y-137818866D01*
X76703242Y-137824187D01*
X76716449Y-137829179D01*
X76729706Y-137833847D01*
X76743008Y-137838195D01*
X76756351Y-137842226D01*
X76769733Y-137845944D01*
X76783149Y-137849352D01*
X76796598Y-137852455D01*
X76810074Y-137855255D01*
X76823576Y-137857758D01*
X76837099Y-137859965D01*
X76864196Y-137863512D01*
X76891338Y-137865924D01*
X76893700Y-137866110D01*
X76896066Y-137866325D01*
X76900833Y-137866801D01*
X76905685Y-137867278D01*
X76908156Y-137867492D01*
X76910665Y-137867678D01*
X76915937Y-137867678D01*
X76924526Y-137867917D01*
X76933095Y-137867974D01*
X76941650Y-137867874D01*
X76950198Y-137867645D01*
X76967301Y-137866894D01*
X76984460Y-137865924D01*
X76992047Y-137865320D01*
X76999834Y-137864766D01*
X77007620Y-137864128D01*
X77011451Y-137863735D01*
X77015208Y-137863270D01*
X77039172Y-137859972D01*
X77063137Y-137855793D01*
X77087068Y-137850704D01*
X77110929Y-137844674D01*
X77134685Y-137837674D01*
X77146512Y-137833801D01*
X77158299Y-137829675D01*
X77170043Y-137825291D01*
X77181737Y-137820647D01*
X77193379Y-137815737D01*
X77204963Y-137810560D01*
X77221192Y-137802997D01*
X77237154Y-137794993D01*
X77252848Y-137786557D01*
X77268272Y-137777701D01*
X77283424Y-137768436D01*
X77298302Y-137758774D01*
X77312905Y-137748725D01*
X77327230Y-137738301D01*
X77341275Y-137727514D01*
X77355040Y-137716375D01*
X77368521Y-137704894D01*
X77381717Y-137693083D01*
X77394627Y-137680954D01*
X77407248Y-137668517D01*
X77419578Y-137655784D01*
X77431616Y-137642766D01*
X77443458Y-137629627D01*
X77455027Y-137616183D01*
X77466314Y-137602435D01*
X77477312Y-137588382D01*
X77488010Y-137574024D01*
X77498402Y-137559362D01*
X77508479Y-137544394D01*
X77518233Y-137529120D01*
X77527654Y-137513541D01*
X77536734Y-137497656D01*
X77545466Y-137481465D01*
X77553841Y-137464967D01*
X77561849Y-137448163D01*
X77569484Y-137431052D01*
X77576736Y-137413634D01*
X77583597Y-137395908D01*
X77589570Y-137379754D01*
X77595177Y-137363514D01*
X77600422Y-137347193D01*
X77605304Y-137330798D01*
X77609827Y-137314335D01*
X77613991Y-137297811D01*
X77621252Y-137264604D01*
X77627100Y-137231229D01*
X77631549Y-137197736D01*
X77634613Y-137164176D01*
X77636306Y-137130601D01*
X77636306Y-137124452D01*
X77636559Y-137112348D01*
X77636644Y-137100293D01*
X77636559Y-137088238D01*
X77636306Y-137076134D01*
X77636306Y-137069985D01*
X77635407Y-137062957D01*
X77633585Y-137030404D01*
X77630471Y-136997880D01*
X77626044Y-136965424D01*
X77620286Y-136933076D01*
X77613179Y-136900876D01*
X77609114Y-136884843D01*
X77604704Y-136868862D01*
X77599948Y-136852939D01*
X77594842Y-136837076D01*
X77589386Y-136821281D01*
X77583575Y-136805557D01*
X77576715Y-136787826D01*
X77569463Y-136770395D01*
X77561828Y-136753263D01*
X77553820Y-136736434D01*
X77545445Y-136719909D01*
X77536713Y-136703690D01*
X77527633Y-136687778D01*
X77518212Y-136672176D01*
X77508458Y-136656884D01*
X77498381Y-136641906D01*
X77487989Y-136627241D01*
X77477290Y-136612893D01*
X77466293Y-136598863D01*
X77455006Y-136585153D01*
X77443437Y-136571764D01*
X77431595Y-136558698D01*
X77419641Y-136545686D01*
X77407394Y-136532967D01*
X77394857Y-136520554D01*
X77382033Y-136508456D01*
X77368925Y-136496684D01*
X77355534Y-136485250D01*
X77341864Y-136474163D01*
X77327918Y-136463434D01*
X77313697Y-136453074D01*
X77299205Y-136443094D01*
X77284444Y-136433505D01*
X77269417Y-136424316D01*
X77254126Y-136415539D01*
X77238574Y-136407184D01*
X77222765Y-136399262D01*
X77206699Y-136391784D01*
X77206656Y-136391701D01*
X77206610Y-136391621D01*
X77206563Y-136391543D01*
X77206513Y-136391468D01*
X77206462Y-136391396D01*
X77206409Y-136391326D01*
X77206299Y-136391193D01*
X77206184Y-136391068D01*
X77206065Y-136390950D01*
X77205944Y-136390840D01*
X77205822Y-136390736D01*
X77205700Y-136390637D01*
X77205579Y-136390542D01*
X77205346Y-136390363D01*
X77205131Y-136390193D01*
X77205034Y-136390109D01*
X77204945Y-136390025D01*
X77203612Y-136389687D01*
X77202957Y-136389508D01*
X77202306Y-136389314D01*
X77201656Y-136389099D01*
X77201002Y-136388857D01*
X77200673Y-136388724D01*
X77200343Y-136388582D01*
X77200010Y-136388429D01*
X77199674Y-136388266D01*
X77183688Y-136381334D01*
X77167615Y-136374874D01*
X77151462Y-136368884D01*
X77135239Y-136363363D01*
X77118952Y-136358307D01*
X77102609Y-136353716D01*
X77086219Y-136349587D01*
X77069789Y-136345919D01*
X77053328Y-136342709D01*
X77036843Y-136339956D01*
X77020342Y-136337658D01*
X77003834Y-136335813D01*
X76987325Y-136334418D01*
X76970825Y-136333473D01*
X76954341Y-136332974D01*
X76937881Y-136332921D01*
X76915917Y-136332921D01*
X76915936Y-136333821D01*
X76900834Y-136334418D01*
X76885725Y-136335368D01*
X76870616Y-136336676D01*
X76855512Y-136338347D01*
X76840421Y-136340384D01*
X76825347Y-136342792D01*
X76810298Y-136345577D01*
X76795279Y-136348741D01*
X76780297Y-136352291D01*
X76765359Y-136356230D01*
X76750469Y-136360562D01*
X76735636Y-136365293D01*
X76720864Y-136370426D01*
X76706161Y-136375967D01*
X76691532Y-136381919D01*
X76676984Y-136388288D01*
X76662420Y-136394803D01*
X76648078Y-136401691D01*
X76633957Y-136408942D01*
X76620058Y-136416545D01*
X76606380Y-136424489D01*
X76592924Y-136432766D01*
X76579689Y-136441363D01*
X76566676Y-136450271D01*
X76553884Y-136459480D01*
X76541313Y-136468979D01*
X76528964Y-136478757D01*
X76516835Y-136488805D01*
X76504929Y-136499112D01*
X76493243Y-136509668D01*
X76481779Y-136520461D01*
X76470536Y-136531483D01*
X76462629Y-136538511D01*
X76453844Y-136549053D01*
X76442091Y-136561521D01*
X76430618Y-136574297D01*
X76419429Y-136587380D01*
X76408529Y-136600767D01*
X76397921Y-136614458D01*
X76387612Y-136628449D01*
X76377604Y-136642739D01*
X76367903Y-136657326D01*
X76358513Y-136672208D01*
X76349438Y-136687384D01*
X76340683Y-136702851D01*
X76332253Y-136718608D01*
X76324151Y-136734652D01*
X76316383Y-136750982D01*
X76308953Y-136767595D01*
X76301864Y-136784491D01*
X76298038Y-136793769D01*
X76294320Y-136803053D01*
X76290717Y-136812348D01*
X76287235Y-136821658D01*
X76283880Y-136830990D01*
X76280656Y-136840348D01*
X76277571Y-136849738D01*
X76274630Y-136859163D01*
X76272876Y-136866191D01*
X76264966Y-136895124D01*
X76258109Y-136924220D01*
X76252311Y-136953453D01*
X76247582Y-136982796D01*
X76243928Y-137012224D01*
X76241356Y-137041709D01*
X76239875Y-137071227D01*
X76239493Y-137100750D01*
X75051741Y-137100750D01*
X75051741Y-137100732D01*
X75051357Y-137070688D01*
X75049867Y-137040625D01*
X75047265Y-137010578D01*
X75043550Y-136980581D01*
X75038717Y-136950669D01*
X75032764Y-136920875D01*
X75025686Y-136891234D01*
X75017480Y-136861780D01*
X75016603Y-136859144D01*
X75013661Y-136849738D01*
X75010576Y-136840403D01*
X75007353Y-136831131D01*
X75003998Y-136821910D01*
X75000516Y-136812732D01*
X74996914Y-136803585D01*
X74993196Y-136794462D01*
X74989369Y-136785350D01*
X74982019Y-136767778D01*
X74974310Y-136750486D01*
X74966245Y-136733480D01*
X74957830Y-136716766D01*
X74949070Y-136700351D01*
X74939968Y-136684239D01*
X74930531Y-136668437D01*
X74920762Y-136652950D01*
X74910666Y-136637785D01*
X74900248Y-136622947D01*
X74889513Y-136608443D01*
X74878465Y-136594278D01*
X74867109Y-136580458D01*
X74855449Y-136566989D01*
X74843491Y-136553877D01*
X74831239Y-136541128D01*
X74827727Y-136537615D01*
X74810764Y-136520586D01*
X74806480Y-136516375D01*
X74802171Y-136512231D01*
X74797834Y-136508175D01*
X74793465Y-136504232D01*
X74773946Y-136487390D01*
X74753847Y-136471291D01*
X74743582Y-136463529D01*
X74733173Y-136455962D01*
X74722621Y-136448595D01*
X74711926Y-136441429D01*
X74701089Y-136434470D01*
X74690110Y-136427719D01*
X74678990Y-136421180D01*
X74667728Y-136414857D01*
X74656326Y-136408752D01*
X74644783Y-136402869D01*
X74633101Y-136397212D01*
X74621279Y-136391784D01*
X74621236Y-136391701D01*
X74621190Y-136391621D01*
X74621143Y-136391543D01*
X74621093Y-136391468D01*
X74621042Y-136391396D01*
X74620989Y-136391326D01*
X74620878Y-136391193D01*
X74620763Y-136391068D01*
X74620644Y-136390950D01*
X74620522Y-136390840D01*
X74620400Y-136390736D01*
X74620277Y-136390637D01*
X74620156Y-136390542D01*
X74619922Y-136390363D01*
X74619811Y-136390277D01*
X74619707Y-136390193D01*
X74619609Y-136390109D01*
X74619521Y-136390025D01*
X74618191Y-136389687D01*
X74617537Y-136389508D01*
X74616885Y-136389314D01*
X74616234Y-136389099D01*
X74615579Y-136388857D01*
X74615250Y-136388724D01*
X74614919Y-136388582D01*
X74614585Y-136388429D01*
X74614249Y-136388266D01*
X74598348Y-136381334D01*
X74582358Y-136374874D01*
X74566286Y-136368884D01*
X74550142Y-136363363D01*
X74533931Y-136358307D01*
X74517660Y-136353716D01*
X74501339Y-136349587D01*
X74484973Y-136345919D01*
X74468570Y-136342709D01*
X74452138Y-136339956D01*
X74435683Y-136337658D01*
X74419214Y-136335813D01*
X74402737Y-136334418D01*
X74386260Y-136333473D01*
X74369790Y-136332974D01*
X74353335Y-136332921D01*
X74330494Y-136332921D01*
X74330494Y-136333805D01*
X74315393Y-136334402D01*
X74300284Y-136335352D01*
X74285175Y-136336661D01*
X74270071Y-136338331D01*
X74254979Y-136340368D01*
X74239906Y-136342777D01*
X74224856Y-136345561D01*
X74209838Y-136348726D01*
X74194856Y-136352275D01*
X74179917Y-136356214D01*
X74165028Y-136360546D01*
X74150195Y-136365277D01*
X74135423Y-136370411D01*
X74120720Y-136375951D01*
X74106091Y-136381904D01*
X74091542Y-136388272D01*
X74086271Y-136390908D01*
X74084512Y-136391785D01*
X74068373Y-136399263D01*
X74052508Y-136407185D01*
X74036918Y-136415540D01*
X74021605Y-136424317D01*
X74006568Y-136433506D01*
X73991809Y-136443096D01*
X73977328Y-136453076D01*
X73963125Y-136463435D01*
X73949202Y-136474164D01*
X73935559Y-136485251D01*
X73922196Y-136496686D01*
X73909115Y-136508457D01*
X73896316Y-136520555D01*
X73883799Y-136532969D01*
X73871566Y-136545687D01*
X73859617Y-136558700D01*
X73847207Y-136572462D01*
X73835113Y-136586589D01*
X73823344Y-136601078D01*
X73811907Y-136615924D01*
X73800809Y-136631123D01*
X73790057Y-136646672D01*
X73779659Y-136662566D01*
X73769623Y-136678801D01*
X73759956Y-136695374D01*
X73750666Y-136712280D01*
X73741759Y-136729515D01*
X73733243Y-136747076D01*
X73725127Y-136764958D01*
X73717416Y-136783157D01*
X73710119Y-136801670D01*
X73703244Y-136820492D01*
X73693070Y-136850282D01*
X73684130Y-136880263D01*
X73676414Y-136910414D01*
X73669910Y-136940713D01*
X73664608Y-136971139D01*
X73660497Y-137001670D01*
X73657567Y-137032283D01*
X73655805Y-137062958D01*
X73654928Y-137070865D01*
X73654928Y-137076136D01*
X73654675Y-137088503D01*
X73654591Y-137100734D01*
X71938162Y-137100734D01*
X71937446Y-137096603D01*
X71933391Y-137080500D01*
X71928093Y-137064645D01*
X71921546Y-137049109D01*
X71913743Y-137033963D01*
X71666006Y-136594713D01*
X71659177Y-136581962D01*
X71652939Y-136569020D01*
X71647292Y-136555907D01*
X71642230Y-136542640D01*
X71637753Y-136529238D01*
X71633856Y-136515718D01*
X71630539Y-136502099D01*
X71627796Y-136488400D01*
X71625627Y-136474638D01*
X71624027Y-136460831D01*
X71622995Y-136446998D01*
X71622528Y-136433158D01*
X71622622Y-136419327D01*
X71623276Y-136405525D01*
X71624485Y-136391770D01*
X71626249Y-136378079D01*
X71628563Y-136364471D01*
X71631425Y-136350965D01*
X71634833Y-136337578D01*
X71638783Y-136324329D01*
X71643273Y-136311235D01*
X71648300Y-136298315D01*
X71653861Y-136285588D01*
X71659954Y-136273071D01*
X71666575Y-136260783D01*
X71673723Y-136248742D01*
X71681394Y-136236966D01*
X71689585Y-136225473D01*
X71698294Y-136214281D01*
X71707519Y-136203409D01*
X71717255Y-136192875D01*
X71727501Y-136182697D01*
X72532206Y-135414010D01*
X72538644Y-135407643D01*
X72544797Y-135401030D01*
X72550659Y-135394182D01*
X72556227Y-135387108D01*
X72561494Y-135379819D01*
X72566455Y-135372325D01*
X72571105Y-135364637D01*
X72575439Y-135356764D01*
X72579451Y-135348718D01*
X72583137Y-135340507D01*
X72586490Y-135332144D01*
X72589507Y-135323637D01*
X72592180Y-135314998D01*
X72594506Y-135306236D01*
X72596479Y-135297361D01*
X72598094Y-135288385D01*
X72894148Y-133434752D01*
X72898655Y-133411566D01*
X72904719Y-133388942D01*
X72912285Y-133366941D01*
X72921298Y-133345626D01*
X72931705Y-133325058D01*
X72943450Y-133305300D01*
X72956480Y-133286414D01*
X72970739Y-133268462D01*
X72986174Y-133251507D01*
X73002730Y-133235609D01*
X73020352Y-133220833D01*
X73038987Y-133207238D01*
X73058579Y-133194889D01*
X73079075Y-133183847D01*
X73100419Y-133174173D01*
X73122558Y-133165931D01*
X73137491Y-133161357D01*
X73145022Y-133159312D01*
X73152591Y-133157430D01*
X73160197Y-133155714D01*
X73167837Y-133154165D01*
X73175509Y-133152787D01*
X73183209Y-133151580D01*
X73190936Y-133150547D01*
X73198687Y-133149690D01*
X73206459Y-133149012D01*
X73214249Y-133148513D01*
X73222056Y-133148197D01*
X73229876Y-133148064D01*
X73237708Y-133148119D01*
X73245548Y-133148361D01*
X73261178Y-133149471D01*
X73276683Y-133151277D01*
X73292038Y-133153771D01*
X73307221Y-133156945D01*
X73322210Y-133160790D01*
X73336983Y-133165298D01*
X73351515Y-133170461D01*
X73365786Y-133176269D01*
X73379772Y-133182716D01*
X73393451Y-133189791D01*
X73406800Y-133197488D01*
X73419797Y-133205798D01*
X73432419Y-133214712D01*
X73444643Y-133224222D01*
X73456447Y-133234319D01*
X73467808Y-133244996D01*
X74757445Y-134506521D01*
X74768263Y-134516413D01*
X74779605Y-134525502D01*
X74791429Y-134533778D01*
X74803693Y-134541228D01*
X74816356Y-134547840D01*
X74829377Y-134553602D01*
X74842712Y-134558503D01*
X74856322Y-134562530D01*
X74870163Y-134565671D01*
X74884194Y-134567916D01*
X74898374Y-134569250D01*
X74912661Y-134569664D01*
X74927013Y-134569144D01*
X74941388Y-134567679D01*
X74955745Y-134565257D01*
X74970042Y-134561866D01*
X75560393Y-134400222D01*
X75571399Y-134397376D01*
X75582483Y-134394909D01*
X75593634Y-134392822D01*
X75604841Y-134391114D01*
X75616092Y-134389786D01*
X75627376Y-134388837D01*
X75638682Y-134388268D01*
X75650000Y-134388078D01*
X75661318Y-134388268D01*
X75672624Y-134388837D01*
X75683908Y-134389786D01*
X75695159Y-134391114D01*
X75706366Y-134392822D01*
X75717516Y-134394909D01*
X75728601Y-134397376D01*
X75739607Y-134400222D01*
X76330837Y-134561866D01*
X76345059Y-134565257D01*
X76359361Y-134567679D01*
X76373699Y-134569144D01*
X76388028Y-134569664D01*
X76402305Y-134569251D01*
X76416486Y-134567916D01*
X76430529Y-134565672D01*
X76444388Y-134562530D01*
X76458021Y-134558503D01*
X76471383Y-134553603D01*
X76484432Y-134547840D01*
X76497122Y-134541228D01*
X76509411Y-134533778D01*
X76521256Y-134525503D01*
X76532611Y-134516413D01*
X76543434Y-134506521D01*
X77833071Y-133244996D01*
X77845292Y-133233682D01*
X77857985Y-133223022D01*
X77871127Y-133213029D01*
X77884691Y-133203710D01*
X77898652Y-133195078D01*
X77912985Y-133187143D01*
X77927663Y-133179914D01*
X77942662Y-133173402D01*
X77957956Y-133167617D01*
X77973520Y-133162570D01*
X77989328Y-133158272D01*
X78005355Y-133154731D01*
X78021576Y-133151960D01*
X78037965Y-133149967D01*
X78054496Y-133148764D01*
X78071144Y-133148361D01*
X78086675Y-133148715D01*
X78102052Y-133149769D01*
X78117258Y-133151507D01*
X78132275Y-133153915D01*
X78147088Y-133156978D01*
X78161677Y-133160683D01*
X78176027Y-133165015D01*
X78190121Y-133169959D01*
X78203940Y-133175501D01*
X78217468Y-133181627D01*
X78230688Y-133188321D01*
X78243582Y-133195570D01*
X78256134Y-133203359D01*
X78268326Y-133211674D01*
X78280142Y-133220500D01*
X78291563Y-133229822D01*
X78302573Y-133239627D01*
X78313155Y-133249900D01*
X78323292Y-133260626D01*
X78332965Y-133271791D01*
X78342160Y-133283381D01*
X78350857Y-133295381D01*
X78359040Y-133307776D01*
X78366692Y-133320552D01*
X78373796Y-133333696D01*
X78380334Y-133347191D01*
X78386290Y-133361024D01*
X78391646Y-133375181D01*
X78396385Y-133389646D01*
X78400490Y-133404406D01*
X78403944Y-133419446D01*
X78406730Y-133434751D01*
X78701905Y-135288385D01*
X78703520Y-135297356D01*
X78705493Y-135306217D01*
X78707819Y-135314959D01*
X78710492Y-135323574D01*
X78713509Y-135332053D01*
X78716862Y-135340388D01*
X78720548Y-135348572D01*
X78724560Y-135356595D01*
X78728894Y-135364449D01*
X78733544Y-135372127D01*
X78738505Y-135379619D01*
X78743772Y-135386917D01*
X78749340Y-135394014D01*
X78755202Y-135400901D01*
X78761355Y-135407569D01*
X78767793Y-135414010D01*
X79573377Y-136181819D01*
X79583703Y-136192081D01*
X79593512Y-136202698D01*
X79611569Y-136224928D01*
X79627527Y-136248359D01*
X79641367Y-136272847D01*
X79653067Y-136298243D01*
X79662609Y-136324401D01*
X79669971Y-136351174D01*
X79675135Y-136378416D01*
X79678079Y-136405979D01*
X79678785Y-136433717D01*
X79677231Y-136461483D01*
X79673398Y-136489130D01*
X79667265Y-136516511D01*
X79658813Y-136543480D01*
X79648022Y-136569889D01*
X79641743Y-136582838D01*
X79634872Y-136595592D01*
X79386256Y-137034841D01*
X79378453Y-137049987D01*
X79371906Y-137065523D01*
X79366609Y-137081378D01*
X79362553Y-137097481D01*
X79359733Y-137113762D01*
X79358141Y-137130149D01*
X79357770Y-137146573D01*
X79358613Y-137162962D01*
X79360663Y-137179245D01*
X79363913Y-137195352D01*
X79368356Y-137211213D01*
X79373985Y-137226755D01*
X79380792Y-137241910D01*
X79388772Y-137256605D01*
X79397917Y-137270770D01*
X79408220Y-137284335D01*
X79752590Y-137703379D01*
X79761686Y-137714948D01*
X79770246Y-137726870D01*
X79778264Y-137739126D01*
X79785732Y-137751694D01*
X79792644Y-137764555D01*
X79798991Y-137777688D01*
X79804768Y-137791072D01*
X79809967Y-137804688D01*
X79814581Y-137818514D01*
X79818602Y-137832531D01*
X79822025Y-137846718D01*
X79824841Y-137861054D01*
X79827043Y-137875520D01*
X79828625Y-137890095D01*
X79829580Y-137904758D01*
X79829899Y-137919490D01*
X79829727Y-137930345D01*
X79829211Y-137941148D01*
X79827164Y-137962568D01*
X79823790Y-137983693D01*
X79819118Y-138004467D01*
X79813177Y-138024833D01*
X79805998Y-138044736D01*
X79797611Y-138064119D01*
X79788044Y-138082926D01*
X79777329Y-138101100D01*
X79765494Y-138118586D01*
X79752570Y-138135326D01*
X79738586Y-138151265D01*
X79723572Y-138166346D01*
X79707558Y-138180513D01*
X79699185Y-138187237D01*
X79690573Y-138193710D01*
X79681726Y-138199927D01*
X79672648Y-138205881D01*
X79147305Y-138541467D01*
X79132552Y-138551785D01*
X79118840Y-138563122D01*
X79106199Y-138575401D01*
X79094657Y-138588545D01*
X79084243Y-138602477D01*
X79074986Y-138617120D01*
X79066916Y-138632396D01*
X79060060Y-138648229D01*
X79054449Y-138664542D01*
X79050110Y-138681257D01*
X79047073Y-138698298D01*
X79045367Y-138715588D01*
X79045021Y-138733049D01*
X79046062Y-138750604D01*
X79048522Y-138768177D01*
X79052428Y-138785690D01*
X79161361Y-139193313D01*
X79164046Y-139203969D01*
X79166370Y-139214683D01*
X79168333Y-139225457D01*
X79169937Y-139236293D01*
X79171183Y-139247193D01*
X79172072Y-139258157D01*
X79172604Y-139269187D01*
X79172782Y-139280285D01*
X79172336Y-139297686D01*
X79171014Y-139314874D01*
X79168838Y-139331828D01*
X79165829Y-139348524D01*
X79162010Y-139364941D01*
X79157402Y-139381056D01*
X79152028Y-139396848D01*
X79145909Y-139412293D01*
X79139068Y-139427369D01*
X79131526Y-139442055D01*
X79123306Y-139456328D01*
X79114428Y-139470165D01*
X79104916Y-139483544D01*
X79094791Y-139496443D01*
X79084076Y-139508841D01*
X79072791Y-139520713D01*
X79060960Y-139532039D01*
X79048604Y-139542795D01*
X79035744Y-139552960D01*
X79022404Y-139562512D01*
X79008605Y-139571427D01*
X78994369Y-139579684D01*
X78979718Y-139587260D01*
X78964673Y-139594134D01*
X78949258Y-139600282D01*
X78933493Y-139605683D01*
X78917401Y-139610314D01*
X78901004Y-139614153D01*
X78884324Y-139617178D01*
X78867382Y-139619366D01*
X78850201Y-139620695D01*
X78832803Y-139621143D01*
X78044790Y-139621143D01*
X78034277Y-139621389D01*
X78023833Y-139622124D01*
X78013475Y-139623341D01*
X78003216Y-139625038D01*
X77993074Y-139627207D01*
X77983064Y-139629845D01*
X77973202Y-139632947D01*
X77963504Y-139636506D01*
X77953984Y-139640520D01*
X77944660Y-139644981D01*
X77935546Y-139649885D01*
X77926658Y-139655228D01*
X77918013Y-139661004D01*
X77909625Y-139667208D01*
X77901512Y-139673836D01*
X77893687Y-139680881D01*
X77153112Y-140373138D01*
X77141074Y-140383800D01*
X77128591Y-140393852D01*
X77115688Y-140403282D01*
X77102390Y-140412081D01*
X77088722Y-140420238D01*
X77074710Y-140427742D01*
X77060378Y-140434582D01*
X77045753Y-140440747D01*
X77030858Y-140446227D01*
X77015721Y-140451012D01*
X77000364Y-140455089D01*
X76984815Y-140458449D01*
X76969097Y-140461082D01*
X76953237Y-140462975D01*
X76937259Y-140464119D01*
X76921189Y-140464503D01*
X76381790Y-140464503D01*
X76375882Y-140464581D01*
X76369967Y-140464817D01*
X76364052Y-140465211D01*
X76358142Y-140465762D01*
X76352242Y-140466471D01*
X76346358Y-140467337D01*
X76340494Y-140468362D01*
X76334657Y-140469545D01*
X76328851Y-140470885D01*
X76323082Y-140472384D01*
X76317356Y-140474042D01*
X76311677Y-140475857D01*
X76306052Y-140477832D01*
X76300485Y-140479965D01*
X76294982Y-140482257D01*
X76289548Y-140484707D01*
X75791438Y-140712238D01*
X75774499Y-140719433D01*
X75757275Y-140725669D01*
X75739804Y-140730945D01*
X75722128Y-140735262D01*
X75704286Y-140738620D01*
X75686319Y-140741018D01*
X75668267Y-140742457D01*
X75650169Y-140742937D01*
X75632066Y-140742457D01*
X75613997Y-140741018D01*
X75596004Y-140738620D01*
X75578125Y-140735262D01*
X75560402Y-140730945D01*
X75542873Y-140725669D01*
X75525580Y-140719433D01*
X75508562Y-140712238D01*
X75010452Y-140484707D01*
X75004949Y-140482257D01*
X74999405Y-140479965D01*
X74993820Y-140477832D01*
X74988196Y-140475857D01*
X74982536Y-140474042D01*
X74976839Y-140472384D01*
X74971108Y-140470885D01*
X74965343Y-140469545D01*
X74959547Y-140468362D01*
X74953721Y-140467337D01*
X74947867Y-140466471D01*
X74941984Y-140465762D01*
X74936076Y-140465211D01*
X74930143Y-140464817D01*
X74924188Y-140464581D01*
X74918210Y-140464503D01*
X74379690Y-140464503D01*
X74363546Y-140464119D01*
X74347513Y-140462975D01*
X74331614Y-140461082D01*
X74315874Y-140458450D01*
X74300315Y-140455089D01*
X74284961Y-140451012D01*
X74269834Y-140446228D01*
X74254957Y-140440748D01*
X74240355Y-140434582D01*
X74226051Y-140427742D01*
X74212066Y-140420239D01*
X74198426Y-140412082D01*
X74185153Y-140403283D01*
X74172269Y-140393852D01*
X74159800Y-140383800D01*
X74147766Y-140373138D01*
X73406313Y-139680003D01*
X73398489Y-139673042D01*
X73390375Y-139666497D01*
X73381987Y-139660374D01*
X73373342Y-139654677D01*
X73364455Y-139649410D01*
X73355341Y-139644578D01*
X73346016Y-139640186D01*
X73336497Y-139636236D01*
X73326798Y-139632735D01*
X73316936Y-139629686D01*
X73306926Y-139627095D01*
X73296784Y-139624964D01*
X73286526Y-139623299D01*
X73276167Y-139622105D01*
X73265724Y-139621385D01*
X73255211Y-139621144D01*
X72467197Y-139621144D01*
X72449838Y-139620696D01*
X72432692Y-139619366D01*
X72415780Y-139617178D01*
X72399125Y-139614154D01*
X72382749Y-139610314D01*
X72366674Y-139605683D01*
X72350922Y-139600282D01*
X72335517Y-139594134D01*
X72320478Y-139587261D01*
X72305830Y-139579684D01*
X72291595Y-139571427D01*
X72277793Y-139562512D01*
X72264449Y-139552961D01*
X72251583Y-139542796D01*
X72239219Y-139532039D01*
X72227377Y-139520713D01*
X72216082Y-139508841D01*
X72205354Y-139496444D01*
X72195216Y-139483544D01*
X72185690Y-139470165D01*
X72176799Y-139456328D01*
X72168564Y-139442055D01*
X72161008Y-139427370D01*
X72154153Y-139412293D01*
X72148022Y-139396848D01*
X72142636Y-139381057D01*
X72138017Y-139364941D01*
X72134189Y-139348524D01*
X72131172Y-139331828D01*
X72128990Y-139314874D01*
X72127665Y-139297686D01*
X72127218Y-139280285D01*
X72127395Y-139269206D01*
X72127927Y-139258221D01*
X72128815Y-139247312D01*
X72130061Y-139236463D01*
X72131665Y-139225656D01*
X72133628Y-139214873D01*
X72135953Y-139204098D01*
X72138639Y-139193314D01*
X72246694Y-138785690D01*
X72248870Y-138776946D01*
X72250679Y-138768177D01*
X72252123Y-138759393D01*
X72253208Y-138750604D01*
X72253935Y-138741820D01*
X72254311Y-138733049D01*
X72254337Y-138724302D01*
X72254018Y-138715588D01*
X72253358Y-138706917D01*
X72252361Y-138698299D01*
X72251030Y-138689742D01*
X72249369Y-138681258D01*
X72247381Y-138672855D01*
X72245072Y-138664542D01*
X72242444Y-138656331D01*
X72239501Y-138648230D01*
X72236247Y-138640248D01*
X72232686Y-138632397D01*
X72228821Y-138624684D01*
X72224657Y-138617120D01*
X72220197Y-138609715D01*
X72215445Y-138602478D01*
X72210405Y-138595418D01*
X72205080Y-138588546D01*
X72199475Y-138581870D01*
X72193592Y-138575402D01*
X72187437Y-138569149D01*
X72181012Y-138563123D01*
X72174321Y-138557332D01*
X72167369Y-138551786D01*
X72160159Y-138546494D01*
X72152695Y-138541467D01*
X71648959Y-138220526D01*
X75115510Y-138220526D01*
X75115847Y-138226414D01*
X75116601Y-138232301D01*
X75117780Y-138238167D01*
X75119394Y-138243991D01*
X75121453Y-138249753D01*
X75123966Y-138255433D01*
X75126942Y-138261009D01*
X75130390Y-138266461D01*
X75134321Y-138271769D01*
X75578842Y-138825223D01*
X75582136Y-138829145D01*
X75585599Y-138832813D01*
X75589222Y-138836229D01*
X75592992Y-138839392D01*
X75596899Y-138842301D01*
X75600930Y-138844958D01*
X75605074Y-138847361D01*
X75609321Y-138849512D01*
X75613658Y-138851409D01*
X75618075Y-138853054D01*
X75622560Y-138854445D01*
X75627101Y-138855584D01*
X75631688Y-138856470D01*
X75636309Y-138857102D01*
X75640953Y-138857482D01*
X75645608Y-138857608D01*
X75650263Y-138857482D01*
X75654907Y-138857102D01*
X75659528Y-138856470D01*
X75664115Y-138855584D01*
X75668656Y-138854445D01*
X75673141Y-138853054D01*
X75677558Y-138851409D01*
X75681895Y-138849512D01*
X75686142Y-138847361D01*
X75690286Y-138844958D01*
X75694317Y-138842301D01*
X75698224Y-138839392D01*
X75701994Y-138836229D01*
X75705616Y-138832813D01*
X75709080Y-138829145D01*
X75712374Y-138825223D01*
X76156016Y-138271769D01*
X76159947Y-138266461D01*
X76163395Y-138261009D01*
X76166371Y-138255433D01*
X76168884Y-138249753D01*
X76170943Y-138243991D01*
X76172557Y-138238167D01*
X76173736Y-138232301D01*
X76174490Y-138226414D01*
X76174827Y-138220526D01*
X76174758Y-138214657D01*
X76174290Y-138208830D01*
X76173435Y-138203062D01*
X76172201Y-138197377D01*
X76170597Y-138191793D01*
X76168633Y-138186331D01*
X76166319Y-138181013D01*
X76163663Y-138175857D01*
X76160676Y-138170886D01*
X76157365Y-138166119D01*
X76153742Y-138161577D01*
X76149815Y-138157281D01*
X76145593Y-138153250D01*
X76141087Y-138149506D01*
X76136305Y-138146069D01*
X76131256Y-138142960D01*
X76125951Y-138140198D01*
X76120398Y-138137805D01*
X76114607Y-138135802D01*
X76108587Y-138134207D01*
X76102348Y-138133043D01*
X76095899Y-138132330D01*
X76089250Y-138132087D01*
X75201087Y-138132087D01*
X75194437Y-138132330D01*
X75187988Y-138133043D01*
X75181749Y-138134207D01*
X75175729Y-138135802D01*
X75169938Y-138137805D01*
X75164385Y-138140198D01*
X75159080Y-138142960D01*
X75154032Y-138146069D01*
X75149249Y-138149506D01*
X75144743Y-138153250D01*
X75140521Y-138157281D01*
X75136594Y-138161577D01*
X75132971Y-138166119D01*
X75129661Y-138170886D01*
X75126673Y-138175857D01*
X75124018Y-138181013D01*
X75121703Y-138186331D01*
X75119740Y-138191793D01*
X75118136Y-138197377D01*
X75116902Y-138203062D01*
X75116046Y-138208830D01*
X75115579Y-138214657D01*
X75115510Y-138220526D01*
X71648959Y-138220526D01*
X71627352Y-138206759D01*
X71609501Y-138194505D01*
G37*
D11*
X117868761Y-138794976D02*
X117964000Y-138747357D01*
X118154476Y-138747357D01*
X118249714Y-138794976D01*
X118344952Y-138890214D01*
X118392571Y-138985452D01*
X118392571Y-139175928D01*
X118344952Y-139271166D01*
X118249714Y-139366404D01*
X118154476Y-139414023D01*
X117964000Y-139414023D01*
X117868761Y-139366404D01*
X118059238Y-138414023D02*
X118297333Y-138461642D01*
X118535428Y-138604500D01*
X118678285Y-138842595D01*
X118725904Y-139080690D01*
X118678285Y-139318785D01*
X118535428Y-139556880D01*
X118297333Y-139699738D01*
X118059238Y-139747357D01*
X117821142Y-139699738D01*
X117583047Y-139556880D01*
X117440190Y-139318785D01*
X117392571Y-139080690D01*
X117440190Y-138842595D01*
X117583047Y-138604500D01*
X117821142Y-138461642D01*
X118059238Y-138414023D01*
X116392571Y-139461642D02*
X116440190Y-139509261D01*
X116583047Y-139556880D01*
X116678285Y-139556880D01*
X116821142Y-139509261D01*
X116916380Y-139414023D01*
X116964000Y-139318785D01*
X117011619Y-139128309D01*
X117011619Y-138985452D01*
X116964000Y-138794976D01*
X116916380Y-138699738D01*
X116821142Y-138604500D01*
X116678285Y-138556880D01*
X116583047Y-138556880D01*
X116440190Y-138604500D01*
X116392571Y-138652119D01*
X115821142Y-139556880D02*
X115916380Y-139509261D01*
X115964000Y-139461642D01*
X116011619Y-139366404D01*
X116011619Y-139080690D01*
X115964000Y-138985452D01*
X115916380Y-138937833D01*
X115821142Y-138890214D01*
X115678285Y-138890214D01*
X115583047Y-138937833D01*
X115535428Y-138985452D01*
X115487809Y-139080690D01*
X115487809Y-139366404D01*
X115535428Y-139461642D01*
X115583047Y-139509261D01*
X115678285Y-139556880D01*
X115821142Y-139556880D01*
X114916380Y-139556880D02*
X115011619Y-139509261D01*
X115059238Y-139414023D01*
X115059238Y-138556880D01*
X114154476Y-139509261D02*
X114249714Y-139556880D01*
X114440190Y-139556880D01*
X114535428Y-139509261D01*
X114583047Y-139414023D01*
X114583047Y-139033071D01*
X114535428Y-138937833D01*
X114440190Y-138890214D01*
X114249714Y-138890214D01*
X114154476Y-138937833D01*
X114106857Y-139033071D01*
X114106857Y-139128309D01*
X114583047Y-139223547D01*
X112916380Y-139556880D02*
X112916380Y-138556880D01*
X112583047Y-139271166D01*
X112249714Y-138556880D01*
X112249714Y-139556880D01*
X111630666Y-139556880D02*
X111725904Y-139509261D01*
X111773523Y-139461642D01*
X111821142Y-139366404D01*
X111821142Y-139080690D01*
X111773523Y-138985452D01*
X111725904Y-138937833D01*
X111630666Y-138890214D01*
X111487809Y-138890214D01*
X111392571Y-138937833D01*
X111344952Y-138985452D01*
X111297333Y-139080690D01*
X111297333Y-139366404D01*
X111344952Y-139461642D01*
X111392571Y-139509261D01*
X111487809Y-139556880D01*
X111630666Y-139556880D01*
X110868761Y-139556880D02*
X110868761Y-138890214D01*
X110868761Y-139080690D02*
X110821142Y-138985452D01*
X110773523Y-138937833D01*
X110678285Y-138890214D01*
X110583047Y-138890214D01*
X110249714Y-139556880D02*
X110249714Y-138890214D01*
X110249714Y-139080690D02*
X110202095Y-138985452D01*
X110154476Y-138937833D01*
X110059238Y-138890214D01*
X109964000Y-138890214D01*
X109630666Y-139556880D02*
X109630666Y-138890214D01*
X109630666Y-138556880D02*
X109678285Y-138604500D01*
X109630666Y-138652119D01*
X109583047Y-138604500D01*
X109630666Y-138556880D01*
X109630666Y-138652119D01*
X109202095Y-139509261D02*
X109106857Y-139556880D01*
X108916380Y-139556880D01*
X108821142Y-139509261D01*
X108773523Y-139414023D01*
X108773523Y-139366404D01*
X108821142Y-139271166D01*
X108916380Y-139223547D01*
X109059238Y-139223547D01*
X109154476Y-139175928D01*
X109202095Y-139080690D01*
X109202095Y-139033071D01*
X109154476Y-138937833D01*
X109059238Y-138890214D01*
X108916380Y-138890214D01*
X108821142Y-138937833D01*
X107630666Y-138652119D02*
X107583047Y-138604500D01*
X107487809Y-138556880D01*
X107249714Y-138556880D01*
X107154476Y-138604500D01*
X107106857Y-138652119D01*
X107059238Y-138747357D01*
X107059238Y-138842595D01*
X107106857Y-138985452D01*
X107678285Y-139556880D01*
X107059238Y-139556880D01*
X106440190Y-138556880D02*
X106344952Y-138556880D01*
X106249714Y-138604500D01*
X106202095Y-138652119D01*
X106154476Y-138747357D01*
X106106857Y-138937833D01*
X106106857Y-139175928D01*
X106154476Y-139366404D01*
X106202095Y-139461642D01*
X106249714Y-139509261D01*
X106344952Y-139556880D01*
X106440190Y-139556880D01*
X106535428Y-139509261D01*
X106583047Y-139461642D01*
X106630666Y-139366404D01*
X106678285Y-139175928D01*
X106678285Y-138937833D01*
X106630666Y-138747357D01*
X106583047Y-138652119D01*
X106535428Y-138604500D01*
X106440190Y-138556880D01*
X105725904Y-138652119D02*
X105678285Y-138604500D01*
X105583047Y-138556880D01*
X105344952Y-138556880D01*
X105249714Y-138604500D01*
X105202095Y-138652119D01*
X105154476Y-138747357D01*
X105154476Y-138842595D01*
X105202095Y-138985452D01*
X105773523Y-139556880D01*
X105154476Y-139556880D01*
X104773523Y-138652119D02*
X104725904Y-138604500D01*
X104630666Y-138556880D01*
X104392571Y-138556880D01*
X104297333Y-138604500D01*
X104249714Y-138652119D01*
X104202095Y-138747357D01*
X104202095Y-138842595D01*
X104249714Y-138985452D01*
X104821142Y-139556880D01*
X104202095Y-139556880D01*
D12*
X107145809Y-136270880D02*
X106812476Y-137270880D01*
X106479142Y-136270880D01*
X105622000Y-137270880D02*
X106193428Y-137270880D01*
X105907714Y-137270880D02*
X105907714Y-136270880D01*
X106002952Y-136413738D01*
X106098190Y-136508976D01*
X106193428Y-136556595D01*
X105193428Y-137175642D02*
X105145809Y-137223261D01*
X105193428Y-137270880D01*
X105241047Y-137223261D01*
X105193428Y-137175642D01*
X105193428Y-137270880D01*
X104526761Y-136270880D02*
X104431523Y-136270880D01*
X104336285Y-136318500D01*
X104288666Y-136366119D01*
X104241047Y-136461357D01*
X104193428Y-136651833D01*
X104193428Y-136889928D01*
X104241047Y-137080404D01*
X104288666Y-137175642D01*
X104336285Y-137223261D01*
X104431523Y-137270880D01*
X104526761Y-137270880D01*
X104622000Y-137223261D01*
X104669619Y-137175642D01*
X104717238Y-137080404D01*
X104764857Y-136889928D01*
X104764857Y-136651833D01*
X104717238Y-136461357D01*
X104669619Y-136366119D01*
X104622000Y-136318500D01*
X104526761Y-136270880D01*
D11*
%TO.C,D11*%
X70895285Y-107298880D02*
X70895285Y-106298880D01*
X70657190Y-106298880D01*
X70514333Y-106346500D01*
X70419095Y-106441738D01*
X70371476Y-106536976D01*
X70323857Y-106727452D01*
X70323857Y-106870309D01*
X70371476Y-107060785D01*
X70419095Y-107156023D01*
X70514333Y-107251261D01*
X70657190Y-107298880D01*
X70895285Y-107298880D01*
X69371476Y-107298880D02*
X69942904Y-107298880D01*
X69657190Y-107298880D02*
X69657190Y-106298880D01*
X69752428Y-106441738D01*
X69847666Y-106536976D01*
X69942904Y-106584595D01*
X68419095Y-107298880D02*
X68990523Y-107298880D01*
X68704809Y-107298880D02*
X68704809Y-106298880D01*
X68800047Y-106441738D01*
X68895285Y-106536976D01*
X68990523Y-106584595D01*
%TO.C,D15*%
X108995285Y-64372880D02*
X108995285Y-63372880D01*
X108757190Y-63372880D01*
X108614333Y-63420500D01*
X108519095Y-63515738D01*
X108471476Y-63610976D01*
X108423857Y-63801452D01*
X108423857Y-63944309D01*
X108471476Y-64134785D01*
X108519095Y-64230023D01*
X108614333Y-64325261D01*
X108757190Y-64372880D01*
X108995285Y-64372880D01*
X107471476Y-64372880D02*
X108042904Y-64372880D01*
X107757190Y-64372880D02*
X107757190Y-63372880D01*
X107852428Y-63515738D01*
X107947666Y-63610976D01*
X108042904Y-63658595D01*
X106566714Y-63372880D02*
X107042904Y-63372880D01*
X107090523Y-63849071D01*
X107042904Y-63801452D01*
X106947666Y-63753833D01*
X106709571Y-63753833D01*
X106614333Y-63801452D01*
X106566714Y-63849071D01*
X106519095Y-63944309D01*
X106519095Y-64182404D01*
X106566714Y-64277642D01*
X106614333Y-64325261D01*
X106709571Y-64372880D01*
X106947666Y-64372880D01*
X107042904Y-64325261D01*
X107090523Y-64277642D01*
%TO.C,D3*%
X109027095Y-107298880D02*
X109027095Y-106298880D01*
X108789000Y-106298880D01*
X108646142Y-106346500D01*
X108550904Y-106441738D01*
X108503285Y-106536976D01*
X108455666Y-106727452D01*
X108455666Y-106870309D01*
X108503285Y-107060785D01*
X108550904Y-107156023D01*
X108646142Y-107251261D01*
X108789000Y-107298880D01*
X109027095Y-107298880D01*
X108122333Y-106298880D02*
X107503285Y-106298880D01*
X107836619Y-106679833D01*
X107693761Y-106679833D01*
X107598523Y-106727452D01*
X107550904Y-106775071D01*
X107503285Y-106870309D01*
X107503285Y-107108404D01*
X107550904Y-107203642D01*
X107598523Y-107251261D01*
X107693761Y-107298880D01*
X107979476Y-107298880D01*
X108074714Y-107251261D01*
X108122333Y-107203642D01*
%TO.C,D7*%
X89850095Y-126475880D02*
X89850095Y-125475880D01*
X89612000Y-125475880D01*
X89469142Y-125523500D01*
X89373904Y-125618738D01*
X89326285Y-125713976D01*
X89278666Y-125904452D01*
X89278666Y-126047309D01*
X89326285Y-126237785D01*
X89373904Y-126333023D01*
X89469142Y-126428261D01*
X89612000Y-126475880D01*
X89850095Y-126475880D01*
X88945333Y-125475880D02*
X88278666Y-125475880D01*
X88707238Y-126475880D01*
%TO.C,D14*%
X89818285Y-64499880D02*
X89818285Y-63499880D01*
X89580190Y-63499880D01*
X89437333Y-63547500D01*
X89342095Y-63642738D01*
X89294476Y-63737976D01*
X89246857Y-63928452D01*
X89246857Y-64071309D01*
X89294476Y-64261785D01*
X89342095Y-64357023D01*
X89437333Y-64452261D01*
X89580190Y-64499880D01*
X89818285Y-64499880D01*
X88294476Y-64499880D02*
X88865904Y-64499880D01*
X88580190Y-64499880D02*
X88580190Y-63499880D01*
X88675428Y-63642738D01*
X88770666Y-63737976D01*
X88865904Y-63785595D01*
X87437333Y-63833214D02*
X87437333Y-64499880D01*
X87675428Y-63452261D02*
X87913523Y-64166547D01*
X87294476Y-64166547D01*
%TO.C,D2*%
X109027095Y-126602880D02*
X109027095Y-125602880D01*
X108789000Y-125602880D01*
X108646142Y-125650500D01*
X108550904Y-125745738D01*
X108503285Y-125840976D01*
X108455666Y-126031452D01*
X108455666Y-126174309D01*
X108503285Y-126364785D01*
X108550904Y-126460023D01*
X108646142Y-126555261D01*
X108789000Y-126602880D01*
X109027095Y-126602880D01*
X108074714Y-125698119D02*
X108027095Y-125650500D01*
X107931857Y-125602880D01*
X107693761Y-125602880D01*
X107598523Y-125650500D01*
X107550904Y-125698119D01*
X107503285Y-125793357D01*
X107503285Y-125888595D01*
X107550904Y-126031452D01*
X108122333Y-126602880D01*
X107503285Y-126602880D01*
%TO.C,D6*%
X89977095Y-107298880D02*
X89977095Y-106298880D01*
X89739000Y-106298880D01*
X89596142Y-106346500D01*
X89500904Y-106441738D01*
X89453285Y-106536976D01*
X89405666Y-106727452D01*
X89405666Y-106870309D01*
X89453285Y-107060785D01*
X89500904Y-107156023D01*
X89596142Y-107251261D01*
X89739000Y-107298880D01*
X89977095Y-107298880D01*
X88548523Y-106298880D02*
X88739000Y-106298880D01*
X88834238Y-106346500D01*
X88881857Y-106394119D01*
X88977095Y-106536976D01*
X89024714Y-106727452D01*
X89024714Y-107108404D01*
X88977095Y-107203642D01*
X88929476Y-107251261D01*
X88834238Y-107298880D01*
X88643761Y-107298880D01*
X88548523Y-107251261D01*
X88500904Y-107203642D01*
X88453285Y-107108404D01*
X88453285Y-106870309D01*
X88500904Y-106775071D01*
X88548523Y-106727452D01*
X88643761Y-106679833D01*
X88834238Y-106679833D01*
X88929476Y-106727452D01*
X88977095Y-106775071D01*
X89024714Y-106870309D01*
%TO.C,D8*%
X89850095Y-145398880D02*
X89850095Y-144398880D01*
X89612000Y-144398880D01*
X89469142Y-144446500D01*
X89373904Y-144541738D01*
X89326285Y-144636976D01*
X89278666Y-144827452D01*
X89278666Y-144970309D01*
X89326285Y-145160785D01*
X89373904Y-145256023D01*
X89469142Y-145351261D01*
X89612000Y-145398880D01*
X89850095Y-145398880D01*
X88707238Y-144827452D02*
X88802476Y-144779833D01*
X88850095Y-144732214D01*
X88897714Y-144636976D01*
X88897714Y-144589357D01*
X88850095Y-144494119D01*
X88802476Y-144446500D01*
X88707238Y-144398880D01*
X88516761Y-144398880D01*
X88421523Y-144446500D01*
X88373904Y-144494119D01*
X88326285Y-144589357D01*
X88326285Y-144636976D01*
X88373904Y-144732214D01*
X88421523Y-144779833D01*
X88516761Y-144827452D01*
X88707238Y-144827452D01*
X88802476Y-144875071D01*
X88850095Y-144922690D01*
X88897714Y-145017928D01*
X88897714Y-145208404D01*
X88850095Y-145303642D01*
X88802476Y-145351261D01*
X88707238Y-145398880D01*
X88516761Y-145398880D01*
X88421523Y-145351261D01*
X88373904Y-145303642D01*
X88326285Y-145208404D01*
X88326285Y-145017928D01*
X88373904Y-144922690D01*
X88421523Y-144875071D01*
X88516761Y-144827452D01*
%TO.C,D13*%
X70895285Y-64499880D02*
X70895285Y-63499880D01*
X70657190Y-63499880D01*
X70514333Y-63547500D01*
X70419095Y-63642738D01*
X70371476Y-63737976D01*
X70323857Y-63928452D01*
X70323857Y-64071309D01*
X70371476Y-64261785D01*
X70419095Y-64357023D01*
X70514333Y-64452261D01*
X70657190Y-64499880D01*
X70895285Y-64499880D01*
X69371476Y-64499880D02*
X69942904Y-64499880D01*
X69657190Y-64499880D02*
X69657190Y-63499880D01*
X69752428Y-63642738D01*
X69847666Y-63737976D01*
X69942904Y-63785595D01*
X69038142Y-63499880D02*
X68419095Y-63499880D01*
X68752428Y-63880833D01*
X68609571Y-63880833D01*
X68514333Y-63928452D01*
X68466714Y-63976071D01*
X68419095Y-64071309D01*
X68419095Y-64309404D01*
X68466714Y-64404642D01*
X68514333Y-64452261D01*
X68609571Y-64499880D01*
X68895285Y-64499880D01*
X68990523Y-64452261D01*
X69038142Y-64404642D01*
%TO.C,D1*%
X109281095Y-145398880D02*
X109281095Y-144398880D01*
X109043000Y-144398880D01*
X108900142Y-144446500D01*
X108804904Y-144541738D01*
X108757285Y-144636976D01*
X108709666Y-144827452D01*
X108709666Y-144970309D01*
X108757285Y-145160785D01*
X108804904Y-145256023D01*
X108900142Y-145351261D01*
X109043000Y-145398880D01*
X109281095Y-145398880D01*
X107757285Y-145398880D02*
X108328714Y-145398880D01*
X108043000Y-145398880D02*
X108043000Y-144398880D01*
X108138238Y-144541738D01*
X108233476Y-144636976D01*
X108328714Y-144684595D01*
%TO.C,D12*%
X68821668Y-86194090D02*
X68479647Y-87133783D01*
X68703384Y-87215216D01*
X68853912Y-87219329D01*
X68975980Y-87162408D01*
X69053301Y-87089200D01*
X69163195Y-86926498D01*
X69212055Y-86792256D01*
X69232454Y-86596980D01*
X69220280Y-86491199D01*
X69163359Y-86369131D01*
X69045404Y-86275524D01*
X68821668Y-86194090D01*
X70253580Y-86715264D02*
X69716613Y-86519824D01*
X69985097Y-86617544D02*
X69643076Y-87557236D01*
X69602442Y-87390421D01*
X69545521Y-87268353D01*
X69472313Y-87191033D01*
X70302111Y-87695755D02*
X70330572Y-87756789D01*
X70403780Y-87834110D01*
X70627516Y-87915543D01*
X70733297Y-87903369D01*
X70794331Y-87874909D01*
X70871652Y-87801701D01*
X70904225Y-87712206D01*
X70908338Y-87561678D01*
X70566811Y-86829271D01*
X71148525Y-87040997D01*
%TO.C,D9*%
X70800095Y-145398880D02*
X70800095Y-144398880D01*
X70562000Y-144398880D01*
X70419142Y-144446500D01*
X70323904Y-144541738D01*
X70276285Y-144636976D01*
X70228666Y-144827452D01*
X70228666Y-144970309D01*
X70276285Y-145160785D01*
X70323904Y-145256023D01*
X70419142Y-145351261D01*
X70562000Y-145398880D01*
X70800095Y-145398880D01*
X69752476Y-145398880D02*
X69562000Y-145398880D01*
X69466761Y-145351261D01*
X69419142Y-145303642D01*
X69323904Y-145160785D01*
X69276285Y-144970309D01*
X69276285Y-144589357D01*
X69323904Y-144494119D01*
X69371523Y-144446500D01*
X69466761Y-144398880D01*
X69657238Y-144398880D01*
X69752476Y-144446500D01*
X69800095Y-144494119D01*
X69847714Y-144589357D01*
X69847714Y-144827452D01*
X69800095Y-144922690D01*
X69752476Y-144970309D01*
X69657238Y-145017928D01*
X69466761Y-145017928D01*
X69371523Y-144970309D01*
X69323904Y-144922690D01*
X69276285Y-144827452D01*
%TO.C,D10*%
X70895285Y-126348880D02*
X70895285Y-125348880D01*
X70657190Y-125348880D01*
X70514333Y-125396500D01*
X70419095Y-125491738D01*
X70371476Y-125586976D01*
X70323857Y-125777452D01*
X70323857Y-125920309D01*
X70371476Y-126110785D01*
X70419095Y-126206023D01*
X70514333Y-126301261D01*
X70657190Y-126348880D01*
X70895285Y-126348880D01*
X69371476Y-126348880D02*
X69942904Y-126348880D01*
X69657190Y-126348880D02*
X69657190Y-125348880D01*
X69752428Y-125491738D01*
X69847666Y-125586976D01*
X69942904Y-125634595D01*
X68752428Y-125348880D02*
X68657190Y-125348880D01*
X68561952Y-125396500D01*
X68514333Y-125444119D01*
X68466714Y-125539357D01*
X68419095Y-125729833D01*
X68419095Y-125967928D01*
X68466714Y-126158404D01*
X68514333Y-126253642D01*
X68561952Y-126301261D01*
X68657190Y-126348880D01*
X68752428Y-126348880D01*
X68847666Y-126301261D01*
X68895285Y-126253642D01*
X68942904Y-126158404D01*
X68990523Y-125967928D01*
X68990523Y-125729833D01*
X68942904Y-125539357D01*
X68895285Y-125444119D01*
X68847666Y-125396500D01*
X68752428Y-125348880D01*
%TO.C,D4*%
X106734140Y-85721957D02*
X106392120Y-86661650D01*
X106615856Y-86743083D01*
X106766385Y-86747196D01*
X106888453Y-86690275D01*
X106965773Y-86617067D01*
X107075667Y-86454364D01*
X107124527Y-86320123D01*
X107144927Y-86124847D01*
X107132753Y-86019066D01*
X107075832Y-85896998D01*
X106957877Y-85803390D01*
X106734140Y-85721957D01*
X107848545Y-86837019D02*
X108076558Y-86210557D01*
X107494515Y-87113564D02*
X107515079Y-86360921D01*
X108096793Y-86572648D01*
%TO.C,D5*%
X87938140Y-86229957D02*
X87596120Y-87169650D01*
X87819856Y-87251083D01*
X87970385Y-87255196D01*
X88092453Y-87198275D01*
X88169773Y-87125067D01*
X88279667Y-86962364D01*
X88328527Y-86828123D01*
X88348927Y-86632847D01*
X88336753Y-86527066D01*
X88279832Y-86404998D01*
X88161877Y-86311390D01*
X87938140Y-86229957D01*
X88983285Y-87674537D02*
X88535813Y-87511670D01*
X88653932Y-87047910D01*
X88682393Y-87108944D01*
X88755601Y-87186265D01*
X88979337Y-87267698D01*
X89085118Y-87255524D01*
X89146152Y-87227064D01*
X89223473Y-87153856D01*
X89304906Y-86930120D01*
X89292732Y-86824338D01*
X89264272Y-86763304D01*
X89191064Y-86685984D01*
X88967327Y-86604551D01*
X88861546Y-86616724D01*
X88800512Y-86645185D01*
%TO.C,JP12*%
X66974380Y-82803976D02*
X67688666Y-82803976D01*
X67831523Y-82756357D01*
X67926761Y-82661119D01*
X67974380Y-82518261D01*
X67974380Y-82423023D01*
X67974380Y-83280166D02*
X66974380Y-83280166D01*
X66974380Y-83661119D01*
X67022000Y-83756357D01*
X67069619Y-83803976D01*
X67164857Y-83851595D01*
X67307714Y-83851595D01*
X67402952Y-83803976D01*
X67450571Y-83756357D01*
X67498190Y-83661119D01*
X67498190Y-83280166D01*
X67974380Y-84803976D02*
X67974380Y-84232547D01*
X67974380Y-84518261D02*
X66974380Y-84518261D01*
X67117238Y-84423023D01*
X67212476Y-84327785D01*
X67260095Y-84232547D01*
X67069619Y-85184928D02*
X67022000Y-85232547D01*
X66974380Y-85327785D01*
X66974380Y-85565880D01*
X67022000Y-85661119D01*
X67069619Y-85708738D01*
X67164857Y-85756357D01*
X67260095Y-85756357D01*
X67402952Y-85708738D01*
X67974380Y-85137309D01*
X67974380Y-85756357D01*
%TO.C,JP4*%
X118393333Y-81533880D02*
X118393333Y-82248166D01*
X118440952Y-82391023D01*
X118536190Y-82486261D01*
X118679047Y-82533880D01*
X118774285Y-82533880D01*
X117917142Y-82533880D02*
X117917142Y-81533880D01*
X117536190Y-81533880D01*
X117440952Y-81581500D01*
X117393333Y-81629119D01*
X117345714Y-81724357D01*
X117345714Y-81867214D01*
X117393333Y-81962452D01*
X117440952Y-82010071D01*
X117536190Y-82057690D01*
X117917142Y-82057690D01*
X116488571Y-81867214D02*
X116488571Y-82533880D01*
X116726666Y-81486261D02*
X116964761Y-82200547D01*
X116345714Y-82200547D01*
%TO.C,U1*%
X92921904Y-74040880D02*
X92921904Y-74850404D01*
X92874285Y-74945642D01*
X92826666Y-74993261D01*
X92731428Y-75040880D01*
X92540952Y-75040880D01*
X92445714Y-74993261D01*
X92398095Y-74945642D01*
X92350476Y-74850404D01*
X92350476Y-74040880D01*
X91350476Y-75040880D02*
X91921904Y-75040880D01*
X91636190Y-75040880D02*
X91636190Y-74040880D01*
X91731428Y-74183738D01*
X91826666Y-74278976D01*
X91921904Y-74326595D01*
%TO.C,JPF3*%
X74371904Y-116458880D02*
X74371904Y-117173166D01*
X74419523Y-117316023D01*
X74514761Y-117411261D01*
X74657619Y-117458880D01*
X74752857Y-117458880D01*
X73895714Y-117458880D02*
X73895714Y-116458880D01*
X73514761Y-116458880D01*
X73419523Y-116506500D01*
X73371904Y-116554119D01*
X73324285Y-116649357D01*
X73324285Y-116792214D01*
X73371904Y-116887452D01*
X73419523Y-116935071D01*
X73514761Y-116982690D01*
X73895714Y-116982690D01*
X72562380Y-116935071D02*
X72895714Y-116935071D01*
X72895714Y-117458880D02*
X72895714Y-116458880D01*
X72419523Y-116458880D01*
X72133809Y-116458880D02*
X71514761Y-116458880D01*
X71848095Y-116839833D01*
X71705238Y-116839833D01*
X71610000Y-116887452D01*
X71562380Y-116935071D01*
X71514761Y-117030309D01*
X71514761Y-117268404D01*
X71562380Y-117363642D01*
X71610000Y-117411261D01*
X71705238Y-117458880D01*
X71990952Y-117458880D01*
X72086190Y-117411261D01*
X72133809Y-117363642D01*
%TO.C,JP1*%
X119552380Y-140557166D02*
X120266666Y-140557166D01*
X120409523Y-140509547D01*
X120504761Y-140414309D01*
X120552380Y-140271452D01*
X120552380Y-140176214D01*
X120552380Y-141033357D02*
X119552380Y-141033357D01*
X119552380Y-141414309D01*
X119600000Y-141509547D01*
X119647619Y-141557166D01*
X119742857Y-141604785D01*
X119885714Y-141604785D01*
X119980952Y-141557166D01*
X120028571Y-141509547D01*
X120076190Y-141414309D01*
X120076190Y-141033357D01*
X120552380Y-142557166D02*
X120552380Y-141985738D01*
X120552380Y-142271452D02*
X119552380Y-142271452D01*
X119695238Y-142176214D01*
X119790476Y-142080976D01*
X119838095Y-141985738D01*
%TO.C,JP2*%
X119028333Y-119506880D02*
X119028333Y-120221166D01*
X119075952Y-120364023D01*
X119171190Y-120459261D01*
X119314047Y-120506880D01*
X119409285Y-120506880D01*
X118552142Y-120506880D02*
X118552142Y-119506880D01*
X118171190Y-119506880D01*
X118075952Y-119554500D01*
X118028333Y-119602119D01*
X117980714Y-119697357D01*
X117980714Y-119840214D01*
X118028333Y-119935452D01*
X118075952Y-119983071D01*
X118171190Y-120030690D01*
X118552142Y-120030690D01*
X117599761Y-119602119D02*
X117552142Y-119554500D01*
X117456904Y-119506880D01*
X117218809Y-119506880D01*
X117123571Y-119554500D01*
X117075952Y-119602119D01*
X117028333Y-119697357D01*
X117028333Y-119792595D01*
X117075952Y-119935452D01*
X117647380Y-120506880D01*
X117028333Y-120506880D01*
%TO.C,JP10*%
X66974380Y-121030976D02*
X67688666Y-121030976D01*
X67831523Y-120983357D01*
X67926761Y-120888119D01*
X67974380Y-120745261D01*
X67974380Y-120650023D01*
X67974380Y-121507166D02*
X66974380Y-121507166D01*
X66974380Y-121888119D01*
X67022000Y-121983357D01*
X67069619Y-122030976D01*
X67164857Y-122078595D01*
X67307714Y-122078595D01*
X67402952Y-122030976D01*
X67450571Y-121983357D01*
X67498190Y-121888119D01*
X67498190Y-121507166D01*
X67974380Y-123030976D02*
X67974380Y-122459547D01*
X67974380Y-122745261D02*
X66974380Y-122745261D01*
X67117238Y-122650023D01*
X67212476Y-122554785D01*
X67260095Y-122459547D01*
X66974380Y-123650023D02*
X66974380Y-123745261D01*
X67022000Y-123840500D01*
X67069619Y-123888119D01*
X67164857Y-123935738D01*
X67355333Y-123983357D01*
X67593428Y-123983357D01*
X67783904Y-123935738D01*
X67879142Y-123888119D01*
X67926761Y-123840500D01*
X67974380Y-123745261D01*
X67974380Y-123650023D01*
X67926761Y-123554785D01*
X67879142Y-123507166D01*
X67783904Y-123459547D01*
X67593428Y-123411928D01*
X67355333Y-123411928D01*
X67164857Y-123459547D01*
X67069619Y-123507166D01*
X67022000Y-123554785D01*
X66974380Y-123650023D01*
%TO.C,JP13*%
X67482380Y-59689976D02*
X68196666Y-59689976D01*
X68339523Y-59642357D01*
X68434761Y-59547119D01*
X68482380Y-59404261D01*
X68482380Y-59309023D01*
X68482380Y-60166166D02*
X67482380Y-60166166D01*
X67482380Y-60547119D01*
X67530000Y-60642357D01*
X67577619Y-60689976D01*
X67672857Y-60737595D01*
X67815714Y-60737595D01*
X67910952Y-60689976D01*
X67958571Y-60642357D01*
X68006190Y-60547119D01*
X68006190Y-60166166D01*
X68482380Y-61689976D02*
X68482380Y-61118547D01*
X68482380Y-61404261D02*
X67482380Y-61404261D01*
X67625238Y-61309023D01*
X67720476Y-61213785D01*
X67768095Y-61118547D01*
X67482380Y-62023309D02*
X67482380Y-62642357D01*
X67863333Y-62309023D01*
X67863333Y-62451880D01*
X67910952Y-62547119D01*
X67958571Y-62594738D01*
X68053809Y-62642357D01*
X68291904Y-62642357D01*
X68387142Y-62594738D01*
X68434761Y-62547119D01*
X68482380Y-62451880D01*
X68482380Y-62166166D01*
X68434761Y-62070928D01*
X68387142Y-62023309D01*
%TO.C,JPF1*%
X112471904Y-116458880D02*
X112471904Y-117173166D01*
X112519523Y-117316023D01*
X112614761Y-117411261D01*
X112757619Y-117458880D01*
X112852857Y-117458880D01*
X111995714Y-117458880D02*
X111995714Y-116458880D01*
X111614761Y-116458880D01*
X111519523Y-116506500D01*
X111471904Y-116554119D01*
X111424285Y-116649357D01*
X111424285Y-116792214D01*
X111471904Y-116887452D01*
X111519523Y-116935071D01*
X111614761Y-116982690D01*
X111995714Y-116982690D01*
X110662380Y-116935071D02*
X110995714Y-116935071D01*
X110995714Y-117458880D02*
X110995714Y-116458880D01*
X110519523Y-116458880D01*
X109614761Y-117458880D02*
X110186190Y-117458880D01*
X109900476Y-117458880D02*
X109900476Y-116458880D01*
X109995714Y-116601738D01*
X110090952Y-116696976D01*
X110186190Y-116744595D01*
%TO.C,JP11*%
X66974380Y-101980976D02*
X67688666Y-101980976D01*
X67831523Y-101933357D01*
X67926761Y-101838119D01*
X67974380Y-101695261D01*
X67974380Y-101600023D01*
X67974380Y-102457166D02*
X66974380Y-102457166D01*
X66974380Y-102838119D01*
X67022000Y-102933357D01*
X67069619Y-102980976D01*
X67164857Y-103028595D01*
X67307714Y-103028595D01*
X67402952Y-102980976D01*
X67450571Y-102933357D01*
X67498190Y-102838119D01*
X67498190Y-102457166D01*
X67974380Y-103980976D02*
X67974380Y-103409547D01*
X67974380Y-103695261D02*
X66974380Y-103695261D01*
X67117238Y-103600023D01*
X67212476Y-103504785D01*
X67260095Y-103409547D01*
X67974380Y-104933357D02*
X67974380Y-104361928D01*
X67974380Y-104647642D02*
X66974380Y-104647642D01*
X67117238Y-104552404D01*
X67212476Y-104457166D01*
X67260095Y-104361928D01*
%TO.C,JP3*%
X119028333Y-100075880D02*
X119028333Y-100790166D01*
X119075952Y-100933023D01*
X119171190Y-101028261D01*
X119314047Y-101075880D01*
X119409285Y-101075880D01*
X118552142Y-101075880D02*
X118552142Y-100075880D01*
X118171190Y-100075880D01*
X118075952Y-100123500D01*
X118028333Y-100171119D01*
X117980714Y-100266357D01*
X117980714Y-100409214D01*
X118028333Y-100504452D01*
X118075952Y-100552071D01*
X118171190Y-100599690D01*
X118552142Y-100599690D01*
X117647380Y-100075880D02*
X117028333Y-100075880D01*
X117361666Y-100456833D01*
X117218809Y-100456833D01*
X117123571Y-100504452D01*
X117075952Y-100552071D01*
X117028333Y-100647309D01*
X117028333Y-100885404D01*
X117075952Y-100980642D01*
X117123571Y-101028261D01*
X117218809Y-101075880D01*
X117504523Y-101075880D01*
X117599761Y-101028261D01*
X117647380Y-100980642D01*
%TO.C,JPF2*%
X93421904Y-116458880D02*
X93421904Y-117173166D01*
X93469523Y-117316023D01*
X93564761Y-117411261D01*
X93707619Y-117458880D01*
X93802857Y-117458880D01*
X92945714Y-117458880D02*
X92945714Y-116458880D01*
X92564761Y-116458880D01*
X92469523Y-116506500D01*
X92421904Y-116554119D01*
X92374285Y-116649357D01*
X92374285Y-116792214D01*
X92421904Y-116887452D01*
X92469523Y-116935071D01*
X92564761Y-116982690D01*
X92945714Y-116982690D01*
X91612380Y-116935071D02*
X91945714Y-116935071D01*
X91945714Y-117458880D02*
X91945714Y-116458880D01*
X91469523Y-116458880D01*
X91136190Y-116554119D02*
X91088571Y-116506500D01*
X90993333Y-116458880D01*
X90755238Y-116458880D01*
X90660000Y-116506500D01*
X90612380Y-116554119D01*
X90564761Y-116649357D01*
X90564761Y-116744595D01*
X90612380Y-116887452D01*
X91183809Y-117458880D01*
X90564761Y-117458880D01*
%TO.C,JP9*%
X66974380Y-139414166D02*
X67688666Y-139414166D01*
X67831523Y-139366547D01*
X67926761Y-139271309D01*
X67974380Y-139128452D01*
X67974380Y-139033214D01*
X67974380Y-139890357D02*
X66974380Y-139890357D01*
X66974380Y-140271309D01*
X67022000Y-140366547D01*
X67069619Y-140414166D01*
X67164857Y-140461785D01*
X67307714Y-140461785D01*
X67402952Y-140414166D01*
X67450571Y-140366547D01*
X67498190Y-140271309D01*
X67498190Y-139890357D01*
X67974380Y-140937976D02*
X67974380Y-141128452D01*
X67926761Y-141223690D01*
X67879142Y-141271309D01*
X67736285Y-141366547D01*
X67545809Y-141414166D01*
X67164857Y-141414166D01*
X67069619Y-141366547D01*
X67022000Y-141318928D01*
X66974380Y-141223690D01*
X66974380Y-141033214D01*
X67022000Y-140937976D01*
X67069619Y-140890357D01*
X67164857Y-140842738D01*
X67402952Y-140842738D01*
X67498190Y-140890357D01*
X67545809Y-140937976D01*
X67593428Y-141033214D01*
X67593428Y-141223690D01*
X67545809Y-141318928D01*
X67498190Y-141366547D01*
X67402952Y-141414166D01*
D13*
%TO.C,D11*%
X69310000Y-104150000D02*
X69310000Y-103150000D01*
X69310000Y-103150000D02*
X70210000Y-103150000D01*
%TO.C,D15*%
X107410000Y-61287500D02*
X107410000Y-60287500D01*
X107410000Y-60287500D02*
X108310000Y-60287500D01*
%TO.C,D3*%
X107410000Y-104150000D02*
X107410000Y-103150000D01*
X107410000Y-103150000D02*
X108310000Y-103150000D01*
%TO.C,D7*%
X88360000Y-123200000D02*
X88360000Y-122200000D01*
X88360000Y-122200000D02*
X89260000Y-122200000D01*
%TO.C,D14*%
X88360000Y-60287500D02*
X89260000Y-60287500D01*
X88360000Y-61287500D02*
X88360000Y-60287500D01*
%TO.C,D2*%
X107410000Y-122200000D02*
X108310000Y-122200000D01*
X107410000Y-123200000D02*
X107410000Y-122200000D01*
%TO.C,D6*%
X88360000Y-103150000D02*
X89260000Y-103150000D01*
X88360000Y-104150000D02*
X88360000Y-103150000D01*
%TO.C,D8*%
X88360000Y-141250000D02*
X89260000Y-141250000D01*
X88360000Y-142250000D02*
X88360000Y-141250000D01*
%TO.C,D13*%
X69310000Y-61287500D02*
X69310000Y-60287500D01*
X69310000Y-60287500D02*
X70210000Y-60287500D01*
%TO.C,D1*%
X107410000Y-142250000D02*
X107410000Y-141250000D01*
X107410000Y-141250000D02*
X108310000Y-141250000D01*
%TO.C,D12*%
X70052198Y-82890785D02*
X70897922Y-83198602D01*
X69710178Y-83830477D02*
X70052198Y-82890785D01*
%TO.C,D9*%
X69310000Y-142250000D02*
X69310000Y-141250000D01*
X69310000Y-141250000D02*
X70210000Y-141250000D01*
%TO.C,D10*%
X69310000Y-122200000D02*
X70210000Y-122200000D01*
X69310000Y-123200000D02*
X69310000Y-122200000D01*
%TO.C,D4*%
X108152198Y-82890785D02*
X108997922Y-83198602D01*
X107810178Y-83830477D02*
X108152198Y-82890785D01*
%TO.C,D5*%
X88760178Y-83830477D02*
X89102198Y-82890785D01*
X89102198Y-82890785D02*
X89947922Y-83198602D01*
%TO.C,JP12*%
X66617000Y-82904000D02*
X64617000Y-82904000D01*
X64617000Y-85704000D02*
X66617000Y-85704000D01*
X64617000Y-82904000D02*
X64617000Y-85704000D01*
X66617000Y-85704000D02*
X66617000Y-82904000D01*
%TO.C,kibuzzard-6227022E*%
G36*
X91149556Y-77639675D02*
G01*
X90949531Y-77639675D01*
X90855869Y-77604750D01*
X90809831Y-77499975D01*
X90855869Y-77394406D01*
X90951119Y-77358687D01*
X91149556Y-77358687D01*
X91149556Y-77639675D01*
G37*
G36*
X92419556Y-77680156D02*
G01*
X92470356Y-77769850D01*
X92270331Y-77769850D01*
X92210006Y-77719050D01*
X92237788Y-77660313D01*
X92317163Y-77638088D01*
X92419556Y-77680156D01*
G37*
G36*
X94967494Y-77958763D02*
G01*
X94707144Y-77958763D01*
X94632134Y-77931775D01*
X94607131Y-77850813D01*
X94615863Y-77790488D01*
X94645231Y-77758738D01*
X94734131Y-77746038D01*
X94819856Y-77723813D01*
X94848431Y-77632531D01*
X94819063Y-77541250D01*
X94721431Y-77519025D01*
X94645231Y-77485687D01*
X94640469Y-77428537D01*
X94666663Y-77372975D01*
X94745244Y-77357100D01*
X94967494Y-77357100D01*
X94967494Y-77958763D01*
G37*
G36*
X95872665Y-76503875D02*
G01*
X95983145Y-76520263D01*
X96091486Y-76547401D01*
X96196645Y-76585028D01*
X96297611Y-76632781D01*
X96393409Y-76690200D01*
X96483118Y-76756733D01*
X96565873Y-76831738D01*
X96640879Y-76914494D01*
X96707411Y-77004203D01*
X96764831Y-77100001D01*
X96812584Y-77200966D01*
X96850210Y-77306125D01*
X96877348Y-77414467D01*
X96893736Y-77524946D01*
X96899217Y-77636500D01*
X96893736Y-77748054D01*
X96877348Y-77858533D01*
X96850210Y-77966875D01*
X96812584Y-78072034D01*
X96764831Y-78172999D01*
X96707411Y-78268797D01*
X96640879Y-78358506D01*
X96565873Y-78441262D01*
X96483118Y-78516267D01*
X96393409Y-78582800D01*
X96297611Y-78640219D01*
X96196645Y-78687972D01*
X96091486Y-78725599D01*
X95983145Y-78752737D01*
X95872665Y-78769125D01*
X95761111Y-78774605D01*
X88558889Y-78774605D01*
X88447335Y-78769125D01*
X88336855Y-78752737D01*
X88228514Y-78725599D01*
X88123355Y-78687972D01*
X88022389Y-78640219D01*
X87926591Y-78582800D01*
X87836882Y-78516267D01*
X87754127Y-78441262D01*
X87679121Y-78358506D01*
X87612589Y-78268797D01*
X87555169Y-78172999D01*
X87522168Y-78103225D01*
X89071519Y-78103225D01*
X89079456Y-78183791D01*
X89103269Y-78225463D01*
X89173119Y-78242131D01*
X89300119Y-78234988D01*
X89400925Y-78206809D01*
X89458869Y-78154025D01*
X89475669Y-78103225D01*
X89590631Y-78103225D01*
X89598569Y-78183791D01*
X89622381Y-78225463D01*
X89692231Y-78242131D01*
X89819231Y-78234988D01*
X89920037Y-78206809D01*
X89977981Y-78154025D01*
X89994781Y-78103225D01*
X90149431Y-78103225D01*
X90151812Y-78157994D01*
X90166894Y-78200063D01*
X90207772Y-78231019D01*
X90289131Y-78241338D01*
X90369697Y-78230622D01*
X90411369Y-78198475D01*
X90424862Y-78157200D01*
X90427244Y-78101638D01*
X90427244Y-77544425D01*
X90425311Y-77499975D01*
X90530431Y-77499975D01*
X90540750Y-77598202D01*
X90571706Y-77686506D01*
X90618934Y-77761317D01*
X90678069Y-77819063D01*
X90766969Y-77875507D01*
X90857985Y-77909374D01*
X90951119Y-77920663D01*
X91149556Y-77920663D01*
X91149556Y-78100050D01*
X91151937Y-78154819D01*
X91167019Y-78196888D01*
X91209087Y-78229034D01*
X91290844Y-78239750D01*
X91378950Y-78225066D01*
X91421019Y-78181013D01*
X91430544Y-78098463D01*
X91430544Y-77723019D01*
X91935369Y-77723019D01*
X91947473Y-77807950D01*
X91983787Y-77867481D01*
X92090944Y-77914313D01*
X92467181Y-77914313D01*
X92414794Y-77988925D01*
X92310019Y-78019088D01*
X92227866Y-78014325D01*
X92165556Y-78000038D01*
X92148094Y-77993688D01*
X92084594Y-77976225D01*
X91997281Y-78047663D01*
X91976644Y-78120688D01*
X91997777Y-78182501D01*
X92061178Y-78226653D01*
X92166846Y-78253145D01*
X92314781Y-78261975D01*
X92425708Y-78251855D01*
X92523538Y-78221494D01*
X92604698Y-78174464D01*
X92665619Y-78114338D01*
X92671560Y-78104813D01*
X92868819Y-78104813D01*
X92871200Y-78157994D01*
X92886281Y-78198475D01*
X92928747Y-78229431D01*
X93008519Y-78239750D01*
X93086703Y-78230225D01*
X93127581Y-78201650D01*
X93143456Y-78136562D01*
X93172031Y-78168313D01*
X93214894Y-78203238D01*
X93332369Y-78238163D01*
X93433175Y-78224669D01*
X93521810Y-78184188D01*
X93598275Y-78116719D01*
X93607385Y-78103225D01*
X93791156Y-78103225D01*
X93799094Y-78183791D01*
X93822906Y-78225463D01*
X93892756Y-78242131D01*
X94019756Y-78234988D01*
X94120563Y-78206809D01*
X94178506Y-78154025D01*
X94211844Y-78053219D01*
X94222956Y-77906375D01*
X94222956Y-77866688D01*
X94326144Y-77866688D01*
X94339638Y-77966788D01*
X94375885Y-78055424D01*
X94434888Y-78132594D01*
X94510294Y-78192125D01*
X94595754Y-78227844D01*
X94691269Y-78239750D01*
X95108781Y-78239750D01*
X95196888Y-78224669D01*
X95238956Y-78179425D01*
X95248481Y-78096875D01*
X95248481Y-77215812D01*
X95246100Y-77160250D01*
X95231019Y-77118975D01*
X95188950Y-77086828D01*
X95107194Y-77076112D01*
X94707144Y-77076112D01*
X94615069Y-77087401D01*
X94533577Y-77121268D01*
X94462669Y-77177712D01*
X94405342Y-77251090D01*
X94370947Y-77333640D01*
X94359481Y-77425362D01*
X94374563Y-77525772D01*
X94419806Y-77617450D01*
X94367772Y-77694532D01*
X94336551Y-77777611D01*
X94326144Y-77866688D01*
X94222956Y-77866688D01*
X94222956Y-77150725D01*
X94220575Y-77095956D01*
X94207081Y-77053887D01*
X94165012Y-77021741D01*
X94083256Y-77011025D01*
X94004675Y-77021741D01*
X93962606Y-77053887D01*
X93947525Y-77096750D01*
X93945144Y-77152312D01*
X93945144Y-77887325D01*
X93935619Y-77959556D01*
X93893550Y-77974638D01*
X93849894Y-77977019D01*
X93822906Y-77990513D01*
X93791156Y-78103225D01*
X93607385Y-78103225D01*
X93656924Y-78029847D01*
X93692114Y-77931158D01*
X93703844Y-77820650D01*
X93703844Y-77542837D01*
X93701463Y-77487275D01*
X93687969Y-77446000D01*
X93645900Y-77413853D01*
X93564144Y-77403137D01*
X93476038Y-77418219D01*
X93433969Y-77463462D01*
X93424444Y-77544425D01*
X93424444Y-77822238D01*
X93387138Y-77923838D01*
X93287125Y-77960350D01*
X93185525Y-77922250D01*
X93146631Y-77822238D01*
X93146631Y-77541250D01*
X93144250Y-77486481D01*
X93129169Y-77444412D01*
X93088291Y-77413456D01*
X93006931Y-77403137D01*
X92926366Y-77413853D01*
X92884694Y-77446000D01*
X92871200Y-77488069D01*
X92868819Y-77542837D01*
X92868819Y-78104813D01*
X92671560Y-78104813D01*
X92721181Y-78025261D01*
X92754519Y-77929482D01*
X92765631Y-77827000D01*
X92751256Y-77702558D01*
X92708128Y-77595931D01*
X92636250Y-77507119D01*
X92542852Y-77440532D01*
X92435167Y-77400580D01*
X92313194Y-77387262D01*
X92210205Y-77396986D01*
X92121900Y-77426156D01*
X92048280Y-77474773D01*
X91989344Y-77542837D01*
X91948862Y-77629158D01*
X91935369Y-77723019D01*
X91430544Y-77723019D01*
X91430544Y-77217400D01*
X91428162Y-77162631D01*
X91413081Y-77120562D01*
X91371012Y-77088416D01*
X91289256Y-77077700D01*
X90949531Y-77077700D01*
X90857280Y-77088989D01*
X90766792Y-77122856D01*
X90678069Y-77179300D01*
X90618934Y-77237244D01*
X90571706Y-77312650D01*
X90540750Y-77401550D01*
X90530431Y-77499975D01*
X90425311Y-77499975D01*
X90424862Y-77489656D01*
X90411369Y-77447587D01*
X90369300Y-77416631D01*
X90287544Y-77406312D01*
X90179594Y-77433300D01*
X90151019Y-77501562D01*
X90149431Y-77547600D01*
X90149431Y-78103225D01*
X89994781Y-78103225D01*
X90011319Y-78053219D01*
X90022431Y-77906375D01*
X90022431Y-77153900D01*
X90149431Y-77153900D01*
X90151812Y-77208669D01*
X90166100Y-77249944D01*
X90208169Y-77282487D01*
X90288337Y-77292012D01*
X90368506Y-77282487D01*
X90410575Y-77249150D01*
X90424862Y-77207081D01*
X90427244Y-77152312D01*
X90424862Y-77097544D01*
X90411369Y-77057062D01*
X90369300Y-77024916D01*
X90287544Y-77014200D01*
X90207375Y-77024916D01*
X90166894Y-77057062D01*
X90151812Y-77099131D01*
X90149431Y-77153900D01*
X90022431Y-77153900D01*
X90022431Y-77150725D01*
X90020050Y-77095956D01*
X90006556Y-77053887D01*
X89964487Y-77021741D01*
X89882731Y-77011025D01*
X89804150Y-77021741D01*
X89762081Y-77053887D01*
X89747000Y-77096750D01*
X89744619Y-77152312D01*
X89744619Y-77887325D01*
X89735094Y-77959556D01*
X89693025Y-77974638D01*
X89649369Y-77977019D01*
X89622381Y-77990513D01*
X89590631Y-78103225D01*
X89475669Y-78103225D01*
X89492206Y-78053219D01*
X89503319Y-77906375D01*
X89503319Y-77150725D01*
X89500937Y-77095956D01*
X89487444Y-77053887D01*
X89445375Y-77021741D01*
X89363619Y-77011025D01*
X89285037Y-77021741D01*
X89242969Y-77053887D01*
X89227887Y-77096750D01*
X89225506Y-77152312D01*
X89225506Y-77887325D01*
X89215981Y-77959556D01*
X89173912Y-77974638D01*
X89130256Y-77977019D01*
X89103269Y-77990513D01*
X89071519Y-78103225D01*
X87522168Y-78103225D01*
X87507416Y-78072034D01*
X87469790Y-77966875D01*
X87442652Y-77858533D01*
X87426264Y-77748054D01*
X87420783Y-77636500D01*
X87426264Y-77524946D01*
X87442652Y-77414467D01*
X87469790Y-77306125D01*
X87507416Y-77200966D01*
X87555169Y-77100001D01*
X87612589Y-77004203D01*
X87679121Y-76914494D01*
X87754127Y-76831738D01*
X87836882Y-76756733D01*
X87926591Y-76690200D01*
X88022389Y-76632781D01*
X88123355Y-76585028D01*
X88228514Y-76547401D01*
X88336855Y-76520263D01*
X88447335Y-76503875D01*
X88558889Y-76498395D01*
X95761111Y-76498395D01*
X95872665Y-76503875D01*
G37*
%TO.C,JP4*%
X119195000Y-82903999D02*
X117195000Y-82903999D01*
X117195000Y-82903999D02*
X117195000Y-85703999D01*
X117195000Y-85703999D02*
X119195000Y-85703999D01*
X119195000Y-85703999D02*
X119195000Y-82903999D01*
%TO.C,U1*%
X80785000Y-57792500D02*
X80785000Y-62182500D01*
X101110000Y-109827500D02*
X101110000Y-61507500D01*
X98450000Y-109827500D02*
X101110000Y-109827500D01*
X83270000Y-58967500D02*
X83270000Y-109767500D01*
X85810000Y-58967500D02*
X83270000Y-58967500D01*
X103535000Y-57792500D02*
X99145000Y-57792500D01*
X103535000Y-57792500D02*
X103535000Y-62182500D01*
X80785000Y-110942500D02*
X80785000Y-106552500D01*
X101110000Y-60237500D02*
X101110000Y-58907500D01*
X101110000Y-61507500D02*
X98450000Y-61507500D01*
X103535000Y-110942500D02*
X103535000Y-106552500D01*
X101110000Y-58907500D02*
X99780000Y-58907500D01*
X80785000Y-110942500D02*
X103535000Y-110942500D01*
X98450000Y-61507500D02*
X98450000Y-109827500D01*
X85810000Y-109767500D02*
X85810000Y-58967500D01*
X83270000Y-109767500D02*
X85810000Y-109767500D01*
X85175000Y-57792500D02*
X80785000Y-57792500D01*
%TO.C,JPF3*%
X74510000Y-119975000D02*
X74510000Y-117975000D01*
X71710000Y-119975000D02*
X74510000Y-119975000D01*
X74510000Y-117975000D02*
X71710000Y-117975000D01*
X71710000Y-117975000D02*
X71710000Y-119975000D01*
%TO.C,JP1*%
X119195000Y-142854000D02*
X119195000Y-140054000D01*
X117195000Y-142854000D02*
X119195000Y-142854000D01*
X117195000Y-140054000D02*
X117195000Y-142854000D01*
X119195000Y-140054000D02*
X117195000Y-140054000D01*
%TO.C,JP2*%
X117195000Y-123804000D02*
X119195000Y-123804000D01*
X119195000Y-121004000D02*
X117195000Y-121004000D01*
X119195000Y-123804000D02*
X119195000Y-121004000D01*
X117195000Y-121004000D02*
X117195000Y-123804000D01*
%TO.C,JP10*%
X66617000Y-121004000D02*
X64617000Y-121004000D01*
X66617000Y-123804000D02*
X66617000Y-121004000D01*
X64617000Y-121004000D02*
X64617000Y-123804000D01*
X64617000Y-123804000D02*
X66617000Y-123804000D01*
%TO.C,JP13*%
X66617000Y-59536000D02*
X64617000Y-59536000D01*
X64617000Y-59536000D02*
X64617000Y-62336000D01*
X66617000Y-62336000D02*
X66617000Y-59536000D01*
X64617000Y-62336000D02*
X66617000Y-62336000D01*
%TO.C,kibuzzard-6226FF10*%
G36*
X110628975Y-136694344D02*
G01*
X110667869Y-136791182D01*
X110626594Y-136885638D01*
X110526581Y-136927707D01*
X110428950Y-136884844D01*
X110390056Y-136790388D01*
X110427363Y-136694344D01*
X110527375Y-136649894D01*
X110628975Y-136694344D01*
G37*
G36*
X108717780Y-137908186D02*
G01*
X108599101Y-137890582D01*
X108482719Y-137861430D01*
X108369755Y-137821011D01*
X108261296Y-137769714D01*
X108158388Y-137708033D01*
X108062021Y-137636562D01*
X107973124Y-137555990D01*
X107892552Y-137467092D01*
X107821081Y-137370725D01*
X107759400Y-137267817D01*
X107708103Y-137159359D01*
X107667684Y-137046394D01*
X107638532Y-136930012D01*
X107620927Y-136811333D01*
X107615040Y-136691500D01*
X107620927Y-136571667D01*
X107629339Y-136514957D01*
X109350244Y-136514957D01*
X109360959Y-136595522D01*
X109393106Y-136637194D01*
X109435175Y-136650688D01*
X109489944Y-136653069D01*
X109593131Y-136646719D01*
X109593131Y-136865794D01*
X109579638Y-136927707D01*
X109528838Y-136946757D01*
X109471688Y-136949138D01*
X109429619Y-136964219D01*
X109393106Y-137070582D01*
X109404219Y-137151147D01*
X109437556Y-137192819D01*
X109479625Y-137206313D01*
X109532806Y-137208694D01*
X109634053Y-137200404D01*
X109717662Y-137175533D01*
X109783631Y-137134082D01*
X109831256Y-137072875D01*
X109833113Y-137067407D01*
X110102719Y-137067407D01*
X110105100Y-137122176D01*
X110118594Y-137164244D01*
X110156892Y-137195201D01*
X110227338Y-137205519D01*
X110343225Y-137184088D01*
X110377356Y-137121382D01*
X110455739Y-137184485D01*
X110573413Y-137205519D01*
X110662753Y-137191585D01*
X110747685Y-137149780D01*
X110828206Y-137080107D01*
X110893470Y-136992001D01*
X110932628Y-136894898D01*
X110945681Y-136788801D01*
X110932540Y-136682791D01*
X110893117Y-136585953D01*
X110827413Y-136498288D01*
X110746009Y-136429055D01*
X110659490Y-136387516D01*
X110567856Y-136373669D01*
X110469431Y-136392719D01*
X110407519Y-136428438D01*
X110378944Y-136460982D01*
X110342828Y-136394307D01*
X110253531Y-136372082D01*
X110161456Y-136381607D01*
X110119388Y-136414944D01*
X110105100Y-136457013D01*
X110102719Y-136511782D01*
X110102719Y-137067407D01*
X109833113Y-137067407D01*
X109859831Y-136988737D01*
X109869356Y-136881669D01*
X109869356Y-136646719D01*
X109934444Y-136651482D01*
X109992388Y-136624494D01*
X110015406Y-136532419D01*
X110007469Y-136437963D01*
X109985244Y-136395894D01*
X109921744Y-136375257D01*
X109869356Y-136381607D01*
X109869356Y-136230001D01*
X111025056Y-136230001D01*
X111058394Y-136318107D01*
X111117131Y-136382401D01*
X111169519Y-136403832D01*
X111250481Y-136368907D01*
X111328269Y-136328426D01*
X111428281Y-136314932D01*
X111530675Y-136332791D01*
X111631481Y-136386369D01*
X111710856Y-136484794D01*
X111734669Y-136552461D01*
X111742606Y-136628463D01*
X111734669Y-136704465D01*
X111710856Y-136772132D01*
X111629894Y-136872144D01*
X111531072Y-136924532D01*
X111428281Y-136941994D01*
X111335413Y-136929294D01*
X111272706Y-136903894D01*
X111244131Y-136883257D01*
X111167931Y-136851507D01*
X111116734Y-136873732D01*
X111061569Y-136940407D01*
X111026644Y-137029307D01*
X111048075Y-137084869D01*
X111098081Y-137124557D01*
X111152850Y-137157894D01*
X111260006Y-137199169D01*
X111339580Y-137218219D01*
X111416375Y-137224569D01*
X111492178Y-137219608D01*
X111568775Y-137204726D01*
X111646959Y-137178135D01*
X111727525Y-137138051D01*
X111805114Y-137086060D01*
X111874369Y-137023751D01*
X111933702Y-136946757D01*
X111981525Y-136850713D01*
X112013077Y-136740580D01*
X112023594Y-136621319D01*
X112013275Y-136503249D01*
X112006991Y-136481619D01*
X112488731Y-136481619D01*
X112501431Y-136535594D01*
X112514131Y-136562582D01*
X112930056Y-137492857D01*
X112951488Y-137538894D01*
X112979269Y-137569057D01*
X113026894Y-137583344D01*
X113111031Y-137559532D01*
X113181278Y-137514288D01*
X113204694Y-137461107D01*
X113195169Y-137424098D01*
X113166594Y-137351172D01*
X113118969Y-137242329D01*
X113052294Y-137097569D01*
X113234769Y-136790388D01*
X113463456Y-136790388D01*
X113476509Y-136896398D01*
X113515667Y-136993235D01*
X113580931Y-137080901D01*
X113661188Y-137150133D01*
X113745326Y-137191673D01*
X113833344Y-137205519D01*
X113948834Y-137186469D01*
X114025431Y-137129319D01*
X114065913Y-137187660D01*
X114161956Y-137207107D01*
X114242522Y-137196391D01*
X114284194Y-137164244D01*
X114297688Y-137122176D01*
X114300069Y-137067407D01*
X114300069Y-136690376D01*
X114403256Y-136690376D01*
X114415361Y-136775307D01*
X114451675Y-136834838D01*
X114558831Y-136881669D01*
X114935069Y-136881669D01*
X114882681Y-136956282D01*
X114777906Y-136986444D01*
X114695753Y-136981682D01*
X114633444Y-136967394D01*
X114615981Y-136961044D01*
X114552481Y-136943582D01*
X114465169Y-137015019D01*
X114444531Y-137088044D01*
X114465665Y-137149858D01*
X114529066Y-137194010D01*
X114634734Y-137220501D01*
X114782669Y-137229332D01*
X114893595Y-137219211D01*
X114991425Y-137188851D01*
X115072586Y-137141821D01*
X115133506Y-137081694D01*
X115189069Y-136992618D01*
X115222406Y-136896839D01*
X115233519Y-136794357D01*
X115221507Y-136690376D01*
X115312894Y-136690376D01*
X115324998Y-136775307D01*
X115361313Y-136834838D01*
X115468469Y-136881669D01*
X115844706Y-136881669D01*
X115792319Y-136956282D01*
X115687544Y-136986444D01*
X115605391Y-136981682D01*
X115543081Y-136967394D01*
X115525619Y-136961044D01*
X115462119Y-136943582D01*
X115374806Y-137015019D01*
X115354169Y-137088044D01*
X115375302Y-137149858D01*
X115438703Y-137194010D01*
X115544371Y-137220501D01*
X115692306Y-137229332D01*
X115803233Y-137219211D01*
X115901063Y-137188851D01*
X115982223Y-137141821D01*
X116043144Y-137081694D01*
X116047600Y-137074551D01*
X116238406Y-137074551D01*
X116301906Y-137169801D01*
X116405888Y-137224569D01*
X116503519Y-137157894D01*
X116852769Y-136759432D01*
X116852769Y-137068994D01*
X116855150Y-137124557D01*
X116870231Y-137165832D01*
X116912300Y-137197979D01*
X116994056Y-137208694D01*
X117082163Y-137193613D01*
X117124231Y-137148369D01*
X117133756Y-137067407D01*
X117133756Y-136184757D01*
X117131375Y-136129988D01*
X117116294Y-136087919D01*
X117074225Y-136055772D01*
X116992469Y-136045057D01*
X116903966Y-136059741D01*
X116860706Y-136103794D01*
X116852769Y-136186344D01*
X116852769Y-136489557D01*
X116769711Y-136395894D01*
X116693257Y-136309217D01*
X116623407Y-136229524D01*
X116560161Y-136156817D01*
X116503519Y-136091094D01*
X116406681Y-136026007D01*
X116301906Y-136080776D01*
X116238406Y-136176026D01*
X116286031Y-136272069D01*
X116338419Y-136330211D01*
X116403506Y-136398276D01*
X116481294Y-136476261D01*
X116571781Y-136564169D01*
X116635281Y-136624494D01*
X116522668Y-136733933D01*
X116427716Y-136828885D01*
X116350424Y-136909351D01*
X116290794Y-136975332D01*
X116238406Y-137074551D01*
X116047600Y-137074551D01*
X116098706Y-136992618D01*
X116132044Y-136896839D01*
X116143156Y-136794357D01*
X116128781Y-136669914D01*
X116085653Y-136563287D01*
X116013775Y-136474476D01*
X115920377Y-136407889D01*
X115812692Y-136367937D01*
X115690719Y-136354619D01*
X115587730Y-136364343D01*
X115499425Y-136393513D01*
X115425805Y-136442130D01*
X115366869Y-136510194D01*
X115326388Y-136596515D01*
X115312894Y-136690376D01*
X115221507Y-136690376D01*
X115219143Y-136669914D01*
X115176016Y-136563287D01*
X115104138Y-136474476D01*
X115010740Y-136407889D01*
X114903054Y-136367937D01*
X114781081Y-136354619D01*
X114678092Y-136364343D01*
X114589788Y-136393513D01*
X114516167Y-136442130D01*
X114457231Y-136510194D01*
X114416750Y-136596515D01*
X114403256Y-136690376D01*
X114300069Y-136690376D01*
X114300069Y-136119669D01*
X114297688Y-136064901D01*
X114284194Y-136024419D01*
X114242125Y-135992272D01*
X114160369Y-135981557D01*
X114080200Y-135992272D01*
X114039719Y-136024419D01*
X114024638Y-136066488D01*
X114022256Y-136121257D01*
X114022256Y-136451457D01*
X113945263Y-136393116D01*
X113841281Y-136373669D01*
X113749647Y-136387604D01*
X113663128Y-136429408D01*
X113581725Y-136499082D01*
X113516020Y-136587188D01*
X113476597Y-136684290D01*
X113463456Y-136790388D01*
X113234769Y-136790388D01*
X113368206Y-136565757D01*
X113399956Y-136487969D01*
X113378525Y-136437169D01*
X113314231Y-136386369D01*
X113230094Y-136354619D01*
X113180881Y-136367319D01*
X113153100Y-136393513D01*
X113126906Y-136437169D01*
X113065788Y-136541151D01*
X113014194Y-136628551D01*
X112964188Y-136711895D01*
X112915769Y-136791182D01*
X112890369Y-136729468D01*
X112830044Y-136595126D01*
X112770314Y-136464355D01*
X112746700Y-136413357D01*
X112728444Y-136386369D01*
X112670500Y-136359382D01*
X112582394Y-136381607D01*
X112512147Y-136427247D01*
X112488731Y-136481619D01*
X112006991Y-136481619D01*
X111982319Y-136396688D01*
X111935289Y-136304613D01*
X111876750Y-136230001D01*
X111807892Y-136169477D01*
X111729906Y-136119669D01*
X111626013Y-136072044D01*
X111521767Y-136043469D01*
X111417169Y-136033944D01*
X111341961Y-136039699D01*
X111265563Y-136056963D01*
X111148881Y-136103794D01*
X111110781Y-136126019D01*
X111066331Y-136154594D01*
X111025056Y-136230001D01*
X109869356Y-136230001D01*
X109869356Y-136218094D01*
X109866975Y-136164119D01*
X109851894Y-136126019D01*
X109811016Y-136096254D01*
X109729656Y-136086332D01*
X109643534Y-136101016D01*
X109601069Y-136145069D01*
X109593131Y-136226032D01*
X109593131Y-136381607D01*
X109487563Y-136375257D01*
X109433588Y-136377638D01*
X109391519Y-136392719D01*
X109360563Y-136433597D01*
X109350244Y-136514957D01*
X107629339Y-136514957D01*
X107638532Y-136452988D01*
X107667684Y-136336606D01*
X107708103Y-136223641D01*
X107759400Y-136115183D01*
X107821081Y-136012275D01*
X107892552Y-135915908D01*
X107973124Y-135827010D01*
X108062021Y-135746438D01*
X108158388Y-135674967D01*
X108261296Y-135613286D01*
X108369755Y-135561989D01*
X108482719Y-135521570D01*
X108599101Y-135492418D01*
X108717780Y-135474814D01*
X108837614Y-135468927D01*
X117646386Y-135468927D01*
X117766220Y-135474814D01*
X117884899Y-135492418D01*
X118001281Y-135521570D01*
X118114245Y-135561989D01*
X118222704Y-135613286D01*
X118325612Y-135674967D01*
X118421979Y-135746438D01*
X118510876Y-135827010D01*
X118591449Y-135915908D01*
X118662919Y-136012275D01*
X118724600Y-136115183D01*
X118775897Y-136223641D01*
X118816316Y-136336606D01*
X118845468Y-136452988D01*
X118863073Y-136571667D01*
X118868960Y-136691500D01*
X118863073Y-136811333D01*
X118845468Y-136930012D01*
X118816316Y-137046394D01*
X118775897Y-137159359D01*
X118724600Y-137267817D01*
X118662919Y-137370725D01*
X118591449Y-137467092D01*
X118510876Y-137555990D01*
X118421979Y-137636562D01*
X118325612Y-137708033D01*
X118222704Y-137769714D01*
X118114245Y-137821011D01*
X118001281Y-137861430D01*
X117884899Y-137890582D01*
X117766220Y-137908186D01*
X117646386Y-137914073D01*
X108837614Y-137914073D01*
X108717780Y-137908186D01*
G37*
G36*
X115797081Y-136647513D02*
G01*
X115847881Y-136737207D01*
X115647856Y-136737207D01*
X115587531Y-136686407D01*
X115615313Y-136627669D01*
X115694688Y-136605444D01*
X115797081Y-136647513D01*
G37*
G36*
X114887444Y-136647513D02*
G01*
X114938244Y-136737207D01*
X114738219Y-136737207D01*
X114677894Y-136686407D01*
X114705675Y-136627669D01*
X114785050Y-136605444D01*
X114887444Y-136647513D01*
G37*
G36*
X113981775Y-136695932D02*
G01*
X114019081Y-136791976D01*
X113980188Y-136886432D01*
X113882556Y-136929294D01*
X113782544Y-136886432D01*
X113741269Y-136791182D01*
X113779369Y-136695138D01*
X113880969Y-136651482D01*
X113981775Y-136695932D01*
G37*
%TO.C,JPF1*%
X109810000Y-119975000D02*
X112610000Y-119975000D01*
X112610000Y-119975000D02*
X112610000Y-117975000D01*
X112610000Y-117975000D02*
X109810000Y-117975000D01*
X109810000Y-117975000D02*
X109810000Y-119975000D01*
%TO.C,JP11*%
X64617000Y-101954000D02*
X64617000Y-104754000D01*
X64617000Y-104754000D02*
X66617000Y-104754000D01*
X66617000Y-101954000D02*
X64617000Y-101954000D01*
X66617000Y-104754000D02*
X66617000Y-101954000D01*
%TO.C,JP3*%
X117195000Y-101954000D02*
X117195000Y-104754000D01*
X119195000Y-101954000D02*
X117195000Y-101954000D01*
X119195000Y-104754000D02*
X119195000Y-101954000D01*
X117195000Y-104754000D02*
X119195000Y-104754000D01*
%TO.C,JPF2*%
X90760000Y-117975000D02*
X90760000Y-119975000D01*
X90760000Y-119975000D02*
X93560000Y-119975000D01*
X93560000Y-119975000D02*
X93560000Y-117975000D01*
X93560000Y-117975000D02*
X90760000Y-117975000D01*
%TO.C,JP9*%
X64617000Y-142854000D02*
X66617000Y-142854000D01*
X66617000Y-140054000D02*
X64617000Y-140054000D01*
X66617000Y-142854000D02*
X66617000Y-140054000D01*
X64617000Y-140054000D02*
X64617000Y-142854000D01*
%TD*%
%LPC*%
D14*
%TO.C,EN4*%
X65610000Y-106950000D03*
D15*
X65610000Y-111950000D03*
X65610000Y-109450000D03*
X80110000Y-111950000D03*
X80110000Y-106950000D03*
%TD*%
D16*
%TO.C,D11*%
X75835000Y-105400000D03*
X75835000Y-103900000D03*
D17*
X70385000Y-103900000D03*
D16*
X70385000Y-105400000D03*
%TD*%
D14*
%TO.C,EN3*%
X103710000Y-87900000D03*
D15*
X103710000Y-92900000D03*
X103710000Y-90400000D03*
X118210000Y-92900000D03*
X118210000Y-87900000D03*
%TD*%
D18*
%TO.C,SW4*%
X106130000Y-90400000D03*
D19*
X111210000Y-90400000D03*
D18*
X116290000Y-90400000D03*
D20*
X115020000Y-92940000D03*
X108670000Y-95480000D03*
%TD*%
D16*
%TO.C,D15*%
X113935000Y-62537500D03*
X113935000Y-61037500D03*
D17*
X108485000Y-61037500D03*
D16*
X108485000Y-62537500D03*
%TD*%
D19*
%TO.C,SW13*%
X111210000Y-147550000D03*
D18*
X116290000Y-147550000D03*
X106130000Y-147550000D03*
D20*
X115020000Y-150090000D03*
D21*
X108670000Y-153188800D03*
D22*
X108670000Y-153975000D03*
%TD*%
D23*
%TO.C,H5*%
X101685000Y-138025000D03*
%TD*%
D14*
%TO.C,EN7*%
X103710000Y-126000000D03*
D15*
X103710000Y-131000000D03*
X103710000Y-128500000D03*
X118210000Y-131000000D03*
X118210000Y-126000000D03*
%TD*%
D16*
%TO.C,D3*%
X113935000Y-105400000D03*
X113935000Y-103900000D03*
D17*
X108485000Y-103900000D03*
D16*
X108485000Y-105400000D03*
%TD*%
D14*
%TO.C,EN6*%
X65610000Y-126000000D03*
D15*
X65610000Y-131000000D03*
X65610000Y-128500000D03*
X80110000Y-131000000D03*
X80110000Y-126000000D03*
%TD*%
D16*
%TO.C,D7*%
X94885000Y-124450000D03*
X94885000Y-122950000D03*
D17*
X89435000Y-122950000D03*
D16*
X89435000Y-124450000D03*
%TD*%
D14*
%TO.C,EN8*%
X65610000Y-145050000D03*
D15*
X65610000Y-150050000D03*
X65610000Y-147550000D03*
X80110000Y-150050000D03*
X80110000Y-145050000D03*
%TD*%
D19*
%TO.C,SW3*%
X92160000Y-90400000D03*
D18*
X87080000Y-90400000D03*
X97240000Y-90400000D03*
D20*
X95970000Y-92940000D03*
X89620000Y-95480000D03*
%TD*%
D16*
%TO.C,D14*%
X94885000Y-62537500D03*
X94885000Y-61037500D03*
D17*
X89435000Y-61037500D03*
D16*
X89435000Y-62537500D03*
%TD*%
D14*
%TO.C,EN9*%
X103710000Y-145050000D03*
D15*
X103710000Y-150050000D03*
X103710000Y-147550000D03*
X118210000Y-150050000D03*
X118210000Y-145050000D03*
%TD*%
D19*
%TO.C,SW14*%
X92160000Y-66587500D03*
D18*
X97240000Y-66587500D03*
X87080000Y-66587500D03*
D20*
X95970000Y-69127500D03*
X89620000Y-71667500D03*
%TD*%
D15*
%TO.C,OL1*%
X119465000Y-70397500D03*
X119465000Y-67857500D03*
X119465000Y-65317500D03*
X119465000Y-62777500D03*
%TD*%
D16*
%TO.C,D2*%
X113935000Y-124450000D03*
X113935000Y-122950000D03*
D17*
X108485000Y-122950000D03*
D16*
X108485000Y-124450000D03*
%TD*%
%TO.C,D6*%
X94885000Y-105400000D03*
X94885000Y-103900000D03*
D17*
X89435000Y-103900000D03*
D16*
X89435000Y-105400000D03*
%TD*%
%TO.C,D8*%
X94885000Y-143500000D03*
X94885000Y-142000000D03*
D17*
X89435000Y-142000000D03*
D16*
X89435000Y-143500000D03*
%TD*%
%TO.C,D13*%
X75835000Y-62537500D03*
X75835000Y-61037500D03*
D17*
X70385000Y-61037500D03*
D16*
X70385000Y-62537500D03*
%TD*%
D19*
%TO.C,SW9*%
X92160000Y-128500000D03*
D18*
X97240000Y-128500000D03*
X87080000Y-128500000D03*
D20*
X95970000Y-131040000D03*
X89620000Y-133580000D03*
%TD*%
D14*
%TO.C,EN1*%
X65610000Y-64087500D03*
D15*
X65610000Y-69087500D03*
X65610000Y-66587500D03*
X80110000Y-69087500D03*
X80110000Y-64087500D03*
%TD*%
D16*
%TO.C,D1*%
X113935000Y-143500000D03*
X113935000Y-142000000D03*
D17*
X108485000Y-142000000D03*
D16*
X108485000Y-143500000D03*
%TD*%
D23*
%TO.C,H4*%
X101685000Y-118975000D03*
%TD*%
D18*
%TO.C,SW11*%
X68030000Y-147550000D03*
D19*
X73110000Y-147550000D03*
D18*
X78190000Y-147550000D03*
D20*
X76920000Y-150090000D03*
D21*
X70570000Y-153188800D03*
D22*
X70570000Y-153975000D03*
%TD*%
D19*
%TO.C,SW15*%
X111210000Y-66587500D03*
D18*
X106130000Y-66587500D03*
X116290000Y-66587500D03*
D20*
X115020000Y-69127500D03*
X108670000Y-71667500D03*
%TD*%
D15*
%TO.C,VR3*%
X114960000Y-153975000D03*
X112460000Y-153975000D03*
D24*
X110260000Y-81475000D03*
D15*
X114960000Y-83975000D03*
%TD*%
D25*
%TO.C,D12*%
X75414146Y-87236774D03*
X75927177Y-85827235D03*
D26*
X70805854Y-83963226D03*
D25*
X70292823Y-85372765D03*
%TD*%
D16*
%TO.C,D9*%
X75835000Y-143500000D03*
X75835000Y-142000000D03*
D17*
X70385000Y-142000000D03*
D16*
X70385000Y-143500000D03*
%TD*%
D18*
%TO.C,SW8*%
X68030000Y-128500000D03*
D19*
X73110000Y-128500000D03*
D18*
X78190000Y-128500000D03*
D20*
X76920000Y-131040000D03*
X70570000Y-133580000D03*
%TD*%
D14*
%TO.C,EN5*%
X103710000Y-106950000D03*
D15*
X103710000Y-111950000D03*
X103710000Y-109450000D03*
X118210000Y-111950000D03*
X118210000Y-106950000D03*
%TD*%
D18*
%TO.C,SW12*%
X87080000Y-147550000D03*
D19*
X92160000Y-147550000D03*
D18*
X97240000Y-147550000D03*
D20*
X95970000Y-150090000D03*
D22*
X89620000Y-153975000D03*
D21*
X89620000Y-153188800D03*
%TD*%
D15*
%TO.C,VR1*%
X76860000Y-153975000D03*
X74360000Y-153975000D03*
D24*
X72160000Y-81475000D03*
D15*
X76860000Y-83975000D03*
%TD*%
D16*
%TO.C,D10*%
X75835000Y-124450000D03*
X75835000Y-122950000D03*
D17*
X70385000Y-122950000D03*
D16*
X70385000Y-124450000D03*
%TD*%
D19*
%TO.C,SW7*%
X111210000Y-109450000D03*
D18*
X116290000Y-109450000D03*
X106130000Y-109450000D03*
D20*
X115020000Y-111990000D03*
X108670000Y-114530000D03*
%TD*%
D18*
%TO.C,SW6*%
X97240000Y-109450000D03*
D19*
X92160000Y-109450000D03*
D18*
X87080000Y-109450000D03*
D20*
X95970000Y-111990000D03*
X89620000Y-114530000D03*
%TD*%
D19*
%TO.C,SW10*%
X111210000Y-128500000D03*
D18*
X116290000Y-128500000D03*
X106130000Y-128500000D03*
D20*
X115020000Y-131040000D03*
X108670000Y-133580000D03*
%TD*%
D14*
%TO.C,EN2*%
X65610000Y-87900000D03*
D15*
X65610000Y-92900000D03*
X65610000Y-90400000D03*
X80110000Y-92900000D03*
X80110000Y-87900000D03*
%TD*%
D25*
%TO.C,D4*%
X113514146Y-87236774D03*
X114027177Y-85827235D03*
D26*
X108905854Y-83963226D03*
D25*
X108392823Y-85372765D03*
%TD*%
%TO.C,D5*%
X94464146Y-87236774D03*
X94977177Y-85827235D03*
D26*
X89855854Y-83963226D03*
D25*
X89342823Y-85372765D03*
%TD*%
D23*
%TO.C,H1*%
X73110000Y-78493750D03*
%TD*%
%TO.C,H2*%
X111210000Y-78493750D03*
%TD*%
D15*
%TO.C,VR2*%
X95910000Y-153975000D03*
X93410000Y-153975000D03*
D24*
X91210000Y-81475000D03*
D15*
X95910000Y-83975000D03*
%TD*%
D18*
%TO.C,SW5*%
X68030000Y-109450000D03*
X78190000Y-109450000D03*
D19*
X73110000Y-109450000D03*
D20*
X76920000Y-111990000D03*
X70570000Y-114530000D03*
%TD*%
D18*
%TO.C,SW2*%
X78190000Y-90400000D03*
X68030000Y-90400000D03*
D19*
X73110000Y-90400000D03*
D20*
X76920000Y-92940000D03*
X70570000Y-95480000D03*
%TD*%
D23*
%TO.C,H3*%
X82635000Y-118975000D03*
%TD*%
D18*
%TO.C,SW1*%
X68030000Y-66587500D03*
X78190000Y-66587500D03*
D19*
X73110000Y-66587500D03*
D20*
X76920000Y-69127500D03*
X70570000Y-71667500D03*
%TD*%
D27*
%TO.C,JP12*%
X65617000Y-85029000D03*
D28*
X65617000Y-83579000D03*
%TD*%
D29*
%TO.C,JP4*%
X118195000Y-83578999D03*
D30*
X118195000Y-85028999D03*
%TD*%
D31*
%TO.C,U1*%
X99780000Y-60237500D03*
D32*
X99780000Y-62777500D03*
X99780000Y-65317500D03*
X99780000Y-67857500D03*
X99780000Y-70397500D03*
X99780000Y-72937500D03*
X99780000Y-75477500D03*
X99780000Y-78017500D03*
X99780000Y-80557500D03*
X99780000Y-83097500D03*
X99780000Y-85637500D03*
X99780000Y-88177500D03*
X99780000Y-90717500D03*
X99780000Y-93257500D03*
X99780000Y-95797500D03*
X99780000Y-98337500D03*
X99780000Y-100877500D03*
X99780000Y-103417500D03*
X99780000Y-105957500D03*
X99780000Y-108497500D03*
X84540000Y-108497500D03*
X84540000Y-105957500D03*
X84540000Y-103417500D03*
X84540000Y-100877500D03*
X84540000Y-98337500D03*
X84540000Y-95797500D03*
X84540000Y-93257500D03*
X84540000Y-90717500D03*
X84540000Y-88177500D03*
X84540000Y-85637500D03*
X84540000Y-83097500D03*
X84540000Y-80557500D03*
X84540000Y-78017500D03*
X84540000Y-75477500D03*
X84540000Y-72937500D03*
X84540000Y-70397500D03*
X84540000Y-67857500D03*
X84540000Y-65317500D03*
X84540000Y-62777500D03*
X84540000Y-60237500D03*
%TD*%
D33*
%TO.C,JPF3*%
X73835000Y-118975000D03*
D34*
X72385000Y-118975000D03*
%TD*%
D29*
%TO.C,JP1*%
X118195000Y-140729000D03*
D30*
X118195000Y-142179000D03*
%TD*%
D29*
%TO.C,JP2*%
X118195000Y-121679000D03*
D30*
X118195000Y-123129000D03*
%TD*%
D27*
%TO.C,JP10*%
X65617000Y-123129000D03*
D28*
X65617000Y-121679000D03*
%TD*%
D27*
%TO.C,JP13*%
X65617000Y-61661000D03*
D28*
X65617000Y-60211000D03*
%TD*%
D33*
%TO.C,JPF1*%
X111935000Y-118975000D03*
D34*
X110485000Y-118975000D03*
%TD*%
D27*
%TO.C,JP11*%
X65617000Y-104079000D03*
D28*
X65617000Y-102629000D03*
%TD*%
D29*
%TO.C,JP3*%
X118195000Y-102629000D03*
D30*
X118195000Y-104079000D03*
%TD*%
D33*
%TO.C,JPF2*%
X92885000Y-118975000D03*
D34*
X91435000Y-118975000D03*
%TD*%
D27*
%TO.C,JP9*%
X65617000Y-142179000D03*
D28*
X65617000Y-140729000D03*
%TD*%
M02*
