%TF.GenerationSoftware,KiCad,Pcbnew,(6.0.2)*%
%TF.CreationDate,2022-02-17T20:40:29-08:00*%
%TF.ProjectId,keeb test board,6b656562-2074-4657-9374-20626f617264,rev?*%
%TF.SameCoordinates,Original*%
%TF.FileFunction,Soldermask,Top*%
%TF.FilePolarity,Negative*%
%FSLAX46Y46*%
G04 Gerber Fmt 4.6, Leading zero omitted, Abs format (unit mm)*
G04 Created by KiCad (PCBNEW (6.0.2)) date 2022-02-17 20:40:29*
%MOMM*%
%LPD*%
G01*
G04 APERTURE LIST*
%ADD10R,2.000000X2.000000*%
%ADD11C,2.000000*%
%ADD12C,1.800000*%
%ADD13C,4.000000*%
%ADD14C,3.200000*%
%ADD15O,1.400000X2.000000*%
%ADD16R,1.700000X1.700000*%
%ADD17C,1.700000*%
G04 APERTURE END LIST*
D10*
%TO.C,EN4*%
X65610000Y-106950000D03*
D11*
X65610000Y-111950000D03*
X65610000Y-109450000D03*
X80110000Y-111950000D03*
X80110000Y-106950000D03*
%TD*%
D10*
%TO.C,EN3*%
X103710000Y-87900000D03*
D11*
X103710000Y-92900000D03*
X103710000Y-90400000D03*
X118210000Y-92900000D03*
X118210000Y-87900000D03*
%TD*%
D12*
%TO.C,SW4*%
X116290000Y-90400000D03*
X106130000Y-90400000D03*
D13*
X111210000Y-90400000D03*
%TD*%
D12*
%TO.C,SW13*%
X116290000Y-147550000D03*
X106130000Y-147550000D03*
D13*
X111210000Y-147550000D03*
%TD*%
D10*
%TO.C,EN7*%
X103710000Y-126000000D03*
D11*
X103710000Y-131000000D03*
X103710000Y-128500000D03*
X118210000Y-131000000D03*
X118210000Y-126000000D03*
%TD*%
D10*
%TO.C,EN6*%
X65610000Y-126000000D03*
D11*
X65610000Y-131000000D03*
X65610000Y-128500000D03*
X80110000Y-131000000D03*
X80110000Y-126000000D03*
%TD*%
D10*
%TO.C,EN8*%
X65610000Y-145050000D03*
D11*
X65610000Y-150050000D03*
X65610000Y-147550000D03*
X80110000Y-150050000D03*
X80110000Y-145050000D03*
%TD*%
D13*
%TO.C,SW3*%
X92160000Y-90400000D03*
D12*
X87080000Y-90400000D03*
X97240000Y-90400000D03*
%TD*%
D10*
%TO.C,EN9*%
X103710000Y-145050000D03*
D11*
X103710000Y-150050000D03*
X103710000Y-147550000D03*
X118210000Y-150050000D03*
X118210000Y-145050000D03*
%TD*%
D13*
%TO.C,SW14*%
X92160000Y-66587500D03*
D12*
X87080000Y-66587500D03*
X97240000Y-66587500D03*
%TD*%
%TO.C,SW9*%
X97240000Y-128500000D03*
X87080000Y-128500000D03*
D13*
X92160000Y-128500000D03*
%TD*%
D10*
%TO.C,EN1*%
X65610000Y-64087500D03*
D11*
X65610000Y-69087500D03*
X65610000Y-66587500D03*
X80110000Y-69087500D03*
X80110000Y-64087500D03*
%TD*%
D14*
%TO.C,H4*%
X101685000Y-118975000D03*
%TD*%
D13*
%TO.C,SW11*%
X73110000Y-147550000D03*
D12*
X68030000Y-147550000D03*
X78190000Y-147550000D03*
%TD*%
%TO.C,SW15*%
X116290000Y-66587500D03*
D13*
X111210000Y-66587500D03*
D12*
X106130000Y-66587500D03*
%TD*%
D11*
%TO.C,VR3*%
X114960000Y-152780000D03*
X112460000Y-152780000D03*
D15*
X109960000Y-82480000D03*
D11*
X114960000Y-82780000D03*
%TD*%
D12*
%TO.C,SW8*%
X78190000Y-128500000D03*
X68030000Y-128500000D03*
D13*
X73110000Y-128500000D03*
%TD*%
D10*
%TO.C,EN5*%
X103710000Y-106950000D03*
D11*
X103710000Y-111950000D03*
X103710000Y-109450000D03*
X118210000Y-111950000D03*
X118210000Y-106950000D03*
%TD*%
D12*
%TO.C,SW12*%
X97240000Y-147550000D03*
X87080000Y-147550000D03*
D13*
X92160000Y-147550000D03*
%TD*%
%TO.C,SW7*%
X111210000Y-109450000D03*
D12*
X106130000Y-109450000D03*
X116290000Y-109450000D03*
%TD*%
%TO.C,SW6*%
X97240000Y-109450000D03*
X87080000Y-109450000D03*
D13*
X92160000Y-109450000D03*
%TD*%
D12*
%TO.C,SW10*%
X106130000Y-128500000D03*
D13*
X111210000Y-128500000D03*
D12*
X116290000Y-128500000D03*
%TD*%
D10*
%TO.C,EN2*%
X65610000Y-87900000D03*
D11*
X65610000Y-92900000D03*
X65610000Y-90400000D03*
X80110000Y-92900000D03*
X80110000Y-87900000D03*
%TD*%
%TO.C,VR2*%
X95910000Y-152705000D03*
X93410000Y-152705000D03*
D15*
X90910000Y-82405000D03*
D11*
X95910000Y-82705000D03*
%TD*%
D12*
%TO.C,SW5*%
X78190000Y-109450000D03*
D13*
X73110000Y-109450000D03*
D12*
X68030000Y-109450000D03*
%TD*%
D13*
%TO.C,SW2*%
X73110000Y-90400000D03*
D12*
X68030000Y-90400000D03*
X78190000Y-90400000D03*
%TD*%
D14*
%TO.C,H3*%
X82635000Y-118975000D03*
%TD*%
D12*
%TO.C,SW1*%
X78190000Y-66587500D03*
D13*
X73110000Y-66587500D03*
D12*
X68030000Y-66587500D03*
%TD*%
D16*
%TO.C,U1*%
X99780000Y-58967500D03*
D17*
X99780000Y-61507500D03*
X99780000Y-64047500D03*
X99780000Y-66587500D03*
X99780000Y-69127500D03*
X99780000Y-71667500D03*
X99780000Y-74207500D03*
X99780000Y-76747500D03*
X99780000Y-79287500D03*
X99780000Y-81827500D03*
X99780000Y-84367500D03*
X99780000Y-86907500D03*
X99780000Y-89447500D03*
X99780000Y-91987500D03*
X99780000Y-94527500D03*
X99780000Y-97067500D03*
X99780000Y-99607500D03*
X99780000Y-102147500D03*
X99780000Y-104687500D03*
X99780000Y-107227500D03*
X84540000Y-107227500D03*
X84540000Y-104687500D03*
X84540000Y-102147500D03*
X84540000Y-99607500D03*
X84540000Y-97067500D03*
X84540000Y-94527500D03*
X84540000Y-91987500D03*
X84540000Y-89447500D03*
X84540000Y-86907500D03*
X84540000Y-84367500D03*
X84540000Y-81827500D03*
X84540000Y-79287500D03*
X84540000Y-76747500D03*
X84540000Y-74207500D03*
X84540000Y-71667500D03*
X84540000Y-69127500D03*
X84540000Y-66587500D03*
X84540000Y-64047500D03*
X84540000Y-61507500D03*
X84540000Y-58967500D03*
%TD*%
M02*
