%TF.GenerationSoftware,KiCad,Pcbnew,(6.0.3-11-gdd55ffb75c)*%
%TF.CreationDate,2022-03-17T01:02:22-07:00*%
%TF.ProjectId,keeby cat,6b656562-7920-4636-9174-2e6b69636164,rev?*%
%TF.SameCoordinates,Original*%
%TF.FileFunction,Copper,L1,Top*%
%TF.FilePolarity,Positive*%
%FSLAX46Y46*%
G04 Gerber Fmt 4.6, Leading zero omitted, Abs format (unit mm)*
G04 Created by KiCad (PCBNEW (6.0.3-11-gdd55ffb75c)) date 2022-03-17 01:02:22*
%MOMM*%
%LPD*%
G01*
G04 APERTURE LIST*
%TA.AperFunction,ComponentPad*%
%ADD10R,2.000000X2.000000*%
%TD*%
%TA.AperFunction,ComponentPad*%
%ADD11C,2.000000*%
%TD*%
%TA.AperFunction,ComponentPad*%
%ADD12C,2.500000*%
%TD*%
%TA.AperFunction,ComponentPad*%
%ADD13O,2.500000X3.695000*%
%TD*%
%TA.AperFunction,ComponentPad*%
%ADD14O,4.700000X2.200000*%
%TD*%
%TA.AperFunction,ComponentPad*%
%ADD15O,2.000000X1.400000*%
%TD*%
%TA.AperFunction,ComponentPad*%
%ADD16R,1.700000X1.700000*%
%TD*%
%TA.AperFunction,ComponentPad*%
%ADD17C,1.700000*%
%TD*%
%TA.AperFunction,ViaPad*%
%ADD18C,0.800000*%
%TD*%
%TA.AperFunction,Conductor*%
%ADD19C,0.500000*%
%TD*%
%TA.AperFunction,Conductor*%
%ADD20C,0.250000*%
%TD*%
G04 APERTURE END LIST*
D10*
%TO.P,EN4,A,A*%
%TO.N,ENC3A*%
X65610000Y-106950000D03*
D11*
%TO.P,EN4,B,B*%
%TO.N,ENC3B*%
X65610000Y-111950000D03*
%TO.P,EN4,C,C*%
%TO.N,GND*%
X65610000Y-109450000D03*
%TO.P,EN4,S1,S1*%
%TO.N,KEY5*%
X80110000Y-111950000D03*
%TO.P,EN4,S2,S2*%
%TO.N,GND*%
X80110000Y-106950000D03*
%TD*%
D10*
%TO.P,EN3,A,A*%
%TO.N,ENC2A*%
X103710000Y-87900000D03*
D11*
%TO.P,EN3,B,B*%
%TO.N,ENC2B*%
X103710000Y-92900000D03*
%TO.P,EN3,C,C*%
%TO.N,GND*%
X103710000Y-90400000D03*
%TO.P,EN3,S1,S1*%
%TO.N,KEY4*%
X118210000Y-92900000D03*
%TO.P,EN3,S2,S2*%
%TO.N,GND*%
X118210000Y-87900000D03*
%TD*%
D12*
%TO.P,SW4,1,1*%
%TO.N,KEY4*%
X115020000Y-92940000D03*
%TO.P,SW4,2,2*%
%TO.N,GND*%
X108670000Y-95480000D03*
%TD*%
%TO.P,SW13,1,1*%
%TO.N,KEY13-POT3*%
X115020000Y-150090000D03*
D13*
%TO.P,SW13,2,2*%
%TO.N,GND*%
X108670000Y-153188800D03*
D14*
X108670000Y-153975000D03*
%TD*%
D10*
%TO.P,EN7,A,A*%
%TO.N,ENC4A*%
X103710000Y-126000000D03*
D11*
%TO.P,EN7,B,B*%
%TO.N,ENC4B*%
X103710000Y-131000000D03*
%TO.P,EN7,C,C*%
%TO.N,GND*%
X103710000Y-128500000D03*
%TO.P,EN7,S1,S1*%
%TO.N,KEY10*%
X118210000Y-131000000D03*
%TO.P,EN7,S2,S2*%
%TO.N,GND*%
X118210000Y-126000000D03*
%TD*%
D10*
%TO.P,EN6,A,A*%
%TO.N,ENC4A*%
X65610000Y-126000000D03*
D11*
%TO.P,EN6,B,B*%
%TO.N,ENC4B*%
X65610000Y-131000000D03*
%TO.P,EN6,C,C*%
%TO.N,GND*%
X65610000Y-128500000D03*
%TO.P,EN6,S1,S1*%
%TO.N,KEY8*%
X80110000Y-131000000D03*
%TO.P,EN6,S2,S2*%
%TO.N,GND*%
X80110000Y-126000000D03*
%TD*%
D10*
%TO.P,EN8,A,A*%
%TO.N,ENC5A*%
X65610000Y-145050000D03*
D11*
%TO.P,EN8,B,B*%
%TO.N,ENC5B*%
X65610000Y-150050000D03*
%TO.P,EN8,C,C*%
%TO.N,GND*%
X65610000Y-147550000D03*
%TO.P,EN8,S1,S1*%
%TO.N,KEY11-POT1*%
X80110000Y-150050000D03*
%TO.P,EN8,S2,S2*%
%TO.N,GND*%
X80110000Y-145050000D03*
%TD*%
D12*
%TO.P,SW3,1,1*%
%TO.N,KEY3*%
X95970000Y-92940000D03*
%TO.P,SW3,2,2*%
%TO.N,GND*%
X89620000Y-95480000D03*
%TD*%
D10*
%TO.P,EN9,A,A*%
%TO.N,ENC5A*%
X103710000Y-145050000D03*
D11*
%TO.P,EN9,B,B*%
%TO.N,ENC5B*%
X103710000Y-150050000D03*
%TO.P,EN9,C,C*%
%TO.N,GND*%
X103710000Y-147550000D03*
%TO.P,EN9,S1,S1*%
%TO.N,KEY13-POT3*%
X118210000Y-150050000D03*
%TO.P,EN9,S2,S2*%
%TO.N,GND*%
X118210000Y-145050000D03*
%TD*%
D12*
%TO.P,SW14,1,1*%
%TO.N,SDA-SW*%
X95970000Y-69127500D03*
%TO.P,SW14,2,2*%
%TO.N,GND*%
X89620000Y-71667500D03*
%TD*%
D11*
%TO.P,OL1,1,SDA*%
%TO.N,SDA-SW*%
X119465000Y-70397500D03*
%TO.P,OL1,2,SCL*%
%TO.N,SCL-SW*%
X119465000Y-67857500D03*
%TO.P,OL1,3,VCC*%
%TO.N,+3V3*%
X119465000Y-65317500D03*
%TO.P,OL1,4,GND*%
%TO.N,GND*%
X119465000Y-62777500D03*
%TD*%
D12*
%TO.P,SW9,1,1*%
%TO.N,KEY9*%
X95970000Y-131040000D03*
%TO.P,SW9,2,2*%
%TO.N,GND*%
X89620000Y-133580000D03*
%TD*%
D10*
%TO.P,EN1,A,A*%
%TO.N,ENC1A*%
X65610000Y-64087500D03*
D11*
%TO.P,EN1,B,B*%
%TO.N,ENC1B*%
X65610000Y-69087500D03*
%TO.P,EN1,C,C*%
%TO.N,GND*%
X65610000Y-66587500D03*
%TO.P,EN1,S1,S1*%
%TO.N,KEY1*%
X80110000Y-69087500D03*
%TO.P,EN1,S2,S2*%
%TO.N,GND*%
X80110000Y-64087500D03*
%TD*%
D12*
%TO.P,SW11,1,1*%
%TO.N,KEY11-POT1*%
X76920000Y-150090000D03*
D13*
%TO.P,SW11,2,2*%
%TO.N,GND*%
X70570000Y-153188800D03*
D14*
X70570000Y-153975000D03*
%TD*%
D12*
%TO.P,SW15,1,1*%
%TO.N,SCL-SW*%
X115020000Y-69127500D03*
%TO.P,SW15,2,2*%
%TO.N,GND*%
X108670000Y-71667500D03*
%TD*%
D11*
%TO.P,VR3,1B,1B*%
%TO.N,GND*%
X114960000Y-153975000D03*
%TO.P,VR3,2B,2B*%
%TO.N,KEY13-POT3*%
X112460000Y-153975000D03*
D15*
%TO.P,VR3,3,3*%
%TO.N,GND*%
X110260000Y-81475000D03*
D11*
%TO.P,VR3,3B,3B*%
%TO.N,+3V3*%
X114960000Y-83975000D03*
%TD*%
D12*
%TO.P,SW8,1,1*%
%TO.N,KEY8*%
X76920000Y-131040000D03*
%TO.P,SW8,2,2*%
%TO.N,GND*%
X70570000Y-133580000D03*
%TD*%
D10*
%TO.P,EN5,A,A*%
%TO.N,ENC3A*%
X103710000Y-106950000D03*
D11*
%TO.P,EN5,B,B*%
%TO.N,ENC3B*%
X103710000Y-111950000D03*
%TO.P,EN5,C,C*%
%TO.N,GND*%
X103710000Y-109450000D03*
%TO.P,EN5,S1,S1*%
%TO.N,KEY7*%
X118210000Y-111950000D03*
%TO.P,EN5,S2,S2*%
%TO.N,GND*%
X118210000Y-106950000D03*
%TD*%
D12*
%TO.P,SW12,1,1*%
%TO.N,KEY12-POT2*%
X95970000Y-150090000D03*
D14*
%TO.P,SW12,2,2*%
%TO.N,GND*%
X89620000Y-153975000D03*
D13*
X89620000Y-153188800D03*
%TD*%
D11*
%TO.P,VR1,1B,1B*%
%TO.N,GND*%
X76860000Y-153975000D03*
%TO.P,VR1,2B,2B*%
%TO.N,KEY11-POT1*%
X74360000Y-153975000D03*
D15*
%TO.P,VR1,3,3*%
%TO.N,GND*%
X72160000Y-81475000D03*
D11*
%TO.P,VR1,3B,3B*%
%TO.N,+3V3*%
X76860000Y-83975000D03*
%TD*%
D12*
%TO.P,SW7,1,1*%
%TO.N,KEY7*%
X115020000Y-111990000D03*
%TO.P,SW7,2,2*%
%TO.N,GND*%
X108670000Y-114530000D03*
%TD*%
%TO.P,SW6,1,1*%
%TO.N,KEY6*%
X95970000Y-111990000D03*
%TO.P,SW6,2,2*%
%TO.N,GND*%
X89620000Y-114530000D03*
%TD*%
%TO.P,SW10,1,1*%
%TO.N,KEY10*%
X115020000Y-131040000D03*
%TO.P,SW10,2,2*%
%TO.N,GND*%
X108670000Y-133580000D03*
%TD*%
D10*
%TO.P,EN2,A,A*%
%TO.N,ENC2A*%
X65610000Y-87900000D03*
D11*
%TO.P,EN2,B,B*%
%TO.N,ENC2B*%
X65610000Y-92900000D03*
%TO.P,EN2,C,C*%
%TO.N,GND*%
X65610000Y-90400000D03*
%TO.P,EN2,S1,S1*%
%TO.N,KEY2*%
X80110000Y-92900000D03*
%TO.P,EN2,S2,S2*%
%TO.N,GND*%
X80110000Y-87900000D03*
%TD*%
%TO.P,VR2,1B,1B*%
%TO.N,GND*%
X95910000Y-153975000D03*
%TO.P,VR2,2B,2B*%
%TO.N,KEY12-POT2*%
X93410000Y-153975000D03*
D15*
%TO.P,VR2,3,3*%
%TO.N,GND*%
X91210000Y-81475000D03*
D11*
%TO.P,VR2,3B,3B*%
%TO.N,+3V3*%
X95910000Y-83975000D03*
%TD*%
D12*
%TO.P,SW5,1,1*%
%TO.N,KEY5*%
X76920000Y-111990000D03*
%TO.P,SW5,2,2*%
%TO.N,GND*%
X70570000Y-114530000D03*
%TD*%
%TO.P,SW2,1,1*%
%TO.N,KEY2*%
X76920000Y-92940000D03*
%TO.P,SW2,2,2*%
%TO.N,GND*%
X70570000Y-95480000D03*
%TD*%
%TO.P,SW1,1,1*%
%TO.N,KEY1*%
X76920000Y-69127500D03*
%TO.P,SW1,2,2*%
%TO.N,GND*%
X70570000Y-71667500D03*
%TD*%
D16*
%TO.P,U1,1,PB12*%
%TO.N,KEY1*%
X99780000Y-60237500D03*
D17*
%TO.P,U1,2,PB13*%
%TO.N,KEY2*%
X99780000Y-62777500D03*
%TO.P,U1,3,PB14*%
%TO.N,KEY3*%
X99780000Y-65317500D03*
%TO.P,U1,4,PB15*%
%TO.N,KEY4*%
X99780000Y-67857500D03*
%TO.P,U1,5,PA8*%
%TO.N,KEY5*%
X99780000Y-70397500D03*
%TO.P,U1,6,PA9*%
%TO.N,KEY6*%
X99780000Y-72937500D03*
%TO.P,U1,7,PA10*%
%TO.N,KEY7*%
X99780000Y-75477500D03*
%TO.P,U1,8,PA11*%
%TO.N,unconnected-(U1-Pad8)*%
X99780000Y-78017500D03*
%TO.P,U1,9,PA12*%
%TO.N,unconnected-(U1-Pad9)*%
X99780000Y-80557500D03*
%TO.P,U1,10,PA15*%
%TO.N,KEY8*%
X99780000Y-83097500D03*
%TO.P,U1,11,PB3*%
%TO.N,KEY9*%
X99780000Y-85637500D03*
%TO.P,U1,12,PB4*%
%TO.N,KEY10*%
X99780000Y-88177500D03*
%TO.P,U1,13,PB5*%
%TO.N,ENC3B*%
X99780000Y-90717500D03*
%TO.P,U1,14,PB6*%
%TO.N,SCL-SW*%
X99780000Y-93257500D03*
%TO.P,U1,15,PB7*%
%TO.N,SDA-SW*%
X99780000Y-95797500D03*
%TO.P,U1,16,PB8*%
%TO.N,unconnected-(U1-Pad16)*%
X99780000Y-98337500D03*
%TO.P,U1,17,PB9*%
%TO.N,LED_DATA*%
X99780000Y-100877500D03*
%TO.P,U1,18,5V*%
%TO.N,+5V*%
X99780000Y-103417500D03*
%TO.P,U1,19,GND*%
%TO.N,GND*%
X99780000Y-105957500D03*
%TO.P,U1,20,3V3*%
%TO.N,+3V3*%
X99780000Y-108497500D03*
%TO.P,U1,21,VBat*%
%TO.N,unconnected-(U1-Pad21)*%
X84540000Y-108497500D03*
%TO.P,U1,22,PC13*%
%TO.N,unconnected-(U1-Pad22)*%
X84540000Y-105957500D03*
%TO.P,U1,23,PC14*%
%TO.N,unconnected-(U1-Pad23)*%
X84540000Y-103417500D03*
%TO.P,U1,24,PC15*%
%TO.N,unconnected-(U1-Pad24)*%
X84540000Y-100877500D03*
%TO.P,U1,25,PA0*%
%TO.N,KEY13-POT3*%
X84540000Y-98337500D03*
%TO.P,U1,26,PA1*%
%TO.N,KEY12-POT2*%
X84540000Y-95797500D03*
%TO.P,U1,27,PA2*%
%TO.N,KEY11-POT1*%
X84540000Y-93257500D03*
%TO.P,U1,28,PA3*%
%TO.N,ENC3A*%
X84540000Y-90717500D03*
%TO.P,U1,29,PA4*%
%TO.N,ENC5B*%
X84540000Y-88177500D03*
%TO.P,U1,30,PA5*%
%TO.N,ENC5A*%
X84540000Y-85637500D03*
%TO.P,U1,31,PA6*%
%TO.N,ENC4B*%
X84540000Y-83097500D03*
%TO.P,U1,32,PA7*%
%TO.N,ENC4A*%
X84540000Y-80557500D03*
%TO.P,U1,33,PB0*%
%TO.N,ENC2B*%
X84540000Y-78017500D03*
%TO.P,U1,34,PB1*%
%TO.N,ENC2A*%
X84540000Y-75477500D03*
%TO.P,U1,35,PB10*%
%TO.N,ENC1B*%
X84540000Y-72937500D03*
%TO.P,U1,36,PB11*%
%TO.N,ENC1A*%
X84540000Y-70397500D03*
%TO.P,U1,37,RST*%
%TO.N,unconnected-(U1-Pad37)*%
X84540000Y-67857500D03*
%TO.P,U1,38,3V3*%
%TO.N,unconnected-(U1-Pad38)*%
X84540000Y-65317500D03*
%TO.P,U1,39,GND*%
%TO.N,GND*%
X84540000Y-62777500D03*
%TO.P,U1,40,5V_or_GND*%
%TO.N,unconnected-(U1-Pad40)*%
X84540000Y-60237500D03*
%TD*%
D18*
%TO.N,GND*%
X92541000Y-98464500D03*
X67395000Y-142025500D03*
X68030000Y-103036500D03*
X67395000Y-60999500D03*
%TO.N,+5V*%
X94827000Y-88304500D03*
X97621000Y-85510500D03*
X96351000Y-142406500D03*
X115274000Y-105449500D03*
X78063000Y-62650500D03*
X82000000Y-80354300D03*
X93430000Y-82716500D03*
X76666000Y-87288500D03*
X115147000Y-143549500D03*
X115401000Y-124372500D03*
X82000000Y-77128500D03*
X114385000Y-88304500D03*
X115274000Y-103036500D03*
X77301000Y-97956500D03*
X96097000Y-96178500D03*
X113750000Y-64047500D03*
X105749000Y-101893500D03*
X96224000Y-62650500D03*
X74761000Y-133135500D03*
X76158000Y-125515500D03*
X79714000Y-139866500D03*
%TO.N,+3V3*%
X114385000Y-99480500D03*
X104733000Y-103036500D03*
%TO.N,KEY4*%
X111591000Y-73191500D03*
X119846000Y-85129500D03*
%TO.N,KEY7*%
X115909000Y-74588500D03*
%TO.N,KEY5*%
X92668000Y-75731500D03*
%TO.N,KEY8*%
X81746000Y-97321500D03*
X86826000Y-79414500D03*
%TO.N,KEY3*%
X105749000Y-82208500D03*
%TO.N,KEY6*%
X102320000Y-100496500D03*
%TO.N,KEY9*%
X95843000Y-100750500D03*
X94065000Y-94908500D03*
%TO.N,ENC2B*%
X102828000Y-80176500D03*
%TO.N,ENC2A*%
X103717000Y-79135100D03*
X67141000Y-78652500D03*
%TO.N,ENC3B*%
X101050000Y-94527500D03*
X92414000Y-116371500D03*
%TO.N,ENC4B*%
X73999000Y-112561500D03*
X79333000Y-96051500D03*
%TO.N,ENC4A*%
X76412000Y-102528500D03*
%TO.N,LED_DATA*%
X119592000Y-139580750D03*
X114766000Y-120054500D03*
X107527000Y-144184500D03*
%TO.N,ENC5B*%
X95843000Y-116752500D03*
X101050000Y-127039500D03*
%TO.N,KEY11-POT1*%
X84286000Y-134659500D03*
%TO.N,KEY13-POT3*%
X101416000Y-152826750D03*
X96986000Y-135167500D03*
%TO.N,KEY12-POT2*%
X84540000Y-140882500D03*
X84413000Y-136056500D03*
%TO.N,SCL-SW*%
X101431000Y-81573500D03*
%TO.N,Net-(D1-Pad2)*%
X107400000Y-125007500D03*
X115909000Y-140882500D03*
%TO.N,Net-(D2-Pad2)*%
X116798000Y-118657500D03*
X118576000Y-101639500D03*
%TO.N,Net-(D3-Pad2)*%
X113877000Y-102909500D03*
X112099000Y-82589500D03*
X108162000Y-87288500D03*
%TO.N,Net-(D4-Pad2)*%
X118830000Y-81827500D03*
X116798000Y-113704500D03*
X113115000Y-120054500D03*
X94573000Y-80303500D03*
%TO.N,Net-(D6-Pad2)*%
X94700000Y-102401500D03*
X87715000Y-123102500D03*
%TO.N,Net-(D7-Pad2)*%
X96351000Y-123483500D03*
X93176000Y-136056500D03*
%TO.N,Net-(D8-Pad2)*%
X96732000Y-139612500D03*
X81619000Y-138215500D03*
X64220000Y-141136500D03*
%TO.N,Net-(D12-Pad2)*%
X65109000Y-82589500D03*
X68665000Y-118530500D03*
%TD*%
D19*
%TO.N,GND*%
X64093000Y-62777500D02*
X64093000Y-65317500D01*
X64093000Y-91917000D02*
X65610000Y-90400000D01*
X70570000Y-95480000D02*
X65553500Y-95480000D01*
X64093000Y-68104500D02*
X64093000Y-73708000D01*
X64601000Y-146851500D02*
X65744000Y-146851500D01*
X64093000Y-65317500D02*
X65363000Y-66587500D01*
X63966000Y-146216500D02*
X63966000Y-143803500D01*
X65363000Y-66587500D02*
X65610000Y-66587500D01*
X63966000Y-143803500D02*
X65744000Y-142025500D01*
X70570000Y-100496500D02*
X68030000Y-103036500D01*
D20*
X65610000Y-128620000D02*
X65610000Y-128500000D01*
D19*
X92604498Y-98464498D02*
X92667999Y-98464498D01*
X64093000Y-73708000D02*
X71860000Y-81475000D01*
D20*
X70570000Y-133580000D02*
X65610000Y-128620000D01*
D19*
X67395000Y-60999500D02*
X65871000Y-60999500D01*
X64093000Y-94019500D02*
X64093000Y-91917000D01*
X65744000Y-142025500D02*
X67395000Y-142025500D01*
X89620000Y-95480000D02*
X92604498Y-98464498D01*
X65610000Y-66587500D02*
X64093000Y-68104500D01*
X65299500Y-147550000D02*
X64601000Y-146851500D01*
X65871000Y-60999500D02*
X64093000Y-62777500D01*
X65744000Y-146851500D02*
X65871000Y-146978500D01*
X65610000Y-147550000D02*
X65299500Y-147550000D01*
X70570000Y-95480000D02*
X70570000Y-100496500D01*
D20*
X92667997Y-98464500D02*
X92541000Y-98464500D01*
D19*
X65553500Y-95480000D02*
X64093000Y-94019500D01*
X64601000Y-146851500D02*
X63966000Y-146216500D01*
D20*
X92667999Y-98464498D02*
X92667997Y-98464500D01*
%TO.N,+5V*%
X83905000Y-74207500D02*
X82000000Y-76112500D01*
X92033000Y-70651500D02*
X89366000Y-67984500D01*
X115401000Y-124372500D02*
X115401000Y-122467500D01*
X114385000Y-88304500D02*
X114385000Y-91174746D01*
X76666000Y-87288500D02*
X76666000Y-90712619D01*
X89366000Y-86145500D02*
X89366000Y-91606500D01*
X92033000Y-71921500D02*
X89747000Y-74207500D01*
X119719000Y-113069500D02*
X119719000Y-110656500D01*
X82000000Y-81573500D02*
X82254000Y-81827500D01*
X113345796Y-92213950D02*
X113345796Y-101108296D01*
X97621000Y-64047500D02*
X113750000Y-64047500D01*
X115274000Y-106211500D02*
X115274000Y-105449500D01*
X93811000Y-139866500D02*
X79714000Y-139866500D01*
X89366000Y-67984500D02*
X89366000Y-65571500D01*
X89366000Y-91606500D02*
X93938000Y-96178500D01*
X101431000Y-103417500D02*
X102955000Y-101893500D01*
X75000000Y-95655500D02*
X77301000Y-97956500D01*
X115401000Y-125388500D02*
X119846000Y-129833500D01*
X88477000Y-84875500D02*
X90636000Y-82716500D01*
X88477000Y-84875500D02*
X88096000Y-84875500D01*
X76158000Y-129198500D02*
X76158000Y-125515500D01*
X102955000Y-101893500D02*
X105749000Y-101893500D01*
X118195000Y-133770500D02*
X118195000Y-140501500D01*
X95320000Y-67364500D02*
X95320000Y-63554500D01*
X99780000Y-103417500D02*
X101431000Y-103417500D01*
X75000000Y-92378619D02*
X75000000Y-95655500D01*
X89747000Y-74207500D02*
X83905000Y-74207500D01*
X76666000Y-90712619D02*
X75000000Y-92378619D01*
X82000000Y-76112500D02*
X82000000Y-77128500D01*
X85048000Y-81827500D02*
X89366000Y-86145500D01*
X88477000Y-84875500D02*
X88477000Y-85256500D01*
X81746000Y-62650500D02*
X78063000Y-62650500D01*
X92033000Y-70651500D02*
X92033000Y-71921500D01*
X119846000Y-132119500D02*
X118195000Y-133770500D01*
X76666000Y-87161500D02*
X76666000Y-87288500D01*
X119846000Y-129833500D02*
X119846000Y-132119500D01*
X74761000Y-130595500D02*
X76158000Y-129198500D01*
X82000000Y-81827500D02*
X76666000Y-87161500D01*
X118195000Y-140501500D02*
X115147000Y-143549500D01*
X93938000Y-96178500D02*
X96097000Y-96178500D01*
X96224000Y-62650500D02*
X97621000Y-64047500D01*
X114004000Y-121070500D02*
X114004000Y-118784500D01*
X88286500Y-85066000D02*
X88477000Y-84875500D01*
D19*
X115274000Y-105449500D02*
X115274000Y-103036500D01*
D20*
X82000000Y-81827500D02*
X82000000Y-81573500D01*
D19*
X94827000Y-88304500D02*
X97621000Y-85510500D01*
D20*
X92033000Y-70651500D02*
X95320000Y-67364500D01*
X83143000Y-64047500D02*
X81746000Y-62650500D01*
X82000000Y-81573500D02*
X82000000Y-80354300D01*
X90636000Y-82716500D02*
X93430000Y-82716500D01*
X115401000Y-122467500D02*
X114004000Y-121070500D01*
X114385000Y-91174746D02*
X113345796Y-92213950D01*
X119719000Y-110656500D02*
X115274000Y-106211500D01*
X115401000Y-124372500D02*
X115401000Y-125388500D01*
X82000000Y-81827500D02*
X85048000Y-81827500D01*
X113345796Y-101108296D02*
X115274000Y-103036500D01*
X89366000Y-65571500D02*
X87842000Y-64047500D01*
X95320000Y-63554500D02*
X96224000Y-62650500D01*
X87842000Y-64047500D02*
X83143000Y-64047500D01*
X96351000Y-142406500D02*
X93811000Y-139866500D01*
X114004000Y-118784500D02*
X119719000Y-113069500D01*
X74761000Y-133135500D02*
X74761000Y-130595500D01*
%TO.N,+3V3*%
X100288000Y-107481500D02*
X100288000Y-108243500D01*
X96302500Y-84367500D02*
X102184250Y-84367500D01*
X120811200Y-84824700D02*
X120811200Y-93054300D01*
X86318000Y-80176500D02*
X92111500Y-80176500D01*
X95910000Y-83975000D02*
X96302500Y-84367500D01*
X119961500Y-83975000D02*
X114960000Y-83975000D01*
X119465000Y-65317500D02*
X121497000Y-67349500D01*
X111415500Y-80430500D02*
X114960000Y-83975000D01*
X99780000Y-107989500D02*
X99780000Y-108497500D01*
X85397250Y-79255750D02*
X86318000Y-80176500D01*
X102184250Y-84367500D02*
X106121250Y-80430500D01*
X121497000Y-67349500D02*
X121497000Y-82439500D01*
X121497000Y-82439500D02*
X119961500Y-83975000D01*
X106121250Y-80430500D02*
X111415500Y-80430500D01*
X104733000Y-103036500D02*
X100288000Y-107481500D01*
X95910000Y-83975000D02*
X96720500Y-83975000D01*
X96720500Y-83975000D02*
X97113000Y-84367500D01*
X76860000Y-83975000D02*
X81579250Y-79255750D01*
X120811200Y-93054300D02*
X114385000Y-99480500D01*
X81579250Y-79255750D02*
X85397250Y-79255750D01*
X92111500Y-80176500D02*
X95910000Y-83975000D01*
X100288000Y-107481500D02*
X99780000Y-107989500D01*
X119961500Y-83975000D02*
X120811200Y-84824700D01*
D19*
%TO.N,KEY1*%
X76920000Y-69127500D02*
X80070000Y-69127500D01*
D20*
X90255000Y-59221500D02*
X98764000Y-59221500D01*
X76285000Y-67730500D02*
X76920000Y-68365500D01*
X76285000Y-68492500D02*
X76285000Y-67730500D01*
X76285000Y-63158500D02*
X77936000Y-61507500D01*
X76920000Y-68365500D02*
X76920000Y-68746500D01*
X87969000Y-61507500D02*
X90255000Y-59221500D01*
X77936000Y-61507500D02*
X87969000Y-61507500D01*
X98764000Y-59221500D02*
X99780000Y-60237500D01*
X76285000Y-67730500D02*
X76285000Y-63158500D01*
X76920000Y-69127500D02*
X76285000Y-68492500D01*
%TO.N,KEY4*%
X106765000Y-73318500D02*
X111464000Y-73318500D01*
X101304000Y-67857500D02*
X106765000Y-73318500D01*
X99780000Y-67857500D02*
X101304000Y-67857500D01*
X119846000Y-91264000D02*
X119846000Y-85129500D01*
D19*
X118210000Y-92900000D02*
X115060000Y-92900000D01*
D20*
X111464000Y-73318500D02*
X111591000Y-73191500D01*
X118210000Y-92900000D02*
X119846000Y-91264000D01*
%TO.N,KEY7*%
X115401000Y-74842500D02*
X115655000Y-74588500D01*
X115782000Y-74588500D02*
X115528000Y-74842500D01*
X105241000Y-75477500D02*
X105876000Y-74842500D01*
X115782000Y-74588500D02*
X116036000Y-74588500D01*
X105876000Y-74842500D02*
X115909000Y-74842500D01*
X99780000Y-75477500D02*
X105241000Y-75477500D01*
X115655000Y-74842500D02*
X115909000Y-74588500D01*
D19*
X118210000Y-111950000D02*
X115060000Y-111950000D01*
%TO.N,KEY2*%
X80110000Y-92900000D02*
X76960000Y-92900000D01*
D20*
%TO.N,KEY5*%
X99780000Y-70397500D02*
X94446000Y-75731500D01*
X94446000Y-75731500D02*
X92668000Y-75731500D01*
%TO.N,KEY8*%
X80110000Y-131000000D02*
X84540000Y-126570000D01*
D19*
X80110000Y-131000000D02*
X76960000Y-131000000D01*
D20*
X81746000Y-110784908D02*
X81746000Y-97321500D01*
X99018000Y-82462500D02*
X99526000Y-82970500D01*
X99780000Y-83097500D02*
X99145000Y-82462500D01*
X84540000Y-126570000D02*
X84540000Y-113578908D01*
X95462000Y-82462500D02*
X99907000Y-82462500D01*
X84540000Y-113578908D02*
X81746000Y-110784908D01*
X92414000Y-79414500D02*
X86826000Y-79414500D01*
X95462000Y-82462500D02*
X92414000Y-79414500D01*
%TO.N,KEY3*%
X96160500Y-92940000D02*
X96732000Y-92368500D01*
X95970000Y-92940000D02*
X96160500Y-92749500D01*
X95970000Y-92940000D02*
X96160500Y-92940000D01*
X98524521Y-87709099D02*
X99326120Y-86907500D01*
X97240000Y-92368500D02*
X96478000Y-92368500D01*
X96859000Y-92749500D02*
X97240000Y-92368500D01*
X97240000Y-92368500D02*
X98524521Y-91083979D01*
X99326120Y-86907500D02*
X101050000Y-86907500D01*
X101050000Y-86907500D02*
X105749000Y-82208500D01*
X98524521Y-91083979D02*
X98524521Y-87709099D01*
%TO.N,KEY6*%
X95716000Y-111736000D02*
X95716000Y-105694750D01*
X95716000Y-105694750D02*
X99257000Y-102153750D01*
X100662750Y-102153750D02*
X102320000Y-100496500D01*
X95970000Y-111990000D02*
X95716000Y-111736000D01*
X99257000Y-102153750D02*
X100662750Y-102153750D01*
%TO.N,KEY9*%
X95955000Y-130347750D02*
X95955000Y-130474750D01*
X95970000Y-131040000D02*
X95320000Y-130390000D01*
X99272000Y-85637500D02*
X99780000Y-85637500D01*
X99018000Y-86145500D02*
X99526000Y-85637500D01*
X95081000Y-110529500D02*
X95081000Y-105322500D01*
X99018000Y-86145500D02*
X99780000Y-86145500D01*
X91525000Y-118784500D02*
X91525000Y-114085500D01*
X95320000Y-129712750D02*
X95955000Y-130347750D01*
X95081000Y-105322500D02*
X95843000Y-104560500D01*
X91525000Y-114085500D02*
X95081000Y-110529500D01*
X95208000Y-91225500D02*
X95208000Y-89955500D01*
X95208000Y-89955500D02*
X99018000Y-86145500D01*
X94065000Y-94908500D02*
X94065000Y-92368500D01*
X95320000Y-122579500D02*
X91525000Y-118784500D01*
X95320000Y-129712750D02*
X95320000Y-122579500D01*
X95843000Y-104560500D02*
X95843000Y-100750500D01*
X94065000Y-92368500D02*
X95208000Y-91225500D01*
X95320000Y-130390000D02*
X95320000Y-129712750D01*
%TO.N,ENC1B*%
X83651000Y-73445500D02*
X84159000Y-72937500D01*
X84540000Y-72937500D02*
X84286000Y-72937500D01*
X69808000Y-73445500D02*
X84159000Y-73445500D01*
X69808000Y-73445500D02*
X65610000Y-69247500D01*
X65610000Y-69247500D02*
X65610000Y-69087500D01*
%TO.N,ENC1A*%
X84540000Y-70397500D02*
X83651000Y-71286500D01*
X73110000Y-71286500D02*
X69935000Y-68111500D01*
X83651000Y-71286500D02*
X73110000Y-71286500D01*
X65697000Y-64174500D02*
X65610000Y-64087500D01*
X69935000Y-65698500D02*
X68411000Y-64174500D01*
X69935000Y-68111500D02*
X69935000Y-65698500D01*
X68411000Y-64174500D02*
X65697000Y-64174500D01*
%TO.N,ENC2B*%
X69793000Y-91494500D02*
X69793000Y-84509500D01*
X101938999Y-79287499D02*
X102828000Y-80176500D01*
X71586000Y-82716500D02*
X74841250Y-82716500D01*
X98865599Y-79287499D02*
X101938999Y-79287499D01*
X65610000Y-92900000D02*
X68387500Y-92900000D01*
X84540000Y-78017500D02*
X97595600Y-78017500D01*
X79540250Y-78017500D02*
X84540000Y-78017500D01*
X69793000Y-84509500D02*
X71586000Y-82716500D01*
X74841250Y-82716500D02*
X79540250Y-78017500D01*
X68387500Y-92900000D02*
X69793000Y-91494500D01*
X97595600Y-78017500D02*
X98865599Y-79287499D01*
%TO.N,ENC2A*%
X84540000Y-75477500D02*
X85810000Y-76747500D01*
X101329400Y-76747500D02*
X103717000Y-79135100D01*
X85810000Y-76747500D02*
X101329400Y-76747500D01*
X65610000Y-87900000D02*
X67141000Y-86369000D01*
X67141000Y-86369000D02*
X67141000Y-78652500D01*
%TO.N,ENC3B*%
X98994500Y-111950000D02*
X94573000Y-116371500D01*
X94573000Y-116371500D02*
X92414000Y-116371500D01*
X99780000Y-90717500D02*
X101050000Y-91987500D01*
X103710000Y-111950000D02*
X98994500Y-111950000D01*
X101050000Y-91987500D02*
X101050000Y-94527500D01*
%TO.N,ENC3A*%
X85937000Y-94448125D02*
X91096375Y-99607500D01*
X65610000Y-106950000D02*
X72952500Y-99607500D01*
X106638000Y-104022000D02*
X103710000Y-106950000D01*
X82635000Y-92622500D02*
X84540000Y-90717500D01*
X82635000Y-94146500D02*
X82635000Y-92622500D01*
X77174000Y-99607500D02*
X82635000Y-94146500D01*
X72952500Y-99607500D02*
X77174000Y-99607500D01*
X85937000Y-92114500D02*
X85937000Y-94448125D01*
X106638000Y-101258500D02*
X106638000Y-104022000D01*
X84540000Y-90717500D02*
X85937000Y-92114500D01*
X91096375Y-99607500D02*
X104987000Y-99607500D01*
X104987000Y-99607500D02*
X106638000Y-101258500D01*
%TO.N,ENC4B*%
X103082000Y-131995000D02*
X97496500Y-137580500D01*
X81746000Y-85891500D02*
X81746000Y-93638500D01*
X84540000Y-83097500D02*
X81746000Y-85891500D01*
X73999000Y-114720500D02*
X73999000Y-112561500D01*
X82635000Y-137580500D02*
X81873000Y-136818500D01*
X64093000Y-124626500D02*
X73999000Y-114720500D01*
X65610000Y-131142000D02*
X65610000Y-131000000D01*
X65610000Y-131000000D02*
X64093000Y-129483000D01*
X81746000Y-93638500D02*
X79333000Y-96051500D01*
X103082000Y-131992500D02*
X103082000Y-131995000D01*
X81873000Y-136818500D02*
X71286500Y-136818500D01*
X64093000Y-129483000D02*
X64093000Y-124626500D01*
X103710000Y-131364500D02*
X103082000Y-131992500D01*
X71286500Y-136818500D02*
X65610000Y-131142000D01*
X103082000Y-131992500D02*
X103082000Y-131230500D01*
X103710000Y-131000000D02*
X103710000Y-131364500D01*
X97496500Y-137580500D02*
X82635000Y-137580500D01*
%TO.N,ENC4A*%
X75142000Y-115101500D02*
X75142000Y-111418500D01*
X81265091Y-135067239D02*
X83143352Y-136945500D01*
X101981000Y-132268537D02*
X101981000Y-127729000D01*
X68284000Y-121959500D02*
X75142000Y-115101500D01*
X68284000Y-125769500D02*
X68284000Y-121959500D01*
X76412000Y-110148500D02*
X76412000Y-102528500D01*
X70189000Y-130087500D02*
X75168739Y-135067239D01*
X68284000Y-125769500D02*
X65840500Y-125769500D01*
X70189000Y-127674500D02*
X70189000Y-130087500D01*
X68284000Y-125769500D02*
X70189000Y-127674500D01*
X75168739Y-135067239D02*
X81265091Y-135067239D01*
X101981000Y-127729000D02*
X103710000Y-126000000D01*
X75142000Y-111418500D02*
X76412000Y-110148500D01*
X83143352Y-136945500D02*
X97304037Y-136945500D01*
X97304037Y-136945500D02*
X101981000Y-132268537D01*
X65840500Y-125769500D02*
X65610000Y-126000000D01*
%TO.N,LED_DATA*%
X115528000Y-145073500D02*
X108416000Y-145073500D01*
X120481000Y-138691750D02*
X120481000Y-125769500D01*
X119592000Y-139580750D02*
X119592000Y-141009500D01*
X119592000Y-141009500D02*
X115528000Y-145073500D01*
X119592000Y-139580750D02*
X120481000Y-138691750D01*
X120481000Y-125769500D02*
X114766000Y-120054500D01*
X108416000Y-145073500D02*
X107527000Y-144184500D01*
%TO.N,ENC5A*%
X85429000Y-86145500D02*
X84667000Y-86145500D01*
X84984500Y-85637500D02*
X85460750Y-86113750D01*
X94890500Y-139104500D02*
X100836000Y-145050000D01*
X88716000Y-91972500D02*
X93811000Y-97067500D01*
X106384000Y-125340875D02*
X107839490Y-126796365D01*
X88716000Y-89369000D02*
X88716000Y-91972500D01*
X107839490Y-126796365D02*
X107839490Y-130410010D01*
X103710000Y-134539500D02*
X103710000Y-145050000D01*
X100836000Y-145050000D02*
X103710000Y-145050000D01*
X103336000Y-97067500D02*
X107849511Y-101581011D01*
X71555500Y-139104500D02*
X94890500Y-139104500D01*
X107849511Y-101581011D02*
X107849511Y-111222989D01*
X85460750Y-86113750D02*
X85429000Y-86145500D01*
X107839490Y-130410010D02*
X103710000Y-134539500D01*
X85460750Y-86113750D02*
X88716000Y-89369000D01*
X84540000Y-85637500D02*
X84984500Y-85637500D01*
X107849511Y-111222989D02*
X106384000Y-112688500D01*
X65610000Y-145050000D02*
X71555500Y-139104500D01*
X106384000Y-112688500D02*
X106384000Y-125340875D01*
X93811000Y-97067500D02*
X103336000Y-97067500D01*
D19*
%TO.N,ENC5B*%
X68604250Y-155829000D02*
X96508750Y-155829000D01*
X102287750Y-150050000D02*
X103710000Y-150050000D01*
D20*
X101050000Y-127039500D02*
X101050000Y-121959500D01*
D19*
X65610000Y-150050000D02*
X65610000Y-152834750D01*
X96508750Y-155829000D02*
X102287750Y-150050000D01*
D20*
X101050000Y-121959500D02*
X95843000Y-116752500D01*
D19*
X65610000Y-152834750D02*
X68604250Y-155829000D01*
D20*
%TO.N,KEY10*%
X110739499Y-118948999D02*
X114258000Y-122467500D01*
X108416000Y-111185750D02*
X110739499Y-113509249D01*
X102066000Y-90463500D02*
X102066000Y-94908500D01*
X108416000Y-101258500D02*
X108416000Y-111185750D01*
X99780000Y-88177500D02*
X102066000Y-90463500D01*
X115020000Y-130532000D02*
X114258000Y-129770000D01*
D19*
X118210000Y-131000000D02*
X115060000Y-131000000D01*
D20*
X102066000Y-94908500D02*
X108416000Y-101258500D01*
X114258000Y-122467500D02*
X114258000Y-130278000D01*
X110739499Y-113509249D02*
X110739499Y-118948999D01*
%TO.N,KEY11-POT1*%
X84540000Y-93384500D02*
X83905000Y-94019500D01*
X76920000Y-150145000D02*
X76920000Y-150090000D01*
X82678490Y-95246010D02*
X82678490Y-111081694D01*
X83905000Y-94019500D02*
X83905000Y-93384500D01*
X84540000Y-93257500D02*
X84540000Y-93384500D01*
X83905000Y-94019500D02*
X82678490Y-95246010D01*
X82678490Y-111081694D02*
X84989511Y-113392715D01*
D19*
X74360000Y-152650000D02*
X76920000Y-150090000D01*
X80110000Y-150050000D02*
X76960000Y-150050000D01*
X76920000Y-150145000D02*
X74360000Y-152705000D01*
D20*
X84989511Y-113392715D02*
X84989511Y-133955989D01*
X84989511Y-133955989D02*
X84286000Y-134659500D01*
D19*
X74360000Y-153975000D02*
X74360000Y-152650000D01*
%TO.N,KEY13-POT3*%
X112460000Y-153975000D02*
X110606000Y-155829000D01*
D20*
X94096750Y-135167500D02*
X96986000Y-135167500D01*
X84540000Y-98337500D02*
X88858000Y-102655500D01*
D19*
X110606000Y-155829000D02*
X104418250Y-155829000D01*
D20*
X89112000Y-126150500D02*
X89112000Y-130182750D01*
D19*
X104418250Y-155829000D02*
X101416000Y-152826750D01*
X112460000Y-152780000D02*
X112460000Y-153975000D01*
D20*
X86826000Y-113259648D02*
X86826000Y-123864500D01*
X88858000Y-102655500D02*
X88858000Y-111227648D01*
X88858000Y-111227648D02*
X86826000Y-113259648D01*
D19*
X112460000Y-152780000D02*
X115020000Y-150220000D01*
D20*
X89112000Y-130182750D02*
X94096750Y-135167500D01*
X86826000Y-123864500D02*
X89112000Y-126150500D01*
X115020000Y-150220000D02*
X115020000Y-150090000D01*
D19*
X118210000Y-150050000D02*
X115060000Y-150050000D01*
%TO.N,KEY12-POT2*%
X95970000Y-150090000D02*
X93410000Y-152650000D01*
D20*
X84540000Y-95797500D02*
X83128000Y-97209500D01*
X85439022Y-135030478D02*
X84413000Y-136056500D01*
D19*
X93410000Y-152650000D02*
X93410000Y-153975000D01*
D20*
X83128000Y-97209500D02*
X83128000Y-110895500D01*
X84540000Y-147497125D02*
X84540000Y-140882500D01*
X87710625Y-150667750D02*
X84540000Y-147497125D01*
X93410000Y-152705000D02*
X91372750Y-150667750D01*
X83128000Y-110895500D02*
X85439022Y-113206522D01*
X91372750Y-150667750D02*
X87710625Y-150667750D01*
X85439022Y-113206522D02*
X85439022Y-135030478D01*
%TO.N,SDA-SW*%
X117179000Y-70397500D02*
X119465000Y-70397500D01*
X95970000Y-69127500D02*
X100923000Y-69127500D01*
X100923000Y-69127500D02*
X105876000Y-74080500D01*
X105876000Y-74080500D02*
X113496000Y-74080500D01*
X113496000Y-74080500D02*
X117179000Y-70397500D01*
%TO.N,SCL-SW*%
X119465000Y-67857500D02*
X119592000Y-67857500D01*
X120862000Y-71286500D02*
X116544000Y-75604500D01*
X120862000Y-69127500D02*
X120862000Y-71286500D01*
D19*
X119211000Y-67857500D02*
X117941000Y-69127500D01*
D20*
X103050954Y-81573500D02*
X101431000Y-81573500D01*
X109019954Y-75604500D02*
X103050954Y-81573500D01*
D19*
X117941000Y-69127500D02*
X115020000Y-69127500D01*
D20*
X116544000Y-75604500D02*
X109019954Y-75604500D01*
D19*
X119465000Y-67857500D02*
X119211000Y-67857500D01*
D20*
X119592000Y-67857500D02*
X120862000Y-69127500D01*
%TO.N,Net-(D1-Pad2)*%
X108416000Y-126023500D02*
X107400000Y-125007500D01*
X108416000Y-130362750D02*
X108416000Y-126023500D01*
X115909000Y-140882500D02*
X115909000Y-137855750D01*
X115909000Y-137855750D02*
X108416000Y-130362750D01*
%TO.N,Net-(D2-Pad2)*%
X118576000Y-101639500D02*
X121243000Y-104306500D01*
X121243000Y-104306500D02*
X121243000Y-114212500D01*
X121243000Y-114212500D02*
X116798000Y-118657500D01*
%TO.N,Net-(D3-Pad2)*%
X109813000Y-82589500D02*
X112099000Y-82589500D01*
X112480000Y-96559500D02*
X112480000Y-101512500D01*
X108162000Y-87288500D02*
X108162000Y-84240500D01*
X108162000Y-92241500D02*
X112480000Y-96559500D01*
X112480000Y-101512500D02*
X113877000Y-102909500D01*
X108162000Y-84240500D02*
X109813000Y-82589500D01*
X108162000Y-87288500D02*
X108162000Y-92241500D01*
%TO.N,Net-(D4-Pad2)*%
X100923000Y-82462500D02*
X103125250Y-82462500D01*
X113242000Y-76239500D02*
X118830000Y-81827500D01*
X94573000Y-80303500D02*
X96065250Y-81795750D01*
X103125250Y-82462500D02*
X109348250Y-76239500D01*
X100256250Y-81795750D02*
X100923000Y-82462500D01*
X116798000Y-113704500D02*
X113115000Y-117387500D01*
X96065250Y-81795750D02*
X100256250Y-81795750D01*
X109348250Y-76239500D02*
X113242000Y-76239500D01*
X113115000Y-117387500D02*
X113115000Y-120054500D01*
%TO.N,Net-(D6-Pad2)*%
X87715000Y-123102500D02*
X87715000Y-113006352D01*
X87715000Y-113006352D02*
X89307510Y-111413842D01*
X89307510Y-111413842D02*
X89307510Y-103475990D01*
X89307510Y-103475990D02*
X90382000Y-102401500D01*
X90382000Y-102401500D02*
X94700000Y-102401500D01*
%TO.N,Net-(D7-Pad2)*%
X99907000Y-127039500D02*
X96351000Y-123483500D01*
X97367000Y-136056500D02*
X99907000Y-133516500D01*
X99907000Y-133516500D02*
X99907000Y-127039500D01*
X93176000Y-136056500D02*
X97367000Y-136056500D01*
%TO.N,Net-(D8-Pad2)*%
X67141000Y-138215500D02*
X64220000Y-141136500D01*
X81619000Y-138215500D02*
X67141000Y-138215500D01*
X95335000Y-138215500D02*
X96732000Y-139612500D01*
X81619000Y-138215500D02*
X95335000Y-138215500D01*
%TO.N,Net-(D12-Pad2)*%
X63458000Y-113323500D02*
X68665000Y-118530500D01*
X65109000Y-82589500D02*
X63458000Y-84240500D01*
X63458000Y-84240500D02*
X63458000Y-113323500D01*
%TD*%
M02*
